<svg xmlns="http://www.w3.org/2000/svg" width="20.635" height="23.215" viewBox="0 0 20.635 23.215">
  <path id="Vector" d="M19.624,15.875l1.011,2.935L19.811,19.9H13.765a3.276,3.276,0,0,1-1.013,2.342,3.536,3.536,0,0,1-4.869,0A3.277,3.277,0,0,1,6.872,19.9H.826L0,18.81l1.032-2.934a12.176,12.176,0,0,0,.661-3.93V8.3A8.179,8.179,0,0,1,4.519,2.167,8.291,8.291,0,0,1,7.614.421,8.731,8.731,0,0,1,11.184.044,8.976,8.976,0,0,1,16.777,2.9a8.291,8.291,0,0,1,2.187,5.715v3.313a12.208,12.208,0,0,0,.661,3.947Zm-8.088,5.219a1.556,1.556,0,0,0,.377-.535,1.5,1.5,0,0,0,.118-.636H8.583a1.6,1.6,0,0,0,.137.634,1.652,1.652,0,0,0,.38.535,1.724,1.724,0,0,0,.557.366,1.723,1.723,0,0,0,1.32,0,1.724,1.724,0,0,0,.557-.365ZM2.023,18.256v.02H18.634l-.64-1.846a13.277,13.277,0,0,1-.764-4.463V8.635a6.7,6.7,0,0,0-1.732-4.6,7.241,7.241,0,0,0-4.48-2.322,6.933,6.933,0,0,0-2.846.3A6.773,6.773,0,0,0,5.7,3.4,6.405,6.405,0,0,0,4.024,5.618a6.3,6.3,0,0,0-.6,2.68v3.65a13.815,13.815,0,0,1-.764,4.463l-.64,1.847Z" transform="translate(0 0)" fill="#373334"/>
</svg>
