<svg xmlns="http://www.w3.org/2000/svg" width="11.259" height="16.745" viewBox="0 0 11.259 16.745">
  <g id="Make_Default" data-name="Make Default" transform="translate(0.5)">
    <line id="Line_156" data-name="Line 156" y2="14.823" transform="translate(0 1.422)" fill="none" stroke="#373334" stroke-linecap="round" stroke-width="1"/>
    <g id="Polygon_14" data-name="Polygon 14" transform="translate(10.759) rotate(90)" fill="none" stroke-linecap="round">
      <path d="M4.277,1.872a1,1,0,0,1,1.8,0L9.666,9.326a1,1,0,0,1-.9,1.434H1.591a1,1,0,0,1-.9-1.434Z" stroke="none"/>
      <path d="M 5.177971839904785 2.30600643157959 L 1.59129524230957 9.759296417236328 L 8.764801025390625 9.759056091308594 L 5.177971839904785 2.30600643157959 M 5.177971839904785 1.306001663208008 C 5.537659168243408 1.306001663208008 5.897346973419189 1.494786262512207 6.079051971435547 1.872356414794922 L 9.66599178314209 9.32563591003418 C 9.985502243041992 9.989556312561035 9.501701354980469 10.75929641723633 8.764911651611328 10.75929641723633 L 1.591032028198242 10.75929641723633 C 0.8542413711547852 10.75929641723633 0.3704414367675781 9.989556312561035 0.6899518966674805 9.32563591003418 L 4.276891708374023 1.872356414794922 C 4.458596706390381 1.494786262512207 4.818284511566162 1.306001663208008 5.177971839904785 1.306001663208008 Z" stroke="none" fill="#373334"/>
    </g>
  </g>
</svg>
