<?xml version="1.0" encoding="utf-8"?>
<!-- Generator: Adobe Illustrator 25.2.0, SVG Export Plug-In . SVG Version: 6.00 Build 0)  -->
<svg version="1.1" id="Layer_1" xmlns="http://www.w3.org/2000/svg" xmlns:xlink="http://www.w3.org/1999/xlink" x="0px" y="0px"
	 viewBox="0 0 322 324" style="enable-background:new 0 0 322 324;" xml:space="preserve">
<style type="text/css">
	.st0{display:none;fill:#DCEAFF;}
	.st1{fill:#DCEAFF;}
	.st2{opacity:0.5;fill:#DCEAFF;enable-background:new    ;}
	.st3{opacity:0.5;fill:#8BCE87;enable-background:new    ;}
	.st4{fill:#F8CAA4;}
	.st5{fill:#FDDBBA;}
	.st6{fill:#E4AC83;}
	.st7{fill:#FFF1E3;}
	.st8{fill:#FFFFFF;}
	.st9{fill:#FC7600;}
	.st10{fill:#FF8F20;}
	.st11{fill:#E3A271;}
	.st12{fill:#8BCE87;}
	.st13{fill:#F48F4E;}
	.st14{fill:#FFAE73;}
	.st15{fill:#1E3865;}
	.st16{fill:#25468F;}
	.st17{fill:#EAF2FF;}
	.st18{fill:#E06600;}
	.st19{fill:#E06B00;}
	.st20{fill:#FF912B;}
	.st21{opacity:0.4;fill:#E65F00;enable-background:new    ;}
	.st22{fill:#E65F00;}
	.st23{fill:#C3433B;}
	.st24{fill:#0D458E;}
	.st25{fill:#F9E5D4;}
	.st26{fill:#F7DBC8;}
	.st27{fill:#9BD399;}
	.st28{fill:#73B471;}
	.st29{fill:#63A660;}
	.st30{fill:#FF9D5D;}
	.st31{fill:#0B3563;}
	.st32{fill:#E8F2FA;}
	.st33{fill:#10518A;}
	.st34{fill:#004682;}
	.st35{fill:#042444;}
	.st36{fill:#E06700;}
	.st37{fill:#FF9D40;}
	.st38{fill:#CA3139;}
	.st39{fill:#B13332;}
	.st40{fill:#FB995B;}
	.st41{fill:#FFB600;}
	.st42{fill:#FF9F00;}
	.st43{fill:#3D6AA9;}
	.st44{fill:#FA9332;}
	.st45{fill:#DD7517;}
	.st46{fill:#CDE3FF;}
	.st47{fill:#9C242A;}
	.st48{fill:#F28018;}
	.st49{fill:#458E9C;}
	.st50{fill:#63ACBF;}
	.st51{fill:#C23B35;}
	.st52{fill:#2A539B;}
	.st53{fill:#2B478B;}
	.st54{fill:#4075C1;}
	.st55{fill:#163560;}
	.st56{fill:#ED7D2B;}
	.st57{fill:#F99746;}
	.st58{fill:#D35B31;}
	.st59{fill:#FFB27D;}
	.st60{fill:#E8945B;}
	.st61{fill:#BC3F3F;}
	.st62{fill:#233862;}
	.st63{fill:#ED985F;}
	.st64{fill:#2C3A64;}
</style>
<g id="Layer_2_1_">
	<rect y="0.6" class="st0" width="321.6" height="321.6"/>
	<g>
		<path class="st1" d="M10.5,82.4c0,0,5.5-7.2,18.8-6.4c0,0,19.2-12,39.7-1.6c0,0,21.8-2.6,37.9,2.2c10.8,3.2,14.3,6.6,14.3,6.6
			L10.5,82.4z"/>
		<path class="st1" d="M189.6,99.6c0,0,2.3-3.5,7.6-3.1c0,0,7.8-5.8,16.2-0.8c0,0,8.9-1.3,15.4,1.1c4.4,1.6,5.8,3.2,5.8,3.2
			L189.6,99.6z"/>
		<path class="st1" d="M109.8,40c0,0,4.8-5.6,16.2-5c0,0,16.6-9.3,34.2-1.2c0,0,18.8-2,32.7,1.7c9.3,2.5,12.3,5.1,12.3,5.1L109.8,40
			z"/>
		<path class="st1" d="M317.7,116.6l-83.5-0.5c0,0,4.6-5.4,15.7-4.8c0,0,16.1-9.1,33.3-1.2c0,0,18.3-2,31.8,1.7l0,0
			C316,113.3,316.9,114.9,317.7,116.6z"/>
		<path class="st1" d="M99.6,20.1c0-2,1.6-3.6,3.6-3.6s3.6,1.6,3.6,3.6s-1.6,3.6-3.6,3.6C101.2,23.6,99.6,22,99.6,20.1z"/>
		<path class="st2" d="M85.1,101.7c0,0,3.6-4.7,12.3-4.2c0,0,12.6-7.9,26-1c0,0,14.3-1.7,24.8,1.5c7,2.1,9.4,4.3,9.4,4.3L85.1,101.7
			z"/>
	</g>
</g>
<g id="Layer_1_1_">
	<g>
		<path class="st3" d="M92.8,220c0,0-12.4-1.7-17.2,2.8c-4.8,4.5-2.3,10-9.8,9.8c-7.5-0.3-11.8,10.7-12.3,16.6
			c-0.5,6,2.3,6.7,2.3,6.7l38.5,0.3L92.8,220z"/>
		<path class="st4" d="M308.4,253.1l-291.2-0.2l0.5-113.4l264.3,1.3c0,0.1,26.9,0,26.9,0.1c0,5.9-1.3,86.5-1.1,94.8c0,0,0,1.3,0,2.6
			c0,0.1,0,1.6,0,0.8v6.9L308.4,253.1z"/>
		<path class="st5" d="M85.8,139.8l-30.5-0.1l-0.5,110.5l30.5,0.1L85.8,139.8z"/>
		<path class="st6" d="M308,238.7l-293.7-1.5l-0.1,15.9l293.8,1.5L308,238.7L308,238.7z"/>
		<path class="st5" d="M244.9,140.6l-0.5,110.5l30.5,0.1l0.5-110.5L244.9,140.6z"/>
		<path class="st5" d="M197.7,124.8l-73-0.4l-0.6,127.8l73,0.4L197.7,124.8z"/>
		<path class="st7" d="M113.1,197.1h-10.2v3.7h10.2V197.1z"/>
		<path class="st7" d="M110.9,200.8h-5.7l-0.3,52.6h5.7L110.9,200.8z"/>
		<path class="st6" d="M105.2,203.1c0,0,0.9-1.5,2.8-1.5c2.1,0.1,2.8,1.5,2.8,1.5v-2.4h-5.7L105.2,203.1z"/>
		<path class="st6" d="M113.1,197.1h-10.2v0.6h10.2V197.1z"/>
		<path class="st7" d="M141.8,197.3l-10.2-0.1v3.7h10.2V197.3z"/>
		<path class="st7" d="M139.6,200.9h-5.7l-0.3,52.6h5.7L139.6,200.9z"/>
		<path class="st6" d="M133.9,203.2c0,0,0.9-1.5,2.8-1.5c2.1,0.1,2.8,1.5,2.8,1.5v-2.4h-5.7L133.9,203.2z"/>
		<path class="st6" d="M141.8,197.3h-10.2v0.6h10.2V197.3z"/>
		<path class="st7" d="M190.9,197.5h-10.2v3.7h10.2V197.5z"/>
		<path class="st7" d="M188.7,201.1H183l-0.3,52.6h5.7L188.7,201.1z"/>
		<path class="st6" d="M183,203.5c0,0,0.9-1.5,2.8-1.5c2.1,0.1,2.8,1.5,2.8,1.5v-2.4h-5.7L183,203.5z"/>
		<path class="st6" d="M190.9,197.5h-10.2v0.6h10.2V197.5z"/>
		<path class="st7" d="M222.6,197.7h-10.2v3.7h10.2V197.7z"/>
		<path class="st7" d="M220.4,201.2h-5.7l-0.3,52.6h5.7L220.4,201.2z"/>
		<path class="st6" d="M214.7,203.6c0,0,0.9-1.5,2.8-1.5c2.1,0.1,2.8,1.5,2.8,1.5v-2.4h-5.7L214.7,203.6z"/>
		<path class="st6" d="M222.6,197.7h-10.2v0.6h10.2V197.7z"/>
		<path class="st4" d="M173,253.4l-24.1-0.1l0.1-29.4c0-6.6,5.4-11.8,11.9-11.8h1.1c6.1,0,11.1,5.1,11,11.2V253.4z"/>
		<path class="st6" d="M42.5,176.6l-12.1-0.1l0.1-13.3c0-3.1,2.6-5.7,5.7-5.7h1.1c3,0,5.4,2.5,5.4,5.4L42.5,176.6z"/>
		<path class="st8" d="M37.3,157.1h-1.1c-3.4,0-6.1,2.7-6.1,6.1L30,177l13,0.1l0.1-14.1C43.1,159.8,40.5,157.1,37.3,157.1z
			 M36.2,158h1.1c2.7,0,4.9,2.3,4.9,4.9l-0.1,13.2L30.9,176l0.1-12.9V163C31,160.3,33.3,158,36.2,158z"/>
		<path class="st8" d="M42.4,163.2l-11.9-0.1v0.9l11.9,0.1V163.2z"/>
		<path class="st8" d="M36.8,163.6h-0.7l-0.1,13h0.7L36.8,163.6z"/>
		<path class="st6" d="M33.5,152.5c0,0,2.6-0.9,6.6,0l-1.4,3.4c0,0-1.9-0.2-3.9,0L33.5,152.5z"/>
		<path class="st6" d="M34.4,156.1l-1.5-3c0,0-1.6,0.3-2.2,1l2.5,2.3L34.4,156.1z"/>
		<path class="st6" d="M39.2,156.2l1.4-2.9c0,0,1.4,0.1,2.2,1l-2.5,2.3L39.2,156.2z"/>
		<path class="st6" d="M76,176.8l-12.1-0.1l0.1-13.3c0-3.1,2.6-5.7,5.7-5.7h1.1c3,0,5.4,2.5,5.4,5.4L76,176.8z"/>
		<path class="st8" d="M70.6,157.2h-1.1c-3.4,0-6.1,2.7-6.1,6.1l-0.1,13.8l13,0.1l0.1-14.1C76.4,159.9,73.8,157.4,70.6,157.2z
			 M69.5,158.2h1.1c2.7,0,4.9,2.3,4.9,4.9l-0.1,13.2l-11.2-0.1l0.1-12.9v-0.1C64.4,160.5,66.7,158.1,69.5,158.2z"/>
		<path class="st8" d="M75.9,163.3L64,163.2v0.9l11.9,0.1V163.3z"/>
		<path class="st8" d="M70.2,163.7h-0.7l-0.1,13h0.7L70.2,163.7z"/>
		<path class="st6" d="M67,152.7c0,0,2.6-0.9,6.6,0l-1.4,3.4c0,0-1.9-0.2-3.9,0L67,152.7z"/>
		<path class="st6" d="M67.8,156.3l-1.5-3c0,0-1.6,0.3-2.2,1l2.5,2.3L67.8,156.3z"/>
		<path class="st6" d="M72.6,156.3l1.4-2.9c0,0,1.4,0.1,2.2,1l-2.5,2.3L72.6,156.3z"/>
		<path class="st6" d="M42.3,225l-12.1-0.1l0.1-13.3c0-3.1,2.6-5.7,5.7-5.7h1.1c3,0,5.4,2.5,5.4,5.4L42.3,225z"/>
		<path class="st8" d="M37.1,205.5H36c-3.4,0-6.1,2.7-6.1,6.1l-0.1,13.8l13,0.1l0.1-14.1C42.8,208.1,40.2,205.5,37.1,205.5z
			 M35.9,206.4H37c2.7,0,4.9,2.3,4.9,4.9l-0.1,13.2l-11.2-0.1l0.1-12.9v-0.1C30.8,208.6,33.1,206.4,35.9,206.4z"/>
		<path class="st8" d="M42.2,211.4l-11.9-0.1v0.9l11.9,0.1V211.4z"/>
		<path class="st8" d="M36.6,211.8h-0.7l-0.1,13h0.7L36.6,211.8z"/>
		<path class="st6" d="M33.3,200.9c0,0,2.6-0.9,6.6,0l-1.4,3.4c0,0-1.9-0.2-3.9,0L33.3,200.9z"/>
		<path class="st6" d="M34.2,204.4l-1.5-3c0,0-1.6,0.3-2.2,1l2.5,2.3L34.2,204.4z"/>
		<path class="st6" d="M39,204.4l1.4-2.9c0,0,1.4,0.1,2.2,1l-2.5,2.3L39,204.4z"/>
		<path class="st6" d="M299.3,177.8l-12.1-0.1l0.1-13.3c0-3.1,2.6-5.7,5.7-5.7h1.1c3,0,5.4,2.5,5.4,5.4L299.3,177.8z"/>
		<path class="st8" d="M293.9,158.3h-1.1c-3.4,0-6.1,2.7-6.1,6.1l-0.1,13.8l13,0.1l0.1-14.1C299.7,160.9,297.1,158.3,293.9,158.3z
			 M292.9,159.2h1.1c2.7,0,4.9,2.3,4.9,4.9v13.2l-11.2-0.1l0.1-12.9v-0.1C287.7,161.4,290.1,159.2,292.9,159.2z"/>
		<path class="st8" d="M299.2,164.4l-11.9-0.1v0.9l11.9,0.1V164.4z"/>
		<path class="st8" d="M293.5,164.8h-0.7l-0.1,13h0.8L293.5,164.8z"/>
		<path class="st6" d="M290.3,153.7c0,0,2.6-0.9,6.6,0l-1.4,3.4c0,0-1.9-0.2-3.9,0L290.3,153.7z"/>
		<path class="st6" d="M291.1,157.2l-1.5-3c0,0-1.6,0.3-2.2,1l2.5,2.3L291.1,157.2z"/>
		<path class="st6" d="M296,157.3l1.4-2.9c0,0,1.4,0.1,2.2,1l-2.5,2.3L296,157.3z"/>
		<path class="st6" d="M299,226.1l-12.1-0.1l0.1-13.3c0-3.1,2.6-5.7,5.7-5.7h1.1c3,0,5.4,2.5,5.4,5.4L299,226.1z"/>
		<path class="st8" d="M293.7,206.7h-1.1c-3.4,0-6.1,2.7-6.1,6.1l-0.1,13.8l13,0.1l0.1-14.1C299.5,209.3,296.9,206.7,293.7,206.7z
			 M292.6,207.5h1.1c2.7,0,4.9,2.3,4.9,4.9l-0.1,13.2l-11.2-0.1l0.1-12.9v-0.1C287.5,209.8,289.8,207.5,292.6,207.5z"/>
		<path class="st8" d="M299,212.6l-11.9-0.1v0.9l11.9,0.1V212.6z"/>
		<path class="st8" d="M293.3,213h-0.8l-0.1,13h0.7L293.3,213z"/>
		<path class="st6" d="M290.1,202.1c0,0,2.6-0.9,6.6,0l-1.4,3.4c0,0-1.9-0.2-3.7,0L290.1,202.1z"/>
		<path class="st6" d="M290.9,205.6l-1.5-3c0,0-1.6,0.3-2.2,1l2.5,2.3L290.9,205.6z"/>
		<path class="st6" d="M295.7,205.6l1.4-2.9c0,0,1.4,0.1,2.2,1l-2.5,2.3L295.7,205.6z"/>
		<path class="st6" d="M75.6,225.1L63.5,225l0.1-13.3c0-3.1,2.6-5.7,5.7-5.7h1.1c3,0,5.4,2.5,5.4,5.4L75.6,225.1z"/>
		<path class="st8" d="M70.4,205.6h-1.1c-3.4,0-6.1,2.7-6.1,6.1l-0.1,13.8l13,0.1l0.1-14.1C76.2,208.3,73.6,205.6,70.4,205.6z
			 M69.3,206.5h1.1c2.7,0,4.9,2.3,4.9,4.9l-0.1,13.2L64,224.5l0.1-12.9v-0.1C64.2,208.7,66.5,206.5,69.3,206.5z"/>
		<path class="st8" d="M75.6,211.7l-11.9-0.1v0.9l11.9,0.1V211.7z"/>
		<path class="st8" d="M70,212.1h-0.7l-0.1,13h0.7L70,212.1z"/>
		<path class="st6" d="M66.6,201c0,0,2.6-0.9,6.6,0l-1.4,3.4c0,0-1.9-0.2-3.9,0L66.6,201z"/>
		<path class="st6" d="M67.6,204.6l-1.5-3c0,0-1.6,0.3-2.2,1l2.5,2.3L67.6,204.6z"/>
		<path class="st6" d="M72.4,204.6l1.4-2.9c0,0,1.4,0.1,2.2,1l-2.5,2.3L72.4,204.6z"/>
		<path class="st6" d="M111.4,176.9l-12.1-0.1l0.1-13.3c0-3.1,2.6-5.7,5.7-5.7h1.1c3,0,5.4,2.5,5.4,5.4L111.4,176.9z"/>
		<path class="st8" d="M106.2,157.5h-1.1c-3.4,0-6.1,2.7-6.1,6.1l-0.1,13.8l13,0.1l0.1-14.1C111.9,160.1,109.3,157.5,106.2,157.5z
			 M105,158.3h1.1c2.7,0,4.9,2.3,4.9,4.9l-0.1,13.2l-11.2-0.1l0.1-12.9v-0.1C99.8,160.6,102.2,158.3,105,158.3z"/>
		<path class="st8" d="M111.3,163.5l-11.9-0.1v0.9l11.9,0.1V163.5z"/>
		<path class="st8" d="M105.7,163.9h-0.8l-0.1,13h0.8L105.7,163.9z"/>
		<path class="st6" d="M102.4,152.8c0,0,2.6-0.9,6.6,0l-1.4,3.4c0,0-1.9-0.2-3.9,0L102.4,152.8z"/>
		<path class="st6" d="M103.3,156.5l-1.5-3c0,0-1.6,0.3-2.2,1l2.5,2.3L103.3,156.5z"/>
		<path class="st6" d="M108.1,156.5l1.4-2.9c0,0,1.4,0.1,2.2,1l-2.5,2.3L108.1,156.5z"/>
		<path class="st6" d="M169.4,171.2l-16-0.1l0.1-17.5c0-4.2,3.4-7.5,7.5-7.5h1.4c3.9,0,7.1,3.2,7.1,7.1L169.4,171.2z"/>
		<path class="st8" d="M162.4,145.5H161c-4.5,0-8.1,3.5-8.1,8.1l-0.1,18.1l17.1,0.1l0.1-18.6C170.1,149,166.7,145.5,162.4,145.5z
			 M161,146.6h1.4c3.5,0,6.5,2.9,6.4,6.6l-0.1,17.4l-14.9-0.1l0.1-17c0-0.1,0-0.1,0-0.2C154.1,149.6,157.2,146.6,161,146.6z"/>
		<path class="st8" d="M169.3,153.4l-15.6-0.1v1.1l15.6,0.1V153.4z"/>
		<path class="st8" d="M161.9,153.9h-1.1l-0.1,17.1h1.1L161.9,153.9z"/>
		<path class="st6" d="M182.2,171.4l-11.9-0.1l0.1-13c0-3.1,2.6-5.6,5.6-5.6h1.1c2.9,0,5.2,2.4,5.2,5.3L182.2,171.4z"/>
		<path class="st8" d="M177.1,152.3H176c-3.3,0-6,2.7-6,6l-0.1,13.4l12.7,0.1l0.1-13.8C182.7,154.9,180.2,152.3,177.1,152.3z
			 M176,153.2h1.1c2.7,0,4.8,2.1,4.8,4.8l-0.1,12.9h-11l0.1-12.6v-0.1C171,155.4,173.2,153.2,176,153.2z"/>
		<path class="st8" d="M182.1,158.2l-11.6-0.1v0.8l11.6,0.1V158.2z"/>
		<path class="st8" d="M176.7,158.6H176l-0.1,12.7h0.8V158.6z"/>
		<path class="st6" d="M152.4,171.2l-11.9-0.1l0.1-13c0-3.1,2.6-5.6,5.6-5.6h1.1c2.9,0,5.2,2.4,5.2,5.3L152.4,171.2z"/>
		<path class="st8" d="M147.2,152.2h-1.1c-3.3,0-6,2.7-6,6l-0.1,13.4l12.7,0.1l0.1-13.8C152.9,154.8,150.4,152.2,147.2,152.2z
			 M146.2,153.1h1.1c2.7,0,4.8,2.1,4.8,4.8l-0.1,12.9h-11l0.1-12.6v-0.1C141.1,155.2,143.3,153.1,146.2,153.1z"/>
		<path class="st8" d="M152.2,158l-11.6-0.1v0.8l11.6,0.1V158z"/>
		<path class="st8" d="M146.8,158.4H146l-0.1,12.7h0.8L146.8,158.4z"/>
		<path class="st6" d="M227.3,177.4l-12.1-0.1l0.1-13.3c0-3.1,2.6-5.7,5.7-5.7h1.1c3,0,5.4,2.5,5.4,5.4L227.3,177.4z"/>
		<path class="st8" d="M222,158h-1.1c-3.4,0-6.1,2.7-6.1,6.1l-0.1,13.8l13,0.1l0.1-14.1C227.7,160.7,225.2,158,222,158z
			 M220.9,158.9h1.1c2.7,0,4.9,2.3,4.9,4.9l-0.1,13.2l-11.2-0.1l0.1-12.9v-0.1C215.7,161.1,218.1,158.9,220.9,158.9z"/>
		<path class="st8" d="M227.2,164l-11.9-0.1v0.9l11.9,0.1V164z"/>
		<path class="st8" d="M221.6,164.4h-0.8l-0.1,13h0.8L221.6,164.4z"/>
		<path class="st6" d="M218.3,153.4c0,0,2.6-0.9,6.6,0l-1.4,3.4c0,0-1.9-0.2-3.9,0L218.3,153.4z"/>
		<path class="st6" d="M219.2,157l-1.5-3c0,0-1.6,0.3-2.2,1l2.5,2.3L219.2,157z"/>
		<path class="st6" d="M224,157l1.4-2.9c0,0,1.4,0.1,2.2,1l-2.5,2.3L224,157z"/>
		<path class="st6" d="M266.3,177.7l-12.1-0.1l0.1-13.3c0-3.1,2.6-5.7,5.7-5.7h1.1c3,0,5.4,2.5,5.4,5.4L266.3,177.7z"/>
		<path class="st8" d="M261,158.2h-1c-3.4,0-6.1,2.7-6.1,6.1l-0.1,13.8l13,0.1l0.1-14.1C266.8,160.9,264.3,158.2,261,158.2z
			 M260,159.1h1.1c2.7,0,4.9,2.3,4.9,4.9l-0.1,13.2l-11.2-0.1l0.1-12.9v-0.1C254.7,161.3,257.1,159.1,260,159.1z"/>
		<path class="st8" d="M266.2,164.3l-11.9-0.1v0.9l11.9,0.1V164.3z"/>
		<path class="st8" d="M260.5,164.7h-0.7l-0.1,13h0.8L260.5,164.7z"/>
		<path class="st6" d="M257.3,153.6c0,0,2.6-0.9,6.6,0l-1.4,3.4c0,0-1.9-0.2-3.7,0L257.3,153.6z"/>
		<path class="st6" d="M258.1,157.2l-1.5-3c0,0-1.6,0.3-2.2,1l2.5,2.3L258.1,157.2z"/>
		<path class="st6" d="M263,157.2l1.4-2.9c0,0,1.4,0.1,2.2,1l-2.5,2.3L263,157.2z"/>
		<path class="st6" d="M266.1,226l-12.1-0.1l0.1-13.3c0-3.1,2.6-5.7,5.7-5.7h1.1c3,0,5.4,2.5,5.4,5.4L266.1,226z"/>
		<path class="st8" d="M260.8,206.6h-1.1c-3.4,0-6.1,2.7-6.1,6.1l-0.1,13.8l13,0.1l0.1-14.1C266.5,209.2,263.9,206.6,260.8,206.6z
			 M259.6,207.4h1.1c2.7,0,4.9,2.3,4.9,4.9l-0.1,13.2l-11.2-0.1l0.1-12.9v-0.1C254.5,209.7,256.9,207.4,259.6,207.4z"/>
		<path class="st8" d="M266,212.5l-11.9-0.1v0.9l11.9,0.1V212.5z"/>
		<path class="st8" d="M260.3,212.9h-0.8l-0.1,13h0.8L260.3,212.9z"/>
		<path class="st6" d="M257.1,202c0,0,2.6-0.9,6.6,0l-1.4,3.4c0,0-1.9-0.2-3.9,0L257.1,202z"/>
		<path class="st6" d="M257.9,205.5l-1.5-3c0,0-1.6,0.3-2.2,1l2.5,2.3L257.9,205.5z"/>
		<path class="st6" d="M262.7,205.6l1.4-2.9c0,0,1.4,0.1,2.2,1l-2.5,2.3L262.7,205.6z"/>
		<path class="st9" d="M124.6,140L7.5,139.4l10.2-8.7l106.9,0.5C124.6,131.2,124.6,140,124.6,140z"/>
		<path class="st9" d="M198.3,140.9h117.1l-10.2-8.8H198.3V140.9z"/>
		<path class="st9" d="M284,132c-0.5,2.9-1.2,5.8-1.9,8.8l-84.4-0.4v-8.8L284,132z"/>
		<path class="st7" d="M226.5,193.3l-127.2-0.6v4.3l127.2,0.6V193.3z"/>
		<path class="st10" d="M124.1,120.7h-4.6l42.1-35.3l42.2,35.7L124.1,120.7z"/>
		<path class="st7" d="M99.2,192.7l63.7-11.9l63.6,12.6L99.2,192.7z"/>
		<path class="st4" d="M117.5,192.8l45.4-8.5l45.3,8.9L117.5,192.8z"/>
		<path class="st5" d="M197.7,125.4l-73-0.3v-4.5l36.6-29.8l36.5,30.1L197.7,125.4L197.7,125.4z"/>
		<path class="st11" d="M159.7,99.6c0-1.1,0.9-1.9,2-1.9c1.2,0,1.9,0.9,1.9,2s-0.9,1.9-2,1.9C160.6,101.7,159.7,100.8,159.7,99.6z"
			/>
		<path class="st11" d="M161.2,206.9c1.1,0,1.9-0.9,1.9-1.9c0-1.1-0.9-1.9-1.9-1.9c-1.1,0-1.9,0.9-1.9,1.9S160.1,206.9,161.2,206.9z
			"/>
		<path class="st7" d="M220.8,247.6L100.7,247v1.8l120.1,0.5L220.8,247.6z"/>
		<path class="st6" d="M167.6,136.5l-12.1-0.1l0.1-13.3c0-3.1,2.6-5.7,5.7-5.7h1.1c3,0,5.4,2.5,5.4,5.4L167.6,136.5z"/>
		<path class="st8" d="M167.3,120.1c-1-1.7-2.9-3-5-3h-1.1c-2.2,0-4.2,1.2-5.2,2.9c-0.5,1-0.9,2-0.9,3.2L155,137l13,0.1l0.1-14.1
			C168.1,121.9,167.9,120.9,167.3,120.1z M167.2,136.1L156,136l0.1-12.9V123c0-1.2,0.4-2.1,1.1-3c1-1.3,2.5-2,4.2-2h1.1
			c1.6,0,3.1,0.9,4,2.1c0.5,0.9,0.9,1.8,0.9,2.9v13.1H167.2z"/>
		<path class="st8" d="M167.5,123.1l-11.9-0.1v0.9l11.9,0.1V123.1z"/>
		<path class="st8" d="M161.9,123.5h-0.8l-0.1,13h0.8L161.9,123.5z"/>
		<path class="st6" d="M158.6,112.4c0,0,2.6-0.9,6.6,0l-1.4,3.4c0,0-1.9-0.2-3.7,0L158.6,112.4z"/>
		<path class="st6" d="M159.5,116.1l-1.5-3c0,0-1.6,0.3-2.2,1l2.5,2.3L159.5,116.1z"/>
		<path class="st6" d="M164.3,116.1l1.4-2.9c0,0,1.4,0.1,2.2,1l-2.5,2.3L164.3,116.1z"/>
		<path class="st12" d="M54.3,256.9c0,0-31.3-0.4-43.3-0.5c-0.1-0.5-0.2-0.9-0.2-1.4c-0.1-0.2-0.1-0.5-0.1-0.7
			c-0.3-1.8-2.4-2.6-3.4-3.8c-4.4-5.3-20.4-0.2-20.9-8.5c4.4-15.5,33.4-21.4,40-16.8c7.4,5.3,6.2,13.1,13.4,11
			C46.9,234.1,58.9,242.4,54.3,256.9z"/>
	</g>
	<g>
		<path class="st13" d="M171.5,233.3c0,0-0.5,4.9,0.5,7.5c0.3,0.7,3.3,3.6,3.8,4.6c0,0,0.7-0.6,0.6-0.7c-0.5-0.7-1.1-2.9-2.3-4.4
			c-1.4-1.5,0.3-5.2,0.3-5.2L171.5,233.3z"/>
		<path class="st14" d="M171.9,231.7c-1.3-0.3-2.6-2.3-2.6-2.3l0.4-0.3c0.4,0.4,1.8,1.2,1.8,1.2c0-0.4,0-0.8,0-1.1
			c0.2-2.2,1.1-3,1.3-3.1h0.1c0,0.1,0,0.2,0,0.4C172.8,227.9,172.8,232,171.9,231.7z"/>
		<path class="st14" d="M169.5,229.2c0-0.1,0-0.8-0.2-0.9c-0.2-0.1-0.5-0.4-0.5-0.4c-0.1,0-0.3,0.5-0.2,0.9c0.1,0.3,0.6,0.8,0.6,0.8
			L169.5,229.2z"/>
		<path class="st14" d="M172.5,247.2l0.7-0.1c0,0,1.6-3.4,1.5-5.6c-0.1-0.5,0-1,0.1-1.5c0.2-0.5,0.4-1.2,0.6-1.9
			c0.1-0.4,0.2-0.9,0.3-1.3c0.1-0.6,0.2-1.2,0.3-1.7c0.1-0.9,0.1-1.8-0.1-2.2l-2.9-0.3c0,0-0.3,2.3-0.3,4.7c0,0.1,0,0.3,0,0.4
			c0,1.3,0.2,2.3,0.3,3.2c0,0.3,0,0.6,0,0.9L172.5,247.2z"/>
		<path class="st15" d="M173.8,223.6c0,0,0.7,0.6,0.1,1.3c0,0,0.5,0.1,0.7-0.1c0,0,0,0.1-0.1,0.1c0,0,0.6,0,0.8-0.2s0.1-3.1-1.5-2.8
			c0,0-1.4-0.1-1.3,1.5s-0.4,1.6-0.4,1.6s0.1,0.1,0.2,0.1c0,0,0.1,0,0.1-0.1v0.1c0,0,0.6,0.1,0.9-0.2
			C173.5,224.6,173.9,223.9,173.8,223.6z"/>
		<path class="st14" d="M171.8,227h3.7c-0.3-0.7-0.7-1.2-1-1.2c-0.2,0-0.4-0.6-0.4-1.5H174l-1.2,0.2c0,0,0,0.4,0,0.7s0,0.6-0.1,0.6
			s-0.2,0-0.2,0S172.1,226.3,171.8,227z"/>
		<path class="st13" d="M172.8,224.6c0,0,0,0.4,0,0.7c0.7,0,1-0.6,1.2-1L172.8,224.6z"/>
		<path class="st15" d="M174.2,224.2c0,0,0.4-0.6,0.4-1c0.1-0.3-0.1-1.6-1.4-1.4c0,0-0.4,0-0.7,0.3c-0.3,0.2-0.7,0.6-0.2,1.7
			l0.1,0.4H174.2z"/>
		<path class="st14" d="M172.6,224.9c0,0,1.6,0,1.6-1s0.2-1.6-0.8-1.7c-1-0.1-1.2,0.3-1.3,0.6C172.1,223.2,172.3,224.9,172.6,224.9z
			"/>
		<path class="st15" d="M172.7,222.3c0,0,0.4,1.2,1.1,1.3c0.7,0.2,1,0,1,0s-0.5-0.4-0.6-1.1C174.1,222.4,173,221.8,172.7,222.3z"/>
		<path class="st15" d="M172.8,222.4c0,0-0.3,0.3-0.4,0.5c-0.1,0.2-0.1,0.8-0.3,0.8c0,0-0.3-0.8,0-1.2
			C172.5,222,172.8,222.4,172.8,222.4z"/>
		<path class="st14" d="M177.9,234.4l-0.5,0.1c0,0-1.6-2.5-1.6-3.2c0-0.2-0.2-0.7-0.3-1.2c-0.3-1-0.6-2.2-0.6-2.2l-0.1-0.5l-0.4-1.7
			c0,0,0.8,0.1,1.2,0.3c0.1,0.1,0.3,0.1,0.3,0.2c0.3,0.7,0.6,2.5,0.9,3.8c0.1,0.7,0.2,1.3,0.3,1.4
			C177.1,231.7,177.6,233.6,177.9,234.4z"/>
		<path class="st15" d="M172.7,222.5c0,0,0.3,1.2,1.1,1.6c0,0-0.8-0.8-0.9-1.6C172.9,221.7,172.7,222.5,172.7,222.5z"/>
		<path class="st8" d="M172.8,229.1c-0.1,1.6-0.3,3.2-1,3.1c-0.9-0.1-1.1-0.9-1.1-1.6c0-0.4,0-0.7,0-0.7s0.4,0,0.5-0.1
			c0.3-0.3,0.2-3.2,0.4-3.5s1.2-0.5,1.2-0.5S172.9,227.5,172.8,229.1z"/>
		<path class="st16" d="M176.7,236.5c0,0-0.6,0.2-1.5,0.4c-1.1,0.2-2.6,0.2-4.1-0.4c0,0-0.1-2.3,0.2-3.5s0.5-1.8,0.5-1.8
			s1.3,0.4,2.6,0.1c0.2,0,0.4-0.1,0.6-0.2c0,0,0.8,1.9,1.1,2.8C176.3,234.7,176.7,236.5,176.7,236.5z"/>
		<path class="st8" d="M178.1,232.1c0,0.4-0.4,0.7-0.9,0.8c-0.4,0.1-0.9,0.1-1,0c-0.2-0.2-0.6-1.9-0.8-2.5c0-0.1,0-0.2,0-0.2
			l-0.3,0.8v0.1v0.1c0,0-1.7,0.9-3.2,0.1c0,0-0.6-3.5-0.3-4.1c0.1-0.3,0.8-0.9,1.1-1.2c0.1-0.1,0.1-0.2,0-0.3c0-0.1,0.1-0.2,0.2-0.2
			c0.2,0,0.5,0,0.9-0.1c0.2-0.1,0.4-0.1,0.5-0.3c0,0,0.1,0,0.1,0.1c0,0.2,0.1,0.6,0.2,0.6c0.2,0,1.3,0.1,1.4,0.3
			c0,0,0.3,0.7,0.7,1.6C177.2,229.2,178.1,231.5,178.1,232.1z"/>
		<path class="st17" d="M175.5,230.1l-0.3,0.8v0.1c-0.2,0.1-0.3,0.2-0.5,0.3c-0.5,0.2-0.8-0.9-0.7-1.4c0-0.5,0.8-1.9,1.1-1.9
			C175.2,228,175.5,230.1,175.5,230.1z"/>
		<path class="st18" d="M179,236.4c0-0.2-0.1-0.3-0.3-0.4c-0.3-0.1-0.7-0.2-1.2,0c-0.9,0.3-1,0.8-0.9,1.2s-0.1,1-0.1,1.4
			s0.1,1.5,0.8,1.5c0.6-0.1,2.6-0.6,2.6-0.6s0.4-0.7-0.4-1.7C179.2,237.2,179.1,236.7,179,236.4z"/>
		<path class="st19" d="M178.7,235.9h-0.2c0,0,0-0.1-0.1-0.2s-0.1-0.1-0.3-0.1c-0.1,0-0.2,0.1-0.2,0.1c-0.1,0.1,0,0.2,0,0.2h-0.2
			c0,0,0-0.2,0-0.4c0.1-0.1,0.2-0.2,0.3-0.2c0.2,0,0.3,0,0.4,0.1C178.7,235.7,178.7,235.9,178.7,235.9z"/>
		<path class="st20" d="M180.5,239.3c0,0-2,0.6-2.6,0.6c-0.6,0.1-0.8-1-0.8-1.5c0-0.4,0.2-1.1,0.1-1.4c0-0.1,0-0.2,0-0.2
			c0-0.3,0.2-0.7,0.9-0.9c0.5-0.2,0.9-0.1,1.2,0c0.2,0.1,0.3,0.2,0.3,0.4v0.1c0.1,0.3,0.2,0.8,0.6,1.3
			C180.8,238.6,180.5,239.3,180.5,239.3z"/>
		<path class="st21" d="M177.3,238.5l1.3-0.3c0,0,0.3,0.9-0.3,1.1C177.7,239.5,177.5,239.1,177.3,238.5z"/>
		<path class="st19" d="M177.3,238.5c0,0,0.3,0.3,0.7,0.2s0.6-0.5,0.6-0.5L177.3,238.5z"/>
		<path class="st21" d="M178.9,238.2l1.3-0.3c0,0,0.3,0.9-0.3,1.1C179.1,239.1,179,238.8,178.9,238.2z"/>
		<path class="st19" d="M178.9,238.2c0,0,0.3,0.3,0.7,0.2s0.6-0.5,0.6-0.5L178.9,238.2z"/>
		<path class="st9" d="M179.4,236.3L179.4,236.3c-0.2,0.4-0.5,0.9-1,1c-0.9,0.2-1.4-0.5-1.4-0.5c0-0.3,0.2-0.7,0.9-0.9
			c0.5-0.2,0.9-0.1,1.2,0C179.3,236,179.4,236.2,179.4,236.3z"/>
		<path class="st22" d="M178.5,237.4C178.4,237.4,178.4,237.4,178.5,237.4l-0.1-0.2c0-0.1,0-0.1,0.1-0.1s0.1,0,0.1,0.1L178.5,237.4
			C178.6,237.3,178.6,237.4,178.5,237.4z"/>
		<path class="st14" d="M177.9,234.3c0,0,0.1,0.3,0.3,0.4c0.2,0.1,0.3,0.3,0.3,0.5c0.1,0.3-0.2,0.5-0.4,0.5s-0.4-0.3-0.5-0.9
			l-0.2-0.4L177.9,234.3z"/>
		<path class="st23" d="M173.3,231.6c-1,0-1.4-0.4-1.4-0.4l-0.1-0.5c0,0,1.3,0.8,3.3,0.1v0.4C174.4,231.5,173.8,231.6,173.3,231.6z"
			/>
		<path class="st14" d="M173.2,247.2c0,0-0.1,0.2,0,0.4l-1,0.6l-1.1,0.3l-0.3-0.2c0,0,1.6-0.8,1.7-2
			C172.6,245.2,173.2,247.2,173.2,247.2z"/>
		<path class="st24" d="M172.4,248.4c-0.5,0.1-0.4,0.2-1.1,0.4c-0.7,0.2-1,0-1.1-0.1s0.3-0.3,0.6-0.4c0,0,0.5,0.1,1.1-0.1
			c0.5-0.2,0.9-0.5,1.3-0.6c0,0.1,0.1,0.2,0.1,0.3C173.4,248.3,172.9,248.4,172.4,248.4z"/>
		<path class="st13" d="M177.2,244.9c0.3,0.1,0.1,0.6-0.1,1c-0.3,0.4-0.1,0.4-0.4,1c-0.3,0.6-0.6,0.8-0.7,0.8c-0.1,0,0-0.3,0-0.7
			v-0.1c0.1-0.4-0.1-0.8-0.2-1.2c-0.1-0.4-0.8-1.2-0.8-1.2l0.3-0.9c0,0,0.6,0.7,0.9,1c0.2,0.2,0.4,0.2,0.6,0.3
			C177,244.8,177.1,244.8,177.2,244.9z"/>
		<path class="st24" d="M177,245.8c-0.3,0.4-0.1,0.4-0.4,1c-0.3,0.6-0.6,0.8-0.7,0.8s0-0.3,0-0.7c0,0,0.4-0.3,0.6-0.9
			c0.1-0.5,0.2-1,0.3-1.3c0.1,0,0.2,0,0.3,0.1C177.5,245,177.3,245.4,177,245.8z"/>
		<path class="st15" d="M168.6,227.5v0.5v0.6v0.5h0.9v-0.5V228l0.1-0.5H168.6z"/>
		<path class="st8" d="M168.5,227.6h1.1v-0.2h-1.1V227.6z"/>
		<path class="st8" d="M168.9,227.4l-0.2-0.1v0.1H168.9z"/>
		<path class="st8" d="M168.6,228v0.6h0.9V228H168.6z"/>
		<path class="st14" d="M168.6,228c0,0,0.2-0.2,0.3,0.1c0,0.1-0.2,0.5-0.2,0.5C168.5,228.4,168.5,228,168.6,228z"/>
	</g>
	<g>
		<path class="st25" d="M219.9,256.5l-135.6-0.7v1.8l135.6,0.7V256.5z"/>
		<path class="st26" d="M227.1,258.5l-150.2-0.8v2.6l150.2,0.8V258.5z"/>
		<path class="st27" d="M333.5,262c-0.2,3.3-0.6,6.9-1.2,10.7c-0.1,0.4-0.2,0.7-0.2,1.1c-0.2,1.1-0.4,2.2-0.7,3.2
			c-0.3,1.4-0.7,3-1.1,4.5c-0.1,0.3-0.6,2-1.3,4.1c-1.8,5.6,2.1,41.3-10.8,42.7l-29.6-0.3l-10.9-0.1l-97-0.8l-20.1,1.2l-9.9,2l-73-4
			L46.5,326l-45.9-0.5c-6.4-0.1-11.7-39.1-13.8-47.2c-0.2-0.7-0.4-1.3-0.5-2c-0.6-2.4-1.2-5-1.8-7.9c-0.6-2.8-1.2-5.7-1.9-8.8
			c-0.2-0.7-0.3-1.5-0.5-2.3c-0.6-2.9-1.1-5.8-1.6-9c-0.1-0.3-0.1-0.5-0.2-0.8l352.6,3.1C333.6,254.1,333.7,257.9,333.5,262z"/>
		<path class="st5" d="M157.3,275.8L127,325l18.4,0.1l27.1-47.1L157.3,275.8z"/>
		<path class="st28" d="M314.2,262l-95.6-0.5c0,0-0.8-8.1,6.2-9.6c7.1-1.7,3.3-6.5,8.7-9c5.3-2.5,13-1.4,14.9,4.6
			c1.8,6,7.7,0.6,14.7,0.1c7.1-0.5,9,3.3,10.2,5.4c1.2,2,10.9,3.3,15.5-2.2c4.6-5.4,7.9-6.6,12.8-6.6c1.3,0,2.6,0,3.6,0
			c1.7,0.5,2.4,0.7,3,1.8C310.9,250.7,314.2,252.9,314.2,262z"/>
		<path class="st5" d="M206.2,275.3c0,2.6-19.2,4.7-42.9,4.6s-42.9-2.3-42.9-5c0-2.6,19.2-4.7,42.9-4.6
			C187,270.5,206.2,272.6,206.2,275.3z"/>
		<path class="st5" d="M212.3,276.3c0,3.5-23.1,6.2-51.6,6.1s-51.6-3.1-51.6-6.6s23.1-6.2,51.6-6.1
			C189.3,269.8,212.3,272.8,212.3,276.3z"/>
		<path class="st5" d="M319.4,273c-0.3,1.8-0.7,2.5-1,4.2c0,0.2-0.5,1.4-0.5,1.6H191l7.4-5.8L319.4,273L319.4,273z"/>
		<path class="st5" d="M139.6,271.9v5.5H-8.6c-0.6-1.4-1-3.5-1.4-5.2L139.6,271.9z"/>
		<path class="st28" d="M208.5,273c-1.5,0-2.2-1.8-1.2-2.9c0.7-0.7,1.6-1.3,2.7-1.6c3.1-0.8,3.9,1.6,5.8,1.4
			c1.9-0.2,4.9-1.5,7.8,0.7c2.9,2.2,8.1-1.4,11.7-1c1.2,0.1,2,0.6,2.4,1.1c0.8,0.9,0.2,2.4-1,2.4L208.5,273z"/>
		<path class="st28" d="M176.7,290.8h-4.1l-11.5-0.1c-0.3-0.9-0.4-2-0.2-3.5c0.7-4.6,3.7-7.1,7.6-7c3.9,0.1,6.1,2.5,7.3,4.6
			C176.6,286.4,176.8,289,176.7,290.8z"/>
		<path class="st28" d="M101.6,283.2c0,0-2.2-1.3-1.6-5.3c0.6-3.9,2.9-6.1,5.9-6.1c3.1,0.1,4.8,2.1,5.7,4c0.8,1.9,1,5.6,0.3,6.8
			C111.1,283.8,104.2,284.1,101.6,283.2z"/>
		<path class="st28" d="M112.9,271c0,0-1.5-0.9-1-3.5c0.3-2.6,1.9-4,3.9-4c2,0.1,3.1,1.4,3.7,2.7c0.6,1.3,0.6,3.7,0.1,4.5
			C119.2,271.4,114.6,271.6,112.9,271z"/>
		<path class="st28" d="M139.6,287.9c0,0-0.9-5.3-1.6-4.3C137.3,284.8,139.6,287.9,139.6,287.9z"/>
		<path class="st28" d="M138.9,287.8c0,0-1.7-2.9-2-2.6C136.5,285.5,138.9,287.8,138.9,287.8z"/>
		<path class="st28" d="M140,287.9c0-0.1-0.1-4.3,0.8-3.8C141.9,284.6,140,287.9,140,287.9z"/>
		<path class="st28" d="M137.5,287.8c0,0,1.7-0.8,4.5-0.1c0,0,0.6,0.4,0,0.6C141.2,288.4,136.4,288.5,137.5,287.8z"/>
		<path class="st28" d="M61,284.7l-30.1-0.2c-4.3,0-14.2-0.4-15.6-4.5c-0.1-0.4-0.2-0.7-0.3-1c-0.6-1.8-1.3-4.1-1.9-6.4
			c0,0,11.1-3.6,16.5-0.6c5.2,2.9,3.5,7.1,9.6,6.4c6.1-0.8,15.6-1.8,18.9,1.1C59.9,281.1,60.6,283.1,61,284.7z"/>
		<path class="st28" d="M54.5,279.1c0,0,2-3.2,3.3-2.7c1.2,0.5-2.7,2.7-2.7,2.7H54.5z"/>
		<path class="st28" d="M53.6,278.3c0,0,0.3-2.2,1.3-2c0.8,0.1-0.4,2-0.4,2H53.6z"/>
		<path class="st28" d="M189.5,274.5c0,1.3-11.6,2.4-25.8,2.3s-25.8-1.2-25.8-2.5s11.6-2.4,25.8-2.3S189.5,273.2,189.5,274.5z"/>
		<path class="st29" d="M153.9,274.5c0,0-1.8-1.1-0.8-3.6s3.2-5,7.5-5.4c4.4-0.3,6.8-0.1,9.1,1.6c2.2,1.7,5.3,4,4.3,6.3
			C173.1,275.9,157.5,275.3,153.9,274.5z"/>
		<path class="st30" d="M131.7,261.7c0,0-0.3,0.1-0.4,0.3c-0.1,0.1-0.2,0.3-0.1,0.3s0.3-0.1,0.3-0.1L131.7,261.7z"/>
	</g>
	<g>
		<path class="st31" d="M201.7,229.2c0,0-1.2,0.1-1.8,1.1c-0.5,0.6-0.4,2.3-1,2.9c-0.6,0.6-0.5,1.7,0.3,2.1c0.7,0.5,5,0.8,6.3-0.3
			s-0.5-1.8-0.4-3.6C205.1,230.6,203.9,229,201.7,229.2z"/>
		<path class="st30" d="M197.7,247.2c0,0-0.6,0.6-0.7,0.8c-0.1,0.2-0.3,0.7,0.3,0.7c0.5,0,0.6,0,0.7-0.3c0.1-0.2,0.2-1,0.2-1
			L197.7,247.2z"/>
		<path class="st14" d="M200,236.5c0,0-1.2,0.4-1.6,1.9c-0.4,1.6,0,5-0.4,6.1c-0.3,1.1-0.7,3-0.7,3s0.5,0.4,0.9,0.4
			c0,0,2.3-3.4,2.4-4.3C200.6,242.5,200,236.5,200,236.5z"/>
		<path class="st15" d="M209.1,267.5c0,0,0.7,0.6,0.6,1.1s-0.8,0.8-0.9,1.4c-0.1,0.6-0.5,0.9-0.7,0.9s-1.6,0-1.6,0s-0.3-0.4,0.4-0.6
			c0.6-0.1,0.8-0.8,0.7-1.5c0-0.6,0.1-1.5,0.1-1.5l1.2-0.3L209.1,267.5z"/>
		<path class="st15" d="M202.8,267.8c0,0,0.3,2.9-0.1,3h-4.1c0,0,0-0.5,0.6-0.6s1.8-0.5,2-1.4C201.5,268,202.8,267.8,202.8,267.8z"
			/>
		<path class="st14" d="M205.8,247.5c-0.8-1.9-1.4-2.5-1.3-3c0.1-0.5-0.2-8.2-0.2-8.2c-0.1,0-0.3-0.1-0.4-0.1
			c-0.4-0.1-0.6-0.4-0.7-0.6c-0.2-0.4-0.3-1-0.3-1.8h-0.1l-1.8,0.4c0,0,0,0.6,0,1.1s-0.3,0.9-0.7,1c-0.3,0.1-0.5,0.1-0.5,0.1
			s-0.6,1.9-0.8,3.9c-0.2,1.9,1.2,2.9,0,6.7C197.8,251,206.3,248.5,205.8,247.5z"/>
		<path class="st13" d="M201.1,234.1c0,0,0,0.6,0,1.1c1,0,1.6-0.9,1.7-1.5L201.1,234.1z"/>
		<path class="st14" d="M200.8,234.7c0,0,2.4,0.1,2.4-1.5c0-1.5,0.4-2.5-1.2-2.6c-1.6-0.1-1.8,0.5-1.9,1
			C199.9,232.1,200.1,234.6,200.8,234.7z"/>
		<path class="st31" d="M200.9,230.6c0,0,0.6,1.8,1.7,2c1,0.3,1.5,0,1.5,0s-0.7-0.6-0.9-1.7C203.1,230.9,201.3,229.7,200.9,230.6z"
			/>
		<path class="st31" d="M201.1,230.7c0,0-0.5,0.2-0.7,0.6c-0.2,0.4-0.4,0.8-0.4,1.4c0,0-0.5-1.2,0.1-1.8
			C200.7,230.1,201.1,230.7,201.1,230.7z"/>
		<path class="st32" d="M201.2,233.8c0,0-0.2,0.2-0.5,0.2s-0.4-0.3-0.4-0.3S200.9,233.6,201.2,233.8z"/>
		<path class="st8" d="M205.6,239.7c0,0,0,1.1-0.1,2.2c0,0.6-0.1,1.3-0.2,1.6c-0.3,0.6-0.6,0.6-0.6,0.6l-2.1,0.6l-0.7,0.2l-2.4-0.7
			c0,0-1.1-3-0.6-4.8s1.1-2.9,1.1-2.9s1.9,1.9,4.5-0.2L205.6,239.7z"/>
		<path class="st9" d="M199.6,244.6c0,0-1.2,3.7-1.3,5s2.2,17.9,2.3,18.4c0.1,0.6,0.7,0.9,0.7,0.9s0.3,0.2,0.7,0.1
			c0.6-0.2,0.8-0.4,0.8-0.4s1-11.8,0.5-16c-0.6-4.2-0.6-7.9-0.6-7.9L199.6,244.6z"/>
		<path class="st20" d="M204.6,244.5c0,0,1.7,2.4,1.9,4.1c0.2,1.7,0.2,7.4,0.6,9c0.4,1.6,1.7,4.7,1.7,9.7c0,0-0.2,0.3-0.6,0.5
			c-0.1,0.1-0.3,0.1-0.5,0.1c-0.4,0.1-0.7-0.1-0.8-0.5c-0.9-1.8-3.7-7.7-3.9-8.9c-0.1-0.8-1-6.5-2.9-9.8c-0.5-0.8,0.3-4,0.3-4
			L204.6,244.5z"/>
		<path class="st8" d="M201.2,233.8c0,0,0,0.2-0.5,0.2c0,0-0.4,0-0.4-0.2C200.4,233.7,200.8,233.6,201.2,233.8z"/>
		<path class="st15" d="M199.4,244c0,0,0.5,0.4,1.4,0.4c1.1,0,4-0.3,4-0.3s0.1,0.4,0.1,0.7c0,0-3.4,0.8-5.4,0.1
			C199.5,244.9,199.2,244.5,199.4,244z"/>
		<path class="st31" d="M209.3,246.5l-5.2,1.9l1,2.9l5.2-1.9L209.3,246.5z"/>
		<path class="st33" d="M204.1,248.4c0,0,1.7,1,3.2,0.4c1.6-0.6,1.9-2.3,1.9-2.3L204.1,248.4z"/>
		<path class="st34" d="M204.8,248.4c-0.2,0-0.3-0.1-0.4-0.3c0-0.2,0.1-0.3,0.3-0.4c0.2,0,0.3,0.1,0.4,0.3
			C205.1,248.2,205,248.4,204.8,248.4z M204.7,247.9c-0.1,0-0.2,0.1-0.2,0.2s0.1,0.2,0.2,0.2s0.2-0.1,0.2-0.2
			C205,247.9,204.9,247.8,204.7,247.9z"/>
		<path class="st14" d="M208.2,248.6c0,0,0,0.5,0.1,0.6c0.1,0.2,0.4,0.5,0.4,0.5c0.1,0-0.1-0.5,0-0.5c0,0,0.3,0.7,0.4,0.7
			s0.3-0.8,0.2-1.1c-0.1-0.4-0.4-0.7-0.4-0.7L208.2,248.6z"/>
		<path class="st14" d="M204.5,236.3c0,0,1.3,0.2,2,1.6c0.6,1.1,0.9,4.5,1.3,5.6c0.4,1,0.7,2.9,1,4.4c0,0.1,0.1,0.3,0.1,0.3
			l-0.6,0.4c0.1,0.1-0.2-0.5-0.3-0.6c-1-2.2-1.3-3.2-1.8-5c-0.2-0.6-0.9-2.1-1.2-2.6c-0.7-1.1-1.2-1.6-0.8-2.9L204.5,236.3z"/>
		<path class="st14" d="M196.9,248.4c0,0,0.4-0.3,0.6-0.2c0.3,0.1,0.3,0.5,0.2,0.6s-0.7,0.2-0.8-0.1
			C196.7,248.5,196.9,248.4,196.9,248.4z"/>
		<path class="st8" d="M200.4,236.3c0,0,1.7,0.6,3.7-0.1c0,0,1.3,0.1,1.9,0.7c0.6,0.7,1.3,2.5,1.3,2.5s-0.7,1.5-2.6,1.5
			c-1.9,0-5.9-1.2-5.9-1.2s-0.5,0.2-0.9-0.2c0,0,0.5-2,1-2.6C199.5,236.5,200.4,236.3,200.4,236.3z"/>
		<path class="st35" d="M204.6,247.8c0-0.1-1-4.9-1.3-7.7c-0.2-1.5-0.1-2.5,0-3.1s0.4-1,0.4-1h0.1c0,0-0.6,1.4-0.4,4.1
			c0.3,2.8,1.3,7.6,1.3,7.6L204.6,247.8z"/>
	</g>
	<g>
		<g>
			<path class="st15" d="M77.4,231.7c0,0,1.8-3.5-0.7-4.8c-2.3-1.3-4.1-0.8-5.4,0.8L77.4,231.7z"/>
			<path class="st16" d="M69.3,230.7c0.2-0.3,0.3-0.7,0.3-0.8c-0.2-0.3-0.2-0.7,0-0.8c0.2-0.3,0.5-0.3,1-0.3c0.8,0,2.1,0.5,3.3,1.3
				c1.6,1,2.5,2.3,2.8,3.1c0.2,0.5,1.2,1.2,1.5,1.8c0.3,0,0.5-0.2,0.7-0.5c0.5-0.7-0.2-2-1.6-3.3c-0.7-0.7-1.6-1.5-2.8-2.1
				c-0.8-0.5-1.6-1-2.5-1.3c-2.1-0.8-3.8-1-4.3-0.2C67.3,228,68,229.3,69.3,230.7z"/>
		</g>
		<path class="st36" d="M67.2,250.9l14.4,0.1l0.7-3.4l-14.4-0.1L67.2,250.9z"/>
		<path class="st10" d="M66.9,250.9l14.4,0.1l0.7-3.4l-14.4-0.1L66.9,250.9z"/>
		<path class="st36" d="M77.3,251.4h4c0.2,0,0.3-0.1,0.3-0.3V251h-4.3V251.4z"/>
		<path class="st37" d="M64.3,251.3l13.1,0.1V251l-13.1-0.1V251.3z"/>
		<path class="st37" d="M80.7,251.5l0.2,1l0.7,2.9c0,0.1,0.1,0.1,0.1,0.1c0.1,0,0.1-0.1,0.1-0.1l-0.6-3.4l-0.1-0.4h-0.4V251.5z"/>
		<path class="st36" d="M81,252.5c0-0.5,0.3-0.6,0.3-0.6l-0.1-0.4h-0.4L81,252.5z"/>
		<path class="st37" d="M77.6,251.4l0.2,1l0.7,2.9c0,0.1,0.1,0.1,0.1,0.1c0.1,0,0.1-0.1,0.1-0.1l-0.6-3.4l-0.1-0.4h-0.4V251.4z"/>
		<path class="st36" d="M77.8,252.4c0-0.5,0.3-0.6,0.3-0.6l-0.1-0.4h-0.4L77.8,252.4z"/>
		<path class="st37" d="M65.5,251.4l-0.2,1l-0.7,2.9c0,0.1-0.1,0.1-0.1,0.1c-0.1,0-0.1-0.1-0.1-0.1l0.7-3.4l0.1-0.4h0.3V251.4z"/>
		<path class="st36" d="M65.2,252.3c0-0.5-0.2-0.6-0.2-0.6l0.1-0.4h0.4L65.2,252.3z"/>
		<path class="st37" d="M68.6,251.4l-0.2,1l-0.7,2.9c0,0.1-0.1,0.1-0.1,0.1c-0.1,0-0.1-0.1-0.1-0.1l0.7-3.4l0.1-0.4h0.3V251.4z"/>
		<path class="st36" d="M68.3,252.3c0-0.5-0.2-0.6-0.2-0.6l0.1-0.4h0.4L68.3,252.3z"/>
		<path class="st28" d="M69.8,269c0,0-0.7-4.3-1.3-3.4C68,266.5,69.8,269,69.8,269z"/>
		<path class="st28" d="M69.2,268.9c0,0-1.3-2.3-1.6-2.1C67.3,267.1,69.2,268.9,69.2,268.9z"/>
		<path class="st28" d="M70.1,269c0-0.1-0.1-3.4,0.7-3.1C71.6,266.4,70.1,269,70.1,269z"/>
		<path class="st28" d="M68,268.9c0,0,1.3-0.7,3.6-0.1c0,0,0.5,0.3,0,0.4C71.1,269.5,67.2,269.5,68,268.9z"/>
		<path class="st15" d="M68.7,228.1c0.5-0.8,2.6-0.3,4.8,1c2.1,1.3,3.3,3.1,2.8,4c-0.5,0.8-2.6,0.3-4.8-1
			C69.4,230.8,68.2,228.9,68.7,228.1z"/>
		<path class="st38" d="M79.4,258.6h-0.5c0,0-0.2-7.3-0.7-10.2c-1.2-5.4-4.3-9.7-4.3-9.9l0.8-0.2c0,0,0.7,1,1.5,2.6
			c0.8,1.5,2,4.1,2.5,7.1C79.2,251.2,79.4,258.6,79.4,258.6z"/>
		<path class="st39" d="M72.2,227.9c0,0,2.8-0.5,3.9,1.7c1.3,2.1,1.3,6.1,2.1,7.3c0.8,1.3,2.3,6.6,0.7,7.8
			c-1.6,1.2-11.7-0.2-12.2-0.7s0-6.1,1-7.8C68.9,234.7,66.6,227.1,72.2,227.9z"/>
		<path class="st14" d="M67.9,252.2c-3.1-0.8-6.4-5.6-6.4-5.6l0.8-0.8c0.8,1,4.6,3,4.6,3c0-1,0-1.8,0.2-2.6c0.5-5.4,2.5-7.3,3.1-7.6
			c0.2,0,0.2-0.2,0.2-0.2s0,0,0,0.2s0,0.5,0,1C70.5,242.8,70.5,252.9,67.9,252.2z"/>
		<path class="st14" d="M62.5,245.9c0-0.2-0.2-2-0.5-2.3s-1.2-0.8-1.3-0.8c-0.2,0-1,1.2-0.7,2s1.5,1.8,1.5,1.8L62.5,245.9z"/>
		<path class="st14" d="M74.5,284.1c-0.2,0.8-0.3,1.5-0.7,2.1c0,0.2-0.2,0.3-0.2,0.5v0.2c0,0.2-0.2,0.3-0.2,0.3
			c0,0.2-0.2,0.3-0.2,0.5S73,287.9,73,288c-0.7,1.7-1.2,2.8-1.2,2.8l-1.3-0.2c0,0,0.5-2.1,0.7-5.4c0-0.2,0-0.2,0-0.3
			c0-0.2,0-0.5,0-0.8c0-0.2,0-0.2,0-0.3c0-2.8-0.3-5.9-1.3-9.1c-0.8-2.5-1.5-5-2-6.9c-1.5-6.9-1-11.4-1-11.4l6.9,0.8h0.3
			c0,3.1,0,7.6,0.2,11.1c0,0.7,0,1.2,0,1.7c0,2.1,0,3.6,0,3.6C75.8,276.5,75.3,280.6,74.5,284.1z"/>
		<path class="st14" d="M77.9,255.5c-1.3-3-2-3.8-2-4.8c0-0.7,0.3-1.5,1.2-3.5c0.2-0.5,0.3-1,0.3-1.5c0.7-3.8-1.5-7.9-3-8.1
			c-0.3-0.2-1-1.5-1-3.6h-0.2l-2.8,0.5c0,0,0,0.8,0,1.8c0,0.7,0,1.5-0.2,1.5s-2.5,0.3-2.8,1s0,0.7-0.2,3c-0.2,3.1,2,6.8,0,12.9
			C65.4,261.1,78.7,257.2,77.9,255.5z"/>
		<path class="st40" d="M70.5,234.7c0,0,0,0.8,0,1.8c1.6,0,2.5-1.5,2.8-2.3L70.5,234.7z"/>
		<path class="st14" d="M70,235.5c0,0,3.8,0.2,3.8-2.3s0.5-4-1.8-4.1c-2.5-0.2-2.8,0.7-3.1,1.5C68.7,231.6,69,235.4,70,235.5z"/>
		<path class="st39" d="M70.2,229.1c0,0,1,2.8,2.6,3.1c1.6,0.5,2.3,0,2.3,0s-1.2-1-1.5-2.6C73.6,229.6,71,227.8,70.2,229.1z"/>
		<path class="st39" d="M70.5,229.4c0,0-0.8,0.7-1,1.2c-0.2,0.7-0.3,1.8-0.7,1.8c0,0-0.8-1.8,0.2-3
			C69.9,228.3,70.5,229.4,70.5,229.4z"/>
		<path class="st14" d="M82.8,258.8l-1.2,0.3c0,0-3.6-6.3-3.9-7.8c-0.2-0.5-0.3-1.7-0.7-2.8c-0.7-2.5-1.5-5.4-1.5-5.4l-0.3-1.2
			l-1-4.1c0,0,1.8,0.2,2.8,0.7c0.3,0.2,0.7,0.3,0.7,0.5c0.8,1.7,1.5,6.1,2,9.2c0.3,1.7,0.5,3.1,0.7,3.3
			C80.9,252.2,82,256.7,82.8,258.8z"/>
		<path class="st39" d="M70.4,229.4c0,0,0.7,3,2.6,3.8c0,0-2-1.8-2.1-3.6C70.7,227.6,70.4,229.4,70.4,229.4z"/>
		<path class="st14" d="M78.4,283.4c-0.5,4.3-2.1,7.1-2.1,7.1l-0.7,0.5c0,0-0.5-3.1-0.8-6.8c-0.3-3.5-0.8-7.1-1.5-8.1
			c-0.8-1.7-1.5-5.1-2-8.6c-0.7-5.9-1-12.4-1-12.4l7.1-0.3c0.7,1.2,1,3.1,1,5.4c0,2.3-0.2,5-0.5,7.4c-0.3,3.3-0.8,6.1-1,6.8v0.2
			C78.6,277.5,78.7,280.6,78.4,283.4z"/>
		<path class="st41" d="M65.2,249.4c0.2,1.5,0.7,3.5,2.6,3.6c0.7,0.2,1.3-0.5,1.6-1.7c0.5-1.5,0.7-3.6,0.8-5.8c0.2-2.1,0-4.1,0-5.6
			c-0.8-0.2-2.5-0.8-3-1c-0.2,0.3-0.3,2.6-0.3,4.6c-0.2,1.8-0.3,3.6-0.7,4c-0.2,0.2-1.2,0.2-1.2,0.2S65.2,248.6,65.2,249.4z"/>
		<path class="st42" d="M70.5,245.6c-0.2,4-0.8,7.8-2.5,7.4c-2.1-0.3-2.6-2.3-2.6-3.6c0.5,0,1.5-0.2,1.8-0.7
			c0.5-0.8,2.1-5.8,2.1-5.8S69.9,244.1,70.5,245.6z"/>
		<path class="st16" d="M68.2,250.9c0,0,4.1,1.2,7.7-0.2c0,0,2,4.3,2.5,6.1s4.6,25.3,4.6,25.3s-9.2,2.6-15.3,0.3
			c0,0-1.6-25.1-0.8-27.7C67.9,252.2,68.2,250.9,68.2,250.9z"/>
		<path class="st41" d="M67.1,243.8c0.3,3,1.2,7.1,1.2,7.1c0.5,0.3,1,0.5,1.3,0.5c3.3,0.8,6.4-0.7,6.4-0.7v-0.2c0-0.2,0-0.2,0-0.3
			c0-0.2,0.8-2,0.8-2s0,0.2,0,0.3c0.3,1.3,1.2,5.8,1.8,6.1c0.3,0.2,1.5,0.2,2.5,0c1.2-0.3,2.1-0.8,2.1-1.8c0-1.3-2.1-6.9-3.8-10.7
			c-0.8-2.1-1.3-3.5-2-3.6c0,0-4.4,1.8-6.9,1.5c-0.8-0.2-2.5-0.8-3-1c-0.3,0.5-0.3,1.5-0.3,1.8C67.1,241.5,67.1,242.5,67.1,243.8z"
			/>
		<path class="st42" d="M76.9,248.4c0,0-0.8,1.8-0.8,2c0,0,0,0.2,0,0.3c-0.3,0.3-0.8,0.5-1.3,0.7c-1.3,0.3-1.8-2.1-1.8-3.3
			c0.2-1.3,2-4.8,2.6-4.8C76.1,243,76.9,248.4,76.9,248.4z"/>
		<path class="st31" d="M71.5,251.7c-2.3,0-3.3-0.7-3.5-0.8l-0.2-1.2c0,0,3.1,2,8.1,0.2l-0.2,0.8C74.1,251.6,72.8,251.7,71.5,251.7z
			"/>
		<path class="st42" d="M83.3,253c0,1-1,1.7-2.1,1.8c1.5-1.8-1.6-12.4-1.8-12.7C81,246.1,83.3,251.7,83.3,253z"/>
		<path class="st15" d="M72.6,291.7h-0.8c-0.3,0-0.5-0.2-0.7-0.2c-0.5,0-0.7,0.2-0.7,0.2h-3.3c-0.2-0.2,0-0.3,0-0.7
			c0-0.2,0.2-0.2,0.3-0.3c0.3-0.2,1-0.2,1.6-0.8c0.3-0.3,1.8-1.2,1.8-1.2s0.2,0,0.8,0.7c0.3,0.3,0.8-0.3,0.8-0.3s0.2,0.2,0.2,0.3
			c0,0.2,0.2,0.3,0,0.5c0,0.3,0.2,0.8,0.2,1.3c0,0.2,0.2,0.3,0.2,0.3S73.5,291.7,72.6,291.7z"/>
		<path class="st43" d="M73,289.3c-0.2,0.2-0.7,0.3-0.8,0.5c-0.3,0-1-0.8-1-0.8s0.2,0,0.8,0.7c0.3,0.3,0.8-0.3,0.8-0.3
			S72.8,289.2,73,289.3z"/>
		<path class="st43" d="M72.6,291.7h-0.8c-0.3,0-0.5-0.2-0.7-0.2c-0.5,0-0.7,0.2-0.7,0.2h-3.3c-0.2-0.2,0-0.3,0-0.7
			c0.2-0.2,0.2,0.3,0.2,0.5c0,0,2.8,0,3,0c0.2-0.2,0.7-0.3,1.3-0.2c0.5,0.2,1.3-0.2,1.6-0.3c0,0.2,0.2,0.3,0.2,0.3
			S73.5,291.7,72.6,291.7z"/>
		<path class="st15" d="M76.9,291.8h-0.8c-0.3,0-0.5-0.2-0.7-0.2c-0.5,0-0.7,0.2-0.7,0.2h-3.3c-0.2-0.2,0-0.3,0-0.7
			c0-0.2,0.2-0.2,0.3-0.3c0.3-0.2,1-0.2,1.6-0.8c0.3-0.3,1.8-1.2,1.8-1.2s0.2,0,0.8,0.7c0.3,0.3,0.8-0.3,0.8-0.3s0.2,0.2,0.2,0.3
			c0,0.2,0.2,0.3,0,0.5c0,0.3,0.2,0.8,0.2,1.3c0,0.2,0.2,0.3,0.2,0.3S77.6,291.7,76.9,291.8z"/>
		<path class="st43" d="M77.1,289.3c-0.2,0.2-0.7,0.3-0.8,0.5c-0.3,0-1-0.8-1-0.8s0.2,0,0.8,0.7c0.3,0.3,0.8-0.3,0.8-0.3
			S77.1,289.2,77.1,289.3z"/>
		<path class="st43" d="M76.9,291.8h-0.8c-0.3,0-0.5-0.2-0.7-0.2c-0.5,0-0.7,0.2-0.7,0.2h-3.3c-0.2-0.2,0-0.3,0-0.7
			c0.2-0.2,0.2,0.3,0.2,0.5c0,0,2.8,0,3,0c0.2-0.2,0.7-0.3,1.3-0.2c0.5,0.2,1.3-0.2,1.6-0.3c0,0.2,0.2,0.3,0.2,0.3
			S77.6,291.7,76.9,291.8z"/>
		<path class="st14" d="M82.7,258.6c0,0,0.3,0.8,0.7,1c0.3,0.2,0.7,0.8,0.8,1.2c0.2,0.8-0.5,1.3-1,1.3s-0.8-0.7-1.2-2.1l-0.5-1
			L82.7,258.6z"/>
		<path class="st44" d="M60.8,241.7v0.5L61,244v1.2h2.3l0.2-1.2l0.2-1.7v-0.7L60.8,241.7L60.8,241.7z"/>
		<path class="st45" d="M60.6,241.6h3.1v-0.3h-3.1V241.6z"/>
		<path class="st45" d="M60.8,242.1L61,244h2.5l0.2-1.7L60.8,242.1z"/>
		<path class="st14" d="M60.5,242.8c0,0,0.5-0.7,1.2-0.2c0.5,0.5,0,1.5-0.5,1.8s-0.7,0.5-0.7,0.5V242.8z"/>
		<path class="st38" d="M73,258.6h0.5c0,0-0.8-7.3-0.5-10.2c0.5-5.6,3-10.2,3-10.4l-0.8-0.2c0,0-0.5,1-1.2,2.8
			c-0.5,1.7-1.5,4.5-1.6,7.4C72.2,251.2,72.8,258.6,73,258.6z"/>
		<path class="st46" d="M77.9,257.2c0,0-0.3-1-1-1.3l-3.3,0.7c0,0,0.8,0.8,0.8,1.3L77.9,257.2z"/>
		<path class="st47" d="M73.8,262.6l5.6-1c0.3,0,0.5-0.3,0.3-0.5l-0.7-3.8c0-0.3-0.3-0.5-0.5-0.3l-5.6,1c-0.3,0-0.5,0.3-0.3,0.5
			l0.7,3.8C73.3,262.6,73.5,262.8,73.8,262.6z"/>
		<path class="st48" d="M76,258.5h2.6V255H76V258.5z"/>
		<path class="st44" d="M76.1,258.5h2.6V255h-2.6V258.5z"/>
		<path class="st49" d="M76.5,259.8l2.1-1.6l-2.1-2.8l-2.1,1.6L76.5,259.8z"/>
		<path class="st50" d="M76.7,259.7l2.1-1.6l-2.1-2.8l-2.1,1.6L76.7,259.7z"/>
		<path class="st38" d="M75.1,262.4l5.4-1c0.3,0,0.5-0.3,0.5-0.7l-0.7-3.5c0-0.3-0.3-0.5-0.7-0.5l-5.4,1c-0.3,0-0.5,0.3-0.5,0.7
			l0.7,3.5C74.5,262.3,74.8,262.4,75.1,262.4z"/>
	</g>
	<g>
		<g>
			<path class="st31" d="M37.3,238.9c-0.2-0.5,5.3-2.1,5.4,2.5c0,0,10.4-0.2,5.4-5.9c-1.6-2-1.5-3.6-1.5-5.3c0-1.5-1-6.1-4.9-5.6
				c0,0-1-0.5-2.3,0.2C36.6,226.2,30,240.5,37.3,238.9z"/>
			<path class="st14" d="M53.1,244.1c0,0,0.7-1,1.2-1s1.5-0.3,1.5-0.2c0,0.2-0.7,0.2-0.8,0.3c0,0.2,1,0.3,1.2,0.3c0.3,0,1,0,1,0.2
				s-1.2,0.7-2,0.7c-0.8-0.2-1.8,0.2-1.8,0.2L53.1,244.1z"/>
			<path class="st5" d="M43.2,244.4c0,0,0.3,0.7,1,1.7c0.8,1,2,2.1,3.6,2.5c0.8,0.2,1.5,0,2.1-0.3c2-0.8,3.3-2.8,3.3-2.8
				c0.3-1-0.2-1.5-0.2-1.5s-3.8,0.8-4.1,0.7c-0.3-0.2-2.5-6.3-3-7.1s-2.1-1.2-2.1-1.2L43.2,244.4z"/>
			<path class="st4" d="M44.2,245.9c0.8,1,2,2.1,3.6,2.5c0.8,0.2,1.5,0,2.1-0.3c0,0-2,0.2-2.6-1.2c-0.8-1.3-1.6-3.6-2.6-2.8
				C44,244.4,44,245.2,44.2,245.9z"/>
			<path class="st15" d="M28.7,285.5c0,0-1.2,1-1,1.8s1.3,1.3,1.5,2.1c0.2,1,0.7,1.5,1.2,1.5s2.5,0,2.5,0s0.3-0.7-0.5-0.8
				c-1-0.2-1.3-1.3-1.2-2.3c0-1,0-2.3,0-2.3l-2-0.5L28.7,285.5z"/>
			<path class="st15" d="M38.6,286c0,0-0.5,4.5,0,4.8h6.6c0,0,0-0.8-1-1s-3-0.8-3.1-2.1C40.6,286.3,38.6,286,38.6,286z"/>
			<path class="st14" d="M34.1,253.7c1.3-3,2.1-3.8,2-4.8c-0.2-0.7,0.5-13,0.5-13c0.2,0,0.5-0.2,0.7-0.2c0.5-0.2,1-0.5,1.2-1
				c0.2-0.7,0.5-1.7,0.5-2.8h0.2l3,0.7c0,0,0,1,0,1.8s0.5,1.5,1.2,1.7c0.3,0.2,0.7,0.2,0.7,0.2s1,3,1.2,6.1s-2,4.5,0,10.7
				C46.8,259.4,33.3,255.3,34.1,253.7z"/>
			<path class="st13" d="M42,232.5c0,0,0,1,0,1.8c-1.6,0-2.5-1.5-2.8-2.3L42,232.5z"/>
			<path class="st14" d="M42.5,233.4c0,0-3.8,0-3.8-2.3c0-2.5-0.5-4,2-4.1c2.5-0.2,3,0.8,3.1,1.7C44,229.2,43.5,233.4,42.5,233.4z"
				/>
			<path class="st31" d="M42.4,226.7c0,0-1,2.8-2.6,3.1s-2.3,0-2.3,0s1.3-1,1.5-2.6C38.9,227.2,41.5,225.4,42.4,226.7z"/>
			<path class="st31" d="M42.2,227.1c0,0,0.8,0.3,1.2,0.8c0.3,0.5,0.5,1.3,0.5,2.1c0,0,0.8-2,0-3C42.7,225.9,42.2,227.1,42.2,227.1z
				"/>
			<path class="st32" d="M41.7,231.9c0,0,0.3,0.3,0.8,0.3s0.7-0.3,0.7-0.3S42.2,231.5,41.7,231.9z"/>
			<path class="st5" d="M33.8,241.3c0,0-0.2,1.3,0,3c0,1.2,1.2,2.6,1.3,3c0.3,1,0.8,1,0.8,1l3.5,0.8l1.2,0.3l3.8-1.2
				c0,0,1.8-4.8,1.2-7.6c-0.7-2.8-1.6-4.6-1.6-4.6s-3.1,3-7.1-0.3L33.8,241.3z"/>
			<path class="st4" d="M34.8,244.7c0,1.2,0.2,2.1,0.3,2.5c0.3,1,0.8,1,0.8,1l3.5,0.8l1.5-0.5c0,0-4.9-0.8-4.4-5.1L34.8,244.7z"/>
			<path class="st9" d="M44.2,249c0,0,1.8,5.9,2,7.9s-3.8,28.4-3.9,29.4c-0.2,0.8-1.2,1.5-1.2,1.5s-0.5,0.3-1.2,0.2
				c-1-0.3-1.3-0.7-1.3-0.7s-1.3-18.8-0.3-25.6c1-6.8,1-12.5,1-12.5L44.2,249z"/>
			<path class="st20" d="M36.1,248.9c0,0-3,3.8-3.1,6.4c-0.3,2.6-0.5,11.7-1.2,14.4c-0.7,2.5-2.8,7.4-2.8,15.4c0,0,0.2,0.5,0.8,0.7
				c0.2,0,0.5,0.2,0.8,0.2c0.5,0.2,1.2-0.2,1.3-0.7c1.5-2.8,6.1-12,6.3-14c0.2-1.3,1.6-10.4,4.8-15.5c0.8-1.3-0.5-6.3-0.5-6.3
				L36.1,248.9z"/>
			<path class="st8" d="M41.7,231.9c0,0,0,0.3,0.8,0.2c0,0,0.7,0,0.5-0.3C43,231.9,42.5,231.5,41.7,231.9z"/>
			<path class="st15" d="M44.5,248.2c0,0-0.8,0.7-2.3,0.7c-1.8,0-6.3-0.5-6.3-0.5s-0.2,0.5-0.2,1.2c0,0,5.4,1.5,8.6,0.3
				C44.3,249.7,44.7,248.9,44.5,248.2z"/>
			<path class="st8" d="M41.9,249.4c0-0.5,0.3-1,0.8-1s0.8,0.5,0.8,1s-0.3,1-0.8,1S41.9,250,41.9,249.4z M42,249.4
				c0,0.3,0.2,0.7,0.5,0.7s0.5-0.3,0.5-0.7c0-0.3-0.2-0.7-0.5-0.7C42.4,248.7,42,249,42,249.4z"/>
			<path class="st51" d="M30.1,249.2l5.5,4.9l6.6-7.5l-5.5-4.9L30.1,249.2z"/>
			<path class="st14" d="M37.3,249.2c0,0,2,0.3,2,0.7c0,0.5-0.5,1.5-0.8,1.5s-1.6-1.3-1.6-1.3L37.3,249.2z"/>
		</g>
		<path class="st5" d="M37.6,235.6c0,0-2.8,0.2-3.8,2.6c-1,2.5-3.1,6.8-3.1,7.6c0,0.7,1.2,3,7.1,4.3c0,0,0.7-0.7,0.7-1.2
			c0,0-3.6-3.3-3.6-3.6c0-0.7,0.7-1.7,3.9-5C39.4,239.6,37.6,235.6,37.6,235.6z"/>
	</g>
	<g>
		<path class="st52" d="M246.4,238.1c1.6-0.5,2.7,0.1,2.7,0.1c4.5,0.2,4.7,4.9,4.1,6.6c-0.7,2.4,1.9,4.4-1,5.4
			c-3.4,1.1-6.2-0.7-6-0.1C235.5,251,242.9,239.3,246.4,238.1z"/>
		<path class="st53" d="M251.1,260.9c0,0,0.4,0.9,1.2,1.8c0.9,1.2,5.9-1.6,5.4-1.8c-0.4-0.2-2.8-7.1-3.8-8.3
			c-0.9-1.1-2.2-1.4-2.2-1.4L251.1,260.9z"/>
		<path class="st54" d="M234.5,309.5c0,0-1.4,1.3-1.1,2.1c0.3,0.9,1.5,1.5,1.7,2.6s0.8,1.7,1.4,1.7c0.6,0,2.8,0,2.8,0s0.4-0.8-0.6-1
			c-1.1-0.2-1.5-1.5-1.4-2.7s-0.1-2.8-0.1-2.8l-2.3-0.5L234.5,309.5z"/>
		<path class="st54" d="M246,310c0,0-0.5,5.3,0.1,5.6h7.6c0,0,0-0.9-1.2-1.1s-3.4-0.9-3.7-2.5C248.4,310.4,246,310,246,310z"/>
		<path class="st53" d="M240.1,257.3c0,0-0.1,1.6,0,3.6c0.1,1.3,1.4,3,1.5,3.4c0.5,1.1,1,1.2,1,1.2l4,1l1.4,0.3l4.4-1.3
			c0,0,2-5.7,1.2-8.9c-0.8-3.2-2.1-5.4-2.1-5.4s-3-0.7-8.3-0.3L240.1,257.3z"/>
		<path class="st55" d="M239.8,260.9c0.1,1.3,1.7,3,1.9,3.4c0.5,1.1,1,1.2,1,1.2l4,1l1.1-1.5c0,0-6.5-1.8-5.3-7.6L239.8,260.9z"/>
		<path class="st56" d="M252.2,266.4c0,0,2.2,6.9,2.3,9.3s-4.2,33.5-4.4,34.6c-0.2,1-1.4,1.7-1.4,1.7s-0.6,0.3-1.4,0.1
			c-1.1-0.3-1.5-0.7-1.5-0.7s-1.7-22.2-0.7-30.1c1.1-7.9,1.1-14.8,1.1-14.8h6V266.4z"/>
		<path class="st57" d="M242.9,266.2c0,0-3.4,4.6-3.7,7.6c-0.3,3.1-0.5,13.9-1.2,16.9s-3.1,8.8-3.1,18.1c0,0,0.3,0.5,1,0.8
			c0.3,0.1,0.6,0.2,0.9,0.3c0.6,0.2,1.3-0.2,1.6-0.8c1.7-3.4,6.9-14.2,7.2-16.5c0.2-1.6,1.9-12.2,5.5-18.4c0.9-1.5-0.5-7.4-0.5-7.4
			L242.9,266.2z"/>
		<path class="st55" d="M252.6,265.4c0,0-0.9,0.7-2.6,0.7c-2.1,0-7.3-0.5-7.3-0.5s-0.2,0.7-0.2,1.3c0,0,6.3,1.6,10,0.2
			C252.4,267.2,252.9,266.3,252.6,265.4z"/>
		<g>
			<path class="st8" d="M250.4,267.9c0.5,0,1-0.5,1-1.1s-0.4-1.1-1-1.1c-0.5,0-1,0.5-1,1.1C249.5,267.5,249.9,267.9,250.4,267.9z
				 M250.4,266.1c0.4,0,0.6,0.3,0.6,0.8c0,0.4-0.3,0.8-0.6,0.8c-0.4,0-0.6-0.3-0.6-0.8C249.8,266.4,250.1,266.1,250.4,266.1z"/>
		</g>
		<polygon class="st58" points="245.9,269.9 255.4,270 260.1,258.9 250.6,258.8 		"/>
		<path class="st59" d="M247.1,264.9l0.7-0.9c0,0,0.5-0.4,0.8-0.5s1.1-0.5,1.1-0.4c0.1,0.1-0.6,1-0.6,1l0,0c0.7,0.5,2.5,0.1,2.8,0.3
			c0.3,0.3-0.4,0.9-0.7,1.2c-0.3,0.3-1.3,0.9-2.1,0.6c-0.6-0.2-1.5-0.4-1.5-0.4L247.1,264.9z"/>
		<path class="st59" d="M259.4,260.8c0,0-0.6-0.7-1-0.4c-0.4,0.3,0.1,2,0.5,1.8C259.2,262.1,259.6,261,259.4,260.8z"/>
		<path class="st53" d="M243.3,250.9c0,0-3.2,0.2-4.4,3.2c-1.2,3-3.5,7.9-3,10c0.2,0.8,2.5,3.7,12.2,1.9c0,0-0.1-1-0.7-1.5
			c0,0-6.8-2.2-6.8-2.6c0-0.8,0.9-1.6,4.7-5.4C246.3,255.4,243.3,250.9,243.3,250.9z"/>
		<path class="st59" d="M245.4,251c-0.1-0.1,0-0.5,0.2-1.3c0.1-0.7,0.4-1.7,0.4-2.9h0.2l3.4,0.6c0,0-0.1,0.9-0.1,1.8l0,0
			c0,0.7,0.2,1.9,0,2C248.1,252,245.8,251.5,245.4,251z"/>
		<path class="st60" d="M249.5,247.4c0,0-0.1,1.3-0.1,2.2c-1.9,0-2.9-1.9-3.3-2.7L249.5,247.4z"/>
		<path class="st59" d="M249.7,249c0,0-4.4-0.6-4-3.4c0.4-2.8,0.2-4.7,3-4.5c2.8,0.3,3.2,1.4,3.3,2.4S250.9,249.1,249.7,249z"/>
		<path class="st52" d="M250.8,241.3c0,0-1.7,3.1-3.7,3.3c-1.9,0.2-2.7-0.4-2.7-0.4s1.6-0.9,2.2-2.9
			C246.7,241.3,250.1,239.6,250.8,241.3z"/>
		<path class="st52" d="M250.4,241.6c0,0,0.8,0.5,1.1,1.2s0.4,1.6,0.2,2.7c0,0,1.3-2.1,0.4-3.5C251.3,240.4,250.4,241.6,250.4,241.6
			z"/>
	</g>
	<g>
		<polygon class="st59" points="270.3,307.3 269.7,309.8 268.9,313.1 266.5,313.1 266.3,310 266.2,307.5 		"/>
		<path class="st61" d="M278,253.5c0,0,1.9-2.1,3.2-0.4c1.3,1.6,2.6,2.7,4.6,4c1.9,1.2-1.7,11-4.1,10.8
			C279.3,267.6,269.4,259.9,278,253.5z"/>
		<path class="st56" d="M268.4,252.5c0.5-0.4,4.9-1.9,9.2-0.4c4.3,1.5-3.3,5.7-3.3,5.7l-2.5,0.1L268.4,252.5z"/>
		<path class="st62" d="M265.5,316.7c0,0,0-1.2,0.2-1.6s0.8-2,0.8-2h2.4c0,0,0.5,1.5,0.5,2s0,1.6,0,1.6H265.5z"/>
		<path class="st62" d="M281,316.7c0,0,0-1.2-0.2-1.6s-0.8-2-0.8-2h-2.4c0,0-0.5,1.5-0.5,2s0,1.6,0,1.6H281z"/>
		<path class="st59" d="M271.2,249.7c0,0-0.1,2.7-0.4,3.8l-2.7,5.8l10.1-2.4l-2.4-3.3c0,0-0.7-3.6-0.3-4.9
			C275.9,247.4,271.2,249.7,271.2,249.7z"/>
		<path class="st63" d="M271.2,250.1c0,0,0.8,1.9,2.3,1.9s1.9-1.8,1.9-1.8L271.2,250.1z"/>
		<path class="st64" d="M270.3,248.5c0,0-0.5-2.4-0.8-3.2c-0.3-0.7-0.6-4,3.1-4.2c0,0,1.4,0.2,2.2-0.3c0,0,0,0.5-0.2,0.7
			c0,0,1.3-0.3,2.3,0.8s-0.7,5.1-0.6,6L270.3,248.5z"/>
		<path class="st59" d="M273.4,251.2c-1.1,0-3.1-1.5-3.1-3.3v-2.8c0-0.7,0.5-1.2,1-1.2h4.2c0.6,0,1,0.5,1,1.2v2.7
			C276.5,249.6,274.6,251.2,273.4,251.2z"/>
		<path class="st64" d="M270.3,246.6c0,0,0-1.7,1.3-2s4.3,0.8,4.8-0.4c0.4-1.2-5.8-1.2-6.1-0.4C269.9,244.6,270.3,246.6,270.3,246.6
			z"/>
		<path class="st53" d="M274.9,275.9c0.7-2.1,0.7,8.6-2,20.7c-0.4,1.8-1.3,6.3-2,10.6h-5.5c-0.1-3.5-0.4-8.3-0.7-12
			c-0.7-11.4,1.1-19.9,1.1-19.9L274.9,275.9z"/>
		<path class="st53" d="M282,295.3c-0.1,3.5-0.8,8.1-0.8,11.5h-5.6c-0.4-2.5-1-5-1.4-7c-0.3-1.5-0.5-2.7-0.5-3.4
			c0-1.5-0.9-5.7-1.5-9.5l0,0c0-0.1,0-0.3-0.1-0.4c-0.7-5.3-0.5-10.5-0.5-10.5l9.4-0.6C281.1,275.3,282.2,286,282,295.3z"/>
		<path class="st62" d="M265.1,279.7c0,0,2.1,2.6,7.9,2.2s8.5-1.4,8.5-1.4L265.1,279.7z"/>
		<path class="st57" d="M281.5,280.6c-1.9,0.3-14.7,0.9-16.4-0.8c-1.7-1.8,2.8-25.6,2.8-25.6s0.5-0.1,1.4-0.3c0.4-0.1,1-0.2,1.6-0.2
			c0,0.2,0.2,3,2.5,4.2c0,0,2.8-1.1,2.5-4.1v-0.1c0.4,0,0.8,0.1,1.1,0.2c0.8,0.1,1.5,0.3,2.3,0.6
			C279.3,254.2,283.4,280.3,281.5,280.6z"/>
		<path class="st57" d="M265.2,268.2c-0.1,0.1,0.4,0.8,1.2,1.8c1.5,1.9,3.9,4.8,3.9,4.8c0,1-0.2,1.6-0.2,1.6c-3.3-1.5-5.5-3-6.9-4.1
			c-2.1-1.6-2.6-2.7-2.6-2.7c3.3-13.9,7.5-15.4,7.5-15.4l1.4,8.4C269.4,262.5,265.4,267.9,265.2,268.2z"/>
		<path class="st8" d="M277,253.6l-0.9,2.6l-1.1,1.7l-1.6,0.9l-1.5-0.9l-2.6-4.1c0.4-0.1,1-0.2,1.6-0.2c0,0.1,0,0.5,0.3,1.1
			c0.9,1.8,3.6,1.8,4.5,0c0.2-0.3,0.3-0.6,0.2-1v-0.1C276.2,253.5,276.6,253.6,277,253.6z"/>
		<path class="st59" d="M270.2,274.8L270.2,274.8c0,0.3,0,0.4,0,0.6c-0.1,0.1-0.2,0.2-0.3,0.3c-0.2,0.2-0.3,0.3-0.5,0.4
			c-0.1,0-0.2-0.1-0.2-0.1c-2.8-1.4-4.7-2.7-6.1-3.7c0.8-0.3,2-0.9,3.2-2.2C267.8,271.9,270.2,274.8,270.2,274.8z"/>
		<path class="st57" d="M286.4,269c0,0-0.6,1.1-2.6,2.7c-1.4,1.2-3.6,2.7-6.9,4.3c0,0-0.1-0.6-0.2-1.6c0,0,2.3-2.9,3.8-4.8
			c0.7-1,1.2-1.7,1.1-1.8c-0.2-0.2-2.7-3.5-3.8-4.9c-0.3-0.4-0.5-0.7-0.5-0.7l1.4-8.3C278.8,253.9,282.9,255.1,286.4,269z"/>
		<path class="st59" d="M283.8,271.7c-1.3,1.1-3.2,2.4-6,3.9c-0.1,0-0.1,0.1-0.2,0.1c-0.4-0.4-0.6-0.9-0.7-1.4
			c0-0.1,0.1-0.1,0.2-0.2c0.7-0.8,2.3-2.9,3.5-4.5C281.8,270.9,283,271.5,283.8,271.7z"/>
		<path class="st59" d="M275.8,253.5c-1.9-0.2-3.6-0.1-5,0.1l0,0C270.8,253.6,275.5,250.7,275.8,253.5z"/>
		<g>
			<g>
				<polygon class="st56" points="271.2,261.6 271.1,261.6 271,257.1 271.2,257.1 				"/>
			</g>
			<path class="st56" d="M271.1,261.5c-0.1,0.1-0.3,0.6-0.2,0.6c0.1,0,0.4,0,0.4,0C271.4,262,271.2,261.2,271.1,261.5z"/>
		</g>
		<g>
			<g>
				<polygon class="st56" points="275.6,261.6 275.5,261.6 275.4,257.1 275.6,257.1 				"/>
			</g>
			<path class="st56" d="M275.5,261.5c-0.1,0.1-0.3,0.6-0.2,0.6c0.1,0,0.4,0,0.4,0S275.6,261.2,275.5,261.5z"/>
		</g>
		<path class="st56" d="M271.8,257.9l-3.9-3.8c0,0-0.9-0.6,0.5-1.6C269.8,251.6,271.8,257.9,271.8,257.9z"/>
		<path class="st56" d="M275,257.9l3.9-3.8c0,0,0.9-0.6-0.5-1.6C277,251.6,275,257.9,275,257.9z"/>
		<g>
			<path class="st56" d="M279.9,276.4c-0.8,0.1-1.4-0.1-1.9-0.6c-0.1-0.1-0.2-0.2-0.2-0.2c-0.4-0.5-0.6-1-0.7-1.5
				c-0.1-0.6-0.2-1-0.2-1V273h-6.4v0.1c0,0.7-0.1,1.3-0.3,1.8c-0.1,0.2-0.3,0.5-0.5,0.6c-0.2,0.2-0.4,0.3-0.6,0.4
				c-0.9,0.5-1.8,0.5-1.8,0.5h-0.1v2.7H280L279.9,276.4L279.9,276.4z"/>
		</g>
		<path class="st56" d="M281.7,267.8c0,0-3.6-4.7-0.7-6c1.1-0.5,2.7,5.9,1.8,6.5s-2.2,1.4-2.2,1.4L281.7,267.8z"/>
		<path class="st56" d="M265.6,267c0,0,1.2-5.9,0.2-5.2c-1.1,0.6-2.7,5.9-1.8,6.5s2.2,1.4,2.2,1.4L265.6,267z"/>
		<g>
			<path class="st61" d="M281.2,267.8c-1.6-2-2.2-5.3-2.1-8.7c0.1-2.5,0.4-4.8,0.4-4.9l1.3,1c0,0-0.8,1.4-0.8,3.9
				c-0.1,2.3-0.2,4,1.1,7.9L281.2,267.8z"/>
		</g>
		<path class="st62" d="M268.9,308.5H266c-0.3,0-0.6-0.3-0.6-0.9c0,0,0-1.3-0.1-1.5c-0.4-1,0.2-1,0.7-1h5.2c0.5,0-0.3,1.6-0.3,2.2
			l0.2,0.7C271.1,308.5,269.4,308.5,268.9,308.5z"/>
		<path class="st8" d="M269.7,309.8l-0.8,3.3h-2.4l-0.1-3.1C266.7,310.1,267.9,310.4,269.7,309.8z"/>
		<polygon class="st59" points="276.2,307.3 276.8,309.8 277.6,313.1 280,313.1 280.2,310 280.3,307.5 		"/>
		<path class="st62" d="M277.7,308.5h2.9c0.3,0,0.6-0.3,0.6-0.9c0,0,0-1.3,0.1-1.5c0.4-1-0.2-1-0.7-1h-5.2c-0.5,0,0.3,1.6,0.3,2.2
			l-0.2,0.7C275.5,308.5,277.2,308.5,277.7,308.5z"/>
		<path class="st8" d="M276.8,309.8l0.8,3.3h2.4l0.1-3.1C279.8,310.1,278.6,310.4,276.8,309.8z"/>
		<path class="st8" d="M272.3,249.2c0,0,0.4,0.5,1,0.5c0.7,0,1-0.5,1-0.5S273.2,249,272.3,249.2z"/>
	</g>
</g>
</svg>
