<?xml version="1.0" encoding="utf-8"?>
<!-- Generator: Adobe Illustrator 25.2.0, SVG Export Plug-In . SVG Version: 6.00 Build 0)  -->
<svg version="1.1" id="Layer_1" xmlns="http://www.w3.org/2000/svg" xmlns:xlink="http://www.w3.org/1999/xlink" x="0px" y="0px"
	 viewBox="0 0 322 324" style="enable-background:new 0 0 322 324;" xml:space="preserve">
<style type="text/css">
	.st0{fill:#A9C2FF;}
	.st1{clip-path:url(#SVGID_2_);}
	.st2{fill:#6EA7CE;}
	.st3{fill:#DDF0FC;}
	.st4{fill:#8FBDE2;}
	.st5{fill:#C5DDF9;}
	.st6{clip-path:url(#SVGID_4_);}
	.st7{fill:#FFFFFF;}
	.st8{fill:#B0C1EC;}
	.st9{clip-path:url(#SVGID_6_);}
	.st10{opacity:0.3;fill:#C5DDF9;enable-background:new    ;}
	.st11{clip-path:url(#SVGID_8_);}
	.st12{fill:#BF403A;}
	.st13{fill:#667EE8;}
	.st14{fill:#899BFA;}
	.st15{fill:#5C9CF4;}
	.st16{fill:#448DE8;}
	.st17{fill:#FC7600;}
	.st18{fill:#FFEBD8;}
	.st19{fill:#F9D0B3;}
	.st20{fill:#0D458E;}
	.st21{fill:#D44B40;}
	.st22{fill:#FDDBBA;}
	.st23{fill:#FF912B;}
	.st24{clip-path:url(#SVGID_10_);}
	.st25{fill:#FFAE73;}
	.st26{fill:#1E3865;}
	.st27{fill:#25468F;}
	.st28{fill:#B53C37;}
	.st29{fill:#F9924F;}
	.st30{fill:#8EAFF1;}
	.st31{clip-path:url(#SVGID_12_);}
	.st32{fill:#0B3563;}
	.st33{fill:#2A3967;}
	.st34{clip-path:url(#SVGID_14_);}
	.st35{fill:#FF9C60;}
	.st36{fill:#FFA767;}
	.st37{clip-path:url(#SVGID_16_);}
	.st38{fill:#9DDEDA;}
	.st39{fill:#09254C;}
	.st40{fill:#284F82;}
	.st41{clip-path:url(#SVGID_18_);fill:#6EA7CE;}
	.st42{clip-path:url(#SVGID_20_);fill:#6EA7CE;}
	.st43{clip-path:url(#SVGID_22_);}
	.st44{fill:#FF9E60;}
	.st45{fill:#A7C7FF;}
	.st46{fill:#85B2F3;}
	.st47{fill:#F48F4E;}
	.st48{fill:#D3E5FF;}
</style>
<rect y="296.3" class="st0" width="321.9" height="27.7"/>
<g>
	<g>
		<defs>
			<rect id="SVGID_1_" x="0.3" y="0.8" width="321.6" height="322.7"/>
		</defs>
		<clipPath id="SVGID_2_">
			<use xlink:href="#SVGID_1_"  style="overflow:visible;"/>
		</clipPath>
		<g class="st1">
			<path class="st2" d="M167.5,156.8l-19-0.1l-0.1,26.4l19,0.1L167.5,156.8z"/>
			<path class="st3" d="M164.6,160l-13.4-0.1l-0.1,19.7l13.4,0.1L164.6,160z"/>
			<path class="st4" d="M236.5,157.1l-19-0.1l-0.1,26.4l19,0.1L236.5,157.1z"/>
			<path class="st3" d="M233.9,160.3l-13.4-0.1l-0.1,19.7l13.4,0.1L233.9,160.3z"/>
			<path class="st5" d="M207.3,161.7l-30.2-0.1L177,188l30.2,0.1L207.3,161.7z"/>
			<path class="st3" d="M204.3,165.1L180,165l-0.1,19.7l24.4,0.1L204.3,165.1z"/>
		</g>
	</g>
	<g>
		<defs>
			<rect id="SVGID_3_" x="0.3" y="0.8" width="321.6" height="322.7"/>
		</defs>
		<clipPath id="SVGID_4_">
			<use xlink:href="#SVGID_3_"  style="overflow:visible;"/>
		</clipPath>
		<g class="st6">
			<path class="st4" d="M280,172.4c6.3,0,11.5-5.2,11.5-11.6c0-6.4-5.1-11.6-11.4-11.7c-6.3,0-11.5,5.2-11.5,11.6
				S273.7,172.3,280,172.4z"/>
			<path class="st7" d="M290.2,160.9c0-5.7-4.5-10.3-10.1-10.3s-10.2,4.5-10.2,10.2s4.5,10.3,10.1,10.3
				C285.6,171.1,290.1,166.5,290.2,160.9z"/>
			<path class="st5" d="M270.8,160.6v0.3h3.1v-0.3H270.8z"/>
			<path class="st5" d="M286,160.6v0.3h3.1v-0.3H286z"/>
			<path class="st5" d="M280.2,151.7h-0.3v3.2h0.3V151.7z"/>
			<path class="st5" d="M280.2,166.9h-0.3v3.2h0.3V166.9z"/>
			<path class="st8" d="M280.1,161.1c0.2,0,0.3-0.1,0.3-0.3s-0.1-0.3-0.3-0.3c-0.2,0-0.3,0.1-0.3,0.3
				C279.8,160.9,279.9,161.1,280.1,161.1z"/>
			<path class="st3" d="M285.8,156l-5.4,4.9h-0.2v-0.2l5.4-4.7C285.7,155.9,285.8,155.8,285.8,156z"/>
			<path class="st4" d="M276.2,158.1l3.8,2.3l0.1,0.3l-0.2,0.2L276.2,158.1"/>
		</g>
	</g>
	<g>
		<defs>
			<rect id="SVGID_5_" x="0.3" y="0.8" width="321.6" height="322.7"/>
		</defs>
		<clipPath id="SVGID_6_">
			<use xlink:href="#SVGID_5_"  style="overflow:visible;"/>
		</clipPath>
		<g class="st9">
			<path class="st5" d="M122.3,243.1l-96.7-0.4c-3.4,0-6.2-2.9-6.2-6.3l0.2-56.4c0-3.4,2.9-6.3,6.2-6.3l96.7,0.4
				c3.4,0,6.2,2.9,6.2,6.3l-0.2,56.4C128.6,240.2,125.7,243.1,122.3,243.1z M25.9,176c-2.1,0-3.8,1.7-3.8,3.8l-0.2,56.4
				c0,2.1,1.7,3.8,3.8,3.8l96.7,0.4c2.1,0,3.8-1.7,3.8-3.8l0.2-56.2c0-2.1-1.7-3.8-3.8-3.8l-96.7-0.4L25.9,176z"/>
			<path class="st10" d="M25.6,240.2l96.7,0.4c2.1,0,3.8-1.7,3.8-3.8l0.2-56.4c0-2.1-1.7-3.8-3.8-3.8l-96.7-0.4
				c-2.1,0-3.8,1.7-3.8,3.8l-0.2,56.4C21.8,238.5,23.5,240.2,25.6,240.2z"/>
			<path class="st5" d="M123.7,194.7c-0.4,0.4-0.6,0.8-0.8,0.9c-0.2,0-0.6,0-0.8-0.2c-0.6-0.4-0.8-0.4-1.3,0
				c-0.4,0.2-0.4,0.4-0.4,0.8c0.2,0.4,0,0.4-0.4,0.6c-0.6,0.2-0.9,0.4-1.5,0.6c-0.4,0.2-0.6,0.4-1.1,0.4s-1.3,0.2-1.7,0.8v0.2
				c0,0.4,0.2,0.6,0.2,1c-0.4,0.4-0.4,0.8-0.9,1.1c-0.4,0.2-0.6,0.8-0.9,1.1c-0.2-1-0.4-1.9,0.2-2.9c0,0,0-0.2,0.2-0.2
				c0.4-0.4,0.8-0.6,1.1-0.9c0.2-0.2,0.6-0.6,0.8-1c-0.2,0.2-0.6,0.2-0.8,0.4l-0.2-0.2c-0.2-0.4-0.6-0.4-0.8,0
				c-0.2,0.4-0.8,0.4-0.8,1c-0.4,0-0.8,0.2-0.9,0c-0.2-0.2-0.4-0.2-0.8-0.2c-0.2,0-0.6,0-0.9,0c-0.4,0-0.8,0-0.9,0.2
				c-0.6,0.6-1.1,1.3-1.7,1.9l-0.2-0.2c0,0.2,0.2,0.4,0.2,0.4c0.4,0,0.8,0,0.9,0.2c0.2,0.2,0.6,0.6,0.2,1.1c0,0.2-0.2,0.2-0.2,0.4
				c-0.2,1.1-1,2.1-1.7,2.9c-0.2,0.2-0.6,0.2-0.8,0.2c-0.2,0.2-0.6,0.2-0.8,0.4c0.2,0.2,0.2,0.4,0,0.4c-0.4,0.2-0.4,0.6-0.2,1
				c0.2,0.2,0.2,0.6,0.2,0.8c-0.2,0.2-0.4,0.4-0.8,0.6c0,0,0,0-0.2,0c0-0.2,0-0.4,0-0.6c0-0.2,0.2-0.6-0.2-0.6c0,0-0.2-0.2,0-0.4
				c0-0.4-0.2-0.4-0.4-0.4c-0.2,0-0.4,0.2-0.6,0.2c0-0.2,0-0.4,0-0.6c-0.4,0.2-0.6,0.4-0.9,0.6c0.2,0.2,0.2,0.4,0.4,0.6
				c0.4,0,0.6,0,0.8,0v0.2c-0.2,0.2-0.4,0.4-0.6,0.6c0,0.2-0.2,0.4,0,0.4c0.2,0.6,0.2,1.1,0.4,1.5v0.2c-0.4,0.8-0.8,1.5-1.5,2.1
				c-0.2,0.2-0.4,0.2-0.4,0.2c-0.4,0.2-0.9,0.4-1.3,0.6c-0.2-0.2-0.4-0.4-0.8,0s-0.6,0.6-0.2,1c0.2,0.2,0.2,0.4,0.4,0.6
				c0.6,0.6,0.4,1.5-0.2,1.9c-0.2,0.2-0.4,0.4-0.6,0.4c-0.2-0.4-0.4-0.6-0.6-1l-0.2-0.2l-0.2,0.2c0,0.4,0,1,0.2,1.3
				c0.2,0.6,0.4,1.1,0.6,1.7c-0.6-0.2-0.9-0.6-0.9-1.1c0-0.4-0.2-0.6-0.4-1c0-0.2-0.2-0.2-0.2-0.4c0-0.6-0.2-1-0.2-1.5
				c0-0.4-0.2-0.6-0.6-0.6l-0.2-0.2c0.2-0.8-0.4-1.1-0.6-1.9c-0.8,0-1.1,0.6-1.5,0.9c-0.4,0.4-0.8,0.6-0.9,0.9
				c-0.2,0.2-0.4,0.6-0.4,0.8c0,0.8-0.2,1.1-0.8,1.7c0-0.2-0.2-0.2-0.2-0.4c-0.4-1.1-0.6-2.1-0.7-3.2c0-0.2-0.2-0.4-0.4-0.4
				c-0.2,0-0.2-0.2-0.4-0.2c-0.2-0.4-0.6-0.8-0.7-1.1c-0.2-0.4-0.6-0.2-0.9-0.2c-0.4,0-0.9,0-1.3-0.2s-0.9-0.4-1.3-0.6
				c-0.4-0.2-0.6-0.4-0.8-0.8c-0.2-0.2-0.2-0.4-0.6-0.2c-0.2,0-0.2,0.4-0.2,0.6c0.2,0.4,0.4,0.6,0.4,1l0.2-0.2c0,0,0,0,0,0.2
				s0,0.4,0.2,0.6c0.2-0.2,0.6-0.2,0.8-0.4c0.2,0,0.2-0.2,0.2-0.4c0.2,0.4,0.6,0.6,0.8,1c0.2,0.2,0.4,0.4,0,0.8
				c-0.4,0.6-0.4,1.1-0.9,1.3c-0.9,0.4-1.7,0.9-2.5,1.3c0,0-0.2,0-0.4,0.2c-0.4,0.2-0.6,0-0.6-0.4c0-0.8-0.4-1.5-0.7-2.3
				c-0.4-0.6-0.4-1.1-0.7-1.7c-0.2-0.4-0.4-0.6-0.4-0.8c-0.4,0-0.4,0.2-0.2,0.4c0.2,0.6,0.4,1.1,0.6,1.5v0.2c0,0.6,0.4,1.1,0.6,1.7
				c0,0.2,0.2,0.4,0.4,0.6c0.4,0.4,0.8,0.6,0.7,1.1c0,0.2,0.2,0.4,0.4,0.4c0.6,0,0.9-0.2,1.7-0.4c0,0.4,0,0.6-0.2,1
				c-0.4,1-0.8,1.7-1.5,2.3c-0.6,0.4-0.9,1.1-1.3,1.7c-0.4,0.6-0.2,1.1,0,1.7c0,0.6,0.2,1.1,0.2,1.7c0,0.2-0.4,0.4-0.6,0.6
				c-0.2,0.2-0.2,0.2-0.4,0.2c-0.4,0.4-0.8,0.8-0.6,1.3c0.2,0.4,0,0.8-0.4,1c-0.2,0-0.2,0.4-0.2,0.6c-0.4,1-1,1.9-1.9,2.3
				c-0.4,0.2-0.9,0.2-1.3,0.2s-0.4-0.4-0.6-0.6c-0.2-0.4-0.2-1-0.4-1.3c-0.2-0.6-0.4-1.1-0.4-1.7c-0.2-0.6-0.2-1-0.4-1.5
				c-0.4-0.8-0.2-1.3,0.2-1.9c0.4-0.6,0.2-1.1,0-1.7c0-0.4-0.4-1-0.6-1.3c-0.4-0.6-0.4-1-0.2-1.5c0.2-0.8,0-1-0.8-1
				c-0.2,0-0.2,0-0.4-0.2c-0.4-0.4-0.8-0.6-1.1-0.4c-0.8,0.6-1.1,0.8-1.7,0.6h-0.2c-0.6,0.2-0.9,0.2-1.3-0.2s-0.6-0.8-0.9-1.1
				c-0.2-0.2-0.4-0.6-0.6-0.8c-0.4-0.6-0.4-1.1-0.2-1.7c0.2-0.4,0-1,0-1.3c0-0.2,0-0.4,0-0.6c0.4-0.6,0.6-1.1,0.9-1.7
				c0-0.2,0.2-0.2,0.2-0.2c0.4-0.2,0.6-0.6,0.8-1.1c0-0.4,0.4-0.6,0.6-0.8s0.4-0.6,0.4-0.8s-0.4-0.4-0.6-0.4H70c0-0.4,0-1,0-1.3
				c0-0.2,0-0.6,0-0.8c0-0.4,0.2-0.4,0.4-0.4c0.4,0,0.6,0,0.9,0c0.6,0,0.9-0.6,0.8-1.1c-0.2-0.2-0.4-0.4-0.6-0.6
				c-0.2-0.2-0.2-0.2-0.4-0.4c0.2,0,0.4,0,0.4-0.2c0,0,0.2,0,0.4,0c0-0.2,0-0.2,0-0.2c0.2,0,0.6-0.2,0.8-0.2
				c0.4-0.4,0.6-0.8,0.9-1.1c0.4-0.4,0.8-0.6,1.1-0.8c0-0.4-0.7-1.1,0.4-1.5c0,0.2,0,0.6,0,0.8l0.2-0.2c0,0,0,0,0.2,0
				c0,0.4-0.2,0.6-0.2,1c0.2-0.2,0.4-0.2,0.6-0.2c0.2,0.4,0.4,0.4,0.6,0.2s0.4-0.4,0.8-0.2c0,0,0.6,0,0.6-0.4s0-0.8,0.4-1
				c0.2,0,0.2,0.2,0.4,0.4c0-0.2,0-0.4,0-0.6c-0.2-0.4-0.2-0.4,0.2-0.8c-0.2,0-0.2,0-0.4-0.2c-0.4-0.2-0.6-0.4-0.6-0.8
				c-0.2-0.6,0.2-1,0.6-1.3l0.2-0.2c0-0.2,0-0.6,0-0.6c-0.2-0.2-0.6,0-0.6,0.2c0,0.4-0.4,0.6-0.8,0.9c-0.2,0.2-0.4,0.6-0.6,0.8
				c0,0.2,0,0.4,0.2,0.6c0.4,0.2,0.2,0.6,0,0.8s-0.4,0.6-0.4,0.8c0,0.4-0.2,0.6-0.4,0.8c-0.2,0-0.2,0.2-0.4,0.4
				c0-0.2-0.2-0.2-0.2-0.4s-0.2-0.6-0.2-0.8c-0.2-0.6-0.4-0.6-0.9-0.2c-0.4,0.2-0.8,0-0.8-0.2c0-0.4-0.2-0.8-0.2-1.3
				c0-0.2,0.2-0.4,0.4-0.6c0.4-0.4,0.9-0.8,1.3-1.1c0.4-0.4,0.6-1,0.9-1.5c0.2-0.2,0-0.6,0.2-0.8s0.4-0.2,0.6-0.4
				c0.4-0.4,0.9-0.4,1.5-0.4c0.2-0.2,0.6-0.6,0.8-0.6c0.4,0.2,1.1-0.2,1.3,0.4l-0.2,0.2h0.2c0.8,0.4,1.5,0.6,2.3,1
				c0.2,0.2,0.4,0.6,0.4,0.6c-0.2,0.2-0.6,0.4-0.8,0.6c0,0-0.2,0-0.4,0c-0.2,0-0.6-0.4-0.6,0.2c0,0.6,0,0.8,0.4,0.8
				c0.2-0.2-0.2-0.6,0.2-0.6c0.2,0,0.4,0.2,0.6,0.4c0-0.8,0.6-1.1,1.1-0.8c0-0.4,0-0.8,0-1.3c0.2,0,0.2,0,0.4,0
				c0.2,0,0.4,0.2,0.2,0.4v0.4c0.2,0,0.4,0,0.4-0.2c0.4-0.2,0.6-0.6,0.9-0.8c0.2-0.2,0.4-0.2,0.8-0.2c0,0,0,0.2,0,0.4
				c0.6-0.2,1.3-0.2,1.9-0.4c-0.2-0.2-0.4-0.4-0.6-0.8c0.2,0,0.2,0.2,0.4,0.2c0.2,0,0.4,0,0.6,0s0.4,0,0.6,0.2
				c0.4,0.2,0.8,0.4,1.1,0.6v-0.2c-0.2-0.4-0.4-0.6-0.4-1.1c0-0.2,0-0.4,0.2-0.4c0.2-0.2,0.2-0.4,0.4-0.6c0.2-0.2,0.6-0.4,0.8-0.2
				c0.2,0,0,0.4,0,0.6c0,0.2,0,0.4,0,0.6c0,0.2,0,0.2,0,0.4c0,0.4,0,0.8,0,1.1c0,0.2,0,0.4-0.2,0.6c-0.2,0.2-0.4,0.4-0.6,0.8
				c0.4,0.2,0.9-0.4,0.9-0.8c0-0.2,0-0.4,0-0.6c0-0.2,0-0.4,0-0.6v-0.2c0-0.2-0.2-0.6,0-0.8c0-0.2,0.4-0.4,0.6-0.6
				c0.2,0.2-0.4,0.8,0.2,1c0.2-0.4,0.2-0.6,0.4-0.8c0.4,0.2,0.8,0.4,1.1,0.4c-0.2-0.2-0.2-0.4-0.4-0.6c0-0.2,0-0.4,0.4-0.4
				c0.2,0,0.6,0,0.8,0c0.2,0,0.4-0.2,0.4-0.4s0.2-0.4,0.4-0.6c0.6-0.2,1.3-0.4,1.9-0.8h0.2c0.2,0.2,0.9-0.2,1.1-0.6
				c0.2-0.4,0.6-0.6,0.9-0.6l0.2,0.2c0,0,0,0.2,0.2,0.2c0.2,0.2,0.2,0.2,0.4,0.4c0.6-0.2,0.9-0.2,1.5,0.2c0.2,0.4,0.2,0.6-0.2,0.8
				c-0.4,0.2-0.8,0.6-1.1,0.8h0.2c0.2-0.2,0.6-0.4,0.9,0c0.4,0.2,0.8,0,1.1,0.2c0.4,0,0.6,0.2,0.9,0.4c0.2,0,0.6,0,0.8,0.2
				c0.2-0.2,0.2-0.4,0.2-0.6c0.4,0,0.6,0.2,0.9,0.2c0.4,0,0.6,0.4,0.6,1c-0.2,0.6,0.2,0.6,0.6,1c0.2-0.2,0.2-0.4,0.4-0.6
				c0.8,0,1.3,0,2.1,0c-0.2-0.6,0-0.8,0.8-0.8c0.6,0.2,1.1,0.2,1.7,0.4l0.2,0.2c0,0,0,0,0,0.2c0.4,0.2,0.8,0.8,1.3,0.4
				c0.2,0,0.4,0,0.4,0c0.6,0,0.8,0.2,0.9,0.8c0.6,0.2,0.9,0.2,1.5,0.4c0.2,0,0.4-0.2,0.6-0.2s0.2,0,0.4,0c0,0,0,0,0,0.2
				c0,0-0.2,0-0.4,0.2c0.2,0.2,0.2,0.2,0.4,0.4c0,0,0.2,0,0.4,0v-0.2c-0.2-0.4,0-0.4,0.4-0.4c1.1,0,2.1,0.8,3,1.3
				C122.5,193.9,123.1,194.3,123.7,194.7z M71.6,206.9c0.4,0.2,0.6,0.4,0.9,0c0.2-0.2,0.4-0.4,0.8-0.4c0.8-0.2,1.5-0.2,2.1-0.2
				c0.2,0,0.2,0.2,0.4,0.2c0,0.4,0,0.6,0,1c0,0,0,0-0.2,0.2c0.4,0.2,0.6,0.2,0.9,0.4c0.2,0,0.4,0.2,0.4,0.4c0.4,0.2,0.6,0.4,0.9,0.6
				c0,0,0.2-0.2,0.2-0.4c0-0.6,0.4-0.6,0.8-0.4c0.6,0.2,1.1,0.8,1.9,0.4c0.2,0,0.4,0,0.4,0c0.2,0,0.4,0,0.6,0
				c0.2-0.6,0.4-1.1,0.4-1.5c0-0.2-0.2-0.4-0.4-0.2c-0.2,0-0.4,0-0.6,0h-0.2c-0.6,0.2-0.9-0.2-1.1-0.8c0-0.2,0-0.4-0.2-0.6
				c0-0.2-0.4-0.2-0.4-0.2c-0.2,0.2-0.4,0.4-0.4,0.6c0.4,0.4,0,0.6-0.2,1c-0.2-0.2-0.2-0.2-0.2-0.2c-0.2-0.6-0.4-1.1-0.6-1.5
				c0,0,0-0.2-0.2-0.2c-0.4-0.4-0.8-0.8-1.1-1.1c0,0-0.2,0-0.4,0c0,0-0.2,0.2,0,0.2c0.2,0.4,0.4,0.8,0.6,1s0.6,0.4,0.8,0.6
				c-0.4,0.6-0.6,0.9-0.9,1.3c-0.2-0.2-0.4-0.2-0.4-0.4c0.2-0.2,0.6-0.4,0.8-0.4c-0.2-0.2-0.2-0.6-0.4-0.8c-0.4-0.4-0.6-0.8-0.9-1.1
				l-0.4-0.2c-0.4,0.2-0.6,0.4-1.1,0.2c0,0-0.2,0-0.2,0.2c0,0.4-0.4,0.6-0.6,0.8s-0.2,0.4-0.4,0.6c-0.2,0.4-0.4,0.8-0.8,1
				C71.7,206.5,71.7,206.7,71.6,206.9z M82.7,205c0.2,0,0.4,0,0.6,0c0.4-0.2,0.4-0.4,0.2-0.6c-0.2-0.2-0.6-0.4-0.9-0.6
				c-0.2,0-0.4-0.2-0.6,0c-0.4,0.2-0.6,0-0.8-0.4c-0.2-0.4-0.4-0.4-0.6,0s-0.4,0.6-0.6,1c-0.2,0.2-0.2,0.6,0,0.8s0.6,0.4,0.9,0
				c0.4-0.2,0.8-0.2,1.1,0C82.3,204.8,82.5,204.8,82.7,205z M85.7,203.7c0.2-0.2,0.4-0.2,0.6-0.4l0.2-0.2c0-0.2-0.2-0.2-0.2-0.4
				c-0.6-0.2-1.5,0.6-1.3,1.1c0,0.4,0.2,0.6,0.4,1c0,0.2,0.2,0.6,0,0.8c-0.2,0.6,0.2,1.1,0.7,1.1s0.6-0.4,0.4-1
				c-0.2-0.4-0.4-0.6,0.2-0.8C86.5,204.6,86.1,204.1,85.7,203.7z M80.2,219.3c0.4,0.2,0.6,0,0.6-0.2c0,0,0-0.2-0.2-0.4
				C80.6,218.9,80.4,219.1,80.2,219.3z M100.8,200.5c0.8-0.4,0.8-0.4,0.8-0.9C101.4,199.7,101.2,200.1,100.8,200.5z"/>
			<path class="st5" d="M26.3,196.6c0.4-0.4,0.8-0.8,1.5-0.4c0-0.2,0-0.4-0.2-0.4c-0.4-0.2-0.8-0.6-1.1-0.8l-0.2-0.2l0.2-0.2
				c0.4,0,0.4-0.4,0.6-0.6c0.2-0.4,0.8-0.6,1.1-0.8c0.2,0,0.2-0.2,0.4-0.2l0.2-0.2c0.4,0,0.8,0.2,1.1,0.4l0.2,0.2c0.8,0,1.5,0,2.3,0
				c0.4,0,0.9,0.2,1.3,0.4c0.4,0,0.6,0.2,0.8,0c0.6-0.2,1.1-0.4,1.7-0.6c0.2,0,0.4-0.2,0.6-0.4c0,0,0,0,0.2,0.2
				c0.4,0.6,0.4,0.6,0.8,0c0.2,0.2,0.2,0.4,0.6,0.2h0.4c0.6,0,0.9,0.2,1.5,0.4c0.2,0,0.2,0.2,0.4,0.2c0.2,0.2,0.4,0.4,0.6,0.4
				c0.4,0,0.8-0.2,0.9-0.4c0.2,0,0.4-0.2,0.6-0.4c0.2,0,0.4,0,0.4,0.2c0.4,0.4,1.1,0.6,1.9,0.2c-0.2-0.4-0.2-0.8,0.2-1
				c0.6-0.6,0.4-1.1,0.4-1.9c0-1,0-1,0.9-0.9c0.2,0,0.2,0,0.6,0c-0.2,0.4-0.4,0.8-0.6,1c-0.2,0.2-0.2,0.4-0.2,0.6
				c0.2,0.4,0.4,0.8,0.6,1.1c0,0,0.2,0,0.4,0.2c0.6,0,0.6,0.2,0.8,0.8c0,0.2,0.2,0.4,0.2,0.4c0.2-0.4,0.6-0.8,0.4-1.3l0.2-0.2
				c0.2,0,0.6,0.2,0.8,0.2c0.2,0.2,0.4,0.4,0.2,0.6c0.4,0.8-0.2,1-0.6,1.1c-0.2,0-0.2,0.2-0.4,0.2c0.2,0.4,0.6,0.6,0.8,0.6
				c0.4,0.2,0.6,0.4,0.9,0.6c0,0,0,0,0,0.2c-0.2,0-0.4,0-0.4,0.2c-0.2,0-0.4,0-0.4,0c-0.2,0.4-0.6,0.4-0.9,0.2c0-0.2,0-0.6-0.2-1
				c-0.9,0.6-1.5,1.1-1.7,2.1c-0.2,0.4-0.2,0.8,0.4,1c0.6,1,1.5,0.8,2.3,1.3c0.2,0.2,0.6,0.2,0.9,0.2c0,0.8,0.2,1.1,0.9,1.7
				c0.6-0.6,0-1,0-1.5l0.2-0.2c0.6-0.4,0.6-1,0.2-1.5c-0.2-0.2-0.2-0.4-0.2-0.4c0.2-0.6,0-1-0.2-1.3c0-0.4,0-0.4,0.4-0.4
				c0.2,0,0.4,0,0.4,0c0.2,0,0.6,0.2,0.8,0.2c0.2,0.2,0.6,0.4,0.8,0.6c0,0.2,0,0.4,0.2,0.6c0.2,0.2,0.4,0.6,0.6,0.6
				c0.2,0,0.6-0.2,0.6-0.6c0-0.2,0-0.2,0.2-0.4c0.4,0.6,0.7,1.1,0.9,1.7c0.2,0.4,0.4,0.6,0.8,0.8c0.6,0.2,0.9,0.8,0.9,1.3
				c0,0.4,0,1,0.4,1.1c0.4,0.2,0.4,0.4,0.6,0.8c0,0,0,0.2,0,0.4c-0.2,0-0.2,0-0.4,0s-0.4-0.2-0.6-0.2c-0.2,0-0.4,0-0.8,0
				c0.2-0.6,0.4-1,0.6-1.5h-0.2c-0.4,0.4-1.1,0.4-1.7,0.6c-0.2,0-0.4,0.2-0.6,0.4c0.6,0,0.8,0,0.6,0.6c-0.2,0.4,0,0.6,0.4,0.8
				s0.4,0,0.6-0.2c0,0,0,0,0.2-0.2c0,0,0.2,0.2,0.4,0.4c-0.6,0.4-0.9,0.8-1.5,0.9c0,0-0.4-0.2-0.6-0.4c-0.2,0.2-0.4,0.2-0.8,0.4
				c-0.2,0-0.2,0.2-0.2,0.4c0.2,0.4-0.2,0.6-0.4,0.8c-0.6,0.4-0.8,1.1-0.8,1.7c0,0.2,0,0.2,0,0.4s-0.2,0.2-0.4,0.4
				c-1.5,0.6-1.5,0.6-1,2.1c0,0.2,0,0.6,0,0.8c-0.4-0.2-0.6-0.6-0.8-1c-0.2-0.2-0.4-0.6-0.4-0.6c-0.4,0-0.9-0.6-1.3,0.2
				c0,0-0.4,0.2-0.6,0c-0.6-0.2-0.9,0-1.3,0.4c-0.2,0.2-0.2,0.2-0.2,0.4c0,1-0.2,1.7,0.6,2.5c0.2,0.2,0.4,0.4,0.8,0.2
				c0.4-0.2,0.8-0.2,0.8-0.8c0-0.4,0.6-0.4,0.8-0.4c0,0.6-0.2,1.1-0.2,1.7c0.2,0,0.6,0,0.8,0c0.4,0,0.8,0.2,0.8,0.6
				c0,0.6-0.2,1,0.4,1.3c0.2,0,0.4,0.2,0.4,0.2c0.4-0.4,0.8-0.2,1.1,0.2c0.2-0.8,0.8-1.1,1.3-1.3c0,0,0,0.2,0,0.4c0,0,0,0,0.2,0
				c0-0.2,0.2-0.2,0.2-0.4c0.4,0.2,0.8,0.4,1.1,0.4c0.2,0,0.4,0,0.6,0c0.4-0.2,0.6,0,0.8,0.2s0.2,0.2,0.4,0.4c0.6,0.6,1.1,0.8,1.9,1
				c0.6,0.2,0.8,0.8,0.7,1.3c0.2,0.4,0.2,0.4,0.6,0.6c0.4,0.2,0.8,0.4,1.1,0.6c0.2,0,0.6,0,0.8,0.2c0.2,0,0.6,0.2,0.8,0.4
				c0.2,0,0.2,0.2,0.4,0.2c0.2,0.2,0.6,0.2,0.6,0.6c0,0.4,0,1-0.2,1.1c-0.6,0.6-0.8,1.3-0.8,2.1c0,0.6-0.2,1.1-0.4,1.7
				c0,0.2-0.4,0.4-0.6,0.4c-0.8,0.2-1.1,0.8-1.3,1.5c0,0.4-0.2,0.6-0.4,1s-0.4,0.8-0.8,1.1c-0.2,0.4-0.6,0.6-0.9,0.6
				c0,0.2,0,0.6,0,0.8c-0.2,0.4-0.4,0.8-0.9,0.8c-0.2,0-0.4,0.2-0.4,0.4c0,0.4-0.2,0.6-0.6,0.6c0,0.6-0.2,1.1-0.6,1.7v0.4
				c0.4,0.2,0.2,0.4,0,0.8c0,0.2-0.2,0.2-0.2,0.4c-0.2,0.4-0.4,0.8,0,1.1c0.2,0.4,0.4,0.8,0.9,1c-0.4,0.2-0.8,0.4-0.9,0.4
				c-0.4-0.2-0.9-0.4-1.1-0.6c-0.2-0.2-0.2-0.4-0.2-0.6c0-0.2,0-0.2-0.2-0.4c0-0.2-0.2-0.4-0.2-0.6c0-0.4,0-0.8,0-1
				c0-0.6-0.2-1,0.4-1.3c-0.4-0.4-0.2-0.8-0.2-1.1c0-0.8,0.2-1.5,0.4-2.3c0-1.3,0.2-2.7,0.2-4c0-0.6-0.2-1.1-0.7-1.3
				c-0.8-0.4-1.1-1-1.3-1.5c-0.4-0.6-0.6-1.1-0.9-1.7v-0.2c0-1,0-1.7,0.6-2.5c0.2-0.4,0.2-1,0-1.3c-0.2-0.2-0.2-0.4-0.4-0.6
				c-0.2,0.2-0.2,0.4-0.4,0.6c-0.4-0.2-0.9-0.4-1.3-0.8c-0.2-0.2-0.4-0.6-0.6-0.8c0,0-0.2-0.2-0.4-0.2c-0.4-0.2-0.8-0.4-1.3-0.6
				c-0.2,0-0.4-0.2-0.6-0.2c-0.4,0-0.6,0-0.9-0.2c-0.6-0.2-1.1-0.4-1.5-0.8c-0.2,0-0.4-0.2-0.2-0.4c0-0.6-0.4-0.8-0.6-1.1
				c-0.4-0.4-0.8-0.8-0.9-1.1c-0.6-1-0.8-1-0.9-1c0.4,0.6,0.6,1.1,0.9,1.7c0,0-0.2,0-0.2,0.2c-0.2-0.2-0.4-0.6-0.8-0.8
				c0-0.2-0.2-0.2-0.2-0.2c-0.2-0.2-0.6-0.2-0.4-0.6c0,0,0,0,0-0.2c-0.4-0.6-0.8-1-0.9-1.5c0-0.2-0.2-0.2-0.4-0.2
				c-0.4-0.2-0.8-0.6-0.9-1c-0.2-0.4-0.6-1-0.7-1.3c-0.2-0.6-0.2-1.3-0.2-1.9c0-0.8-0.4-1.1-0.9-1.5c-0.2-0.2-0.4-0.4-0.2-0.6
				c-0.2-0.4-0.6-0.6-0.8-0.8s-0.4-0.4-0.4-0.6c-0.2,0-0.2-0.2-0.4-0.2s-0.2,0-0.6,0.2c0-0.2,0-0.4,0.2-0.6c-0.4-0.2-0.9-0.6-1.1-1
				c-0.4-0.6-1.1-0.8-1.7-0.8c-0.4,0-0.8-0.2-1.3-0.2c0,0.4-0.4,0.4-0.8,0.4c-0.6-0.8-0.6-0.8-0.8-0.2c0,0.4-0.4,0.6-0.6,0.8
				c-0.4,0.6-0.9,1.1-1.9,1.3c0.2-0.2,0.4-0.4,0.6-0.6c0.2-0.2,0.4-0.2,0.6-0.4s0.4-0.4,0.2-0.8c-0.4-0.2-0.6-0.4-0.9-0.2
				c0,0-0.2,0-0.2,0.2c-0.2-0.4-0.2-0.6-0.8-0.6c-0.2,0-0.6-0.6-0.8-0.8c0-0.2,0.2-0.6,0.2-0.8c0,0,0.2,0,0.2-0.2
				c0.2-0.2,0.4-0.4,0.6-0.4c-0.2,0-0.2-0.2-0.4-0.2C26.9,197.3,26.7,197.2,26.3,196.6z M49.7,203.5c-0.2-0.8-0.8-1-1.3-0.4
				c-0.2,0.2-0.2,0.4-0.2,0.4c0.2,0,0.4-0.2,0.6-0.2c0,0,0,0,0.2,0C48.9,204.1,49.3,203.5,49.7,203.5z M50.1,204.7
				c0.2,0.2,0.4,0.2,0.4,0.4c0.2-0.4,0.2-0.6,0.4-1c-0.2,0-0.4,0-0.8-0.2C50.1,204.3,50.1,204.5,50.1,204.7z M49.1,205.4
				C49.1,205.4,49.3,205.4,49.1,205.4c0.2-0.4,0.2-1,0.2-1.3C48.9,204.5,48.9,205.1,49.1,205.4z M38.6,195.9c0.2,0,0.4-0.6,0.6-0.2
				c0.2-0.2,0.2-0.4,0.4-0.4c-0.2,0-0.2-0.2-0.4-0.2H39C38.8,195.3,38.6,195.5,38.6,195.9z M41.6,197.4c-0.2,0-0.4-0.2-0.6-0.2
				c-0.2,0.2-0.2,0.4-0.4,0.6C41.2,198,41.2,197.4,41.6,197.4z M45.9,201C45.7,201,45.7,201,45.9,201c-0.2,0.4,0,0.6,0.4,0.6
				C46.1,201.4,45.9,201.2,45.9,201z"/>
			<path class="st5" d="M56.9,192.5c0.2-0.6-0.4-0.8-0.8-1c0.2,0,0.2-0.2,0.4-0.2c-0.2-0.2-0.4-0.2-0.8-0.4c0,0,0-0.2,0-0.4
				c0-0.8-0.4-1.3-0.9-1.9c-0.4-0.4-0.9-0.4-1.5-0.4c-0.6,0.2-0.9,0.2-1.1-0.4c0,0-0.2-0.2-0.4-0.2c0.2,0,0.2-0.2,0.4-0.4
				c-0.2-0.2-0.4-0.2-0.6-0.4c-0.2-0.2-0.2-0.2,0-0.4c0.4-0.2,0.8-0.4,1.1-0.4c0.2,0,0.6,0,0.6-0.4c0-0.2-0.2-0.2-0.4-0.4
				c0.2-0.4,0.8-0.8,1.1-0.8c0.2,0,0.4,0,0.4-0.2c0,0,0-0.2,0.2-0.2c0.6-0.2,1.1-0.4,1.7-0.4c0.2,0,0.6,0.2,0.9,0.2
				c0-0.2,0-0.4-0.2-0.6c0.4,0.2,0.6,0.4,0.9,0.4c-0.2-0.8-0.2-0.6,0.6-0.8c0.9-0.2,2.1-0.4,3-0.4c0.8,0,1.3,0,1.9,0.4
				c0.2,0.2,0.4,0,0.6,0.2c0,0.4,0.2,0.8,0.2,1c0.4,0,0.6,0,0.9,0h0.2c0.6-0.4,0.6-0.4,1.3,0c-0.6,0.4-0.9,0.9-1.5,1.3
				c-0.2,0.2-0.4,0.4-0.4,0.6c0,0.2,0.2,0.4,0.2,0.6c0,0.2,0,0.4,0.2,0.4c0,0,0.2,0.2,0.4,0.2c-0.4,0.2-0.6,0.2-0.8,0.2
				c0.2,0.2,0.4,0.4,0.4,0.6s-0.2,0.4-0.2,0.6l0.2,0.2c-0.2,0.2-0.2,0.6-0.4,0.8c-0.2,0.2-0.2,0.6-0.4,0.8c0.4,0.8,0.2,1.3-0.8,1.9
				c-0.2,0-0.2,0.2-0.4,0.2c-0.6,0.2-1.1,0.4-1.5,0.9c-0.2,0.2-0.4,0.4-0.8,0.4c-0.4,0.2-0.8,0.4-0.8,0.8c-0.2,0.6-0.4,1.1-0.4,1.7
				c0,0.4-0.2,0.4-0.6,0.2c-0.9-0.4-1.3-1-1.5-1.7c0-0.2-0.2-0.6-0.4-0.8C56.1,193.5,56.3,192.9,56.9,192.5z"/>
			<path class="st5" d="M101.1,230.4c0.6-0.4,0.4-1.1,0.4-1.5c0-0.6-0.2-1.1,0-1.7c0.2-0.6,0.6-1,1.1-0.9c0.4,0,0.9-0.2,1.3-0.4
				c0.2,0,0.2-0.2,0.2-0.4s0-0.4,0.4-0.2h0.2c0.4-0.2,0.6-0.6,0.9-0.8c0.2,0.2,0.2,0.2,0.2,0.2c0.2,0.4,0.4,0.4,0.6,0
				c0.2-0.2,0.6-0.4,0.8-0.6c0.4,0.2,0.8,0.4,1.1,0.4c-0.2,0.4-0.4,0.6-0.2,1c0.2,0.4,0.6,0.8,0.8,1c0.8-0.6,0.6-1.5,1.1-2.1
				c0,0.2,0,0.2,0,0.2c0,0.8,0.6,1.5,0.4,2.3c0.6,0.4,0.4,1,0.7,1.3c0.2,0.4,0.4,0.8,0.4,1.3c0,0.8-0.2,1.5-0.8,2.1
				c-0.4,0.4-0.6,1-0.9,1.3c0,0.2-0.2,0.2-0.4,0.2c-0.2,0-0.4,0-0.4,0.2c-0.2,0.2-0.4,0.2-0.6,0s-0.8-0.2-0.9-0.4
				c-0.2,0-0.4-0.4-0.4-0.6c0-0.6-0.6-0.8-0.8-1l-0.2-0.2c-0.2-0.8-0.7-1.1-1.5-1c-0.6,0-0.9,0.2-1.5,0.4c-0.2,0-0.2,0-0.4,0
				c-0.4,0-0.8,0-1.1,0C101.4,231.2,101.3,230.8,101.1,230.4z"/>
			<path class="st5" d="M46.7,188.1c0.2-0.2,0.4-0.2,0.4-0.4s-0.2-0.6,0.2-0.6c0,0-0.2,0-0.2-0.2s0.2-0.4,0.2-0.6
				c0.4-0.4,0.4-0.4,0-0.8c-0.2-0.2-0.2-0.4-0.2-0.6c0,0,0,0,0.2,0c-0.4-0.2-0.8-0.4-1.3-0.4c-0.2,0-0.2-0.2-0.4-0.4
				c0.2,0,0.2-0.2,0.4-0.2c0.4-0.2,0.8,0,1.1-0.4l0.2-0.2c0.4,0.2,0.8-0.2,0.9-0.2c0.8-0.4,1.7-0.6,2.6-0.6c0.6,0,1.1,0,1.9,0
				c0.4,0,0.8,0.2,1.1,0.4c-0.4,0.6-0.8,0.9-1.1,1.3c-0.2,0.2-0.6,0.4-0.8,0.6c-0.4,0.2-0.6,0.4-0.9,0.6c-0.2,0.2-0.4,0.2-0.4,0.6
				c0,0.2-0.2,0.6-0.4,0.8s-0.6,0.4-0.8,0.6c0.2,0.2,0.2,0.4,0.4,0.4c-0.2,0.2-0.6,0.4-0.8,0.4c-0.4,0-0.8,0-1.1,0
				C47.7,188.3,47.1,188.3,46.7,188.1z"/>
			<path class="st5" d="M55.2,193.1c0,0.2-0.2,0.4-0.2,0.6c-0.2,0.4-0.4,0.6-0.8,0.2h-0.4c0,0.2,0.2,0.2,0.2,0.4
				c0.6,0.4,0.8,0.8,0.2,1.1c0,0.2,0,0.2,0.2,0.4h-0.2c-0.6-0.2-1.1-0.2-1.7-0.8c-0.2-0.2-0.6-0.2-0.8-0.2s-0.6,0.2-0.8,0
				c-0.2-0.4,0.2-0.4,0.6-0.4c0.2,0,0.2,0,0.2,0c0.2-0.4,0.2-0.6,0.4-0.8c0.2-0.4,0-0.6-0.2-0.8c-0.6-0.4-1.1-0.8-1.9-0.8
				c-0.8,0-1.5-0.2-2.1,0s-0.8-0.2-0.9-0.8c-0.2-0.6,0.2-1.1,0.6-1.3c0.4-0.2,0.8-0.2,1.1-0.2c0.2,0,0.4,0.4,0.6,0.6
				c0,0.2,0,0.2,0,0.4c0.2-0.2,0.4-0.2,0.6-0.2c0.4-0.2,0.9-0.2,1.3,0.2c0.2,0.2,0.2,0.2,0.6,0.2H52c0.6,0.6,1.5,0.4,1.7,1.5
				c0,0.2,0.2,0.4,0.6,0.4c0.2,0,0.2,0,0.4,0.2C54.6,192.9,54.8,193.1,55.2,193.1z"/>
			<path class="st5" d="M39.7,192.8c0.2-0.2,0.2-0.4,0.2-0.4c-0.2-0.2-0.6-0.4-0.8-0.6c-0.2-0.2-0.2-0.4-0.2-0.8
				c0-0.4,0.8-0.6,1.1-0.6c0.2,0,0.2,0,0.4,0s0.2,0.2,0.4,0.2c0,0,0-0.2,0.2-0.4c0.2,0.2,0.6,0.4,0.8,0.6c0,0,0-0.2-0.2-0.2
				c-0.2-0.4,0-0.8,0.4-1c0,0,0.2,0,0.4,0v0.2c0,0.8,0.4,1.3,0.9,1.5c0.2,0,0.8,0,0.4,0.6c-0.4,0.6-0.2,0.8-0.9,0.6
				c-0.4-0.2-0.8,0.2-0.9,0.4c-0.4,0.2-0.8,0.6-1.3,0h-0.2C40.1,192.8,39.9,192.8,39.7,192.8z"/>
			<path class="st5" d="M108.1,223.4c0.2,0,0.2-0.2,0.4-0.2c0-0.6-0.4-1-0.9-1.1c-0.4-0.2-0.6-0.4-0.6-0.8c0-0.2,0-0.2-0.2-0.4
				c0.2-0.2,0.6-0.4,0.8,0c0.2,0.2,0.2,0.6,0.2,0.8h0.2c0.4-0.4,0.8-0.4,1.1,0c0.4,0.4,0.8,0.6,1.1,0.8c0.4,0.4,0.6,0.6,0.6,1.1
				c0,0.4,0.2,0.6,0.4,1c-0.4,0-0.6-0.2-0.8-0.6c-0.4-0.6-0.4-0.6-0.9-0.4c-0.2,0-0.2,0-0.4,0C108.8,224,108.5,223.8,108.1,223.4z"
				/>
			<path class="st5" d="M101.3,219.9c0.2,0,0.4,0,0.4,0c0.6-0.6,0.9-1.1,1.5-1.7c0.2,0,0.4,0.2,0.6,0.4c-0.2,0.2-0.4,0.4-0.4,0.8
				c0,0.2,0.2,0.4,0.2,0.6c-0.2,0.4-0.4,1-0.4,1.3c0,0.4-0.2,0.6-0.6,0.4c-0.2,0-0.4,0-0.6,0C101.7,221.3,101.3,220.5,101.3,219.9z"
				/>
			<path class="st5" d="M88.4,190.9c-0.6,0-0.9,0.2-1.1-0.4c-0.2-0.2-0.4-0.2-0.4-0.4c0.2-0.4,0.4-0.8,0.6-1.1
				c0.6-0.8,0.9-1.7,2.1-1.9h0.2c0.4,0,0.6-0.2,0.9-0.4c0.2,0,0.6-0.2,0.8-0.2c0,0,0,0.2,0.2,0.2c-0.2,0.2-0.4,0.4-0.6,0.4
				c-0.6,0.4-1.3,0.6-1.7,0.9c-0.6,0.4-0.8,1-1.1,1.5c0,0.2,0,0.4,0.2,0.6C88.2,190.5,88.4,190.7,88.4,190.9z"/>
			<path class="st5" d="M44.7,184.3c0.6,0.4,1.1,0.6,1.7,1c0,0.2,0,0.6,0.6,0.6c-0.4,0.4-0.6,0.6-0.9,0.8c-0.4,0.2-0.9,0-1.3-0.6
				c-0.2-0.2-0.2-0.2-0.4-0.4c-0.4-0.4-0.4-0.8,0-1.1C44.5,184.7,44.5,184.5,44.7,184.3z"/>
			<path class="st5" d="M71.4,201.2c0-0.4,0.2-0.8,0.2-1.1c0,0,0-0.2,0.2-0.2c0.4-0.2,0.4-0.4,0-0.6c-0.2,0-0.2-0.2-0.2-0.2
				c-0.4-0.2-0.2-0.8-0.4-1.1c0.4-0.2,0.6-0.4,0.8-0.8c0,0.6,0.8,0.8,0.2,1.1c0.4,0.6,0.6,1.1,1.1,1.9c0,0.6-0.2,0.8-0.9,0.8
				C72,201,71.6,201.2,71.4,201.2z"/>
			<path class="st5" d="M84.9,222.7c0,0.4,0.2,0.8,0,1.1c-0.4,0.8-0.6,1.5-0.8,2.3c0,0.2-0.2,0.6-0.6,0.6c-0.2,0-0.4-0.4-0.4-0.6
				c0-0.4,0-0.6,0.2-1c0-0.2,0-0.4,0-0.6c0-0.4,0-0.8,0.6-1C84.3,223.5,84.5,223.1,84.9,222.7z"/>
			<path class="st5" d="M44.7,187.9c0.2,0,0.4,0,0.6,0c0.4,0,0.8,0.2,0.9,0.2c0.2,0,0.4,0.2,0.4,0.4c0.2,0.2,0.8,0.4,1.1,0.2
				c0.4,0,0.8-0.2,1.1-0.2c0.2,0,0.4,0.2,0.4,0.2c0,0.2-0.2,0.4-0.4,0.4c-0.6,0.2-0.9,0.2-1.5,0.2c-0.2,0-0.6,0-0.8,0
				c-0.4,0-0.8-0.2-0.8-0.6c0-0.4-0.2-0.6-0.6-0.6c-0.2,0-0.6-0.2-0.8-0.2C44.7,188.1,44.7,188.1,44.7,187.9z"/>
			<path class="st5" d="M37.5,192.2c-0.4-0.2-0.6-0.4-0.8-0.6c0-0.6,0.2-1,0.2-1.5c0.6-0.4,1.9-0.2,2.3,0.2
				C38.6,190.9,38.1,191.7,37.5,192.2z"/>
			<path class="st5" d="M106.8,208.7c0,0.2-0.2,0.4-0.2,0.6c0,0,0,0-0.2,0c-0.2-0.2-0.2-0.6-0.4-0.8c0.6-0.2,0.9-0.8,1.7-0.8
				c0.2,0,0.4-0.4,0.6-0.6c0.4,0,0.8-0.4,0.8-1c0-0.2,0-0.2,0-0.4l0.2-0.2l0.2,0.2c0,0.2,0,0.4,0,0.6c0,0.4-0.2,0.6-0.4,1
				c0,0.4-0.2,0.6-0.6,0.6c-0.6,0.2-0.9,0.4-1.3,0.6C107.2,208.7,107,208.7,106.8,208.7z"/>
			<path class="st5" d="M99.5,185.6c0.6-0.6,0.6-0.6,1.3,0.2c-0.4,0.6-0.9,0.4-1.7,0.6c0.2-0.6-0.2-0.6-0.6-0.8s-0.9-0.4-1.3-0.8
				c0.4-0.6,0.4-1.1,1.1-1.1c0,0.2,0.2,0.6,0.2,0.8l0.2,0.2c0.2,0,0.4,0.2,0.2,0.4C99.4,185.4,99.6,185.4,99.5,185.6z"/>
			<path class="st5" d="M64.1,195.2c0-0.2-0.2-0.4-0.4-0.6c-0.2-0.2,0-0.4,0-0.6c0.2,0.2,0.4,0.2,0.6,0.4c0.4-0.2,0.8-0.4,1.3-0.6
				c0.2,0,0.6,0.2,0.8,0.4c0,0-0.2,0.4-0.2,0.6c0,0-0.2,0-0.2,0.2C65.4,195.4,64.8,195.4,64.1,195.2z"/>
			<path class="st5" d="M97.7,218.4c0.2,0.2,0.6,0.4,0.8,0.6c0.2,0.2,0.4,0.4,0.8,0.6c0.2,0.2,0.4,0.4,0.4,0.6
				c0.2,0.2,0.4,0.4,0.6,0.6l0.2,0.2c0,0.4-0.2,0.6-0.2,1h-0.4c-0.4-0.4-0.6-1-0.9-1.3c-0.4-0.6-0.6-1.1-0.9-1.5
				C97.7,219,97.5,218.8,97.7,218.4C97.5,218.6,97.5,218.4,97.7,218.4z"/>
			<path class="st5" d="M41.1,189.2c0-0.4-0.4-0.6,0.2-1c0.2,0.2,0.4,0.8,0.9,0.4c0.4,0.4,0.2,0.6-0.2,0.8s-0.8,0.4-1.1,0.6
				c-0.4,0.2-0.6,0.2-0.8-0.2c-0.2,0-0.2,0-0.4,0s-0.2,0-0.4,0c0.2-0.4,0.2-0.8,0.4-1.1C40.1,188.8,40.7,189,41.1,189.2z"/>
			<path class="st5" d="M43.2,188.7c0-0.2,0-0.2,0-0.4c0.2,0,0.2,0,0.4,0.2c0-0.2,0-0.2,0-0.4c0.4,0,0.6,0,0.8,0.2
				c0.2,0,0.4,0.2,0.4,0.4c0,0.4,0,0.6-0.2,1c0,0.2-0.4,0-0.6,0.2c0-0.6-0.6-0.4-0.8-0.6c-0.4-0.2-0.8-0.4-0.8-1
				C42.8,187.9,42.8,188.5,43.2,188.7z"/>
			<path class="st5" d="M44.7,190.6h0.2c0,0.2,0,0.6,0,0.8c-0.2,0.4-0.6,0.6-0.9,0.2c-0.2-0.2-0.4-0.2-0.4-0.4
				c-0.2,0-0.2-0.2-0.2-0.4c0.2,0,0.2,0,0.4,0H44c-0.2-0.2-0.2-0.2-0.4-0.4c0.4-0.2,0.6-0.2,0.9-0.4C44.5,190,44.7,190.2,44.7,190.6
				z"/>
			<path class="st5" d="M104.9,220.7c0,0.2,0,0.4-0.2,0.4c-0.4,0.2-0.4,0.4-0.4,0.6c0,0.4-0.2,0.6-0.4,0.2c-0.2,0.2-0.2,0.2-0.4,0.4
				c-0.4-0.8,0-1.3,0.4-1.9c0-0.2,0.4-0.2,0.6-0.2s0.6,0,0.8,0.2C105.3,220.5,105.1,220.5,104.9,220.7z"/>
			<path class="st5" d="M116.3,235.2c0,0,0.2,0,0.4,0.2c-0.2,0.4-0.4,0.8-0.6,1s-0.4,0.4-0.6,0.6c-0.2,0.2-0.4,0.4-0.8,0.2
				s-0.4-0.4-0.2-0.8c0.2-0.2,0.2-0.2,0.4-0.2C115.4,236,115.9,235.6,116.3,235.2z"/>
			<path class="st5" d="M90.7,184.1c-0.8,0.2-1.3,0.9-2.1,0.6c-0.2,0-0.4-0.2-0.6-0.4c0.2-0.2,0.4-0.2,0.6-0.4s0.4-0.2,0.8-0.4
				C89.6,183.7,90.3,183.9,90.7,184.1z"/>
			<path class="st5" d="M110.5,188.3c0.4-0.4,0.8,0,1.1,0c0,0,0.2,0.2,0,0.2c0,0.2-0.2,0.2-0.2,0.2c-0.4,0-0.8,0.2-1.3,0.2
				c-0.2,0-0.6-0.2-0.6-0.2c0-0.2,0.2-0.4,0.2-0.6C109.9,188,110.1,188.2,110.5,188.3C110.5,188.2,110.5,188.2,110.5,188.3z"/>
			<path class="st5" d="M110.4,200.3c0,0.4,0,1,0,1.3s0,0.6-0.2,1c-0.2,0.2,0,0.6-0.2,1c-0.2,0-0.2,0-0.4,0c0.2-1,0.2-1.7,0.4-2.7
				C110.1,200.7,110.2,200.5,110.4,200.3z"/>
			<path class="st5" d="M70.1,199.4c0.2-0.2,0.4-0.4,0.6-0.6c0.4-0.2,0.4,0,0.4,0.4c0,0.2,0,0.4,0,0.6c0,0.4-0.4,0.8-0.8,0.9
				c-0.2,0-0.2-0.2-0.4-0.2C70.1,200,70.1,199.8,70.1,199.4z"/>
			<path class="st5" d="M116.9,232.8c0.2,0.2,0.2,0.4,0.4,0.6c0.2,0.2,0.2,0.6,0.4,0.8c0,0.2,0.2,0.2,0.6,0.2
				c-0.4,0.4-0.8,0.8-1.1,1.1c-0.2-0.4-0.2-0.6-0.2-1c0.4-0.4,0.2-1,0-1.5C116.9,233,116.9,233,116.9,232.8z"/>
			<path class="st5" d="M37.9,189.6c-0.2,0-0.2-0.2-0.4-0.2c0-0.2,0.2-0.2,0.2-0.4l0.2-0.2c0.2-0.4,0.6-0.6,0.9-0.8H39
				c0.2,0.2,0,0.8-0.4,1c-0.2,0.2-0.4,0.2-0.6,0.4C38.2,189.6,38.1,189.6,37.9,189.6z"/>
			<path class="st5" d="M104.5,215.8c-0.2-0.4-0.4-1-0.9-1.1c-0.4,0-0.2-1.3,0-1.5c0,0,0.2,0,0.4,0c0,0,0,0.2,0,0.4
				c0,0.6,0.2,1,0.6,1.3C104.7,215.2,104.7,215.4,104.5,215.8z"/>
			<path class="st5" d="M110.8,204.9c-0.2,0.2-0.6,0.4-0.8,0.4c-0.2,0.2-0.6,0.2-0.9,0.2c0-0.2,0.2-0.4,0.2-0.6
				c0.2-0.2,0.4-0.6,0.8-0.8C110,204.3,110.2,204.9,110.8,204.9C110.8,204.7,110.8,204.7,110.8,204.9z"/>
			<path class="st5" d="M42.2,187.1c0-0.2-0.2-0.4-0.2-0.6c0.4-0.4,0.8,0,1.1,0.2c0.2,0.2,0.4,0.4,0.6,0.6v0.2h-0.2
				C43,187.3,42.6,187.3,42.2,187.1z"/>
			<path class="st5" d="M100.4,222.2c0.2,0,0.4,0,0.6,0c0.4,0.2,0.9,0.2,1.3,0.6c0.2,0.2,0.4,0.4,0.6,0.6c-0.9,0-1.7-0.6-2.4-1
				C100.4,222.2,100.4,222.2,100.4,222.2z"/>
			<path class="st5" d="M50.6,212.7c0.4-0.6,0.6-0.6,1.1-0.4c0.6,0.2,1.1,0.4,1.7,0.8c-0.4,0.2-0.6,0.2-0.9,0
				c-0.4-0.2-0.8-0.4-1.1-0.6C51.2,212.5,51,212.5,50.6,212.7z"/>
			<path class="st5" d="M44.1,186.8c0.4,0,0.6,0,0.9,0c0.2,0,0.2,0.2,0.2,0.4s0,0.4-0.2,0.4s-0.4,0.2-0.6,0
				C44.3,187.5,44.1,187.1,44.1,186.8C44.1,186.9,44.1,186.9,44.1,186.8z"/>
			<path class="st5" d="M41.5,187.3c-0.2,0.4-0.2,0.4-0.2,0.6c-0.2,0.4-0.6,0.4-0.9,0.2c-0.2-0.2-0.2-0.6,0-0.6
				C40.7,187.3,41.1,187.3,41.5,187.3z"/>
			<path class="st5" d="M53.8,212.9c0.4,0.2,0.9-0.2,1.3,0.2v0.2c-0.6,0.2-1.1,0.2-1.7,0.4C53.6,213.5,53.8,213.3,53.8,212.9z"/>
			<path class="st5" d="M104.7,217.5c-0.2-0.2-0.6-0.4-0.8-0.6c0.4-0.2,0.8-0.4,1.1-0.6C105.3,216.7,104.9,217.1,104.7,217.5z"/>
			<path class="st5" d="M86.2,184.4c0.4-0.2,0.8-0.4,0.9-0.6c0.2,0,0.4,0,0.8,0C87.1,184.6,86.5,184.8,86.2,184.4z"/>
			<path class="st5" d="M109.5,235.6c0-0.4-0.2-0.8-0.2-1c0.4,0,0.6,0,0.8,0C110.3,235,110.1,235.2,109.5,235.6z"/>
			<path class="st5" d="M105.6,223c-0.4,0.4-0.8,0.8-1.1,0.9c0,0-0.2,0-0.4,0v-0.2C104.7,223.4,105.1,223,105.6,223z"/>
			<path class="st5" d="M93.2,215.9c0.4,0.6,0.4,1,0,1.1C93,216.9,93,216.5,93.2,215.9z"/>
			<path class="st5" d="M105.8,220.9c0-0.4,0-0.6,0.2-1.1C106.6,220.5,106.6,220.5,105.8,220.9C106,220.9,105.8,220.9,105.8,220.9z"
				/>
			<path class="st5" d="M103.4,212.9c-0.2-0.6-0.2-0.8,0.4-1C103.6,212.1,103.6,212.5,103.4,212.9z"/>
			<path class="st5" d="M75.1,205.7c-0.2-0.6-0.2-1.3,0.2-1.7C75.1,204.6,75.3,205,75.1,205.7z"/>
		</g>
	</g>
	<g>
		<defs>
			<rect id="SVGID_7_" x="0.3" y="0.8" width="321.6" height="322.7"/>
		</defs>
		<clipPath id="SVGID_8_">
			<use xlink:href="#SVGID_7_"  style="overflow:visible;"/>
		</clipPath>
		<g class="st11">
			<g>
				<path class="st0" d="M326.6,258.8c-1.4-6.5-0.4-13.7-3.2-21.2c-1.1-3,1.1-7.9,0-15.1h-42l-0.5,21.4l-57.8-1l-0.5,23.1l-52.1-0.9
					l-0.3,18.8l-39-0.7l-0.5,24.4l185.1,3.1c1.1-0.2,2-0.4,2.9-0.9c6.6-3.3,9.3-11.7,10.2-19.1c0.2-1.3,0.2-2.8,0.4-4.3
					C329.8,277.5,328.6,267.8,326.6,258.8z"/>
				<path class="st0" d="M82.5,324.5l2.3-11.6c0,0,2-8.4,6.1-11.4l241-27.2v21.2c0,13.1,0,34.7,0,29H208.3H82.5z"/>
			</g>
			<path class="st12" d="M276.1,203.9l-13.3-0.2l3.1,9.5l13.3,0.2L276.1,203.9z"/>
			<g>
				<path class="st13" d="M308.5,222.1l-27.4-0.5c-1.3,0-2.2,0.9-2.2,2.2s0.9,2.2,2.2,2.2l27.4,0.5c1.3,0,2.2-0.9,2.2-2.2
					C310.7,223.1,309.6,222.1,308.5,222.1z"/>
				<path class="st14" d="M310.6,184.7c-0.9,0-1.7,0.7-1.7,1.7l-0.7,40.2h3.5l0.7-40C312.5,185.7,311.6,184.7,310.6,184.7z"/>
			</g>
			<g>
				<path class="st14" d="M98.8,256.1c-1.1,0-1.8,0.8-1.8,1.8L96.2,302h3.5l0.7-44C100.4,256.9,99.7,256.1,98.8,256.1z"/>
				<path class="st14" d="M97.2,265.8l28.4,0.5c0.6,0,1.1-0.6,1.1-1.1c0-0.7-0.5-1.5-1.5-1.5l-27.8-0.5L97.2,265.8z"/>
				<path class="st15" d="M107.5,260.9v0.4c0,0.2,0,0.4,0.2,0.4c0.2,0.2,0.4,0.4,0.8,0.4l11.2-0.1c0,0,0.2,0,0.2-0.2
					c0,0,0-0.2-0.2-0.2h-6.8c0,0,0,0-0.2-0.2c0-0.2-0.2-0.2-0.2-0.4v-0.4v-0.2c0-0.2,0-0.2,0.2-0.4h6.8c0,0,0.2,0,0.2-0.2
					c0,0,0-0.2-0.2-0.2l-11.2,0.1c-0.4,0-0.8,0.2-0.8,0.6C107.5,260.7,107.5,260.9,107.5,260.9z"/>
				<path class="st16" d="M107.5,260.7h5c0-0.2,0-0.2,0.2-0.4h6.8c0,0,0.2,0,0.2-0.2c0,0,0-0.2-0.2-0.2l-11.2,0.1
					C108.1,260.2,107.7,260.3,107.5,260.7z"/>
				<path class="st17" d="M105,263.6h6.1v-1.5H105c-0.4,0-0.7,0.4-0.7,0.7C104.3,263.2,104.6,263.6,105,263.6z"/>
			</g>
			<g>
				<path class="st18" d="M155.5,245.7h-4.8v-2h4.8c0.4,0,0.7,0.4,0.7,0.7v0.6C156.3,245.5,155.9,245.7,155.5,245.7z"/>
				<path class="st15" d="M160.5,244.6v0.4c0,0.2,0,0.4-0.2,0.4c-0.2,0.2-0.4,0.4-0.7,0.4l-9-0.2c0,0-0.2,0-0.2-0.2
					c0,0,0-0.2,0.2-0.2h5.5c0,0,0,0,0-0.2s0-0.2,0-0.4v-0.4V244c0-0.2,0-0.2-0.2-0.4h-5.5c0,0-0.2,0-0.2-0.2c0,0,0-0.2,0.2-0.2
					l9,0.2c0.4,0,0.6,0.2,0.7,0.6C160.5,244.6,160.5,244.6,160.5,244.6z"/>
				<path class="st16" d="M160.5,244.4h-4.1c0-0.2,0-0.2-0.2-0.4h-5.5c0,0-0.2,0-0.2-0.2c0,0,0-0.2,0.2-0.2l9,0.2
					C160.1,243.9,160.3,244,160.5,244.4z"/>
				<path class="st19" d="M150.7,244.9l1.7,0.2h-1.7V244.9z"/>
				<path class="st17" d="M152,247.4h5v-1.5h-5.2c-0.4,0-0.7,0.4-0.7,0.7v0.2C151.3,247,151.6,247.4,152,247.4z"/>
				<path class="st18" d="M156.8,247.4h5.7v-1.5h-5.7c-0.4,0-0.7,0.4-0.7,0.7v0.2C156.1,247,156.4,247.4,156.8,247.4z"/>
				<path class="st17" d="M155.7,247.4l7,0.2c0,0,0.2,0,0.2-0.2c0,0,0-0.2-0.2-0.2l-7-0.2C155.7,247.2,155.5,247.2,155.7,247.4
					C155.5,247.4,155.7,247.4,155.7,247.4z"/>
				<path class="st17" d="M155.7,246.1l7,0.2c0,0,0.2,0,0.2-0.2c0,0,0-0.2-0.2-0.2l-7-0.2C155.7,245.7,155.7,245.9,155.7,246.1
					C155.7,245.9,155.7,246.1,155.7,246.1z"/>
				<g>
					<path class="st13" d="M146.7,279l-21.4-0.3c-1.1,0-2,0.9-2,2v0.4c0,1.1,0.9,2.1,2,2.1l21.4,0.5c1.1,0,2-0.9,2-2v-0.4
						C148.8,279.9,147.8,279,146.7,279z"/>
					<path class="st14" d="M148,241.8c-0.9,0-1.7,0.7-1.7,1.7l-0.7,40h3.5l0.7-39.8C149.8,242.5,148.9,241.8,148,241.8z"/>
				</g>
				<path class="st14" d="M146.3,249.9l28.4,0.5c0.6,0,1.1-0.6,1.1-1.1c0-0.7-0.5-1.5-1.5-1.5l-28-0.5V249.9z"/>
			</g>
			<g>
				<path class="st20" d="M202.3,223.4l-0.8,0.2l2.9,10.4l0.8-0.2L202.3,223.4z"/>
				<path class="st20" d="M215.6,233.6l-11.2-0.2v0.7l11.2,0.2V233.6z"/>
				<g>
					<path class="st14" d="M193.9,236.5l32.8,0.5c0.6,0,1.1-0.4,1.1-0.9v-0.4c0-0.7-0.5-1.3-1.3-1.3l-32.6-0.5V236.5z"/>
					<g>
						<path class="st13" d="M192.8,261.1l-22.5-0.5c-0.7,0-1.5,0.7-1.5,1.5v1.5c0,0.7,0.7,1.5,1.5,1.5l22.5,0.5
							c0.7,0,1.5-0.7,1.5-1.5v-1.5C194.3,261.9,193.6,261.1,192.8,261.1z"/>
						<path class="st14" d="M195.2,223.9c-0.9,0-1.7,0.7-1.7,1.7l-0.7,40h3.5l0.7-39.8C197,224.7,196.1,223.9,195.2,223.9z"/>
					</g>
				</g>
			</g>
			<g>
				<g>
					<path class="st12" d="M275.9,213.4l8.7,0.2c0-0.4-0.4-0.7-0.7-0.7l-7.9-0.2L275.9,213.4z"/>
					<path class="st21" d="M262.7,203.7l3.1,9.5l13.3,0.2l-3.1-9.5L262.7,203.7z"/>
				</g>
				<path class="st22" d="M269.9,208.4c0,0.4,0.4,0.7,0.7,0.7c0.4,0,0.6-0.4,0.6-0.6c0-0.4-0.4-0.7-0.7-0.7
					C270,207.8,269.7,208,269.9,208.4z"/>
				<g>
					<path class="st13" d="M250.9,242.2l-28-0.5c-1.3,0-2.2,0.9-2.2,2.2s0.9,2.2,2.2,2.2l28,0.5c1.3,0,2.2-0.9,2.2-2.2
						C253,243.1,252,242.2,250.9,242.2z"/>
					<path class="st14" d="M254.9,215.6l30.6,0.5c0.6,0,1.1-0.6,1.1-1.1c0-0.7-0.5-1.5-1.5-1.5l-30.2-0.5L254.9,215.6z"/>
					<path class="st14" d="M253.5,201.8c-0.9,0-1.7,0.7-1.7,1.7l-0.7,43.2h3.5l0.7-43C255.3,202.5,254.4,201.8,253.5,201.8z"/>
				</g>
			</g>
			<g>
				<path class="st23" d="M160.7,246.3C160.7,246.3,160.9,246.5,160.7,246.3c0.2,0.2,0.2,0.2,0.2,0.2c0,0.2,0,0.6,0,0.6l0.2-0.2
					l0.2,0.2v-0.4v-0.2L160.7,246.3z"/>
				<path class="st17" d="M160.7,246.3C160.7,246.3,160.9,246.5,160.7,246.3l0.6,0.2c0,0,0-0.2-0.2-0.2H160.7z"/>
			</g>
			<g>
				<path class="st18" d="M113.4,261.9h6.2v-2h-6.2c-0.4,0-0.8,0.4-0.8,0.7v0.4C112.6,261.5,113,261.9,113.4,261.9z"/>
				<path class="st19" d="M119.5,260.9l-0.8,0.2h0.8V260.9z"/>
				<path class="st18" d="M110.7,263.8h6.8v-1.5h-6.8c-0.4,0-0.7,0.4-0.7,0.7C110,263.4,110.3,263.8,110.7,263.8z"/>
				<path class="st17" d="M109.4,263.8l8.3,0.2c0,0,0.2,0,0.2-0.2c0,0,0-0.2-0.2-0.2l-8.3-0.2C109.4,263.4,109.4,263.6,109.4,263.8
					C109.4,263.6,109.4,263.8,109.4,263.8z"/>
				<path class="st17" d="M109.6,262.3l8.3,0.2c0,0,0.2,0,0.2-0.2c0,0,0-0.2-0.2-0.2l-8.3-0.2C109.4,262.1,109.4,262.1,109.6,262.3
					C109.4,262.3,109.4,262.3,109.6,262.3z"/>
				<path class="st23" d="M115.5,262.7c0.2,0.2,0.2,0.2,0.2,0.2c0,0.2,0,0.6,0,0.6l0.4-0.2l0.2,0.2v-0.4v-0.2L115.5,262.7z"/>
				<path class="st17" d="M115.5,262.7l0.7,0.2c0,0,0-0.2-0.2-0.2H115.5z"/>
			</g>
		</g>
	</g>
	<g>
		<defs>
			<rect id="SVGID_9_" x="0.3" y="0.8" width="321.6" height="322.7"/>
		</defs>
		<clipPath id="SVGID_10_">
			<use xlink:href="#SVGID_9_"  style="overflow:visible;"/>
		</clipPath>
		<g class="st24">
			<path class="st25" d="M128.8,294.3c0.2,0.2,0.2,0.6,0.2,0.7c-0.2,0.6-0.7,1.1-1.5,1.5l-0.2,0.2c-0.6,0.6-0.4,0.7-1.5,1.9
				c-1.3,1.3-2.2,1.3-2.4,1.3c-0.2-0.2,0.2-0.7,0.7-1.7c0,0,0,0,0-0.2s0.2-0.2,0.2-0.4c0.6-0.9,0.4-1.5,0.4-2.8
				c-0.2-1.1-1.6-6.5-1.6-6.5l2.4-0.4c0,0,0.7,4.3,1.5,5c0.4,0.4,0.9,0.4,1.3,0.6C128.4,294,128.6,294.2,128.8,294.3z"/>
			<path class="st26" d="M128.8,294.3c0.2,0.2,0.2,0.6,0.2,0.7c-0.2,0.6-0.7,0.9-1.5,1.5l-0.2,0.2c-0.6,0.6-0.4,0.7-1.5,1.9
				c-1.3,1.3-2.2,1.3-2.4,1.3c-0.2-0.2,0.2-0.7,0.7-1.7c0.2,0,1.5-0.6,2.4-1.7c0.7-0.9,1.3-2.2,1.9-3
				C128.4,294,128.6,294.2,128.8,294.3z"/>
			<path class="st25" d="M108.9,292.6c-0.2,0.7-1.3,0.6-2.4,0.4c-1.3-0.4-0.9,0-2.6-0.2s-2.2-0.9-2.2-1.1s0.7-0.4,1.7-0.4
				c0.2,0,0.2,0,0.4,0c1.1-0.2,1.8-0.7,2.8-1.3c0.9-0.6,2.2-2.6,2.2-2.6l2.4,0.2c0,0-1.3,1.9-1.9,2.8c-0.4,0.6-0.4,1.1-0.2,1.7
				C109.1,292,109.1,292.2,108.9,292.6z"/>
			<path class="st26" d="M106.5,292.8c-1.3-0.4-0.9,0-2.6-0.2s-2.2-0.9-2.2-1.1s0.7-0.4,1.7-0.4c0,0,1.1,0.7,2.4,0.8
				c1.1,0,2.4-0.2,3.1-0.2c0,0.2,0,0.6,0,0.7C108.9,293.3,107.8,293.1,106.5,292.8z"/>
			<path class="st26" d="M118.4,277.4l2.2,6l2.7,7.8c0,0,0.7,0,1.5-0.2c0.7-0.2,1.5-0.7,1.5-0.7s-0.7-8.4-2-13.2
				c-0.4-1.3-0.7-2.2-1.3-2.8C120.6,271.6,118.4,277.4,118.4,277.4z"/>
			<path class="st27" d="M120.6,268.1c1.5-0.4,5.5,0.2,9.8,1.2l0.9-1.5l9-0.5c0,0,2.9,6.7,1.1,10.8c-0.2,0.6-0.7,0.9-1.5,0.9h-0.2
				c0,0-5.3,0-7-0.2c-4.4,0-9.4-3.2-9.9-3.4c-1.1-0.2-1.5,1.9-2.6,4.1s-10,9.6-10,9.6s-1.3,0-1.8-0.2c-0.6-0.2-0.7-0.6-0.7-0.6
				S117.5,269,120.6,268.1z"/>
			<path class="st28" d="M129,255.1c2.8,2.4,9.6,6.6,9.6,6.6s2.2,1.3,3.7,0.8c2.6-1.1,4.4-4.8,1.1-8.9c-1.6-2.1-3.1-2.8-2.7-5.6
				c0.4-3-0.9-6.7-4.2-7.1c-0.4,0-2-0.2-3.3,0.2C129.9,241.7,124.4,253.4,129,255.1z"/>
			<path class="st25" d="M138.4,251.8c0,0-0.7,1.5-1.7,1.9c-1.1,0.4-2.6-0.4-2.6-0.4c0.2-0.2,0.4-0.7,0.2-1.7c0,0,0,0,0-0.2
				c0-0.9-0.4-2-0.4-2l3.3-0.9h0.2C137.6,251.2,137.8,251.8,138.4,251.8z"/>
			<path class="st29" d="M137.3,248.6c-0.4,0.9-1.1,2.8-3,3c0-0.9-0.4-2-0.4-2L137.3,248.6z"/>
			<path class="st25" d="M133.2,250.5c0,0,4.4-0.2,4.2-3s0.2-4.7-2.6-4.7c-2.9,0-3.3,1.1-3.5,2C131.4,245.8,132.1,250.4,133.2,250.5
				z"/>
			<path class="st28" d="M132.7,242.6c0,0,1.1,3.4,3.7,3.7c1.8,0.4,2.8-0.2,2.8-0.2s-1.1-1.1-1.6-2.6c-0.2-0.6-0.5-0.7-1.1-0.9
				C134.9,242.5,133.2,241.5,132.7,242.6z"/>
			<path class="st28" d="M133.6,243.2c0,0-0.7,0.4-1.3,1.5c-0.4,0.7-0.6,2.2-0.4,2.8c0,0-1.3-3-0.4-4.3S133.6,243.2,133.6,243.2z"/>
			<path class="st0" d="M141.8,262.2c0,0.4-0.2,0.7-0.2,0.9c-0.2,0.4-0.2,0.9-0.2,1.3c-0.2,1.1-0.2,1.7-0.2,2.4
				c0,0.4-0.2,0.7-0.4,1.3c-0.2,0.6-5,0.9-7.7,0.7c-0.9,0-1.5-0.2-1.8-0.4c-0.9-0.9-0.9,0.9-0.9-8c0-4.5,3.9-8.4,3.9-8.4
				s0.4,1.9,4.1-0.4c0.2,0,1.6,2.2,2.9,4.8C142.8,259.6,142.4,260.3,141.8,262.2z"/>
			<path class="st27" d="M120.4,283.5l2.7,7.8c0,0,0.7,0,1.5-0.2c0.7-0.2,1.5-0.7,1.5-0.7s-0.7-8.4-2-13.2L120.4,283.5z"/>
			<path class="st0" d="M134.3,251.9c0,0-3.9,0.5-4.4,2.2c-0.6,1.7-3.7,11-3.7,11s2.4,0.9,3.3,0c0.9-0.9,3.3-8.4,3.3-8.4
				L134.3,251.9z"/>
			<path class="st7" d="M134.1,248.8c0,0-0.2,0.6-0.6,0.6c-0.6,0-0.6,0-0.7,0c-0.2,0-0.2-0.2-0.2-0.2S133.2,248.6,134.1,248.8z"/>
			<path class="st30" d="M141.4,264.3c-0.2,1.1-0.2,1.7-0.2,2.4c-3.5,0-8.1-2.8-8.1-2.8L141.4,264.3z"/>
			<path class="st30" d="M133,261.6c0,0,5.5,0,6.5-3.1c1.1-3.3,2.2,1.5,2.2,1.5l-0.6,3.2h-5.9L133,261.6z"/>
			<path class="st22" d="M134.1,266.8h-8.5l-4-10.1h8.5L134.1,266.8z"/>
			<path class="st25" d="M133,262.4l-0.5-0.7c0,0-0.4-0.4-0.7-0.4c-0.4,0-0.9-0.4-0.9-0.4c0,0.2,0.5,0.9,0.5,0.9
				c-0.6,0.6-2.2,0-2.4,0.2s0.4,0.7,0.5,1.1c0.4,0.4,1.1,0.7,1.8,0.6c0.6-0.2,1.3-0.4,1.3-0.4L133,262.4z"/>
			<path class="st0" d="M138.4,251.8c0,0,3.5,0.4,4.4,1.7c0.9,1.5,1.8,8.6,1.2,11s-11.8-0.8-11.8-0.8l0.4-2c0,0,6.4,0.2,7-0.7
				C140,259.8,138.4,251.8,138.4,251.8z"/>
			<path class="st25" d="M122.3,258.6c0,0,0.6-0.6,0.9-0.4c0.4,0.4-0.2,1.7-0.4,1.5C122.3,259.7,122.1,258.8,122.3,258.6z"/>
		</g>
	</g>
	<g>
		<defs>
			<rect id="SVGID_11_" x="0.3" y="0.8" width="321.6" height="322.7"/>
		</defs>
		<clipPath id="SVGID_12_">
			<use xlink:href="#SVGID_11_"  style="overflow:visible;"/>
		</clipPath>
		<g class="st31">
			<path class="st32" d="M213.1,261.6c0,0,0.4,4.3-0.6,4.3c-0.2,0-3.7,0-3.7,0h-4.6c0,0,0-1.1,1.5-1.3c1.3-0.2,4.1-1.3,5-3.1
				C211.5,259.3,213.1,261.6,213.1,261.6z"/>
			<path class="st27" d="M241.7,239.9c0,0,0,0.7-0.2,1.9c-0.2,2-2,3.7-4.1,3.7c0,0-9.9-0.4-13.3-0.2c-1.1,0-4.1,0.4-4.4,0.5
				c-0.6,0.4,1.5,3.7-6.3,16.9l-3.7-0.2c0,0,3.6-21.2,5.6-22.1c2.4-1.3,12.9-3.1,14.9-3.1C232.2,237.1,241.7,239.9,241.7,239.9z"/>
			<path class="st25" d="M231.9,217.2c-1.3,0.7-1.3,2.4-1.3,2.4c3.1,0.9,7.7-2.6,7.7-2.6s-2-1.3-2.7-4.5c0-0.2,0-0.4-0.2-0.4
				c0-0.6-0.2-1.1-0.2-1.7l-1.5,1.3l-2.4,2c0,0,0,0.9,0.4,2.4C231.9,216.6,231.9,216.8,231.9,217.2z"/>
			<path class="st27" d="M230,233.5c0.2,0.7-0.2,1.3-0.2,1.9c0,0.2,0,0.4,0,0.6c0,0.4,0,0.7,0,1.1c-0.2,0.9-0.6,1.1-0.4,1.7
				c0,0,0.7,0.4,2,0.9c0.6,0.2,1.3,0.6,2,0.8c0,0,0,0,0.2,0c3.1,0.9,6.4,1.1,7.4,1.1c1.8,0,2.2-4.5,1.7-10.2
				c-0.9-8.9-2.2-13.2-5.8-16.4c-0.2-0.2,0,0.6-1.3,1.1c-1.1,0.6-2.6,0.5-3.5,0.4l-0.9,0.9c-1.7,2.6-1.9,5.8-1.9,8.4
				c0.2,2.6,0.4,4.8,0.5,6.7C229.8,232.8,229.8,233.2,230,233.5z"/>
			<path class="st29" d="M231.5,213.8c0,0-0.2-0.2,0.2,1.5c2.6-0.7,3.5-2,3.9-3c0.2-0.2-0.9-0.4-1.7-0.6L231.5,213.8z"/>
			<path class="st25" d="M230.2,213.8c0,0,5.2,0.8,5.5-2.4c0.4-3.2,1.5-5.2-1.8-6c-3.1-0.6-4.1,0.5-4.4,1.5
				C229.1,208,228.9,213.4,230.2,213.8z"/>
			<path class="st33" d="M237.4,205.6c0,0,0.2,0,0.4-0.2c0,0-0.2-0.2-0.4-0.2c0-0.4-0.2-0.7-0.7-0.9c0,0,0.2,0.2,0.4,0.4
				c-0.5-0.6-1.8-1.1-5.3-0.8c-4.6,0.4-3.1,3.3-2.6,3.7c0.6,0.4,2-0.6,3.1-0.5c1.1,0.2,1.3,1.7,1.6,1.9c0.4,0.2,0.2-0.2,0.7-0.4
				c0.6-0.2,0.6,0.6,0.4,1.1c-0.2,0.6,0.5,1.3,0.5,1.3s0,0,0.7-0.7C237.2,209.7,238,206.2,237.4,205.6z"/>
			<path class="st32" d="M229.6,235.9c0,0.4,0,0.7,0,1.1c7.2-1.5,7.8-11.7,7.8-11.9l-7.4,6.3c0,0-0.2,0.2-0.2,0.7
				c0,0.4,0.2,0.9,0.2,1.3c0.2,0.7-0.2,1.3-0.2,1.9C229.6,235.6,229.6,235.8,229.6,235.9z"/>
			<path class="st25" d="M218.7,233.9c0,0-0.6,0-0.9-0.2c-0.6-0.2-2.2-0.9-2.6-0.9c-0.4,0.2-1.3,0.7-1.7,0.7
				c-0.2,0.2-0.7,0.7-0.7,0.7c0.2,0.2,0.7,0.2,1.1,0.2c0.4,0,2.4,0.8,2.9,0.8c0.6,0,1.7,0,1.7,0L218.7,233.9z"/>
			<path class="st25" d="M217.8,233.7c0,0-0.7-0.6-0.9-0.9c0,0-0.2,0-0.2,0.2s0.2,0.6,0.2,0.6L217.8,233.7z"/>
			<path class="st27" d="M231.5,218.8c3.7-2.2,8.1,1.9,6.2,5.8c-2.2,4.6-5.9,10.2-8.7,10.6c-2,0.2-7.7,0.9-10.3,0.3
				c0,0-1.1,0-0.5-1.9c0,0,7.9-2,9.2-3.9C228.1,228.9,229.4,227,231.5,218.8C231.3,218.8,231.5,218.8,231.5,218.8z"/>
		</g>
	</g>
	<g>
		<defs>
			<rect id="SVGID_13_" x="0.3" y="0.8" width="321.6" height="322.7"/>
		</defs>
		<clipPath id="SVGID_14_">
			<use xlink:href="#SVGID_13_"  style="overflow:visible;"/>
		</clipPath>
		<g class="st34">
			<path class="st25" d="M280.5,212.5c0,0,0.4-0.2,0.9-0.2c2.2-0.2,7-1.6,7.6-2c0.9-0.7,5-3.9,6.5-5.6l1.3-1.5
				c1.5-1.5,0.2-4.5,0.2-4.5s-2.6,1.1-3.5,2c-0.6,0.7-5.4,6.3-5.9,6.5c-1.8,0.9-7.2,3.9-7.8,4.1C280,211.4,279.2,211.9,280.5,212.5z
				"/>
			<path class="st32" d="M266,239.8c0,0,0.2,4.1-0.4,4.1h-3.5h-4.2c0,0,0-1.1,1.3-1.3s3.7-1.3,4.6-3
				C264.6,237.6,266,239.8,266,239.8z"/>
			<path class="st17" d="M296.4,215.9c0,0-0.6,7.3-1.1,8.6c0,0-0.4-0.2-2.4-0.2c-2.6,0-14.9-0.4-16.6,0.3c-0.6,0.2-1.9,5.9-10,15.4
				c0,0-0.7,0.6-2,0.4c-1.1-0.2-1.3-0.4-1.3-0.4s8-19.3,9.7-21c2.6-2.4,15.9-4.8,17.7-4.8C292.3,214.4,296.4,215.9,296.4,215.9z"/>
			<path class="st32" d="M274.9,240.2c0,0,0.2,3.9-0.4,3.9H271h-4.2c0,0,0-1.1,1.3-1.3s3.7-1.3,4.6-3
				C273.4,238,274.9,240.2,274.9,240.2z"/>
			<path class="st23" d="M301.3,215.9c0,0-0.2,2-0.4,4.1c-0.4,2.6-1.9,4.1-4.4,4.4c-1.7,0.2-3.7,0-5.2,0c-6.4-0.2-8.7-0.4-10.3,0.3
				c-0.6,0.2,1.6,3.9-6.1,15.4c0,0-0.6,0.4-1.8,0.6c-0.7,0.2-1.7-0.2-1.7-0.2s2.7-18.6,4.7-20.6c1.5-1.5,12.2-3.1,14.2-3.1
				C292.3,216.8,301.3,215.9,301.3,215.9z"/>
			<path class="st20" d="M306.7,206.8c-0.2,0.6-0.4,1.3-0.6,2v0.2c-0.4,1.1-0.7,2.4-1.1,3.7c-1.1,3.7-2.8,7.1-4.3,7.8
				c-0.2,0-4.4,0-7.2-1.3c-0.9-0.4-1.7-0.9-2.4-1.5c-1.1-0.7-1.8-1.7-2.6-2.4c-0.4-0.6-0.4-1.1,0.2-1.7c1.1-0.9,3-2.6,3.3-3.7
				c0.4-0.9,0.9-2.6,1.3-4.1c-2.2-0.6-2.6-3-2.6-3s3.5-3.7,4.6-4.4c1.5-0.9,3.3-0.9,4.1-1.1c1.8-0.4,4.2-0.2,7.4,1.5
				c0.7,0.4,1.8,1.3,2.6,2.8C310.6,203.5,308.9,207,306.7,206.8z"/>
			<path class="st25" d="M301.7,200.3c-1.8,0.2-1.8-1.3-1.8-1.3v-0.9V197c0,0,0.2,0,0.2-0.2c0.4-0.2,1.3-0.7,2-0.9
				c0.7-0.4,1.3-0.6,1.3-0.4c0,0.2,0,0.4,0.2,0.6c0.2,0.7,0.5,1.7,0.9,2.2C304.7,199.2,303.4,200.1,301.7,200.3z"/>
			<path class="st25" d="M280,211.4c0,0-1.1,0.2-1.7,0s-4.1,1.1-3.5,1.1c0.4,0,2.4-0.2,2.9-0.2c0.6,0,0.7,0,0.6,0.2
				c-0.2,0.2-1.5,0.2-1.1,0.4s1.7,0.2,2,0c0.6-0.2,0.9-0.4,1.3-0.6C280.9,212.3,280,211.4,280,211.4z"/>
			<path class="st35" d="M303.6,195.9c-0.2,0.4-1.5,2.2-3.9,2.2V197c0,0,0.2,0,0.2-0.2c0.4,0,0.6-0.2,0.6-0.2L303.6,195.9z"/>
			<path class="st36" d="M299.2,197.1c0,0,4.4,0.6,4.8-2.4c0.2-2.8,0.9-4.6-1.8-5c-2.9-0.4-3.5,0.5-3.9,1.5
				C297.9,192.1,298.1,196.9,299.2,197.1z"/>
			<path class="st33" d="M305.7,189.5c0,0,0.2,0,0.4,0c0,0-0.2-0.2-0.4-0.2c0-0.4-0.2-0.7-0.7-0.9c0,0,0.2,0.2,0.4,0.6
				c-0.5-0.6-1.8-1.1-5.3-1c-4.6,0.2-3.1,3.3-2.6,3.7c0.6,0.4,2-0.6,3.1-0.5c1.1,0.2,1.3,1.7,1.6,2.1c0.4,0.2,0.2-0.2,0.7-0.4
				c0.6-0.2,0.6,0.6,0.4,1.1c-0.2,0.6,0.5,1.3,0.5,1.3s0,0,0.7-0.7s1.5-4.1,1.1-4.6C305.7,189.7,305.7,189.5,305.7,189.5z"/>
			<path class="st25" d="M305.6,204.8c0,0-3.2,8.5-4.1,9.1c-0.9,0.7-10.5,2.6-10.5,2.6l-1.1,1.7c0,0,10.9,1.3,13.8-0.7
				c1.5-1.1,6.3-9.8,6.3-9.8L305.6,204.8z"/>
			<path class="st20" d="M309.1,200.9c0,0,1.5,1.9,1.1,4.5s-1.3,4.3-1.3,4.3l-6.8-3.4L309.1,200.9z"/>
			<path class="st25" d="M290.8,216.5c0,0-2-0.6-2.8-0.6c-0.7,0.2-2.6,1.9-2.2,2c0.4,0.2,2.2-0.6,2.6-0.2c0.4,0.4,1.3,0.6,1.8,0.4
				c0.6-0.2,0.7-1.5,0.7-1.5L290.8,216.5z"/>
		</g>
	</g>
	<g>
		<defs>
			<rect id="SVGID_15_" x="0.3" y="0.8" width="321.6" height="322.7"/>
		</defs>
		<clipPath id="SVGID_16_">
			<use xlink:href="#SVGID_15_"  style="overflow:visible;"/>
		</clipPath>
		<g class="st37">
			<path class="st23" d="M170.4,249.9l-4.6,5.2l5.9-1.7L170.4,249.9z"/>
			<path class="st27" d="M167.6,242.3l-0.2-0.1l-2.1,4.4l0.2,0.1L167.6,242.3z"/>
			<path class="st27" d="M165.5,246.7l-0.2,0.4l0.4-0.4H165.5z"/>
			<path class="st26" d="M177.2,223.6c0,0,1.3-0.4,2.8,0.2c3.1,1.7,1.6,4.1,3.3,5.2s3.1,3.9,2,5.6c-1.1,1.7-3.1,1.8-4.1,0.5
				c-0.9-1.1-3.7-0.9-3.5-2.6c0.4-1.7,1.9-7.2,0.6-7.1C176.6,225.9,177.2,223.6,177.2,223.6z"/>
			<path class="st26" d="M172.2,226.2c0,0,1.7-3.5,5-2.6c3.1,0.8,2.9,7.5,1.1,7.6C176.8,231.5,172.2,226.2,172.2,226.2z"/>
			<path class="st38" d="M181.3,244.3l-3.2,6.9c0,0-2.8,3-5,1.8l7.6-13L181.3,244.3z"/>
			<path class="st25" d="M160.2,282.2c0,0.7-1.1,0.9-2.4,0.9c-1.3,0-0.9,0.4-2.6,0.5c-1.7,0.2-2.4-0.2-2.6-0.6
				c-0.2-0.2,0.7-0.6,1.7-0.7c0.2,0,0.2,0,0.4-0.2c0.9-0.4,1.5-1.3,2.4-2c0.7-0.7,1.5-3.2,1.5-3.2l2.4-0.4c0,0-0.7,2.2-1.1,3.2
				c-0.2,0.6,0,1.1,0.2,1.7C160.2,281.6,160.2,282,160.2,282.2z"/>
			<path class="st39" d="M157.9,283.3c-1.3,0-1.1,0.2-2.8,0.4c-1.7,0.2-2.4-0.2-2.6-0.6c-0.2-0.2,0.7-0.6,1.7-0.7
				c0,0,1.1,0.6,2.6,0.2c1.1-0.2,2.2-0.9,3.1-1.1c0,0.2,0.2,0.6,0.2,0.7C160.2,283.1,159.2,283.3,157.9,283.3z"/>
			<path class="st26" d="M161.9,257.3c2.2-1.9,12.9-6.3,17.2-6.4l5-1.5c0,0,3.7,6.2,3.5,10.8c-0.2,2-1.1,2.2-1.1,2.2
				s-15.1-0.8-15.7-0.8c-1.1,0-2.6,2.6-3.2,5.2c-0.6,2.4-7.2,12.1-7.2,12.1s-1.3,0.4-1.8,0.4c-0.7,0-0.9-0.4-0.9-0.4
				S159.3,259.5,161.9,257.3z"/>
			<path class="st25" d="M164,282.6c0,0.7-1.1,0.9-2.4,0.9c-1.3,0-0.9,0.4-2.6,0.5c-1.7,0.2-2.4-0.4-2.4-0.6
				c-0.2-0.2,0.7-0.6,1.7-0.7c0.2,0,0.2,0,0.4-0.2c0.9-0.4,1.5-1.3,2.4-2c0.7-0.7,1.5-3.2,1.5-3.2l2.4-0.4c0,0-0.7,2.2-1.1,3.2
				c-0.2,0.6,0,1.1,0.2,1.7C164,282,164,282.2,164,282.6z"/>
			<path class="st40" d="M161.8,283.5c-1.3,0-0.9,0.4-2.6,0.5c-1.7,0.2-2.4-0.2-2.6-0.6c-0.2-0.2,0.6-0.6,1.7-0.9
				c0,0,1.1,0.6,2.6,0.2c1.1-0.2,2.2-0.9,3.1-1.1c0,0.2,0.2,0.6,0.2,0.7C164,283.3,162.9,283.5,161.8,283.5z"/>
			<path class="st27" d="M164.7,257.6c1.3-1.1,7.6-3.3,11.6-4.4c0.9-0.2,10.5-4.4,10.5-4.4s0.7,13.4-1,13.4
				c-3.3-0.2-14.4-0.4-14.9-0.4c-1.5,0-1.7,3.9-2.4,6.7c-0.7,2.8-4.1,10.4-4.1,10.4s-1.3,0.4-1.8,0.4c-0.7,0-0.9-0.4-0.9-0.4
				S162.1,260.1,164.7,257.6z"/>
			<path class="st25" d="M176.2,236.8c0,0,1.7,0.2,2.6-0.4c0.9-0.6,1.3-2.4,1.3-2.4c-0.4,0-1.1-0.2-1.8-2.8l-0.2,0.2l-3,1.7
				c0,0,0.4,0.9,0.7,2C176,235.9,176.4,236.7,176.2,236.8z"/>
			<path class="st29" d="M175.1,233.1c0,0,0,0.2,0.4,1.1c1.7-0.9,2.4-1.9,2.8-2.8L175.1,233.1z"/>
			<path class="st25" d="M174.4,233.5c0,0,4.4-0.5,4.1-3.3c-0.4-2.8,0-4.8-2.9-4.7c-2.9,0.2-3.3,1.3-3.3,2.4
				C172.2,228.8,173.2,233.5,174.4,233.5z"/>
			<path class="st26" d="M172.4,226.2c0,0,2.8,2.6,4.8,2.8s2.8-0.4,2.8-0.4s-1.1-0.9-1.8-2.6c-0.2-0.4-0.6-0.7-1.1-0.9
				C175.7,225.1,172.9,225.1,172.4,226.2z"/>
			<path class="st26" d="M174.2,226c0,0-0.9,0.9-1.3,1.7c-0.4,0.7-0.4,2.2-0.2,3c0,0-1.5-3-0.5-4.5C173.1,224.7,174.2,226,174.2,226
				z"/>
			<path class="st22" d="M173.9,243.9c2,8.9-1.7,7.1-0.6,7.8c0.4,0.2,2,2.6,7,2.8c2.8,0,6.6-0.9,6.6-1.5c0.2-1.9-1.3-6.1-1.4-8.9
				c0-0.4,0-0.6,0-0.9c0-1.9,0.4-2.6-1.8-5.2c-2-2.4-4-4.3-4.2-4.1c-3.1,2.8-3.9,1.1-3.9,1.1l-0.4,0.2
				C174.5,236.3,173,240.4,173.9,243.9z"/>
			<path class="st23" d="M175.3,235.2c0,0-3.1,1.3-3.1,3s-2.1,15.1-2.1,15.1s5-0.5,5.7-1.7c0.6-0.9,0-7.6-0.1-10.4
				c0-0.7,0-1.5,0-2.2L175.3,235.2z"/>
			<path class="st23" d="M188.1,261.6c0,0-2.6,3.3-9.6,2.4c0,0-0.7-6.9-0.7-12.8c0-1.3,0-2.6,0.2-3.7v-0.2
				c0.4-3.5,1.7-13.2,1.7-13.2l2.6,2.6l3.3,0.2c0,0,0.9,2.6,1.6,12.3C187.9,256.8,188.1,261.6,188.1,261.6z"/>
			<path class="st25" d="M166.6,245.4c0,0-0.7,0.6-0.9,0.7c-0.2,0-0.4,0-0.4,0l0.6-0.6L166.6,245.4z"/>
			<path class="st25" d="M166.8,244.6l-1.8,0.6c0,0,0,0.2,0.2,0.2s0.7,0,0.7,0L166.8,244.6z"/>
			<path class="st25" d="M169.9,245.8c0,0-2.6-1.1-3.1-0.9c-0.6,0.2-1.7,0.7-1.8,1.1c-0.2,0.4,0.9,0,1.5,0c0.2,0,0.7,0.4,1.1,0.6
				c1.1,0.7,2,0.6,2,0.6L169.9,245.8z"/>
			<path class="st17" d="M185.2,241.3c0,0-0.4,7.4-2.2,8.5c-1.7,0.9-4.1,1.1-5,1.1c0-1.3,0-2.6,0.2-3.7V247L185.2,241.3z"/>
			<path class="st23" d="M179.7,233.9c0,0,4.1,0.6,5.3,1.7c2.4,2.1-1.7,11.3-3.4,13c-1.8,2-12.5-0.8-12.5-0.8s-0.5-1.3,0.6-2
				c0.4-0.2,8.8-0.5,9-0.9s1.5-5.8,1.3-6.5C180,237.6,179.7,233.9,179.7,233.9z"/>
		</g>
	</g>
	<g>
		<defs>
			<rect id="SVGID_17_" x="0.3" y="0.8" width="321.6" height="322.7"/>
		</defs>
		<clipPath id="SVGID_18_">
			<use xlink:href="#SVGID_17_"  style="overflow:visible;"/>
		</clipPath>
		<path class="st41" d="M115,113.6h-3.5l0.1-23.9h-1.3l-0.1,23.9l-67.6-0.3l0.1-23.9h-1.3l-0.1,23.9h-4.4l-4.5,8.5l87.2,0.3
			L115,113.6z"/>
	</g>
	<g>
		<defs>
			<rect id="SVGID_19_" x="0.3" y="0.8" width="321.6" height="322.7"/>
		</defs>
		<clipPath id="SVGID_20_">
			<use xlink:href="#SVGID_19_"  style="overflow:visible;"/>
		</clipPath>
		<path class="st42" d="M278.9,113.5h-3.5l0.1-23.9h-1.3l-0.1,23.9l-67.6-0.3l0.1-23.9h-1.3l-0.1,23.9h-4.4l-4.5,8.5l87.2,0.3
			L278.9,113.5z"/>
	</g>
	<g>
		<defs>
			<rect id="SVGID_21_" x="0.3" y="0.8" width="321.6" height="322.7"/>
		</defs>
		<clipPath id="SVGID_22_">
			<use xlink:href="#SVGID_21_"  style="overflow:visible;"/>
		</clipPath>
		<g class="st43">
			<path class="st25" d="M36.7,285.5c-1.5,9.4-2.8,19.5-2.2,24.8c0.4,1.5,1.8,2,3,2.2l-0.8,0.9l-2.3,0.1l-3.1-1.2
				c0,0,0.2-0.6,0.3-1.7c0.2-1.3-0.4-4.1-0.4-4.1s-1.5-9.9-0.7-12.1c0.2-0.6,0.4-1.4,0.5-2.1l0,0c0.3-2,0.1-4.4-0.1-6.7
				c-0.2-2.5-0.4-5-0.2-6.8c1.1-8.1,1.1-15.1,1.1-15.1H38c0,0,1.7,4.9,0.9,9.2C38.2,276.5,37.4,280.9,36.7,285.5z"/>
			<path class="st44" d="M30.9,292.3c0.3-2,0.1-4.4-0.1-6.7l4.5-1.8l1.3,1.8C36.5,285.7,33.1,289.7,30.9,292.3z"/>
			<path class="st25" d="M48.6,257.5c0,0,0.7-0.7,1.2-1.1s1.9-0.7,2-0.1c0.1,0.3-0.4,0.9-0.8,1.1c-0.4,0.2-0.4,0.5-0.8,0.9
				c-0.4,0.4-1.3,0.4-1.3,0.4L48.6,257.5z"/>
			<path class="st26" d="M28.1,251.4c-0.3-0.6,6.4-2.6,6.5,3c0,0,12.5-0.3,6.5-7.3c-2.1-2.4-1.9-4.4-1.8-6.3
				c0.1-1.9-1.3-7.3-5.9-6.7c0,0-1.2-0.5-2.7,0.3C27.3,236.2,19.6,253.5,28.1,251.4z"/>
			<path class="st45" d="M36.8,258c0,0,0.4,0.9,1.2,1.9c1,1.2,2.5,2.6,4.3,2.9c0.9,0.1,1.8-0.1,2.6-0.4l0,0c2.3-1,4-3.3,4-3.3
				c0.4-1.1-0.3-1.8-0.3-1.8s-4.6,1-5,0.8s-3-7.6-3.6-8.5s-2.7-1.4-2.7-1.4L36.8,258z"/>
			<path class="st46" d="M38.1,259.9c1,1.2,2.5,2.6,4.3,2.9c0.9,0.1,1.8-0.1,2.6-0.4c-0.1,0-2.4,0.3-3.3-1.3
				c-0.9-1.7-1.9-4.3-3.3-3.4C37.8,258,37.8,259,38.1,259.9z"/>
			<path class="st25" d="M23.9,314c0,0-1.5,0-2.1,0s-1.3-0.5-1.5-1.6s-1.4-1.7-1.7-2.6c-0.2-0.6,0.3-1.1,0.7-1.4
				c0.2-0.2,0.4-0.3,0.5-0.4c0.4-0.4,0.8-2.3,0.8-2.3l2.2,1.2c0,0-1.1,1.8-0.4,3.8c0.3,0.9,0.5,1.8,1.2,2.3c0.1,0.1,0.3,0.2,0.5,0.3
				C25,313.7,23.9,314,23.9,314z"/>
			<path class="st45" d="M25.5,254.4c0,0-0.1,1.7,0,3.6c0.1,1.3,1.4,3.1,1.6,3.5c0.5,1.1,1,1.3,1,1.3l4.1,1l1.5,0.4l4.6-1.4
				c0,0,2.1-5.8,1.2-9.1c-0.8-3.3-2.1-5.6-2.1-5.6s-5.3-1.4-9.3-0.2L25.5,254.4z"/>
			<path class="st25" d="M28.4,263.5c0,0-3.5,4.6-3.8,7.8c-0.3,3.1,2.7,11.8,2,14.9c-0.5,2.3-3.2,4.1-4,9.8c-0.3,2-1.2,6-2.1,9.7
				l1.9,1.9c4.6-10.4,9.3-17,9.6-19.3c0.2-1.6,1.1-10.2,4.9-16.5c0.9-1.5-0.6-7.6-0.6-7.6L28.4,263.5z"/>
			<path class="st23" d="M39.1,274.2c-0.5,6.2-1.1,11.4-1.1,11.4s-2.9,1.9-7,2.2l0,0l0,0c-1.9,0.1-4-0.1-6.2-1.1
				c0,0-0.8-15-0.3-17.4s2.9-5.7,2.9-5.7l10.7,0.4C38.1,264.1,39.6,268,39.1,274.2z"/>
			<path class="st17" d="M38.3,262.6c0,0-0.9,0.7-2.7,0.8c-2.2,0-7.5-0.6-7.5-0.6s-0.2,0.7-0.2,1.4c0,0,6.5,1.6,10.3,0.2
				C38.2,264.4,38.7,263.5,38.3,262.6z"/>
			<g>
				<path class="st7" d="M35.1,264.1c0-0.6,0.4-1.1,1-1.1c0.5,0,1,0.5,1,1.1s-0.4,1.1-1,1.1C35.6,265.2,35.1,264.7,35.1,264.1z
					 M35.5,264.1c0,0.4,0.3,0.8,0.7,0.8s0.7-0.4,0.7-0.8s-0.3-0.8-0.7-0.8C35.8,263.3,35.5,263.7,35.5,264.1z"/>
			</g>
			
				<rect x="22.3" y="257.7" transform="matrix(0.6567 -0.7542 0.7542 0.6567 -187.9916 111.394)" class="st26" width="12.2" height="8.9"/>
			<path class="st25" d="M29.6,263.9c0,0,2.5,0.3,2.4,0.9c0,0.6-0.6,1.8-0.9,1.8c-0.3,0.1-2-1.6-2-1.6L29.6,263.9z"/>
			<path class="st45" d="M28.8,247.8c0,0-3.3,0.2-4.5,3.3c-1.3,3.1-3.6,8.2-3.6,9s1.3,3.5,8.5,5.1c0,0,0.7-0.8,0.7-1.4
				c0,0-4.5-3.8-4.5-4.3c0-0.8,0.7-2,4.7-5.9C31.1,252.6,28.8,247.8,28.8,247.8z"/>
			<g>
				<path class="st22" d="M48.1,266.2l9.8-28.9c0-0.1,0.1-0.3,0-0.3h-0.1c-0.1,0-0.2,0-0.2,0.2l-10.5,28.5c-0.1,0.3,0,0.6,0.3,0.7
					l0.2,0.1C47.8,266.5,48,266.4,48.1,266.2z"/>
			</g>
			<path class="st25" d="M49.4,257.4c0,0,0.4,0,0.9-0.1c0.4-0.1,0.8-0.3,0.8-0.3c0.3,0.2-0.7,0.8-0.9,1.1c-0.2,0.3-0.4,0.4-1,0.5
				L49.4,257.4z"/>
			<path class="st26" d="M33.7,313.9c1.4-0.2,1,0.2,2.9,0.2s2.6-0.6,2.7-0.9c0.1-0.2-0.8-0.4-1.8-0.7l0,0c0,0-1.2,0.7-2.8,0.5
				c-1.3-0.1-2.6-0.6-3.5-0.7c-0.1,0.3-0.1,0.6-0.1,0.9C31.2,314.1,32.4,314.1,33.7,313.9z"/>
			<path class="st26" d="M23.9,314c0,0-1.5,0-2.1,0s-1.3-0.5-1.5-1.6s-1.4-1.7-1.7-2.6c-0.2-0.6,0.3-1.1,0.7-1.4
				c0.2,0.3,0.7,1.2,1.2,2.8c0.6,1.9,2,1.9,3.1,1.8c0.1,0.1,0.3,0.2,0.5,0.3C25,313.7,23.9,314,23.9,314z"/>
			<path class="st25" d="M29.3,247.7c0.7-0.1,1.2-0.6,1.4-1.3c0.3-0.8,0.5-1.9,0.5-3.3h0.2l3.5,0.7c0,0-0.1,1.1-0.1,2.1l0,0
				c0,0.9,0.6,1.7,1.4,1.9c0.4,0.1-2.1,3.5-2.4,3.4C33.3,251.2,29.1,247.7,29.3,247.7z"/>
			<path class="st47" d="M34.9,243.8c0,0-0.1,1.1-0.1,2.1c-2-0.1-3-1.8-3.4-2.8L34.9,243.8z"/>
			<path class="st25" d="M35.6,244.8c0,0-4.6,0.1-4.6-2.8c0-2.9-0.6-4.8,2.3-5s3.5,0.9,3.8,1.9C37.3,239.9,36.8,244.7,35.6,244.8z"
				/>
			<path class="st26" d="M35.4,237c0,0-1.3,3.4-3.2,3.9c-1.9,0.5-2.8,0-2.8,0s1.5-1.2,1.8-3.2C31.2,237.6,34.5,235.4,35.4,237z"/>
			<path class="st26" d="M35.1,237.2c0,0,0.9,0.4,1.3,1c0.4,0.7,0.7,1.6,0.6,2.6c0,0,1-2.3-0.1-3.6S35.1,237.2,35.1,237.2z"/>
			<path class="st7" d="M34.7,243.1c0,0,0.1,0.3,0.9,0.3c0,0,0.7,0,0.7-0.4C36.3,243,35.6,242.7,34.7,243.1z"/>
			<path class="st48" d="M33.9,251.3c0,0-3.1-3.3-3.2-4.7c0,0-0.8,0.2-1.7,1.1c0,0,0.8,1.9,1.6,2.5c0,0,0.7-0.1,1.2-0.3
				c0,0-0.3,0.5-0.6,0.9C31.2,250.8,32.6,251.6,33.9,251.3z"/>
			<path class="st48" d="M35,246.8c0,0,1.2,2.3-1.1,4.6c0,0,1.5-0.3,2.2-1.3c0,0-0.2-0.6-0.4-0.7c0,0,0.4-0.2,0.7,0.1
				c0,0,0.2-1.2,0-1.6S35.4,246.7,35,246.8z"/>
			<path class="st26" d="M33.7,251.3c0-0.1,0.1-0.2,0.2-0.2s0.2,0.1,0.2,0.2c0,0.1-0.1,0.2-0.2,0.2S33.7,251.5,33.7,251.3z"/>
			<path class="st26" d="M34.9,254.6c0-0.1,0.1-0.2,0.2-0.2c0.1,0,0.2,0.1,0.2,0.2s-0.1,0.2-0.2,0.2C35,254.9,34.9,254.8,34.9,254.6
				z"/>
			<path class="st26" d="M35.1,258.5c0-0.1,0.1-0.2,0.2-0.2s0.2,0.1,0.2,0.2s-0.1,0.2-0.2,0.2S35.1,258.6,35.1,258.5z"/>
			<path class="st17" d="M39.1,274.2c-0.5,6.2-1.1,11.4-1.1,11.4s-2.9,1.9-7,2.2c0.1,0,2.4-0.9,4.1-2.9
				C36.9,282.8,39.1,274.2,39.1,274.2z"/>
		</g>
	</g>
</g>
</svg>
