<svg width="78" height="116" viewBox="0 0 78 116" fill="none" xmlns="http://www.w3.org/2000/svg">
<path d="M45.6838 16.525L43.5919 15.9556L41.3098 24.3072C39.0278 23.9276 36.7457 23.548 34.4637 23.548C32.3718 23.548 30.0897 23.7378 27.9978 24.1174C18.8696 25.8257 11.0726 30.9506 5.93796 38.7328C0.80334 46.3252 -1.09837 55.6259 0.613169 64.547C3.08539 77.0745 12.0234 86.9446 23.6239 90.7408L21.3418 99.0925L23.4337 99.6619C26.4765 100.421 29.5192 100.991 32.5619 100.991V111.051H12.7841V115.226H56.1432V111.051H36.5555V100.991C43.4017 100.611 50.0577 98.7128 56.1432 95.2963C66.2222 89.602 73.2586 80.3013 76.3013 69.1025C82.3868 46.515 68.6945 22.599 45.6838 16.525ZM19.25 32.0895C20.5811 33.9876 22.673 36.0755 25.7158 36.2653C27.9978 36.4551 29.8995 35.1264 31.2307 34.3672C31.6111 34.1774 31.9914 33.9876 32.1816 33.7978L32.5619 34.3672C33.703 36.8347 33.8931 37.0245 33.3226 39.4921C32.9423 41.58 31.4209 48.0335 37.3162 49.9316H37.5064C36.9359 50.5011 35.4145 51.8297 31.8013 52.9686C25.7158 55.0565 21.1517 56.575 20.2008 60.1814C19.4401 63.0285 21.7222 65.3062 22.4829 65.8757C22.673 66.0655 22.8632 66.2553 22.8632 66.4451C21.9123 67.3942 16.9679 67.9636 15.4465 67.584C15.4465 66.8247 15.6367 65.3062 15.8269 64.1674C16.2072 61.3202 16.7777 57.524 15.4465 54.4871C14.4957 52.2093 12.7841 50.5011 11.2628 48.9826C8.9807 46.8947 7.83968 45.566 8.41019 43.4781C8.41019 42.7188 8.9807 41.9596 9.36105 41.2004C12.0234 37.4041 15.2564 34.3672 19.25 32.0895ZM4.60676 63.9776C3.65591 59.0425 4.03625 53.9176 5.55762 49.1724C6.31831 50.1214 7.26916 51.0705 8.02985 51.8297C9.36105 53.3482 10.6922 54.6769 11.2628 56.1954C12.0234 58.2833 11.6431 61.1304 11.2628 63.598C10.8824 66.8247 10.3119 70.0515 12.9743 71.3802C13.9252 71.7598 15.4465 72.1394 17.1581 72.1394C20.5812 72.1394 24.5747 71.1904 26.2863 69.1025C26.8568 68.533 28.188 66.0655 25.5256 63.2183C24.5747 62.0795 24.3846 61.51 24.3846 61.3202C24.7649 59.9916 30.0897 58.2833 33.1325 57.1444C39.0278 55.2463 42.0705 52.589 42.0705 49.7418C42.0705 48.9826 41.6902 46.8947 38.8376 45.9456C37.6966 45.566 36.7457 44.8067 37.6966 40.4411C38.4572 36.6449 38.0769 35.506 36.5555 32.4691L35.985 31.7098C35.4145 30.571 34.6538 29.8117 33.5128 29.6219C31.8013 29.0525 30.2799 30.0016 28.9487 30.9506C27.8077 31.52 26.8568 32.2793 25.9059 32.2793C24.9551 32.2793 24.0042 31.3302 23.2435 30.3812C25.1453 29.6219 27.047 29.0525 28.9487 28.6729C30.8504 28.2933 32.7521 28.1034 34.6538 28.1034C43.4017 28.1034 51.3889 31.8997 57.094 37.9736C55.5727 38.7328 53.8611 39.8717 53.1004 41.58C52.7201 42.7188 52.5299 44.2373 54.0513 46.3252C56.7137 49.9316 56.3333 50.8807 55.1923 53.1584C52.9103 57.524 53.8611 63.9776 57.094 67.9636C58.4252 69.6719 60.3269 70.8107 62.2286 71.3802C61.0876 73.6579 59.9466 75.7458 58.2351 77.6439C51.7692 71.0006 49.4872 71.57 48.7265 71.57C47.9658 71.7598 47.2051 71.9496 46.4444 72.3292C43.9722 73.2783 42.0705 73.8477 40.359 72.519C38.4572 71.0006 36.1752 70.6209 33.8931 71.3802C31.2307 72.3292 28.7585 74.7968 27.9978 77.6439C27.8077 78.593 27.4273 79.9216 28.188 81.2503C28.9487 82.579 30.2799 82.7688 31.4209 82.9586C32.3718 83.1484 33.1325 83.1484 33.8931 83.7178C34.844 84.4771 35.6047 85.9956 35.6047 87.514C35.6047 88.0835 35.6047 88.4631 35.4145 88.6529C35.2243 88.6529 34.844 88.6529 34.6538 88.6529C20.0106 88.4631 7.45933 78.2133 4.60676 63.9776ZM63.5598 67.2043C62.2286 67.2043 61.0876 66.6349 60.1368 65.3062C58.0449 62.6489 57.2842 57.9036 58.8056 55.0565C60.7073 51.2603 60.8975 48.6029 57.2842 43.6679C56.9039 43.2883 56.9039 43.0985 56.9039 42.9086C56.9039 42.529 58.2351 41.7698 59.5663 41.2004C61.8483 44.4271 63.3697 48.2233 64.1304 52.3992C65.2714 57.524 64.891 62.6489 63.5598 67.2043ZM36.3654 80.3013C34.844 79.1624 33.1325 78.7828 31.9914 78.593C32.3718 77.0745 33.703 75.7458 35.0342 75.3662C35.985 74.9866 36.7457 75.1764 37.6966 75.7458C41.3098 78.593 45.4936 77.0745 47.9658 76.1254C48.3461 75.9356 48.9167 75.7458 49.297 75.7458C50.2479 76.1254 52.7201 78.2133 55.1923 80.6809C51.1987 84.4771 46.0641 87.1344 40.359 88.0835C40.1688 88.0835 39.9786 88.0835 39.7884 88.0835C39.7884 87.8937 39.7884 87.514 39.7884 87.3242C39.5983 84.4771 38.2671 81.8197 36.3654 80.3013ZM72.1176 68.3432C69.4552 78.4032 62.9893 86.7548 53.8611 92.0695C45.4936 97.0046 35.7948 98.523 26.2863 96.4351L27.4273 92.2593C29.7094 92.6389 31.9914 93.0185 34.2735 93.0185C36.3654 93.0185 38.6474 92.8287 40.7393 92.4491C59.7564 88.6529 72.1175 70.4311 68.5043 51.8297C66.0321 39.3023 57.094 29.4321 45.4936 25.6359L46.6346 21.4601C66.2222 27.7238 77.6325 48.2233 72.1176 68.3432Z" fill="#373334"/>
<path d="M15.5344 1.52588e-05C7.0066 1.52588e-05 0.228058 7.10114 0.228058 15.7556C0.228058 22.8568 11.1612 38.8343 14.4411 43.4944C14.6598 43.9382 15.0971 44.1601 15.7531 44.1601C16.1904 44.1601 16.6278 43.9382 17.0651 43.4944C20.345 38.8343 31.2781 22.8568 31.2781 15.7556C31.0595 7.10114 24.0623 1.52588e-05 15.5344 1.52588e-05ZM15.5344 21.9691C11.5985 21.9691 8.31857 18.6405 8.31857 14.6461C8.31857 10.6517 11.5985 7.32305 15.5344 7.32305C19.4704 7.32305 22.7503 10.6517 22.7503 14.6461C22.969 18.6405 19.689 21.9691 15.5344 21.9691Z" fill="#373334"/>
</svg>
