<?xml version="1.0" encoding="utf-8"?>
<!-- Generator: Adobe Illustrator 25.2.0, SVG Export Plug-In . SVG Version: 6.00 Build 0)  -->
<svg version="1.1" id="Layer_1" xmlns="http://www.w3.org/2000/svg" xmlns:xlink="http://www.w3.org/1999/xlink" x="0px" y="0px"
	 viewBox="0 0 322 323" style="enable-background:new 0 0 322 323;" xml:space="preserve">
<style type="text/css">
	.st0{fill:#F1F5FF;}
	.st1{fill:#D9E9FC;}
	.st2{fill:#B1BBC9;}
	.st3{fill:#96D9C9;}
	.st4{fill:#50BFA5;}
	.st5{fill:#3C8F7C;}
	.st6{fill:#D9E9FC;stroke:#D9E9FC;stroke-miterlimit:10;}
	.st7{fill:#D9E9FC;stroke:#D9E9FC;stroke-width:1.0244;stroke-miterlimit:10;}
	.st8{fill:#D9E9FC;stroke:#D9E9FC;stroke-width:1.128;stroke-miterlimit:10;}
	.st9{fill:#D9E9FC;stroke:#D9E9FC;stroke-width:0.9356;stroke-miterlimit:10;}
	.st10{fill:#D9E9FC;stroke:#D9E9FC;stroke-width:0.9192;stroke-miterlimit:10;}
	.st11{fill:#F7A491;}
	.st12{fill:#355389;}
	.st13{fill:#327765;}
	.st14{fill:#184655;}
	.st15{fill:#F79C8D;}
	.st16{fill:#F48C7F;}
	.st17{fill:#F47458;}
	.st18{fill:#F7CC7F;}
	.st19{fill:#FAE0B2;}
	.st20{fill:#B75742;}
	.st21{fill:#1A2538;}
	.st22{fill:#13375B;}
	.st23{fill:#EA9081;}
	.st24{fill:#274F89;}
	.st25{fill:#283A56;}
	.st26{fill:#5184CE;}
	.st27{fill:#FFFFFF;}
	.st28{fill:#466EB6;}
	.st29{fill:#D3A17F;}
	.st30{fill:#F9D0AF;}
	.st31{fill:#B64C41;}
	.st32{fill:#F7AA74;}
	.st33{fill:#163560;}
	.st34{fill:#2D427C;}
	.st35{fill:#365DA4;}
	.st36{fill:#E89258;}
	.st37{fill:#A53934;}
	.st38{fill:#1C468A;}
	.st39{fill:#CCBCB2;}
	.st40{fill:#EFE5DF;}
	.st41{fill:#A2C5F9;}
	.st42{fill:#AFCDFB;}
	.st43{fill:#C7DCF9;}
	.st44{fill:#D2E4F9;}
	.st45{fill:#29446D;}
	.st46{fill:#F8A492;}
	.st47{fill:#FE875E;}
</style>
<path class="st0" d="M360.9,153.3h-2.6h-0.8h-3.1h-0.8H351h-0.8h-3.1h-0.8h-2.5v-24.6l2.9,1.3l0.8-1.5l0.2-0.3l0.8-1.4l-0.3-0.1
	l-1.2-0.6l-2.7-1.3l-0.4-0.2l-7.7-3.7l-0.6-0.3l-0.9-0.4l-0.6-0.3l-2.6-1.3l-1.5-0.7l-1.6-0.7l-0.6-0.3l-2.5-1.2l-1.3-0.6l-1.8-0.9
	l-0.6-0.3l-1-0.5l-0.6-0.3l-1.1-0.6l-23.4,11.3l-0.4,0.2l-0.9,0.5l-0.6,0.3l-2.8,1.4l-1,0.5l-0.3,0.1l0.7,1.3l0.2,0.3l0.6,1.1
	l0.3,0.4l0.1,0.2l2.4-1.1l0.4-0.2v24.6h-2.6h-0.8h-3.2h-0.8h-2.6h-0.8h-3.1h-0.8h-2.6h-0.8H273h-0.8h-2.6h-0.8h-3.1h-0.8h-2.6h-0.8
	h-2.7V134h5.8l-0.6-0.7l-0.2-0.3l-0.5-0.5l-0.3-0.3l-0.5-0.5l-0.2-0.3l-0.8-1l-0.8-1l-0.8-1h-1.1h-0.6h-1.6v-4.5h0.8V121h-17.6v2.8
	h0.8v4.5H240h-0.6h-1.8H237h-2h-0.5h-1.8h-0.6h-1.9h-0.5h-1.8h-0.6h-1.8h-0.6h-1.6h-0.6h-1.8h-0.6h-1.8H218h-1.8H216h-1.8h-0.5H212
	h-0.6h-1.8h-0.4h-1.9h-0.6h-1.8h-0.4h-1.9h-0.5h-1.8h-0.5h-1.1l-0.6,0.6l-1.1,1.3l-0.8,1l-0.2,0.3l-0.5,0.6l-0.3,0.3l-0.4,0.5
	l-0.2,0.3l-0.6,0.7h5.8v17.7l-28.4-18l-13.4,8.6v-2.1h1.1v-2.8h-16v-12.8l3.9,1.2l2.5-2.8l-11.9-3.7V110h1v-2.5h-16v2.5h1v5
	l-13.8-4.3l-39.7,12.2l2.5,2.8l3.9-1.2v14.6l-0.8-1h-0.3h-0.8h-3.1h-0.8h-2.6h-0.8h-3.1h-0.8h-2.6H60h-3.2H56h-2.6h-0.8h-3.1h-0.8
	h-2.6H45h-3.1h-0.8h-2.6v-24.6l0.4,0.2l2.5,1.1l0.1-0.1l0.3-0.6l0.7-1.3l0.7-1.3l-0.9-0.4l-0.6-0.3l-4.3-2.1h-0.1l-6.9-3.3l-0.9-0.4
	l-0.5-0.2l-5.9-2.8l-0.1-0.1L16.9,99l-0.4,0l-1.4-0.6l-0.2-0.1l-1.4-0.7l-1.1,0.6l-1.6,0.7L10.5,99l-5.9,2.8L4.2,102l-1.8,0.8
	L1.9,103l-4,2l-0.4,0.1l-0.9,0.4l-0.3,0.1l-6.1,3l-0.6,0.3l-1.3,0.6l-0.3,0.1l-2.7,1.3l-1.2,0.6l-0.3,0.1l1.5,2.6l0.3,0.6v0.1l2.2-1
	l0.6-0.3v24.6h-2.5h-0.8H-18h-0.8h-2.6h-0.8h-3.1h-0.8h-2.7h-0.8h-1.2v71h392v-56L360.9,153.3L360.9,153.3z"/>
<path class="st1" d="M336.7,206.7H-5.9v75.9h342.6V206.7z"/>
<path class="st2" d="M850.1,239.4H482.2v51.2h367.9V239.4z"/>
<path class="st3" d="M327.7,239.8h-333v85.8h333V239.8z"/>
<g>
	<path class="st4" d="M257.2,321.3c0,0,14.4-18.2,23.5-20.9c9-2.9,0.4,8.2,0.4,8.2s16.2-16.8,22-15.1c5.4,1.4,0,11.6,0,11.6
		s6-5.7,13.4-5.7s-5.6,21.5-5.6,21.5L257.2,321.3z"/>
	<path class="st5" d="M260.4,297.6c2.8-4.2,3.2-9.5,3.2-13.1c0-4-0.8-6.8-0.8-6.8h0.2c0,0,0.8,3,0.8,7
		C263.8,288,263.2,293.2,260.4,297.6z"/>
	<path class="st5" d="M264,278.7c-0.4,0.8-0.6,1.6-0.4,2.4c0.8-0.2,1.4-0.6,1.8-1.4s0.6-1.6,0.4-2.4
		C265.2,277.5,264.4,278.1,264,278.7z"/>
	<path class="st5" d="M265,281.1c-0.8,0.4-1.2,1.2-1.4,2c0.6,0.2,1.4,0,2.2-0.4c0.8-0.4,1.2-1.2,1.4-2
		C266.6,280.7,265.8,280.7,265,281.1z"/>
	<path class="st5" d="M264.6,284.6c-0.6,0.4-1,1-1,1.8c0.6,0.2,1.2,0.2,1.8-0.2c0.6-0.4,1-1,1-1.8
		C266,284.1,265.2,284.1,264.6,284.6z"/>
	<path class="st5" d="M262.4,280.5c-0.6-0.4-1.4-0.4-2-0.2c0.2,0.6,0.6,1.2,1.2,1.6s1.4,0.4,2,0.2
		C263.4,281.5,263,280.9,262.4,280.5z"/>
	<path class="st5" d="M262.4,282.9c-0.6-0.4-1.4-0.4-2-0.2c0.2,0.6,0.6,1.2,1.2,1.6s1.4,0.4,2,0.2C263.4,284,263,283.4,262.4,282.9z
		"/>
	<path class="st5" d="M264.2,288.4c-0.4,0-0.6,0.4-0.8,0.6c0.2,0.2,0.6,0.2,1,0.2s0.6-0.4,0.8-0.6
		C265,288.4,264.6,288.1,264.2,288.4z"/>
	<path class="st5" d="M261.4,300.6c6.2-1.6,10.9-6.2,13.9-9.9c3.2-4,4.8-7.6,4.8-7.6l0.2,0.2c0,0-1.8,3.8-5,7.6
		c-3,3.6-7.8,8.4-14.2,10.1L261.4,300.6z"/>
	<path class="st5" d="M280.1,281.7c-0.6,1-0.8,2-0.6,3.2c1-0.2,2-0.6,2.6-1.6s0.8-2,0.6-3.2C281.9,280.1,280.9,280.7,280.1,281.7z"
		/>
	<path class="st5" d="M280.3,285.5c-1,0.2-2,1-2.4,2c0.8,0.6,2,0.8,3,0.4c1-0.2,2-1,2.4-2C282.5,285.5,281.5,285.4,280.3,285.5z"/>
	<path class="st5" d="M279.5,289c-1.2-0.2-2.2,0-3,0.6c0.6,0.8,1.4,1.6,2.6,1.8c1.2,0.2,2.2,0,3-0.6
		C281.5,290,280.5,289.4,279.5,289z"/>
	<path class="st5" d="M276.9,292.2c-1.2-0.2-2.2,0-3,0.6c0.6,0.8,1.4,1.6,2.6,1.8c1.2,0.2,2.2,0,3-0.6
		C278.9,293.2,278.1,292.4,276.9,292.2z"/>
	<path class="st5" d="M277.7,287c0-1-0.2-2-0.8-2.8c-0.6,0.6-1.2,1.4-1.2,2.6c0,1,0.2,2,0.8,2.8C277.1,289,277.7,288,277.7,287z"/>
	<path class="st5" d="M275.1,290.2c0-1-0.2-2-0.8-2.8c-0.6,0.6-1.2,1.4-1.2,2.6c0,1,0.2,2,0.8,2.8
		C274.5,292.2,274.9,291.4,275.1,290.2z"/>
	<path class="st5" d="M272.9,295.4c-0.4-0.2-0.8-0.4-1.2-0.2c0,0.4,0.4,0.8,0.8,1.2c0.4,0.2,0.8,0.4,1.2,0.2
		C273.5,296,273.4,295.6,272.9,295.4z"/>
	<path class="st5" d="M244.9,309.5h-0.2c0.4-7.3-2.2-14.1-4.6-18.5c-2.4-4.8-5-8.1-5.2-8.1l0.2-0.2c0,0,2.6,3.2,5.2,8.1
		C242.7,295.4,245.3,302.3,244.9,309.5z"/>
	<path class="st5" d="M233.9,282.5c0.6,1,1.6,1.6,2.4,1.8c0.2-1,0-2.4-0.6-3.4s-1.6-1.6-2.4-1.8
		C232.9,280.3,233.1,281.5,233.9,282.5z"/>
	<path class="st5" d="M237.1,284c0,1.2,0.4,2.4,1,3.2c0.6-0.6,1.2-1.8,1.2-3s-0.4-2.4-1-3.2C237.7,281.5,237.1,282.5,237.1,284z"/>
	<path class="st5" d="M239.7,286.1c-0.6,1-0.6,2.4-0.4,3.4c0.8-0.2,1.8-1,2.2-2c0.6-1,0.6-2.4,0.4-3.4
		C241.1,284.3,240.3,284.9,239.7,286.1z"/>
	<path class="st5" d="M241.7,291.6c-0.2,0.4-0.4,1-0.2,1.4c0.4,0,0.8-0.4,1-0.8s0.4-1,0.2-1.4C242.3,291,241.9,291.2,241.7,291.6z"
		/>
	<path class="st5" d="M242.5,293.6c-0.2,0.4-0.4,1-0.2,1.4c0.4,0,0.8-0.4,1-0.8s0.4-1,0.2-1.4C243.1,293,242.7,293.2,242.5,293.6z"
		/>
	<path class="st5" d="M236.5,287.2c-1,0-1.8,0.4-2.2,1.2c0.6,0.8,1.4,1.2,2.4,1.2s1.8-0.4,2.2-1.2
		C238.3,287.5,237.3,287.2,236.5,287.2z"/>
	<path class="st5" d="M237.9,290c-1,0-1.8,0.4-2.2,1.2c0.6,0.8,1.4,1.2,2.4,1.2s1.8-0.4,2.2-1.2C239.7,290.4,238.9,290,237.9,290z"
		/>
	<path class="st5" d="M240.5,293.8c-0.6,0-1.2,0.4-1.4,0.8c0.4,0.4,1,0.8,1.6,0.8s1.2-0.4,1.4-0.8
		C241.5,294.2,241.1,293.8,240.5,293.8z"/>
	<path class="st5" d="M268.1,321.3c0-1.2-7.2,0.2-7.8-1.4c-0.6-1.6,6.2-1.8,6.2-4s-3.4-0.6-5.4-0.6s4-1,4-1.8s-2.2-0.4-2.2-1.2
		c0-0.8,11.1-1.4,9.8-3.4c-1.4-2-7.2,0.6-8.9-0.4c-1.6-1,8.8-2.2,8.9-3.8c0.2-1.6-7.5,1.4-8.8,0.2c-1.2-1.2,12.5-5.2,12-8.2
		c-0.6-3-10.3,3.8-12.8,3c-2.4-0.8,12.3-11.3,8.9-15.3s-10,13.5-12.2,12.9s2.8-11.1,0.6-12.9c-2.2-1.8-8.8,14.7-9.2,18.1
		s-1.2-7.3-4.8-8.7c-3.6-1.2-0.2,6.7-0.8,9c-0.6,2.4-3.6-6.2-7.4-5.6c-4,0.6,7.2,8.4,6,10.8c-1,2.2-9.5-7.6-12.2-5
		c-2.6,2.6,10.2,10.1,9.5,12.3c-0.8,2-8.4-1.4-10.8,0.8c-2.2,2.2,8.4,3.6,9.8,3.6s6.8,1.8,1.6,1.4
		C236.9,321,268.1,322.6,268.1,321.3z"/>
	<path class="st4" d="M247.6,322.8c0,0-8.8,0.4-11.1-1.2c-2.6-1.6-0.6-2.8-0.6-2.8s-8-0.2-8-2c0-2,2-1.8,2-1.8s-4-2.8-3.4-4.4
		c1.2-2.6,7.8,2,7.8,2s-2.2-2.6-0.4-3.2C238.7,307.5,247.6,322.8,247.6,322.8z"/>
	<path class="st5" d="M226.7,310.3c-0.8,1.8,3.4,4.4,3.4,4.4s-3,0-2.4,1.8c0.4,1.8,7.8,2.4,7.8,2.4s-2.6,0.6,0,2.2
		s12.3,1.4,12.3,1.4L226.7,310.3z"/>
</g>
<g>
	<path class="st6" d="M200.6,183.1H164v35.6h36.5v-35.6H200.6z"/>
	<path class="st6" d="M220.9,164.4l-22.8,21.9V215h45.6v-28.6L220.9,164.4z"/>
	<path class="st6" d="M194.1,189.1l26.9-24.7l26.4,24.7"/>
	<path class="st6" d="M155.6,184l31-28.5L217,184"/>
	<path class="st6" d="M29.8,170.9h-49.2v36.5h49.2V170.9z"/>
	<path class="st6" d="M28.7,205.2h-49.2v2.2h49.2V205.2z"/>
	<path class="st6" d="M56.1,145.7l-30.7,29.5v38.5h61.4v-38.5L56.1,145.7z"/>
	<path class="st6" d="M20,178.9l36.1-33.2l35.5,33.2"/>
	<path class="st6" d="M-21.6,184.5l36.1-27.2l35.6,27.2"/>
	<path class="st6" d="M294.3,174.1h-19.5v19.7h19.5V174.1z"/>
	<path class="st7" d="M322,166.9h-29.8v40.4H322V166.9z"/>
	<path class="st6" d="M294.3,193.8H275v24.9h19.3V193.8z"/>
	<path class="st6" d="M327.5,188.7h-23.2v30h23.2V188.7z"/>
	<path class="st6" d="M271.8,157.1l-16.3,15.7v20.4h32.7v-20.4L271.8,157.1z"/>
	<path class="st6" d="M254.7,191h32.7v-1.3"/>
	<path class="st6" d="M253.5,174.2l19.7-21.9l21.1,22.9"/>
	<path class="st6" d="M281.3,195.7H250v23.1h31.2L281.3,195.7L281.3,195.7z"/>
	<path class="st6" d="M283.3,191.2h-24.2h-0.7H248l-2.5,7.7h12.9h0.7h26.5L283.3,191.2z"/>
	<path class="st6" d="M250.6,192.9h33.2l-0.5-1.7H248l-2.5,7.7h3.4L250.6,192.9z"/>
	<path class="st8" d="M330.4,154.9h-32.8h-1.3h-18.1l-4.2,16.9h22.2h1.3h37L330.4,154.9z"/>
	<path class="st6" d="M304.3,145.7L290,162.9h14.3h14.2L304.3,145.7z"/>
	<path class="st9" d="M118.3,174.7h15.9v17.1h-15.9V174.7z"/>
	<path class="st9" d="M102.5,174.7h15.7v17.1h-15.7V174.7z"/>
	<path class="st9" d="M118.3,191.8H134v21.5h-15.7V191.8z"/>
	<path class="st9" d="M102.5,191.8h15.7v21.5h-15.7V191.8z"/>
	<path class="st10" d="M141.9,172.1l10.7,9.1v11.8h-21.3v-11.8L141.9,172.1z"/>
	<path class="st10" d="M134.5,198.2h20.4v16.6h-20.4V198.2z"/>
	<path class="st9" d="M118.3,153.2l23,29.5h-23h-23L118.3,153.2z"/>
	<path class="st10" d="M143.6,179.6l15.9,21h-15.9h-15.8L143.6,179.6z"/>
	<rect x="229.5" y="162.9" class="st6" width="11" height="20.8"/>
	<rect x="72" y="151.1" class="st6" width="11" height="20.8"/>
	<path class="st6" d="M49.2,179.6h13.4v32.8H49.2V179.6z"/>
</g>
<g>
	<path class="st11" d="M259.8,260.4c0,0-0.2,2.4-0.7,3.1c0,0,0,0.2-0.2,0.2c-0.2,0.5-0.2,1.7-0.2,1.7l5,1.2c0.2,0,0.2-0.2,0-0.5
		s-0.5-0.5-1.7-1.4c0,0-0.2-0.2-0.5-0.5c-0.2-0.2-0.5-0.5-0.5-0.7c-0.2-0.5,0-2.4,0-2.4L259.8,260.4z"/>
	<path class="st12" d="M261.7,264.4c-1.5,0-2.5-0.5-3-0.7c-0.2,0.5-0.7,1.7-0.7,1.7c1.2,0.2,2.5,0.7,6.2,1.5c0.2,0,0.2-0.5,0.2-0.5
		C264.2,266.2,261.7,264.4,261.7,264.4z"/>
	<path class="st13" d="M259.5,232.3c0,0-0.7,3.1-0.2,5.5c0.5,2.1,3.6,8.1,4.1,11.3c-0.7,1.4-2.1,3.6-2.6,5.5
		c-0.5,2.1-1.7,7.4-1.7,7.4l2.3,0.5l6.2-13.2l-1.2-16.1l-1.2-4.1L259.5,232.3z"/>
	<path class="st11" d="M244.3,253.5c0,0-1.9,1.7-2.6,1.9c-0.5,0.2-1.4,0.2-1.7,0.7c-0.2,0.5,3.1,5.3,3.1,5.3c0.2,0.2,0.2,0,0.2-0.2
		c0-0.5,0-1-0.2-2.1v-0.5c0-0.2,0-0.7,0-1c0-0.5,1.9-1.9,1.9-1.9L244.3,253.5z"/>
	<path class="st14" d="M271.6,211c0.2-2.6-1.7-5-4.6-4.3c-0.7,0.2-1.4,0.5-1.9,1c-1.4,1.2-1.9,2.6-3.3,3.9c-1.2,1-3.6,0-5,0.7
		c-1.4,0.5-2.6,1.9-2.8,3.9c-0.5,2.1-0.5,4.3,0.7,6s3.6,2.4,5.4,2.4c2.1,0,4.1-1,5.7-2.4c1.7-1.4,2.8-2.9,3.8-4.8
		C271,214.8,271.4,212.7,271.6,211z"/>
	<path class="st15" d="M261.9,212.4c0,0-1.7-6-2.1-7.4c-0.5-1.2-1.4-6.3-1.4-6.5s1.9-1.9,1.4-2.1c-0.2-0.2-1,1-1.2,0.7
		c-0.2-0.2-0.7-3.4-0.7-3.1c-0.5,0.2,0,1.9,0,1.9c-0.2,0-0.5-1.9-0.7-1.9c-0.5,0,0.2,1.7,0.2,1.9c-0.2,0-1-1.7-1.2-1.4
		c-0.2,0.2,0.7,1.4,0.5,1.7c-0.2,0-1-1-1.2-0.7c-0.2,0.2,0.7,0.7,1,1.4c0.2,0.7,0.7,1,0.7,2.1s-0.5,5,0.2,7.2c0.7,2.1,2.1,7,2.1,7
		L261.9,212.4z"/>
	<path class="st16" d="M275,237.6c-0.2-0.5-0.7-1.2-0.7-1.2s0.5,0,0.5,0.2l0.2,0.2h0.2l-0.2-0.5c-0.5-0.2-1.7-0.7-1.7-1
		c-0.2,0-1.4-2.6-1.9-3.6c-0.7-1.4-1.4-2.9-1.7-3.1l-1.4-6.8l-2.6-0.5c0,0,1.7,7.7,1.7,7.9s2.1,3.4,2.1,3.4c1.2,1.4,2.1,2.9,2.3,3.1
		c0,0,0.2,1,0.5,1.4c0.3,0.5,0.2,0.7,0.5,1C273.3,237.8,274.1,237.8,275,237.6z"/>
	<path class="st17" d="M267.9,216.7c0,0,1.9,1.4,1.4,7.9l-3.8,0.2l-0.5-4.3L267.9,216.7z"/>
	<path class="st5" d="M260,230.2c0,0-2.3,2.1-3.3,4.3c-1,2.1-1.7,8.6-3.1,11.5c-1.4,1-3.8,1.7-5.2,2.9c-1.4,1.4-5.7,5-5.7,5l1.9,2.1
		l12.6-7.4l7.1-12l2.3-3.4L260,230.2z"/>
	<path class="st18" d="M264.7,215.3c0,0-2.3-0.7-3.6,0.2c-1.2,0.7,0,9.6,0,10.8c-0.2,1.4-2.1,3.6-2.1,3.6s5.7,4.6,7.6,3.9
		c0,0,2.1-10.3,2.1-11.3s-0.5-5-0.7-5.5C267.6,216.5,264.7,215.3,264.7,215.3z"/>
	<path class="st11" d="M266.4,212.4c-0.2,0.7-1.2,2.4-1.4,2.9c-0.5,0.5,0.5,2.9,1.9,2.9c0.5,0,0-1.9,0.2-2.1
		c0.2-0.2,0.2-0.7,0.5-1.2c0-0.2,0.2-0.5,0.2-0.7c0.2-0.7,0.5-1.4,0.5-1.4L266.4,212.4z"/>
	<path class="st11" d="M268.8,207.8c0,0-1-0.2-1.7,0.2c-0.7,0.7-1.9,2.9-0.7,4.8c1.2,1.7,3.1,0.5,3.6-1
		C270.5,210.3,271.2,208.3,268.8,207.8z"/>
	<path class="st11" d="M270.5,211.9c-0.2,0.2-0.7,0.5-0.7,0.2c-0.2-0.2,0-0.5,0.2-1c0.2-0.2,0.7-0.5,0.7-0.2
		S270.7,211.7,270.5,211.9z"/>
	<path class="st11" d="M266.2,210.3c0,0.5-0.2,0.7-0.5,0.7s-0.5-0.5-0.5-0.7c0-0.5,0.2-0.7,0.5-0.7
		C266.2,209.5,266.4,209.8,266.2,210.3z"/>
	<path class="st19" d="M261.4,210.5c0,0,2.6,4.3,2.6,5.8c0.2,1.4-1.2,3.4-2.6,3.1c-1.4-0.2-2.8-7.4-2.8-7.4L261.4,210.5z"/>
	<path class="st12" d="M291.4,249.1l-0.5,0.7l1.4,0.7l0.2-0.2L291.4,249.1z M291.2,250.1l0.2-0.2l0.7,0.7L291.2,250.1z"/>
	<path class="st20" d="M276.9,251.1c0,0-3.6,0.7-7.4,1.7c-4.1,1-4.8,0.7-5.2,0c-0.5-0.7-0.2-1.7-0.2-1.7s-1.2,1-1,2.6
		c0,1.7,1.2,1.9,1.2,1.9l1-0.2l-0.7,1c0,0,1.2,1,2.6,0s1.9-1.7,1.9-1.7s-1,1.7-1.4,2.1c0,0,1.2,1,2.1,0c1-1,1.7-2.1,1.7-2.1l-1,2.4
		c0,0,1.2-0.2,2.3-1.9l-0.7,1.7c0,0,1.7-1.4,2.3-3.1c1-1.7,1.9-1.7,1.9-1.7L276.9,251.1z"/>
	<path class="st20" d="M282.7,260.1c0,0-0.7,4.1-3.8,4.8c-0.7,0.2-2.1,1.2-1.9,1.9c0,0.7,1.4,2.4,1.4,2.4s1.2,0.2,1.2,1.7
		c0,0.2-0.2,0-0.2,0l-2.8-0.7l-1.4-4.8l0.7-2.6l2.3-3.6l3.1,0.7L282.7,260.1z"/>
	<path class="st20" d="M296.5,260.5c0,0,2.3,6.3,2.8,7.7c0.5,1,0.2,1.9,0.2,1.9s-0.5,1.7-1,1.9h-0.2c-1,0-1.4-1-1-1.7
		c0.2-0.2,0.2-0.7,0.5-0.7c0-0.5,0-0.5,0-0.5l-3.3-3.1l-0.5-4.1L296.5,260.5z"/>
	<path class="st17" d="M293.7,261.3l-1.9,5l-1,6c0,0,1.2,0.5,1.4,1.4c0.2,0.7,0.2,0.7,0.2,0.7l-3.1-0.7c0,0-1.2-6.5-1-7.2
		s0.2-4.6,0.5-5c0-0.5,1-2.6,2.3-2.4C292.7,259.3,293.7,261.3,293.7,261.3z"/>
	<path class="st17" d="M299.7,247.2l-0.5-1.2c0,0-2.3-1.2-3.8-0.5c-0.5,0.2-1,0.7-1.2,1.4c-0.2,0.2-0.2,1-0.5,1.7
		c-0.2,0.7-0.5,1.2-0.7,1.7c-0.7,0.7-3.1,1.9-4.1,1.9h0.7c0,0-1.2,0.2-2.1,0.2c-3.8-0.2-9.2-1.4-10.5-1.2c-1.4,0-3.3,4.1-3.3,6.5
		c0,2.1-2.8,0.7-3.8,1.9c-1,1.2,0.2,7.7,0.2,7.7s0.5,1,0.5,1.2l2.8,0.7c0,0,0.2-1.9-1-2.6c-1.4-0.7-0.5-3.9-0.5-3.9s4.1,1.4,6.7-0.7
		c2.1-1.7,1.9-2.4,1.9-2.4c0.7,0.5,5.2,4.8,8.1,4.8c3.1,0,4.1-1,4.1-1v0.7c0,0,2.1-0.2,2.1-1.9c0,0,0.2,0.2,0.2,0.7
		c0,0,1.2-1,1.9-4.3c0.5-1.9,1.4-6.8,1.4-6.8s3.6,0.2,4.1-0.2c0.5-0.2,1.2-2.4,1.2-2.4L299.7,247.2z"/>
	<path class="st20" d="M293.5,246.2c0,0,0.2,1.7,1,2.1c0.7,0.5,2.1-3.1,2.1-3.1s-1-0.7-1.9,0C294.5,245.6,293.5,246.2,293.5,246.2z"
		/>
	<path class="st20" d="M293.7,262.2c-1.2,0.7,0,0-0.7,0.7c0.2-1.2,1-2.6,1.4-3.9c-0.7,0.5-1.7,1.4-2.1,1.9c1-1,1.2-2.9,1.2-4.3
		c0,0-1,0.7-1.2,1c0-0.5,0.2-1.7,0.5-2.1c0.3-0.5,1-1,1.4-1.2c-0.5,0.2-1.2,0.7-1.7,1.2c-0.5,0.7-0.7,2.6-0.7,2.6
		c1.2-1,0.5-0.2,1.2-1c-0.2,1-0.5,3.1-1.2,3.9c0.7-0.2,1.4-1,1.7-1.4c-1.2,1.9-1,3.4-1,3.4C292.7,262.9,293,262.9,293.7,262.2
		c0,0.2,0,0.5,0,0.7C293.7,262.7,293.7,262.2,293.7,262.2z"/>
	<path class="st14" d="M292.8,249.9l-0.7,1c0,0-0.2,3.4,5.2,4.3l0.5-1.4C297.8,253.7,292.8,252.5,292.8,249.9z"/>
	<path class="st14" d="M277.2,238.3l-0.3,0.3l14.2,11.3l0.3-0.3L277.2,238.3z"/>
	<path class="st19" d="M277.4,238.6l-0.5-0.5l-2.1-1.4l-3.3,0.7l2.6,4.1l0.5-0.7l-1.7-2.6l1.9-0.7l0.2,0.2l0.7,0.7L277.4,238.6z"/>
	<path class="st18" d="M278.4,240.9c0.3-1.3-0.5-2.6-1.8-2.9c-1.3-0.3-2.6,0.6-2.8,1.8c-0.3,1.3,0.5,2.6,1.8,2.9
		C276.9,243,278.1,242.1,278.4,240.9z"/>
	<path class="st19" d="M277.2,240.5c0.1-0.6-0.3-1.3-0.9-1.4c-0.6-0.1-1.3,0.3-1.4,0.9c-0.1,0.6,0.3,1.3,0.9,1.4
		C276.5,241.5,277.1,241.1,277.2,240.5z"/>
	<path class="st15" d="M274.7,236c0,0,0.5,1.4,0.2,1.7c0,0.2-1.4,0.7-2.1,0.5s0.5-1.4,0.5-1.2s0,0.5,0,0.5s0.2-1,0.5-1
		c0.2-0.2,0.2,0.2,0.2,0.2s0-1,0.2-1C274.7,235.7,274.7,236,274.7,236z"/>
	<path class="st12" d="M243.1,258.8c-1.5-1.4-2-2.6-2.4-3.2c-0.5,0.2-1.8,0.5-1.8,0.5c1,1.3,1.9,2.7,5,6.7c0.2,0.2,0.5-0.2,0.5-0.2
		C244.3,262.3,243.1,258.8,243.1,258.8z"/>
</g>
<g>
	<path class="st4" d="M82.6,314.9c0,0,8.9,0.4,11.5-1.1c2.7-1.5,0.4-2.9,0.4-2.9s8.2-0.2,8.2-2.2s-2-1.8-2-1.8s4.2-2.9,3.3-4.7
		c-1.1-2.7-8,2-8,2s2.2-2.7,0.4-3.4C91.9,298.9,82.6,314.9,82.6,314.9z"/>
	<path class="st5" d="M61.7,314.4c0,0-7.3-19.7-16.2-17.3c-7.3,1.8-2.2,11.7-2.7,11.2c-0.4-0.4-4.4-7.2-10.7-7.2c-6.4,0,2,8.9,2,8.9
		s-13.5-4-14.6,0.4c-0.9,3.8,4,4,4,4H61.7C61.7,314.4,61.7,314.4,61.7,314.4z"/>
	<path class="st4" d="M92.9,314.9c0,0-14.9-20-24.2-22.9c-9.3-3.1-0.4,8.9-0.4,8.9S52,278.8,46,280.4c-5.6,1.5-3.3,12.8-3.3,12.8
		s-3.3-2.2-11.1-2.2c-7.5,0,5.8,23.6,5.8,23.6L92.9,314.9z"/>
	<path class="st4" d="M115,299.2c-3.5,0-6.8,1.6-8.7,4.5c-1.2-0.3-2.1-0.5-3.3-0.5c-6.4,0-11.4,4.1-11.4,8.9c0,0.5,0,1,0.3,1.2h34.9
		c0-0.5,0.3-1.2,0.3-1.9C126.3,304.9,121.1,299.2,115,299.2z"/>
	<path class="st5" d="M113.1,312.8c0-0.5,0-1,0-1.2c0-5.3-4.8-9.4-10.8-9.4s-10.8,4.3-10.8,9.4c0,0.5,0,1,0,1.2H113.1z"/>
</g>
<g>
	<path class="st21" d="M210.4,229c0,0-0.3-0.8-0.3-2c0-1.1,0.2-3,1.1-4.8c0.5-0.8,1.2-1.9,2.1-3c1.5-1.9,3.3-3.9,3.4-5.9
		c0.2-1.5-0.2-2.5-0.6-3.1c-0.3-0.5-0.8-0.8-0.8-0.8v-0.2c0,0,0.5,0.2,0.8,0.8c0.3,0.5,0.8,1.5,0.6,3.1c-0.2,2-2,4.1-3.4,5.9
		c-0.9,1.1-1.7,2.2-2.1,3C209.6,225.8,210.5,229,210.4,229z"/>
	<path class="st14" d="M210.4,231l-2-0.5l-0.1,0.6l2,0.5L210.4,231z"/>
	<path class="st22" d="M199,203.3c-0.2,0.2-0.3,0.2-0.3,0.2l-2.3-2.5v-0.2l0.2-0.2h0.2l2.3,2.5C199.1,203.2,199.1,203.2,199,203.3z"
		/>
	<path class="st23" d="M206.7,201.1c-0.3-0.3-2-0.5-2-0.2s-2.3,5.1-2.3,5.1l-2.6-2.4c0-0.2-0.5-0.9-0.5-1.1c0-0.2-0.5-0.5-0.8-0.5
		c-0.2,0,0.2,0.3,0.2,0.3c0,0.2-0.2,0.2-0.2,0.2s-0.8-0.5-0.8-0.8s-0.2-0.8-0.3-0.8c-0.2,0-0.2,0.5,0,0.6c0-0.2-0.2-0.5-0.2-0.5
		c-0.2,0-0.2,0.2-0.2,0.2c0,0.2,0.3,0.9,0.3,1.1c0,0.2,1.4,1.2,1.5,1.4c0,0,2.5,3.3,4,3.7c0.3,0,0.9-0.8,1.7-1.7
		C205.3,205.5,207.6,201.9,206.7,201.1z"/>
	<path class="st24" d="M203.6,202.9c0.9-2.2,2.3-5.6,3.7-5.9c0,0,0.9-0.2,1.4,1.1c0.3,0.8-1.1,4.5-2.6,7.2
		C205.6,204.4,204.5,203.3,203.6,202.9z"/>
	<path class="st22" d="M212.2,197.5c0.9,0.2,1.4,3.4,1.4,3.4l2.6-0.6c0,0-0.9-3.4-2.5-4.7c-1.5-1.2-4.9,0-6.2,1.1
		c-1.2,1.1-0.5,2.2-0.5,2.2S211.3,197.5,212.2,197.5z"/>
	<path class="st14" d="M206.1,198.8c0,0,0.6,1.4,0.8,2.7c0.2,1.2,1.1,2.2,1.5,5.1c0.5,3,1.2,5.8,1.2,5.8s3.3-0.2,3.9-0.9
		c0.6-0.8-0.5-7.2-1.5-10.3c-1.1-3.1,1.7-4.2,0.2-5.1c-1.5-0.9-3.4,0-4.2,0.5C207.2,196.8,205.9,198.1,206.1,198.8z"/>
	<path class="st18" d="M211.8,200.7c0,0,0.6,2.4,0.6,4.8c0,2.5,1.1,7.2,1.1,7.2s2.6,1.4,3.3,0c0.2-0.3,0-3.4,0-4.7
		c-0.2-1.4-0.9-6.1-1.1-7.6c0-0.3-0.2-0.6-0.3-0.9c-0.6-0.8-2.1-2.7-2.5-2.7C211.9,196.8,211.2,198.2,211.8,200.7z"/>
	<path class="st22" d="M212.2,207.4c0-0.2,0-0.3,0-0.5c0.8,0.3,3.3-0.3,4.2-0.5c0,0.2,0,0.3,0,0.5
		C215.6,207.1,213.2,207.7,212.2,207.4z"/>
	<path class="st22" d="M216.7,210.5c0,0.2,0,0.3,0,0.5c-0.9,0.3-2.9-0.3-3.9-0.8c0-0.2,0-0.3-0.2-0.5
		C213.7,210,215.8,210.8,216.7,210.5z"/>
	<path class="st22" d="M216.7,210c-0.5,0.3-2.9,1.9-3.6,2c0-0.2,0-0.3-0.2-0.5c0.5-0.2,2.3-1.2,3.7-2
		C216.6,209.5,216.7,209.7,216.7,210z"/>
	<path class="st11" d="M204.9,235.4l0.2,1.7c0,0.2,0.2,0.8,0.2,0.9c0,0.8-3.1-0.6-2.5-0.9c0,0,0.5-0.3,0.5-0.5
		c0-0.3,0.2-1.1,0.2-1.1L204.9,235.4z"/>
	<path class="st17" d="M202.7,237c0,0,0.8,0.2,1.1,0.3c0.3,0,0.9-0.5,1.1-0.3c0.3,0.2,0.3,1.5,0.3,1.5s-3.9,0.3-4.9-0.2
		C199.8,238.2,201.3,237.4,202.7,237z"/>
	<path class="st11" d="M210.7,235.5l0.2,1.7c0,0.2,0.2,0.8,0.2,0.9c0,0.8-3.1-0.6-2.5-0.9c0,0,0.5-0.5,0.5-0.6c0-0.3,0-0.9,0-0.9
		L210.7,235.5z"/>
	<path class="st17" d="M208.6,237.1c0,0,0.8,0.2,1.1,0.3c0.3,0,0.9-0.5,1.1-0.3c0.3,0.2,0.3,1.4,0.3,1.4s-4.2,0.3-5.1,0
		C205.5,238.4,207,237.6,208.6,237.1z"/>
	<path class="st21" d="M206.8,211.7l-1.7,0.8l-2.3,13.2l0.2,10.1h2.1c0,0,1.1-8.9,1.1-9.5s4.8-12,4.8-12L206.8,211.7z"/>
	<path class="st25" d="M206.7,212.5c0,0,0.9,10.5,0.9,12.2s0.8,11.5,0.8,11.5h2.1c0,0,0.2-3,0.5-7.3c0-0.6,0-2,0-2.8
		c0.3-5.1,1.1-11.8,0.8-13.7c0-0.3-0.3-0.9-0.5-1.2C209.9,209.5,206.7,212.5,206.7,212.5z"/>
	<path class="st14" d="M190.8,241c2.1,0,3.7-1.7,3.7-3.7s-1.7-3.7-3.7-3.7c-2.1,0-3.7,1.7-3.7,3.7S188.8,241,190.8,241z"/>
	<path class="st14" d="M219.5,241c2.1,0,3.7-1.7,3.7-3.7s-1.7-3.7-3.7-3.7c-2.1,0-3.7,1.7-3.7,3.7S217.5,241,219.5,241z"/>
	<path class="st26" d="M190.8,239.7c1.4,0,2.5-1.1,2.5-2.5s-1.1-2.5-2.5-2.5s-2.5,1.1-2.5,2.5S189.4,239.7,190.8,239.7z"/>
	<path class="st26" d="M219.5,239.7c1.4,0,2.5-1.1,2.5-2.5s-1.1-2.5-2.5-2.5s-2.5,1.1-2.5,2.5S218.2,239.7,219.5,239.7z"/>
	<path class="st21" d="M219.7,237c0-0.2-0.3-0.3-0.5-0.2l-4.3,1.5h-17.1l-4.3-9.8l-0.6,1.9l3.9,8.6c0,0,0,0,0.2,0h18.3
		c0.2,0,4.3-1.7,4.3-1.7C219.7,237.4,219.7,237.1,219.7,237z"/>
	<path class="st26" d="M204.8,213.4l0.8-4.8c0,0-0.6-4.4-0.6-7.5c0-1.4,0.8-3.1,0.9-3.1c0.9-0.2,1.2-1.5,2.6-0.6
		c1.7,1.2,3.7,6.1,3.6,15.9C212.1,213.3,206.7,213.9,204.8,213.4z"/>
	<path class="st11" d="M205,196.3l0.3,1.2c0,0,0.5,1.9,1.1,2.2c0.6,0.2,1.5-2.4,1.5-2.4l-1.8-3.6L205,196.3z"/>
	<path class="st17" d="M206.7,194.9c0,1.2-0.8,2.2-1.4,2.7l-0.3-1.1l1.1-2.5L206.7,194.9z"/>
	<path class="st11" d="M206.2,191.8c0,0,1.1,2.7,0.5,3.6c-0.5,0.9-1.8,1.5-2.5,1.1c-0.8-0.5-1.4-3.6-0.5-4.5
		C204.7,190.7,206.2,191.8,206.2,191.8z"/>
	<path class="st22" d="M204.5,190.4c0.9-0.2,2.1,0.2,2.8,0.9c0.9,0.9-0.2,4.5-0.2,4.5l-0.5-0.6c0,0-0.3-0.5-0.3-0.8
		c0.2-0.5-0.6-0.6-0.8-0.9c-0.2-0.2-0.3-0.8-0.6-1.2c0,0-0.9-0.5-1.4-0.3C202.7,192.2,203.3,190.7,204.5,190.4z"/>
	<path class="st11" d="M206.1,193.9c-0.2,0.3,0,0.6,0.2,0.6s0.5-0.2,0.5-0.5s0-0.6-0.2-0.6C206.4,193.5,206.2,193.6,206.1,193.9z"/>
	<path class="st27" d="M203.8,195.2l1.1-0.3c0,0,0.2,0.5-0.3,0.6C203.9,195.7,203.8,195.2,203.8,195.2z"/>
	<path class="st14" d="M206.4,202.4c-0.3-1.9-0.5-4.5,1.2-5.4c0.6-0.3,1.4-0.2,2,0c-0.8,0-1.4,0.3-1.7,0.6c-1.4,0.9-1.1,3.1-0.9,4.8
		c0.6,4.2,4.6,3,4.6,3l0.2,0.8c0,0-2.1,0.5-3.7,0C206.8,205.5,206.4,202.4,206.4,202.4z"/>
	<path class="st11" d="M196.5,204.7c0.5-0.2,1.5-0.3,1.8,0.2c0.2,0.2,4.8,1.4,4.9,1.2c0.3-0.3,1.5-3.4,2.1-5.1
		c0.6-1.7,0.9-1.9,1.5-2.2c0.5-0.2,2,0.6,2,1.5c-0.3,1.7-3.9,7.9-4.2,8.1c-1.4,0.6-7.1-2.5-7.2-2.5c-0.2,0-0.6,0.2-0.8,0
		c-0.2,0-0.5,0.5-0.6,0C196.2,205.9,195.9,204.9,196.5,204.7z"/>
	<path class="st21" d="M191.3,232.3l0.8,0.2l5.2-26.1l-0.8-0.2L191.3,232.3z"/>
	<path class="st17" d="M190.6,233.9l1.4,0.3l3.6-18.3l-1.4-0.3L190.6,233.9z"/>
	<path class="st21" d="M190.3,238.2c0.6,0.2,1.1-0.3,1.2-0.8l0.6-3.3c0,0,0-0.2-0.2-0.2l-1.8-0.3c0,0-0.2,0-0.2,0.2l-0.6,3.3
		C189.4,237.6,189.9,238.2,190.3,238.2z"/>
	<path class="st21" d="M190.7,233.1l1.5,0.3c0.2,0,0.3,0,0.3-0.2l1.5-7.6c0-0.2,0-0.3-0.2-0.3l-1.5-0.3c-0.2,0-0.3,0-0.3,0.2
		l-1.5,7.6C190.5,232.9,190.5,233.1,190.7,233.1z"/>
	<path class="st17" d="M196.2,205.9c0,0.3,0.2,0.6,0.5,0.8c0.3,0,0.6-0.2,0.8-0.5c0-0.3-0.2-0.6-0.5-0.8
		C196.7,205.5,196.2,205.6,196.2,205.9z"/>
	<path class="st28" d="M204.2,202.9c0.9-2.2,2.6-5.6,4.2-5.8c0,0,0.9-0.2,1.4,1.1c0.3,0.8-1.1,4.5-2.6,7.2
		C206.5,204.4,205.2,203.3,204.2,202.9z"/>
	<path class="st4" d="M213.5,213.4l-0.8,0.2c-0.3,0-0.8-0.2-0.8-0.6l-0.6-5.6c0-0.3,0.2-0.8,0.6-0.8l0.8-0.2c0.3,0,0.8,0.2,0.8,0.6
		l0.6,5.6C214.1,213,213.8,213.4,213.5,213.4z"/>
	<path class="st22" d="M213.6,208.5l-2.1,0.3v0.5l2.1-0.3V208.5z"/>
</g>
<g>
	<path class="st29" d="M137.9,255.1h1.8V243c0-4.4,3.6-8.4,8-8.4s8,3.7,8,8.4v12.1h1.8V243c0-5.5-4.4-10.2-9.6-10.2
		c-5.4,0-9.6,4.4-9.6,10.2v12.1H137.9z"/>
	<path class="st29" d="M87.8,241.1c0.5,0,0.8-0.6,0.8-0.8v-22.6c0-0.6-0.2-0.8-0.8-0.8c-0.5,0-0.8,0.6-0.8,0.8v22.6
		C87,240.6,87.3,241.1,87.8,241.1z"/>
	<path class="st29" d="M141.6,241.1c0.5,0,0.8-0.6,0.8-0.8v-22.6c0-0.6-0.2-0.8-0.8-0.8c-0.5,0-1,0-1,0.6v22.6
		C140.5,240.6,141.1,241.1,141.6,241.1z"/>
	<path class="st30" d="M83.9,237.5h62.6c0.5,0,0.8-0.2,0.8-0.8v-3.9c0-0.6-0.2-0.8-0.8-0.8H83.9c-0.5,0-0.8,0.2-0.8,0.8v3.9
		C83.1,236.9,83.6,237.5,83.9,237.5z"/>
	<path class="st30" d="M86.3,241.1h68.6c0.5,0,1-0.6,1-1c0-0.6-0.5-1-1-1H86.3V241.1z"/>
	<path class="st30" d="M83.6,230.9h62.6c0.5,0,0.8-0.2,0.8-0.8v-4.2c0-0.6-0.2-0.8-0.8-0.8H83.6c-0.5,0-0.8,0.2-0.8,0.8v3.9
		C82.9,230.4,83.1,230.9,83.6,230.9z"/>
	<path class="st30" d="M82.9,224.1h62.6c0.5,0,0.8-0.2,0.8-0.8v-3.9c0-0.5-0.2-0.8-0.8-0.8H82.9c-0.5,0-0.8,0.2-0.8,0.8v3.9
		C82.1,223.6,82.6,224.1,82.9,224.1z"/>
	<path class="st29" d="M85.5,255.1h1.8V243c0-4.4,3.6-8.4,8-8.4s8,3.7,8,8.4v12.1h1.8V243c0-5.5-4.4-10.2-9.6-10.2
		c-5.4,0-9.6,4.4-9.6,10.2v12.1H85.5z"/>
	<path class="st31" d="M116.6,216.9c0,0,0.8,2.9,0.8,3.9c0,0.2,0.2,1,0.5,2.1c0.5,2.1,1.8,4.8,2.3,5.2c0.2,0.2,0.5,0.2,1,0.6
		c0.5,0.2,0.8,0.2,1.1-0.2c0-0.5-1.3-8.9-1.8-9.7C119.5,217.6,116.6,216.9,116.6,216.9z"/>
	<path class="st32" d="M118,251.8c-0.2,0.2-0.2,0.2,0,0.6c0,0.2,0.5,0.8,1.1,1.3c0,0,0,0,0.2,0.2c0.5,0.6,0.2,0.6,1,1.3
		c1.1,1,1.5,1,1.8,1s-0.2-0.6-0.5-1.3c0,0,0-0.2-0.2-0.2c-0.5-0.8-0.2-1-0.2-2.1c0-0.8,1.3-5,1.3-5l-1.8-0.2c0,0-0.5,3.1-1,3.7
		c-0.2,0.2-0.8,0.2-1,0.6C118.2,251.5,118,251.5,118,251.8z"/>
	<path class="st33" d="M118,251.8c-0.2,0.2-0.2,0.2,0,0.6c0.2,0.2,0.5,0.8,1.1,1.3c0,0,0,0,0.2,0.2c0.5,0.6,0.2,0.6,1,1.3
		c1.1,1,1.5,1,1.8,1s-0.2-0.6-0.5-1.3c-0.2,0-1-0.6-1.5-1.3c-0.5-0.8-1-1.9-1.3-2.3C118.2,251.5,118,251.5,118,251.8z"/>
	<path class="st32" d="M132.3,250.7c0,0.6,0.8,0.6,1.8,0.2c0.8-0.2,0.8,0,1.8,0c1.3-0.2,1.5-0.6,1.5-0.8s-0.5-0.2-1.3-0.2h-0.2
		c-0.8,0-1.3-0.6-2.1-1c-0.5-0.2-1.5-2.1-1.5-2.1l-1.8,0.2c0,0,0.8,1.3,1.3,2.1c0.2,0.2,0.2,0.8,0.2,1.3
		C132.3,250.2,132.3,250.5,132.3,250.7z"/>
	<path class="st33" d="M134,251c0.8-0.2,0.8,0,1.8,0c1.3-0.2,1.5-0.6,1.5-0.8s-0.5-0.2-1.3-0.2c0,0-0.8,0.6-1.8,0.6
		c-0.8,0-1.8-0.2-2.3-0.2c0,0.2,0,0.6,0,0.6C132.5,251.3,133.3,251,134,251z"/>
	<path class="st34" d="M125.8,239.2l-3.6,10.5c0,0-0.5,0-1.1,0c-0.5-0.2-1-0.6-1-0.6s1-10,2.6-12.1
		C124.2,234.7,125.8,239.2,125.8,239.2z"/>
	<path class="st35" d="M111,235c0,0,10.7-3.7,13-2.9s9.6,15.7,9.6,15.7s0,0-0.5,0c-0.5,0.2-1.3,0.2-1.3,0.2s-6.5-5.8-7.3-7.3
		c-0.8-1.6-1-3.4-1.8-3.1c-0.8,0.2-9.9,3.9-12,1.6c-2.1-2.3-1.5-5.2-1.5-5.2L111,235z"/>
	<path class="st32" d="M114.6,218.2c0.8,0.6,2.1,0,2.1,0s0-0.8,0-1.3c0.2-0.8,0.2-1.3,0.2-1.3l-2.3-1h-0.2c0,0,0,0,0,0.2
		c-0.5,1.9-0.8,2.1-1,2.3C113.1,217.1,113.8,217.9,114.6,218.2z"/>
	<path class="st36" d="M114.6,214.5c0.2,0.8,0.8,1.9,2.1,2.3c0.2-0.8,0.2-1.3,0.2-1.3L114.6,214.5z"/>
	<path class="st37" d="M118,222.9c0.5,2.1,1.8,4.8,2.3,5.2c0.2,0.2,0.5,0.2,1,0.6c0-1.6-3.1-6-3.1-6L118,222.9z"/>
	<path class="st32" d="M117.2,216.1c0,0-3.1-0.6-2.8-2.7c0.2-2.1,0-3.7,2.1-3.4c2.1,0.2,2.3,1,2.3,1.9
		C119,212.6,118.2,216.1,117.2,216.1z"/>
	<path class="st38" d="M118,210.3c0,0-1.3,2.3-2.6,2.3c-1.3,0.2-1.8-0.2-1.8-0.2s0-1.3,0.5-2.7C114,209.8,117.4,209,118,210.3z"/>
	<path class="st38" d="M117.7,210.5c0,0,0.5,0.8,0.8,1.3c0,0.6,0,1.6,0.2,1.6c0,0,1-1.6,0.2-2.7
		C118.5,209.5,117.7,210.5,117.7,210.5z"/>
	<path class="st31" d="M108.6,234.4c0,0.2,0,0.6,0,0.6c0.2,0.5,0.5,0.5,1.3,0.5h0.2c1.3-0.2,3.4-1,4.9-1.9c2.3-1,3.4,0,3.9-0.8
		l0.2-0.2c0.2-0.8-0.8-2.7,0.2-8.4c0.5-2.3-2.6-7.3-2.6-7.3s-0.2,1.3-3.1-0.2c0,0-0.8,1.6-1.8,3.7c-1,2.3-2.3,5-1.8,6.3
		c0.2,1.6-0.2,3.4-0.8,5.2C108.9,232.9,108.6,233.7,108.6,234.4z"/>
	<path class="st37" d="M108.6,234.4c0,0.2,0,0.6,0,0.6c0.2,0.6,0.5,0.6,1.3,0.6h0.2c1.3-0.2,3.4-1,4.9-1.9c2.3-1,3.1,0,3.9-0.8
		c0.2-0.2,0.2-0.6,0.2-0.8c-1.3-0.8-4.1-0.2-2.8-3.1c0.8-1.6-2.8-6-3.9-4.4c-1.5,2.3-2.6,0.8-2.3,2.1c0.5,1.6-0.5,3.4-1,5.2
		C108.9,232.9,108.6,233.7,108.6,234.4z"/>
	<path class="st38" d="M122.1,228.1l-2.1,4.4l-4.4-0.2l2.1-4.8L122.1,228.1z"/>
	<path class="st37" d="M122.9,229.2c0,0,0.5,1.3,0.2,2.1c0,0.6-0.8,0.6-1.8,0.6c-0.2,0-0.8,0-0.8,0L122.9,229.2z"/>
	<path class="st33" d="M124.2,226.6l-2.1,1.6l-2.1,4.4l2.3-1.3L124.2,226.6z"/>
	<path class="st39" d="M123.9,226.8l-0.2-0.2l-1.8,1.3l0.2,0.2L123.9,226.8z"/>
	<path class="st40" d="M122.1,228.1l-0.2-0.2l-3.9-0.6v0.2L122.1,228.1z"/>
	<path class="st32" d="M115.7,231c0,0,0.5-0.8,1.3-0.8s1,0.2,1,0.6c0,0.2-0.2,0.8-0.5,1c-0.5,0.2-1.8,0.2-1.8,0.2V231L115.7,231z"/>
	<path class="st32" d="M123.2,231c0,0-0.2-0.8-1.1-0.8c-0.5,0-1,0.2-1,0.6c0,0.2,0,1,0.5,1C123.7,232.3,123.2,231,123.2,231z"/>
	<path class="st31" d="M113.6,216.6c0,0-2.3,0.2-3.1,1.6c-1.3,1.9-3.6,12.6-2.1,13.6c1.8,1.3,7.5,0,7.5,0s0-0.8-0.2-1
		c-0.2-0.5-4.9-0.8-4.9-1c-0.2-0.2,2.6-7.3,2.6-7.9C113.3,221.3,113.6,216.6,113.6,216.6z"/>
	<path class="st38" d="M115.8,218c0.3-0.2,0.6-1,1.1-2c0,0-0.7,1.5-1.4,2.2c-2.5,0.7-7.9,4.5-8.3,5.2l-0.7-3c0,0-1.5-4.4,2-5.3
		c1.9-0.6,2.4-1.8,2.5-3.1c0.2-1.3,2.1-5.8,5-3.6c0,0,0.5-0.2,0.8,0.1h-0.2c0.2,0,1,0.4,1.2,0.7C118.7,210.2,118.1,216.7,115.8,218z
		"/>
	<path class="st38" d="M112.9,213.6c0,0-0.3-1.3-0.2-2.4c0.1-0.8,1.2-3.3,3.7-2.2c0,0,0.8,0.4,1.2,1c0.4,0.6,1.1,1.8-0.5,3.7
		l-0.4,0.8L112.9,213.6z"/>
</g>
<g>
	<path class="st41" d="M76.4,240.2h-4.9V259h4.9V240.2z"/>
	<path class="st42" d="M76.4,240.2h-3V259h3V240.2z"/>
	<path class="st41" d="M75.7,240.2h-3.2l0.5-1.5c0-0.3,0.2-0.3,0.2-0.3h1.5c0.3,0,0.3,0,0.3,0.3L75.7,240.2z"/>
	<path class="st41" d="M73.7,170.5h0.8l-0.3-2.2c0,0,0-0.3-0.2-0.3c0,0,0,0,0,0.3L73.7,170.5z"/>
	<path class="st42" d="M74.4,170l-0.2-1.8c0,0,0-0.3-0.3-0.3c0,0,0,0,0,0.3v1.3C74.2,169.8,74.2,170,74.4,170z"/>
	<path class="st41" d="M74.7,180.5h-1.5v71h1.5V180.5z"/>
	<path class="st42" d="M74.9,180.5h-0.8v71h0.8V180.5z"/>
	<path class="st41" d="M71.2,171.5c0,1,1.3,1.5,2.7,1.5h0.2c1.5,0,2.5-0.8,2.5-1.5c0-0.8-1-1.5-2.5-1.5h-0.2
		C72.7,170,71.2,170.7,71.2,171.5z"/>
	<path class="st42" d="M71.5,181.7h4.9l1.8-8.5H70L71.5,181.7z"/>
	<path class="st41" d="M78.7,172.5h-8.9v0.8h8.9V172.5L78.7,172.5z"/>
	<path class="st42" d="M72.7,171.5c0-0.8,0.8-1.3,1.8-1.5c1.3,0,2.5,0.8,2.5,1.5h0.5l0.8,1h0.5v0.8h-5.7v-0.8h-0.8L72.7,171.5z"/>
	<path class="st43" d="M77.7,173.5h-7l1.3,8h4.2L77.7,173.5z"/>
	<path class="st43" d="M76.9,171.7c0,0-0.5-1.3-1.5-1.3c0,0,0.8,0.5,0.5,1.3C75.7,172.2,76.9,171.7,76.9,171.7z"/>
	<path class="st41" d="M70.2,172.5h7.9l-0.8-1H71L70.2,172.5z"/>
	<path class="st44" d="M77.2,173.7h-1.5l-0.5,7.5h0.5L77.2,173.7z"/>
</g>
<g>
	<path class="st5" d="M28.3,210.3c0.9-0.3,1.8-0.3,2.8-0.3c0,0.5-0.9,1.2-1.4,1.4c-0.9,0.3-1.8,0.3-2.8,0.3
		C26.9,211.2,27.3,210.6,28.3,210.3z"/>
	<path class="st5" d="M28.2,212.5c0.9-0.3,1.8-0.3,2.8-0.3c0,0.5-0.9,1.2-1.4,1.4c-0.9,0.3-1.8,0.3-2.8,0.3
		C26.7,213.4,27.1,212.7,28.2,212.5z"/>
	<path class="st3" d="M67.2,243.7c0.7,1.9-3.5,5-3.5,5s3.3,0,2.6,1.9c-0.5,2.2-8.5,2.6-8.5,2.6s2.8,0.5,0,2.4
		c-2.8,1.6-13.7,1.6-13.7,1.6L67.2,243.7z"/>
	<path class="st5" d="M47.1,242.8h0.3c-0.5-7.9,2.4-15.3,5-20.3c2.6-5.2,5.4-8.6,5.6-8.9l-0.3-0.3c0,0-2.8,3.6-5.6,8.9
		C49.7,227.3,46.9,234.6,47.1,242.8z"/>
	<path class="st5" d="M59.4,213.2c-0.7,1.2-1.6,1.9-2.6,2.2c-0.3-1.2,0-2.6,0.7-3.6c0.7-1.2,1.6-1.9,2.6-2.2
		C60.4,210.8,60.1,212.2,59.4,213.2z"/>
	<path class="st5" d="M55.6,214.6c0,1.4-0.5,2.6-0.9,3.6c-0.7-0.7-1.2-1.9-1.2-3.3c0-1.4,0.5-2.6,0.9-3.6
		C55.2,212,55.6,213.2,55.6,214.6z"/>
	<path class="st5" d="M52.8,217.2c0.5,1.2,0.7,2.6,0.5,3.8c-0.9-0.3-1.9-1-2.4-2.2s-0.7-2.6-0.5-3.8C51.4,215.1,52.3,216,52.8,217.2
		z"/>
	<path class="st5" d="M50.9,223.2c0.3,0.5,0.3,1,0.3,1.4c-0.5,0-0.7-0.5-1.2-1c-0.3-0.5-0.3-1-0.3-1.4
		C50.2,222.5,50.7,222.7,50.9,223.2z"/>
	<path class="st5" d="M56.6,218.4c0.9,0,1.9,0.5,2.4,1.4c-0.7,0.7-1.6,1.2-2.6,1.2s-1.9-0.5-2.4-1.4
		C54.5,218.9,55.4,218.4,56.6,218.4z"/>
	<path class="st5" d="M52.1,225.6c0.7,0,1.2,0.3,1.6,1c-0.5,0.5-0.9,0.7-1.6,0.7s-1.2-0.3-1.6-1C50.9,225.8,51.4,225.6,52.1,225.6z"
		/>
	<path class="st5" d="M30.4,229.6c-3.1-4.8-3.5-10.5-3.5-14.3c0-4.3,0.9-7.4,0.9-7.6h-0.3c0,0-0.7,3.3-0.9,7.6
		C26.6,219.1,27.1,224.8,30.4,229.6z"/>
	<path class="st5" d="M25.5,211.6c0.7,0.5,1.4,1.4,1.4,2.2c-0.7,0.3-1.6,0-2.4-0.5c-0.7-0.5-1.4-1.4-1.4-2.2
		C23.6,210.9,24.5,211.1,25.5,211.6z"/>
	<path class="st5" d="M28.6,206.4c0,1-0.5,1.6-1.2,2.4c-0.5-0.7-0.7-1.6-0.7-2.6s0.5-1.6,1.2-2.4C28.4,204.5,28.6,205.4,28.6,206.4z
		"/>
	<path class="st5" d="M26.7,209.1c0.5,1,0.7,1.9,0.5,2.6c-0.7-0.3-1.4-0.7-2.1-1.6c-0.5-1-0.7-1.9-0.5-2.6
		C25.5,207.7,26.2,208.4,26.7,209.1z"/>
	<path class="st5" d="M29.2,233c-6.8-1.6-12-6.7-15.4-10.8c-3.5-4.3-5.2-8.3-5.2-8.3l-0.3,0.3c0,0,1.9,4.1,5.4,8.3
		c3.3,4.1,8.5,9.3,15.4,11V233H29.2z"/>
	<path class="st5" d="M8.7,212.2c0.7,1,0.9,2.4,0.7,3.3c-1.2-0.3-2.1-0.7-2.8-1.9c-0.7-1-0.9-2.4-0.7-3.3
		C7,210.5,7.9,211.3,8.7,212.2z"/>
	<path class="st5" d="M8.4,216.5c1.2,0.3,2.1,1.2,2.6,2.2c-0.9,0.7-2.1,0.7-3.3,0.5c-1.2-0.3-2.1-1.2-2.6-2.2
		C6,216.5,7.2,216.3,8.4,216.5z"/>
	<path class="st5" d="M9.6,220.3c1.2-0.3,2.4,0,3.3,0.5c-0.5,1-1.6,1.6-2.8,2.2c-1.2,0.3-2.4,0-3.3-0.5
		C7.2,221.3,8.2,220.6,9.6,220.3z"/>
	<path class="st5" d="M12.2,223.9c1.2-0.3,2.4,0,3.3,0.5c-0.5,1-1.6,1.6-2.8,2.2c-1.2,0.3-2.4,0-3.3-0.5
		C10.1,224.8,11,224.1,12.2,223.9z"/>
	<path class="st5" d="M11.5,218c0-1.2,0.3-2.4,0.9-3.1c0.7,0.7,1.2,1.6,1.2,2.9c0,1.2-0.3,2.4-0.9,3.1
		C11.9,220.3,11.5,219.1,11.5,218z"/>
	<path class="st5" d="M14.3,221.6c0-1.2,0.3-2.4,0.9-3.1c0.7,0.7,1.2,1.6,1.4,2.9c0,1.2-0.3,2.4-0.9,3.1
		C14.8,223.9,14.3,222.7,14.3,221.6z"/>
	<path class="st5" d="M21.6,255.6c0-1.4,7.8,0.3,8.5-1.6c0.7-1.9-6.8-1.9-6.8-4.3s3.8-0.7,5.9-0.7s-4.3-1-4.3-1.9
		c0-1,2.4-0.5,2.4-1.4c0-1-12-1.6-10.6-3.8s8,0.7,9.7-0.5c1.9-1.2-9.5-2.4-9.9-4.1c-0.3-1.6,8.3,1.4,9.7,0.3
		c1.2-1.2-13.7-5.7-13-8.9c0.7-3.3,11.4,4.3,13.9,3.3c2.6-0.7-13.5-12.1-9.7-16.7c3.8-4.5,10.9,14.8,13.2,14
		c2.4-0.7-3.1-12.1-0.5-14s9.7,16.2,10.2,19.8c0.5,3.8,1.4-8.1,5.2-9.3c4-1.4,0,7.2,0.7,10c0.7,2.6,3.8-6.7,8-6
		c4.3,0.7-7.8,9.3-6.6,11.7c1.2,2.6,10.4-8.3,13.5-5.5c2.8,2.9-11.1,11-10.4,13.4c0.7,2.2,9.2-1.6,11.6,1c2.4,2.4-9,4.1-10.6,4.1
		c-1.4,0-7.4,1.9-1.6,1.6C55.9,255.4,21.6,257.1,21.6,255.6z"/>
</g>
<g>
	<path class="st13" d="M292.6,181.3c0-0.8,0.1-1.6,0.1-2.4c0.4-9.3,6.4-17.2,12.9-17.7c6.6-0.4,11.6,6.7,11,16
		c0,0.9-0.1,1.6-0.3,2.4L292.6,181.3z"/>
	<path class="st4" d="M279,178.1c-0.1-1.2-0.1-2.3,0.1-3.5c0.6-13.4,6.6-24.6,13.1-25.1c6.6-0.4,11.3,10,10.7,23.3
		c-0.1,1.2-0.1,2.3-0.3,3.6L279,178.1z"/>
	<path class="st4" d="M282.3,192.7c0-0.8,0.2-1.7,0.3-2.5c0.4-9.6-4.6-17-11.1-16.6c-6.6,0.4-12.5,8.6-12.9,18.2
		c0,0.9,0,1.7-0.1,2.5L282.3,192.7z"/>
	<path class="st13" d="M301.9,191.1c0.2-1.2,0.3-2.6,0.2-3.9c0.3-14.7-6.2-26.3-14.7-25.9c-8.5,0.4-15.7,12.9-16,27.6
		c-0.1,1.4,0,2.7,0,3.9L301.9,191.1z"/>
	<path class="st4" d="M291.4,164.3c4.3-0.3,7.8,2.9,10,8.2c1.3-0.6,2.7-0.9,4-1c7.5-0.6,13.3,6.8,12.9,16.4c0,0.9,0,1.7-0.3,2.5
		l-41.7,3c-0.1-1.2-0.1-2.3,0.1-3.5C277.2,176.2,284,164.8,291.4,164.3z"/>
	<path class="st45" d="M274,184c0-0.4,0.5-0.5,0.7-0.2c0.2,0.4,0.2,0.2,0.4,0.7c0.4,1.8,0.9,3.8,1.8,5.5c1.6,3.2,3.4,5.2,5.6,7
		c-0.5-2.5-0.7-5-0.4-7.3c0.2-0.9,0.4-1.8,0.9-2.5c0.2-0.2,0.5,0,0.5,0.2c0,1.3-0.5,2.1-0.5,4.5c-0.2,5.5,2.5,11.8,5.4,16.4
		c0.7-6.8,1.8-14.3,4.5-20.7c0.4-1.1,0.9-2,1.4-3c0.2-0.2,0.5,0,0.4,0.2c-0.2,0.4-1.6,4.8-1.8,5.2c-1.6,5-2.7,10.5-3.2,15.9
		c3.6-3.2,6.5-7.3,8.3-11.8c0.5-1.3,0.9-2.7,1.6-3.9c0-0.2,0.4-0.2,0.4,0c0,2.1-1.4,5.5-2.5,7.3c-2,3.8-4.5,7-7.6,9.7
		c-0.2,0.2-2.3,31.8-2.5,32.2c-0.4,0.5-1.6,0.9-1.4-0.4c0-0.5,1.6-19.7,2.3-28.6c-0.4-0.4-0.5-0.7-1.3-2c-1.8-3-3.4-6.4-4.2-9.8
		c-0.9-0.2-6.7-4.6-8.5-12.3c0-0.2-0.4-1.3-0.4-1.4C273.8,184.3,273.8,184.2,274,184z"/>
</g>
<g>
	<path class="st4" d="M203.7,259.9c0-0.4,0-1,0-1.6c0-5.8-4.2-10.7-9.5-10.7s-9.5,4.8-9.5,10.7c0,0.6,0,1,0,1.6H203.7z"/>
	<path class="st4" d="M200.4,266.4c0-0.4,0-0.8,0-1c0-4.2,4.2-7.5,9.5-7.5s9.5,3.4,9.5,7.5c0,0.4,0,0.8,0,1H200.4z"/>
	<path class="st5" d="M185.1,266.4c0-0.4-0.2-1-0.2-1.6c0-5.8,5.3-10.7,12.1-10.7c6.6,0,12.1,4.8,12.1,10.7c0,0.6,0,1-0.2,1.6H185.1
		z"/>
</g>
<g>
	<path class="st5" d="M175.8,273.2c0.3,0.5,0.3,1.1,0.3,1.6c-0.5,0-0.8-0.5-1.3-1.1c-0.3-0.5-0.3-1.1-0.3-1.6
		C175,272.4,175.5,272.6,175.8,273.2z"/>
	<path class="st5" d="M181.4,268.9c1,0,2.2,0.5,2.7,1.6c-0.8,0.8-1.9,1.3-3,1.3c-1,0-2.2-0.5-2.7-1.6
		C179.2,269.4,180,268.6,181.4,268.9z"/>
	<path class="st46" d="M184.1,269.1c-1.5,0-1.5,0.2-1.7,0.2s-2.8-2-2.8-2s-7.1-5.5-7.7-5.7l-4.5-8.5l-4.9,1.3c0,0,4.9,9,5.4,9.5
		c0.2,0.5,10.9,6.8,11.9,7.2c0,0,0.7,1,1.5,1.8c0.5,0.7,1.5,1,1.5,1.3c0,0,0.7,0.5,1.7,1c0.7,0.2,0.2-0.5,0.2-0.5s-1.5-1-1.3-1
		c0,0,0.7,0.5,1.7,1c0.2,0,0.5,0.2,0.7,0.2c0.5,0.2,1,0,0.2-0.5c-0.2,0-0.5-0.2-0.7-0.5c-0.2,0-0.5-0.2-0.7-0.5
		c-0.5-0.2-0.7-0.5-0.7-0.5s0-0.2,0.2,0c0.2,0,1,0.5,1.3,0.7c0.2,0,0.7,0.2,0.7,0.2l1,0.2c0-0.2-0.5-0.5-1-0.7
		c-0.2-0.2-0.7-0.2-0.7-0.2l-1-0.7c0,0,0.7,0.2,1.5,0.2c0.7,0.2,1.3,0.2,1.5,0.2c0-0.2-0.5-0.5-0.5-0.5s-0.5-0.2-0.7-0.2
		s-0.7-0.5-0.7-0.5s-2-1.3-1.7-1.3c0-0.2,0.5-0.5,0.7-0.2c0.2,0,0.5,0.2,0.5,0.2c0.2,0,0.5,0,0.5,0c0-0.2-0.7-0.7-0.7-0.7
		S184.6,269.1,184.1,269.1z"/>
	<path class="st12" d="M171.5,258.8c0,0-2.9,1.4-3.6,1.7c-0.5,0.2-3.2,1-3.2,1s-1.7-4.2-2.5-6.2c-0.7-2.5-1-6-0.7-6c1,0,2,0,3,0.7
		C167.9,252.2,171.5,258.8,171.5,258.8z"/>
	<path class="st47" d="M182.3,270.6c0.7,0.2,1.3,0.2,1.7-0.2C183.8,271.1,182.8,271.1,182.3,270.6z"/>
	<path class="st11" d="M146.7,314.7l-0.2,3c0,0.2-0.2,1.3-0.2,1.5c0,1.3,5.4-1,4.2-1.5c0,0-0.7-0.5-0.7-1c0-0.7-0.2-2-0.2-2H146.7z"
		/>
	<path class="st18" d="M150.5,317.7c0,0-1.3,0.2-2,0.5c-0.7,0-1.5-0.7-2-0.5s-0.5,2.5-0.5,2.5s6.9,0.7,8.9,0.2
		C155.7,320,153.2,318.7,150.5,317.7z"/>
	<path class="st11" d="M137.4,314.5l-0.2,3c0,0.2-0.2,1.3-0.2,1.5c0,1.3,5.4-1,4.2-1.5c0,0-0.7-0.7-1-1.3c0-0.7,0-1.8,0-1.8
		L137.4,314.5L137.4,314.5z"/>
	<path class="st18" d="M141.3,317.4c0,0-1.3,0.2-2,0.5c-0.7,0-1.5-0.7-2-0.5s-0.5,2.5-0.5,2.5s6.9,0.5,8.9,0.2
		C146.5,319.7,143.8,318.2,141.3,317.4z"/>
	<path class="st12" d="M140.1,268.3c0,0-1,4.8-0.7,8.5c0.2,3.7,0,16.9,0,16.9l-2.2,21l3.7,0.2c0,0,4.7-21,4.5-20.4
		c0,0.5,1.7-14.7,1.7-14.7l-4.7-11.7L140.1,268.3z"/>
	<path class="st28" d="M141.5,265.3c0,0-4.5,4.5-3,9.5c0.5,2,6.2,21,6.2,22.4c0,1.5,1.5,18.7,1.5,18.7h3.9l1.3-18.9l-0.5-25.7
		l-2.2-4.5L141.5,265.3z"/>
	<path class="st17" d="M167.7,252.9c-1.3-1.5-4.2-4-4.2-4s-1.7-1.5-2.5-1.7c-1-0.5-3-1.5-5.6,2.5c-2,3-14.5,16.4-16.3,18.2l12.9,6.5
		c0.5-3,6.9-8.5,7.9-9.5C161.5,262.6,169,254.4,167.7,252.9z"/>
	<path class="st11" d="M166.7,245.8l-4.2,2.2c0,0-0.2,3.5,1,4.5c1,0.7,2-1,2-1s1.5-2,2.8-2.8C169.4,248.3,166.7,245.8,166.7,245.8z"
		/>
	<path class="st17" d="M166,247c0.2,0.7,0.5,1.8,1,2.7c0.5-0.5,1-1,1.5-1.3c0.5-0.2,0.2-1-0.2-1.5c-0.7-0.7-1.5-1.5-1.5-1.5L166,246
		C165.8,246.3,166,246.8,166,247z"/>
	<path class="st11" d="M169.6,239.3c0,0-3.5,4-3.2,6s2.2,3.7,3.7,3.3c1.5-0.5,4.5-5.3,3.5-7.7C172.8,238.5,169.6,239.3,169.6,239.3z
		"/>
	<path class="st14" d="M173.3,238.3c-1.5-0.7-3.7-1.3-5.6-0.2c-2.2,1-2.8,4-2.2,5.7c0.7,1.8-0.2,2.7-0.2,2.7l1.3-0.7
		c0,0,0.7-1,0.7-2c0-0.7,1.3-0.7,2-1c0.5-0.2,1-1.3,1.7-1.8c0,0,2-0.2,2.8,0.2C175.2,242.5,175.2,239.5,173.3,238.3z"/>
	<path class="st11" d="M168.3,243.5c0,0.7-0.2,1.3-0.7,1.3s-0.7-0.5-0.7-1.3c0-0.7,0.2-1.3,0.7-1.3
		C168.1,242.3,168.3,242.8,168.3,243.5z"/>
	<path class="st27" d="M171.5,246.8l-1.7-1.3c0,0-0.5,0.7,0.2,1.3C171.1,247.5,171.5,246.8,171.5,246.8z"/>
	<path class="st46" d="M173.4,274.3c-0.5-0.7-0.5-1.8-1-2.5c-0.2-0.2-0.5-0.5-0.7-0.7c-2.8-2-9.9-7.2-10.1-7.7
		c-0.2-0.5-4.7-9.7-4.7-9.7l4.7-0.5l3.7,8.5c0.2,0.2,6.9,6.5,6.9,6.5s1.3,1.3,2,2c0.5,0.2,0.7,0.5,1,0.5c0.5,0.2,1.3,0.7,1.3,0.7
		c0.2,0.2,0.5,0.5,0.7,0.7s0.5,0.5,0.5,0.7c0,0,0.2,0.2,0.5,0.2c0.2,0.2,0.2,0.5,0,0.5s-0.5-0.2-0.7-0.2c-0.5-0.2-1-1-1-1
		s0.5,1.5,0.5,1.8s0.5,2,0.5,2.2c0,0.5-0.2,0.5-0.5,0.2c-0.2-0.2-1-2.5-1-2.5l-0.2-0.2c0,0.2,0.7,2.2,1,2.8c0,0.2,0,0.5-0.2,0.5
		c-0.2-0.2-1.3-2.5-1.3-2.5s0-0.2-0.2-0.2l0.7,2c0,0.2-0.2,0.2-0.5,0.2c-0.2-0.2-1-2.2-1-2.2s0-0.2-0.2,0c0,0,0.5,1.8,0.5,2
		s-0.2,0.2-0.2,0.2S173.9,275,173.4,274.3z"/>
	<path class="st12" d="M157.9,258.3c0,0,1.5-0.2,2.5-0.7c0.7-0.2,3.7-1.3,3.7-1.3s-0.7-5.3-1.3-7.2c-2.2-7.2-6.2-2.7-6.9-1.8
		C154.6,249.6,157.9,258.3,157.9,258.3z"/>
	<path class="st18" d="M186.7,304c0,0,1.3,6.5,3,8.2l0.2,0.2v0.5h-1c-1.3,0-2.5,0.5-3.2,1.5c-0.2,0.2-0.2,0.5-0.2,0.7v0.7l10.4-1
		c0,0,3.7-7.2,3.5-7.7c-0.2-0.2-11.1-3.7-11.1-3.7L186.7,304z"/>
	<path class="st19" d="M177.1,268l2.5,3.3c0,0,1,1.5,1,2.2s-1,4.2-1,4.2s-0.5,1.5-0.5,2.5s-1,3.7-1.3,5.5c0,1.8-1.7,3.5-1.5,7.2
		s3.5,9.5,3.5,9.5l0.2,15c0,0-2.8,1-3,1.5c-0.2,0.2,0,1.5,0,1.5h3.9l0.2-0.2c1-1.5,1.5-3.3,1.7-5l1.5-11c0,0,1.3,2,3.5,3.5
		c2.5,1.5,7.1,1.5,7.1,1.5s-2.5,4.5,1.5,7.7l0.7,1l-5.9,0.2c-0.5,0-1,0.2-1.5,0.5c-0.7,0.5-1.3,1.5-1.5,2.5l13.3-0.5l0.7-1.8
		c0-0.2,0-0.5-0.2-0.7l-0.5-0.7c0,0,2.5-1.5,2.8-3.5c0,0,1-0.2,1.7,0.2c0.7,0.5,2.5,3,6.9,2.7c4.7-0.5,8.6-3.3,9.1-6.2
		c0,0-2,3-5.9,3.5s-8.6-3.5-8.6-3.5s-1.3-5-3-7.9c-1.7-3-14-17.2-14-17.2l0.2-11.2c0-2-0.5-4.2-1.5-6l-0.2-0.5l-2.8-1.8
		c-0.2-0.2-0.5-0.2-1-0.2l-2,0.2l-4.2-3.7C179.6,262.5,177.1,264.3,177.1,268z"/>
	<path class="st18" d="M189.5,268c0,0-1-0.5-2.2,0.5c-1.3,0.7-1.5,4.5-2.2,6s-1,3.5,0.7,4.5s3.7-0.2,4.7,0.2c1,0.5,2-0.2,1.7-1.8
		C191.9,276.3,192.2,269.3,189.5,268z"/>
	<path class="st17" d="M179.4,278.5c0,0,6.4,3,11.6,2.5c0,0,0.2,1,0,2c0,0-7.1,0.2-11.9-2.5C179.1,280.8,178.6,279.5,179.4,278.5z"
		/>
</g>
</svg>
