<?xml version="1.0" encoding="utf-8"?>
<!-- Generator: Adobe Illustrator 25.2.0, SVG Export Plug-In . SVG Version: 6.00 Build 0)  -->
<svg version="1.1" id="Layer_1" xmlns="http://www.w3.org/2000/svg" xmlns:xlink="http://www.w3.org/1999/xlink" x="0px" y="0px"
	 viewBox="0 0 323 324" style="enable-background:new 0 0 323 324;" xml:space="preserve">
<style type="text/css">
	.st0{fill:#F7E7BF;}
	.st1{fill:#D4EBFF;}
	.st2{fill:#6CA3EA;}
	.st3{fill:#F3FAFF;}
	.st4{fill:#B8D0FC;}
	.st5{fill:#FFFFFF;}
	.st6{fill:#FF912B;}
	.st7{fill:#E49963;}
	.st8{fill:#163560;}
	.st9{fill:#E58638;}
	.st10{fill:#D68D5D;}
	.st11{fill:#2B478B;}
	.st12{fill:#A8D29F;}
	.st13{fill:#82B378;}
	.st14{fill:#233862;}
	.st15{fill:#B0D4FF;}
	.st16{fill:#95C0F4;}
	.st17{fill:#CAE5FF;}
	.st18{fill:#FFB27D;}
	.st19{fill:#ED975D;}
	.st20{fill:#FFE5B6;}
	.st21{fill:#BC9F6F;}
	.st22{fill:#9B4F38;}
	.st23{fill:#0B3563;}
	.st24{fill:#FFAE73;}
	.st25{fill:#1E3865;}
	.st26{fill:#FC7600;}
	.st27{fill:#F9924F;}
	.st28{fill:#BC462F;}
	.st29{fill:#78ACEA;}
	.st30{fill:#F99746;}
	.st31{fill:#ED7D2B;}
	.st32{fill:#163054;}
	.st33{fill:#153C6B;}
	.st34{fill:#25468F;}
	.st35{fill:#DCEAFF;}
	.st36{fill:#0A2435;}
	.st37{fill:#0C5177;}
	.st38{fill:#C65447;}
	.st39{fill:#1C468A;}
	.st40{fill:#A03732;}
	.st41{fill:#F1A34F;}
	.st42{fill:#E9F3FE;}
	.st43{display:none;fill:#D6B48B;}
	.st44{display:none;}
	.st45{display:inline;fill:#2B478B;}
	.st46{opacity:0.16;fill:#FFFFFF;enable-background:new    ;}
	.st47{opacity:0.3;fill:#FFFFFF;enable-background:new    ;}
	.st48{fill:#73A8DD;}
	.st49{fill:#D6B48B;}
	.st50{fill:#C5E1F9;}
	.st51{fill:#D1A586;}
	.st52{fill:#E5BD9E;}
	.st53{fill:#DFB697;}
	.st54{fill:#A0795F;}
	.st55{fill:#6BB7BF;}
	.st56{fill:#F4A269;}
	.st57{fill:#599DAD;}
	.st58{fill:#C69D7F;}
	.st59{fill:#E0B594;}
	.st60{fill:#D86713;}
	.st61{fill:#E78B37;}
	.st62{fill:#EE9849;}
	.st63{fill:#699DEE;}
	.st64{fill:#AFCDFB;}
	.st65{fill:#FFB973;}
	.st66{fill:#D8996F;}
	.st67{fill:#22407A;}
	.st68{fill:#D9E9F9;}
	.st69{fill:#BA4C43;}
</style>
<g id="_02">
	<rect y="239.7" class="st0" width="323" height="84.1"/>
	<rect x="57.6" y="79.6" class="st1" width="264.6" height="160.2"/>
	<g>
		<path class="st2" d="M312.2,229.4l-10.4-43.3l0.7-1.7l10.3,45c0,0.1,0,0.2-0.1,0.2l0,0h-0.2C312.3,229.6,312.2,229.5,312.2,229.4z
			"/>
		<path class="st2" d="M265.2,229.6L265.2,229.6c-0.2,0-0.3-0.1-0.3-0.3c0,0,0,0,0-0.1l3.1-18.7h1.3l-3.7,18.7
			C265.5,229.4,265.4,229.6,265.2,229.6z"/>
		<path class="st2" d="M294.6,229.6L294.6,229.6c-0.2,0-0.3-0.1-0.3-0.3c0,0,0,0,0-0.1l3.1-18.7h1.3l-3.7,18.7
			C295,229.4,294.8,229.6,294.6,229.6z"/>
		<polygon class="st3" points="301.7,210.6 265,210.6 272.6,163 309.3,163 		"/>
		<rect x="262.3" y="210.3" class="st2" width="42.1" height="1.4"/>
		<path class="st4" d="M287.2,173c0,0.4-0.1,0.7-0.2,1.1c-0.7,3.4-3.7,5.9-7.2,6c-3.5,0-6.4-2.9-6.4-6.4c0-0.2,0-0.5,0-0.7
			c0.3-3.9,3.5-7,7.4-7.1c0.8,0,1.5,0.1,2.2,0.4c0.3,0.1,0.6,0.2,0.9,0.4c0.6,0.3,1.2,0.8,1.6,1.3c0.3,0.3,0.5,0.6,0.7,1
			c0.1,0.2,0.2,0.4,0.3,0.6c0.3,0.6,0.5,1.2,0.5,1.9c0,0.3,0.1,0.7,0.1,1C287.2,172.7,287.2,172.8,287.2,173z"/>
		<path class="st5" d="M286.6,169.6l-6.3,3.4c0,0,2.6-4.6,3.7-6.3c0.6,0.3,1.2,0.8,1.6,1.3c0.3,0.3,0.5,0.6,0.7,1
			C286.4,169.2,286.5,169.4,286.6,169.6z"/>
		<path class="st6" d="M287.2,168.7l-5.7,3.1c0,0,2.4-4.2,3.3-5.8c0.6,0.3,1.1,0.7,1.5,1.2c0.2,0.3,0.4,0.6,0.6,0.9
			C287.1,168.3,287.1,168.5,287.2,168.7z"/>
		<path class="st4" d="M298.8,207h-30.2l3.1-17.4h30.2L298.8,207z M268.9,206.9h29.7l3-17.1h-29.7L268.9,206.9z"/>
		<path class="st6" d="M297,204.6h-26.8c0,0,4.8-2.6,6-2.4s3.2,1.2,4.4,1.2c1.2,0,2.5-3.6,3.8-3.4s1.8,3.4,2.5,3.1
			c1.3-0.4,2.7-0.4,4,0c1.2,0.5,2.9-1.4,4-1.4C296.1,201.7,297,204.6,297,204.6z"/>
		<polygon class="st6" points="276.7,199.5 271.5,199.5 271.6,199.2 276.7,199.2 		"/>
		<polygon class="st6" points="276.6,200.1 271.4,200.1 271.5,199.8 276.6,199.8 		"/>
		<path class="st4" d="M271.8,195.9h26.8c0,0-3.9-2.6-5.2-2.4c-1.3,0.1-3.6,1.2-4.8,1.2c-1.2,0-1.3-3.6-2.7-3.4
			c-1.4,0.2-3,3.4-3.6,3.1c-1.3-0.4-2.6-0.4-3.9,0c-1.4,0.5-2.5-1.4-3.5-1.4C273.7,193,271.8,195.9,271.8,195.9z"/>
		<polygon class="st4" points="278.1,191.3 273,191.3 273,191 278.2,191 		"/>
		<polygon class="st4" points="278,191.8 272.9,191.8 272.9,191.6 278,191.6 		"/>
		<polygon class="st4" points="273.5,187.2 272.3,187.2 273.3,181.6 274.5,181.6 		"/>
		<polygon class="st4" points="275.1,187.2 273.9,187.2 274.7,182.9 275.9,182.9 		"/>
		<polygon class="st4" points="276.7,187.2 275.5,187.2 276.3,182.7 277.5,182.7 		"/>
		<polygon class="st4" points="278.3,187.2 277.1,187.2 277.7,183.8 278.9,183.8 		"/>
		<polygon class="st4" points="279.9,187.2 278.7,187.2 279.4,183.5 280.6,183.5 		"/>
		<polygon class="st4" points="281.5,187.2 280.3,187.2 280.8,184.3 282,184.3 		"/>
		<polygon class="st6" points="289.2,187.2 288,187.2 289,181.6 290.2,181.6 		"/>
		<polygon class="st6" points="290.8,187.2 289.6,187.2 290.4,182.9 291.6,182.9 		"/>
		<polygon class="st6" points="292.4,187.2 291.2,187.2 292,182.7 293.2,182.7 		"/>
		<polygon class="st6" points="294,187.2 292.8,187.2 293.4,183.8 294.6,183.8 		"/>
		<polygon class="st6" points="295.6,187.2 294.4,187.2 295.1,183.5 296.3,183.5 		"/>
		<polygon class="st6" points="297.2,187.2 296,187.2 296.5,184.3 297.7,184.3 		"/>
		<polygon class="st4" points="294.8,169.2 291,169.2 291.1,168.7 294.9,168.7 		"/>
		<polygon class="st4" points="299.5,169.2 295.3,169.2 295.4,168.7 299.6,168.7 		"/>
		<polygon class="st4" points="302.5,169.2 299.8,169.2 299.9,168.7 302.6,168.7 		"/>
		<polygon class="st4" points="305,169.2 303,169.2 303.1,168.7 305.1,168.7 		"/>
		<polygon class="st4" points="294.4,171.4 290.6,171.4 290.7,170.9 294.5,170.9 		"/>
		<polygon class="st4" points="299.1,171.4 294.9,171.4 295,170.9 299.2,170.9 		"/>
		<polygon class="st4" points="302.1,171.4 299.4,171.4 299.5,170.9 302.2,170.9 		"/>
		<polygon class="st4" points="304.6,171.4 302.6,171.4 302.7,170.9 304.7,170.9 		"/>
		<polygon class="st4" points="297.1,168 291.2,168 291.4,167.5 297.2,167.5 		"/>
		<polygon class="st4" points="301.1,168 297.7,168 297.8,167.5 301.2,167.5 		"/>
		<polygon class="st4" points="305.3,168 301.5,168 301.6,167.5 305.4,167.5 		"/>
		<polygon class="st4" points="296.7,170.3 290.8,170.3 290.9,169.8 296.8,169.8 		"/>
		<polygon class="st4" points="300.6,170.3 297.2,170.3 297.3,169.8 300.7,169.8 		"/>
		<polygon class="st4" points="304.8,170.3 301.1,170.3 301.2,169.8 304.9,169.8 		"/>
		<polygon class="st4" points="294,173.7 290.2,173.7 290.3,173.1 294.1,173.1 		"/>
		<polygon class="st4" points="298.7,173.7 294.5,173.7 294.6,173.1 298.8,173.1 		"/>
		<polygon class="st4" points="301.7,173.7 299,173.7 299.1,173.1 301.8,173.1 		"/>
		<polygon class="st4" points="304.2,173.7 302.1,173.7 302.2,173.1 304.3,173.1 		"/>
		<polygon class="st4" points="296.3,172.6 290.4,172.6 290.5,172.1 296.4,172.1 		"/>
		<polygon class="st4" points="300.2,172.6 296.8,172.6 296.9,172.1 300.3,172.1 		"/>
		<polygon class="st4" points="304.4,172.6 300.7,172.6 300.8,172.1 304.5,172.1 		"/>
		<polygon class="st4" points="293.6,175.8 289.8,175.8 289.9,175.2 293.7,175.2 		"/>
		<polygon class="st4" points="298.3,175.8 294.1,175.8 294.2,175.2 298.4,175.2 		"/>
		<polygon class="st4" points="301.3,175.8 298.6,175.8 298.7,175.2 301.4,175.2 		"/>
		<polygon class="st4" points="303.8,175.8 301.7,175.8 301.8,175.2 303.9,175.2 		"/>
		<polygon class="st4" points="295.9,174.7 290,174.7 290.1,174.2 296,174.2 		"/>
		<polygon class="st4" points="299.8,174.7 296.4,174.7 296.5,174.2 299.9,174.2 		"/>
		<polygon class="st4" points="304,174.7 300.3,174.7 300.4,174.2 304.1,174.2 		"/>
		<polygon class="st4" points="284.9,182.5 283,182.5 283.1,182.2 285,182.2 		"/>
		<polygon class="st4" points="287.2,182.5 285.1,182.5 285.2,182.2 287.3,182.2 		"/>
		<polygon class="st4" points="284.7,183.6 282.8,183.6 282.9,183.3 284.8,183.3 		"/>
		<polygon class="st4" points="287,183.6 284.9,183.6 285,183.3 287.1,183.3 		"/>
		<polygon class="st4" points="286,181.9 283.2,181.9 283.2,181.6 286.1,181.6 		"/>
		<polygon class="st4" points="288,181.9 286.3,181.9 286.4,181.6 288,181.6 		"/>
		<polygon class="st4" points="285.8,183 282.9,183 283,182.8 285.9,182.8 		"/>
		<polygon class="st4" points="287.7,183 286.1,183 286.1,182.8 287.8,182.8 		"/>
		<polygon class="st4" points="299.9,182.5 298,182.5 298.1,182.2 299.9,182.2 		"/>
		<polygon class="st4" points="302.2,182.5 300.1,182.5 300.2,182.2 302.2,182.2 		"/>
		<polygon class="st4" points="299.7,183.6 297.8,183.6 297.9,183.3 299.7,183.3 		"/>
		<polygon class="st4" points="302,183.6 299.9,183.6 300,183.3 302,183.3 		"/>
		<polygon class="st4" points="301,181.9 298.1,181.9 298.2,181.6 301.1,181.6 		"/>
		<polygon class="st4" points="302.9,181.9 301.3,181.9 301.3,181.6 303,181.6 		"/>
		<polygon class="st4" points="300.8,183 297.9,183 298,182.8 300.8,182.8 		"/>
		<polygon class="st4" points="302.7,183 301.1,183 301.1,182.8 302.8,182.8 		"/>
		<polygon class="st7" points="251.7,222.4 252.8,227 254.4,226.9 254.4,222.4 		"/>
		<polygon class="st7" points="265.1,222.6 268.2,227 269.3,225.4 267.5,222 		"/>
		<path class="st8" d="M257.3,162.9c-0.5-0.3-1.1-0.4-1.7-0.3c0.1-0.1,0.2-0.1,0.4-0.2c-0.3,0-0.7,0.1-1,0.2
			c-3.9-1.6-4.6,4.4-4.5,5.7c0.1,1.4-1.3,1.8-3.4,2.9c-3.9,2.1-4.3,4.8-4.3,4.8l0.1,0.1c0.2-0.3,0.6-1,1-1.1
			c-0.2,0.4-0.4,0.9-0.5,1.3c1.2,0.9,3.3,2.9,4.9,4.3c0-0.3,0-0.6,0.1-0.9l0.2,1.1l1.4,1.3c-0.1-1.1,5-7,7.6-8.7
			c0.5-0.9,0.8-1.8,0.9-2.8c0,0.9-0.2,1.7-0.5,2.5C260,171.3,258.7,163.8,257.3,162.9z"/>
		<path class="st7" d="M257.3,173.7c-0.7,0.4-1.5,0.5-2.3,0.4c-0.7-0.3-1.2-0.8-1.5-1.5c0.4-0.1,0.5-0.6,0.5-2.9h0.2l2.9,0.6
			c0,0-0.1,0.9-0.1,1.8C257.1,172.9,257.1,173.6,257.3,173.7z"/>
		<path class="st9" d="M254,163.9c0.9-0.9,2.3-1,3.3-0.1C256.1,163.7,255,163.7,254,163.9z"/>
		<path class="st10" d="M257.1,170.4c0,0-0.1,0.9-0.1,1.8c-1.6,0-2.5-1.6-2.9-2.4L257.1,170.4z"/>
		<path class="st8" d="M253.9,169.5c-0.5-0.8-0.9-1.6-1.1-2.6c-0.2-0.8,0.3-3.9,3.4-3.5c0.6,0.1,1.2,0.3,1.7,0.7
			c0.7,0.5,1.6,1.5,0.6,4.2l-0.3,0.9L253.9,169.5z"/>
		<path class="st11" d="M268.9,224.2h-1.6h-1.7c-2.7-3.4-4.8-7.3-6.1-11.4c0-0.2-0.1-0.3-0.2-0.5c-1.2-3.5-3.7-8-5-12
			c-0.2-0.6-0.4-1.2-0.6-1.8c0-0.2-0.1-0.4-0.2-0.5c-0.7-2.6-1.2-5.3-1.5-8l9.4,0.1C262.9,201.7,265.3,213.1,268.9,224.2z"/>
		<path class="st12" d="M260.2,184.7c-0.1,2.2,0.1,4.4,0.7,6.5c-2.8,1.2-5.9,1.4-8.8,0.5l-3.5-0.8c0.1-0.2,0.9-3.2,1-3.4
			c0.6-1.2,1.1-2.6,1.4-3.9c0.2-1.3,0.2-2.5,0.1-3.8c-0.2-2-0.6-4-1.2-6c1.3-0.4,2.6-0.8,3.9-1.3c0.6,0.5,1.3,0.8,2.1,0.8
			c1,0,1.3-0.4,1.2-0.9c1,0.6,1.8,1.1,1.8,1.1c0.9,1.5,2.6,3,2.7,5.3C261.7,179.4,260.2,184.6,260.2,184.7z"/>
		<path class="st7" d="M257.7,171.2c0,0-3.9,0.1-3.9-2.4s-0.5-4.1,2-4.2c2.5-0.1,2.9,0.8,3.2,1.6C259.1,167,258.7,171.1,257.7,171.2
			z"/>
		<path class="st8" d="M257.6,164.5c0,0-1.1,2.9-2.7,3.3c-0.8,0.3-1.6,0.3-2.3,0c0.5-0.9,0.8-1.9,1-2.9
			C253.5,164.9,256.7,163.2,257.6,164.5z"/>
		<path class="st8" d="M257.3,164.8c0.4,0.3,0.8,0.8,1,1.3c0.2,0.6,0.3,1.9,0.6,1.9c0,0,0.8-2-0.1-3.1S257.3,164.8,257.3,164.8z"/>
		<path class="st7" d="M252.7,226.7c0.1,0.6,0,1.3-0.2,1.9c0,0-0.3,1.2,0.9,1.2s1.5-0.1,1.3-0.8s-0.4-2-0.4-2L252.7,226.7z"/>
		<path class="st7" d="M272.2,229.2c-1-1.2-2-2.4-2.8-3.7l-1.6,0.8l3.6,3.4l0.8-0.1V229.2z"/>
		<path class="st13" d="M273.5,230.4h-2.9c-0.4-0.4-0.7-0.9-0.9-1.4c-0.2-0.3-0.6-0.6-1-0.7v2h-0.6l-0.6-2.1
			c-0.3-0.6-0.2-1.4,0.2-1.9c0.3,0,1.2,0.2,2.7,2c0.4,0.5,1,0.8,1.7,0.8l0,0C272.8,229.4,273.3,229.8,273.5,230.4z"/>
		<path class="st11" d="M257.1,172.4c0,0,2.3,5.6,2.3,6.8s0.3,18.7,0.3,18.7s-0.1,0.8,1.4,0.5c0.7-0.1,1.4-0.3,2-0.7
			c0,0-1.5-10.8-1.1-14.5s-3.1-9.8-3.1-9.8L257.1,172.4z"/>
		<path class="st14" d="M267.3,224.3h-1.7c-2.7-3.4-4.8-7.3-6.1-11.4c0-0.2-0.1-0.3-0.2-0.5c-1.2-3.5-3.7-8-5-12
			c-0.2-0.6-0.4-1.2-0.6-1.8c0-0.2-0.1-0.4-0.2-0.5l1.4-1.1c0,0,4.2,6.9,5.5,13.3C261.6,215.9,266.1,222.6,267.3,224.3z"/>
		<path class="st11" d="M255.2,210.9c0,3.1-0.1,10.3-0.5,13.3H252c-1-5.2-1.7-9.5-2.3-13.1c-0.4-3-0.8-5.6-1.1-7.9s-0.5-4.1-0.6-5.7
			c0-0.3,0-0.5,0-0.7s0-0.5,0-0.7l8.2-0.8C256,200.7,255.2,209.1,255.2,210.9z"/>
		<path class="st14" d="M253.2,224.2H252c-1-5.2-1.7-9.5-2.3-13.1c-0.4-3-0.8-5.6-1.1-7.9s-0.5-4.1-0.6-5.7l2.9,1.8
			c0,0-1.9,0.7-1.2,5.8C250.5,210.3,252.2,223.5,253.2,224.2z"/>
		<path class="st11" d="M253.6,197.4c-0.3,1.2-1.4,1.9-2.6,1.8c-1.7-0.3-3.3-0.8-4.8-1.5c0,0,0.9-2.7,2-6.3
			c1.3-4.3,2.9-9.9,3.6-13.4c0.2-0.8,0.3-1.6,0.4-2.4l1.6-3.2c0,0,2.5,5.6,2.6,7S253.6,197.4,253.6,197.4z"/>
		<path class="st7" d="M251.6,179.3l2.2-6.8c-1.4,0.4-2.8,0.9-4.1,1.5c-0.7,1.1-1.2,2.4-1.4,3.7c0,0-0.6,6.2,0.7,8.5
			c0,0,4,0.8,10.3-1.4v-1.5c0,0-7,0.4-8.4,0.5L251.6,179.3z"/>
		<path class="st14" d="M253.5,182.4c-0.1,2.3-0.6,6.7-5.3,9.1l0,0c1.3-4.3,2.9-9.9,3.6-13.4C252.6,179.4,253.5,181.2,253.5,182.4z"
			/>
		<path class="st11" d="M253.8,172.5c0,0-4,0.3-5,2.5s-1.3,9.5,0,11.6c1.6,0.3,3.2,0.3,4.7-0.1h0.1c0,0,1-2.4,0.1-2.8
			c0,0-2.5,0.1-2.3-0.7C251.7,182.1,253.8,172.5,253.8,172.5z"/>
		<path class="st7" d="M258.5,183.8c0.3-0.4,0.6-0.9,0.7-1.4c0.1-0.7,0.7-1.3,1.4-1.3c1-0.1,1.4-0.1,1.4,0.1
			c-0.4,1.3-1.1,2.4-2.2,3.3C258.5,185.6,258.5,183.8,258.5,183.8z"/>
		<path class="st11" d="M265.8,178c-1.4-1.6-5-5.2-8.7-5.6l3.2,6.3c0.1,0.7,0.6,1.3,1.1,1.7c1.6,1,3.4,1.8,5.3,2.2
			c1.7-0.8,3.3-1.8,4.7-2.9c0.9-0.9,1.7-1.9,2.4-3.1l-0.4-1.4c0,0-2.6,1.4-3.5,1.9l-2.5,1.3C266.8,178.6,266.1,178.5,265.8,178z"/>
		<path class="st7" d="M273.4,175.3c0.3-1.2,1.5-1.9,2.7-1.7c0.2,0.1,1,0.4,0.5,1.2c-0.3,0.6-0.5,0.3-1,1.1c-0.4,0.6-1.1,1-1.8,0.9
			L273.4,175.3z"/>
		<path class="st14" d="M259.6,193.8l-0.1,3.8c0,0.4,0.3,0.7,0.7,0.7l0,0c0.7,0,1.4-0.2,2-0.5c-0.7,0.5-1.5,0.7-2.3,0.7
			c-0.5,0-0.9-0.4-0.9-0.9v-0.1L259.6,193.8z"/>
		<path class="st14" d="M254,195.1l-0.6,3.4c-0.1,0.5-0.6,0.9-1.1,0.8l-2-0.2l1.8,0.7c0.6,0.2,1.3-0.1,1.5-0.7
			c0-0.1,0.1-0.2,0.1-0.3L254,195.1z"/>
		<path class="st13" d="M254.9,230L254.9,230h-2.4h-0.1c-0.1-0.6,0-1.2,0.1-1.7c1.3,1.2,2.2,0,2.2,0
			C254.9,228.8,254.9,229.4,254.9,230z"/>
	</g>
	<g>
		<g>
			<path class="st15" d="M214.2,231.5L214.2,231.5c-0.2,0-0.3-0.2-0.3-0.3l0.4-19.8l1.2-0.2l-1.1,19.9
				C214.5,231.3,214.4,231.5,214.2,231.5z"/>
			<g>
				<path class="st15" d="M226.8,231.5L226.8,231.5c0.2,0,0.3-0.2,0.3-0.3l-0.4-19.8l-1.2-0.2l1.1,19.9
					C226.5,231.3,226.6,231.5,226.8,231.5z"/>
				<path class="st16" d="M233.9,231.5L233.9,231.5c0.2,0,0.3-0.2,0.3-0.3l-0.4-19.8l-1.2-0.2l1.1,19.9
					C233.7,231.3,233.8,231.5,233.9,231.5z"/>
				<path class="st15" d="M234.8,210.2v-13.6c0.1-2.3-1.7-4.2-3.9-4.3l0,0H222c-2.3,0.1-4.1,2-4,4.3l0,0v14.1L234.8,210.2z"/>
				<path class="st16" d="M216.4,212.2h17.2c0.7,0,1.2-0.6,1.2-1.3l0,0V210h-18.4V212.2L216.4,212.2z"/>
				<path class="st17" d="M214.3,212.2h13c0.5,0,0.9-0.4,0.8-0.9v-0.2c0-0.5-0.4-0.9-0.8-0.9h-13c-0.5,0-0.9,0.4-0.9,0.9v0.2
					C213.4,211.8,213.8,212.2,214.3,212.2L214.3,212.2z"/>
			</g>
		</g>
		<path class="st15" d="M108.7,232.5L108.7,232.5c-0.2,0-0.3-0.1-0.3-0.3l0.5-19.7l1.3-0.1l-1.2,19.8
			C109,232.3,108.9,232.5,108.7,232.5C108.8,232.5,108.7,232.5,108.7,232.5z"/>
		<path class="st16" d="M100.9,232.5L100.9,232.5c-0.2,0-0.3-0.1-0.3-0.3l0.5-19.7l1.3-0.1l-1.2,19.8
			C101.2,232.4,101.1,232.5,100.9,232.5z"/>
		<path class="st15" d="M122.4,232.5L122.4,232.5c0.2,0,0.3-0.1,0.3-0.3l-0.5-19.7l-1.3-0.1l1.2,19.8
			C122,232.4,122.2,232.5,122.4,232.5z"/>
		<path class="st15" d="M100.1,211.3v-13.5c0-2.4,1.9-4.3,4.3-4.3h9.7c2.4,0,4.3,1.9,4.3,4.3v14L100.1,211.3z"/>
		<path class="st16" d="M120.1,213.4h-18.7c-0.7,0-1.3-0.6-1.3-1.3c0,0,0,0,0-0.1v-0.8h20.1L120.1,213.4L120.1,213.4z"/>
		<path class="st15" d="M123.9,213.2h-14.1c-0.5,0-0.9-0.4-0.9-0.9v-0.2c0-0.5,0.4-0.9,0.9-0.9H124c0.5,0,0.9,0.4,0.9,0.9v0.2
			C124.9,212.8,124.4,213.2,123.9,213.2z"/>
		<path class="st14" d="M123.4,207.8c-0.8,1.4-1.9,2.5-3.2,3.4H113C113,211,124.5,205.9,123.4,207.8z"/>
		<path class="st18" d="M117.8,226.5c-0.2,0.2-0.2,0.4-0.2,0.7c0.3,0.6,0.8,1.1,1.4,1.6c0.1,0.1,0.1,0.1,0.2,0.1l0.1,0.1h0.1
			c0.6,0.5,0.4,0.7,1.5,1.8s2.1,1.3,2.4,1.2s-0.2-0.8-0.7-1.6c0,0,0-0.1-0.1-0.1l0,0c-0.1-0.1-0.1-0.2-0.2-0.3
			c-0.5-0.9-0.4-1.4-0.3-2.8c0.5-2.2,1.1-4.3,1.8-6.4l-2.5-0.4c0,0-0.8,4.2-1.5,4.9c-0.5,0.3-0.9,0.3-1.3,0.6c0,0-0.1,0-0.1,0.1
			C118.2,226.1,118,226.3,117.8,226.5z"/>
		<path class="st14" d="M117.8,226.5c-0.2,0.2-0.2,0.4-0.2,0.7c0.4,0.6,0.8,1.1,1.4,1.6l0.2,0.2l0.1,0.1h0.1
			c0.6,0.5,0.4,0.7,1.5,1.8c1.1,1.2,2.1,1.3,2.4,1.2s-0.2-0.8-0.7-1.6c-0.9-0.3-1.7-0.9-2.2-1.7c-0.8-1-1.3-2.2-1.8-2.9
			c0,0-0.1,0-0.1,0.1l0,0C118.3,226.1,118,226.3,117.8,226.5z"/>
		<path class="st18" d="M137.5,224.9c0.2,0.8,1.2,0.6,2.4,0.3s0.9,0.1,2.6-0.1c1.7-0.2,2.2-0.9,2.2-1.1s-0.8-0.3-1.7-0.4
			c-0.2,0-0.2,0-0.3-0.1c-1-0.3-1.9-0.7-2.7-1.3c-0.8-0.8-1.6-1.7-2.1-2.6l-2.3,0.2c0,0,1.2,1.8,1.7,2.7c0.2,0.5,0.3,1.1,0.2,1.6
			C137.5,224.4,137.4,224.7,137.5,224.9z"/>
		<path class="st14" d="M139.9,225.3c1.2-0.3,0.9,0.1,2.6-0.1c1.7-0.2,2.2-0.9,2.2-1.1c0-0.2-0.8-0.3-1.7-0.4l0,0
			c-0.7,0.5-1.6,0.7-2.5,0.8c-1.2,0-2.4-0.3-3.2-0.3v0.8C137.6,225.7,138.7,225.6,139.9,225.3z"/>
		<path class="st14" d="M128.5,210l-2.1,5.9l-2.9,7.7c-0.5,0-1,0-1.5-0.1c-0.5-0.2-1-0.4-1.5-0.7c0.4-4.4,1.2-8.8,2.2-13
			c0.2-1,0.7-1.9,1.2-2.8C126.3,204.2,128.5,210,128.5,210z"/>
		<path class="st11" d="M126.3,200.7c-1.5-0.5-5.5,0.1-9.6,0.9l-0.8-1.4l-8.9-0.7c0,0-2.9,6.5-1.3,10.6c0.2,0.6,0.8,1,1.5,1h7.2
			c4.4,0,9.3-3,9.9-3.2c1-0.2,1.5,1.8,2.5,4.1c1,2.2,9.8,9.7,9.8,9.7c0.7,0,1.3-0.1,1.9-0.2c0.3-0.1,0.6-0.3,0.8-0.5
			C139.2,221,129.5,201.7,126.3,200.7z"/>
		<path class="st14" d="M115.5,174.3c-1-0.5-2.1-0.7-3.2-0.7c-3.3-0.5-5.3,4.4-5.5,5.9c-0.2,2.7-1.6,3.2-3.7,4.9
			c-4.1,3.4-2.9,7.4-0.6,8.9c1.3,0.9,3.7,0,3.7,0l9.6-5.3C120.5,187.2,118.4,175.8,115.5,174.3z"/>
		<path class="st18" d="M113.1,186.4c-0.8,0.3-1.8,0.3-2.6,0.1c-0.8-0.5-1.3-1.2-1.7-2.1c0.5,0,0.9-0.4,1.3-3l0.2,0.1l3.2,1.2
			c0,0-0.2,1-0.4,2C113,185.5,112.9,186.3,113.1,186.4z"/>
		<path class="st19" d="M113.5,182.7c0,0-0.2,1-0.4,2c-1.9-0.3-2.5-2.1-2.9-3.2L113.5,182.7z"/>
		<path class="st18" d="M114,183.7c0,0-4.4-0.6-4-3.3s0.1-4.6,2.9-4.4s3.2,1.4,3.3,2.3S115.1,183.8,114,183.7z"/>
		<path class="st14" d="M116.1,176.8c0,0-2.8,2.4-4.7,2.6c-0.9,0.2-1.8,0.1-2.6-0.4c0.8-0.7,1.4-1.5,1.8-2.5
			c0.2-0.4,0.6-0.7,1.1-0.8C113,175.7,115.6,175.6,116.1,176.8z"/>
		<path class="st14" d="M114.3,176.6c0.5,0.5,0.9,1,1.2,1.6c0.3,0.9,0.4,1.9,0.2,2.9c0,0,1.5-2.9,0.6-4.3c-0.3-0.6-1-0.8-1.6-0.6
			C114.6,176.3,114.4,176.4,114.3,176.6z"/>
		<path class="st20" d="M116.8,192.9c-0.2,8.9,0,7-1,7.9c-0.6,0.3-1.2,0.4-1.8,0.4c-2.7,0.2-7.5-0.3-7.7-0.8
			c-0.6-1.8-0.2-2.3-0.7-4.9l-0.2-0.9c-0.5-1.8-0.8-2.5,0.7-5.3c0.8-1.7,1.8-3.3,3-4.8c3.7,2.2,4,0.4,4,0.4S116.9,188.6,116.8,192.9
			z"/>
		<path class="st11" d="M126.3,215.9l-2.9,7.7c-0.5,0-1,0-1.5-0.1c-0.5-0.2-1-0.4-1.5-0.7c0.4-4.4,1.2-8.8,2.2-13L126.3,215.9z"/>
		<path class="st20" d="M113.1,184.7c0,0,3.8,0.6,4.3,2.3s3.1,11.3,3.1,11.3s-1.9,0.4-2.9-0.5s-3.2-8.3-3.2-8.3L113.1,184.7z"/>
		<path class="st21" d="M114.1,201.2c-2.7,0.2-7.5-0.3-7.7-0.8c-0.6-1.8-0.2-2.3-0.7-4.9l1.3-3.7c0,0-0.2,4.2,1,5.3s5,2.1,5.6,3
			C113.8,200.4,114,200.8,114.1,201.2z"/>
		<path class="st18" d="M110.9,199.4c1-0.3,2.1-0.4,3.2-0.4c0.6,0.4,1.2,0.8,1.6,1.4c0.1,0.3-1-0.2-1.3-0.3c-0.4,0-0.8,0.1-1.2,0.2
			c-0.7,0.2-1.4,0.3-2.1,0.2L110.9,199.4z"/>
		<path class="st20" d="M109.1,184.4c0,0-3.6,0.2-4.9,1.9c-1.8,2.5-5.3,13-3.2,14.3c2.2,1.5,10.3,0.4,10.3,0.4
			c0.1-0.6,0.1-1.2-0.1-1.8c-0.4-0.6-6.4-1.5-6.6-1.8s3.5-5.3,3.5-6.3S109.1,184.4,109.1,184.4z"/>
		<path class="st18" d="M114.1,199.8c0.2,0.3,0.5,0.6,0.8,0.9c0.1,0,0.2,0.1,0.3,0.1l-0.4-0.7L114.1,199.8z"/>
		<path class="st18" d="M114.1,199.1l1.6,0.8c-0.1,0.1-0.2,0.1-0.3,0.1c-0.2,0-0.5-0.1-0.7-0.2L114.1,199.1z"/>
		<path class="st2" d="M148.8,231.6L148.8,231.6c-0.2,0-0.3-0.1-0.3-0.3l0,0l0.5-21.6l1.5-0.2l-1.2,21.7
			C149.1,231.5,149,231.6,148.8,231.6L148.8,231.6z"/>
		<path class="st2" d="M140.3,231.6L140.3,231.6c-0.2,0-0.3-0.1-0.3-0.3l0,0l0.5-21.6l1.5-0.2l-1.2,21.7
			C140.7,231.5,140.5,231.6,140.3,231.6z"/>
		<path class="st2" d="M163.8,231.6L163.8,231.6c0.2,0,0.3-0.1,0.3-0.3l0,0l-0.5-21.6l-1.5-0.2l1.2,21.7
			C163.4,231.5,163.6,231.6,163.8,231.6z"/>
		<path class="st2" d="M139.3,208.4v-14.8c0-2.6,2.1-4.7,4.7-4.7l0,0h10.6c2.6,0,4.7,2.1,4.7,4.7l0,0v15.3L139.3,208.4z"/>
		<path class="st2" d="M139.3,208.4h21.8l0,0v2.3l0,0h-20.4c-0.8,0-1.4-0.6-1.4-1.4l0,0L139.3,208.4L139.3,208.4z"/>
		<path class="st2" d="M148.2,208.4h15.5c0.6,0,1,0.5,1,1v0.3c0,0.6-0.5,1-1,1h-15.5c-0.6,0-1-0.5-1-1v-0.3
			C147.1,208.8,147.6,208.4,148.2,208.4z"/>
		<path class="st22" d="M155.3,183.4c-0.7,0.7-1.1,1.7-1.1,2.7c-0.1,1.5,0.9,13,1.7,13.9c2.1,2.6,4.9,1.5,6,1.9l1.1-0.9
			c0,0-3.5-2.6-3.8-3.5C158,194.3,158.7,184.7,155.3,183.4z"/>
		<path class="st23" d="M154.7,174.1c0,0,0-2.1-2.7-2.5s-3.6,0.2-4,0.9c-0.7,1.5-1.2,3.1-1.3,4.8c0.1,1.2,3.3,2.6,3.2,3.2
			S154.7,174.1,154.7,174.1z"/>
		<path class="st24" d="M167.6,229.8c-0.1,0.7,0.9,0.9,2,1.1c1.1,0.1,0.8,0.3,2.3,0.7c1.6,0.3,2.1-0.1,2.3-0.3s-0.6-0.5-1.4-0.9
			l-0.3-0.1c-0.8-0.5-1.5-1.2-2-2c-0.5-0.9-0.9-1.9-1.2-3l-2.1-0.5c0,0,0.5,2,0.7,2.9c0.1,0.5,0,1-0.3,1.5
			C167.7,229.3,167.6,229.6,167.6,229.8z"/>
		<path class="st25" d="M169.6,230.8c1.1,0.1,0.8,0.3,2.3,0.7c1.6,0.3,2.1-0.1,2.3-0.3s-0.6-0.5-1.4-0.9l0,0
			c-0.8,0.2-1.6,0.2-2.4-0.1c-1.1-0.3-2-1-2.7-1.2c-0.1,0.2-0.2,0.5-0.2,0.7C167.5,230.5,168.5,230.7,169.6,230.8z"/>
		<path class="st26" d="M151.9,200.7c0,0,14,1.5,16.3,3.6s1.9,22.1,1.9,22.1c-0.4,0.4-0.6,0.4-1.2,0.3c-0.6-0.1-1.1-0.3-1.7-0.5
			c0,0-3-9.8-3-12.1s-0.5-6.1-1.5-6.4c-1-0.2-12.3,1.1-13.5-2.5c-0.7-2.2-0.4-4.6,0.8-6.5L151.9,200.7z"/>
		<path class="st22" d="M145.3,204.3c1,0.7,2.3,1.1,3.5,1.1c3.2,0.1,7.3-0.3,8.1-1c0.2-0.3,0.3-0.6,0.3-0.9c-0.1-1.7-0.4-3.4-0.9-5
			c-0.3-0.8-0.4-1.7-0.3-2.5c0.4-1.5,1.8-4.5,1.9-5.5c0.1-1-1.1-6.3-2.7-7c-1.6-0.7-8,0-8,0c-2.5,0.5-2.6,5.8-1.8,10.2l0.1,0.3
			C146.5,198.6,143.6,203.2,145.3,204.3z"/>
		<path class="st24" d="M153.5,184.4c0,0.3-0.8,0.8-2.5,0.3c-1.7-0.4-1.8-1-1.8-1.3c0.5-1.1,0.7-2.3,0.7-3.5h0.2l3.2,0.6
			c0,0-0.1,1.1-0.1,2C153.2,183.5,153.6,183.9,153.5,184.4z"/>
		<path class="st27" d="M153.3,180.6c0,0-0.1,1.1-0.1,2c-1.8,0-2.8-1.7-3.2-2.6L153.3,180.6z"/>
		<path class="st24" d="M153.9,181.5c0,0-4.3,0.1-4.3-2.6c0-2.7-0.6-4.5,2.2-4.7s3.3,0.9,3.5,1.8C155.6,176.9,155,181.4,153.9,181.5
			z"/>
		<path class="st23" d="M153.8,174.2c0,0-1.2,3.2-3,3.6c-0.8,0.3-1.8,0.3-2.6,0c0.9-0.8,1.5-1.9,1.7-3.1
			C149.9,174.8,152.9,172.7,153.8,174.2z"/>
		<path class="st23" d="M153.5,174.4c0.5,0.4,0.8,0.8,1.1,1.4c0.2,0.7,0.3,2.1,0.7,2.1c0,0,0.9-2.1-0.1-3.4
			C154.1,173.3,153.5,174.4,153.5,174.4z"/>
		<path class="st24" d="M157,230.4c0,0.7,1,0.8,2.1,0.8c1.2,0,0.8,0.2,2.4,0.4s2.1-0.3,2.3-0.5c0.1-0.2-0.7-0.4-1.5-0.7l-0.3-0.1
			c-0.8-0.4-1.6-1-2.1-1.8c-0.7-0.6,0.8-3.8,0.8-3.8l-2-1c0,0-0.4,2.2-0.9,4.2c-0.1,0.5-0.5,1.3-0.7,1.8
			C157.1,229.9,157.1,230.1,157,230.4z"/>
		<path class="st28" d="M145.4,203.8c0.9,0.9,2.1,1.5,3.4,1.6l8.4-1.9c-0.1-1.7-0.4-3.4-0.9-5c-2.4,0.7-5.9-1.7-7.1-2.7
			c-1.2-1-1.2-4.4-1.2-4.4l-2.5,2.4l0.1,0.3C146.5,198.6,143.7,202.6,145.4,203.8z"/>
		<path class="st25" d="M159.2,231.2c1.1,0,0.8,0.2,2.4,0.4s2.1-0.3,2.3-0.5c0.1-0.2-0.7-0.4-1.5-0.7l0,0c-0.8,0.3-1.6,0.4-2.4,0.2
			c-1.1-0.2-2.1-0.7-2.8-0.9c-0.1,0.2-0.1,0.5-0.1,0.7C157,231.1,158,231.2,159.2,231.2z"/>
		<path class="st6" d="M148.9,201.5c3.6-0.1,14.2,0.7,16.2,2.3c2.5,1.9-4.7,22.4-4.7,22.4c-0.4,0-0.7,0.1-1.1,0.1
			c-0.6,0-1.1-0.2-1.6-0.5c0,0,0-12.1,0.9-14.4c0.8-2.1,1.3-2.9,0.3-3s-13.1,1.4-14.1-2.2c-0.4-1.8-0.3-3.7,0.4-5.5
			C145.2,200.7,145.6,201.6,148.9,201.5z"/>
		<path class="st22" d="M147.3,183.4c0,0-2.5,0.2-2.7,2.1c-0.1,1.5-1.2,12-0.4,12.9c2.1,2.6,9.4,3.1,10.5,3.5l0.3-1.2
			c0,0-7.8-3.9-7.6-4.7C147.5,195.2,149.7,183.1,147.3,183.4z"/>
		<path class="st23" d="M149.3,172.6c0,0,0.2-1.1-1.4-1.4c-1.6-0.3-1.6,3-1.8,3.8c-0.2,0.5,0.1,1.1,0.6,1.3c0.1,0,0.2,0,0.3,0.1
			C147.5,176.4,149.3,172.6,149.3,172.6z"/>
		<path class="st24" d="M155.1,200.8c0.9-0.3,1.8-0.4,2.7-0.5c0.5,0.1,2.3,1.3,2.1,1.7s-1.8-0.2-2.6-0.1s-1.3,0.5-1.8,0.4
			c-0.4-0.1-0.7-0.2-1.1-0.3L155.1,200.8z"/>
		<path class="st24" d="M155.1,200.8c0.5-0.2,1-0.5,1.4-0.9h0.1l0,0c0.1,0.1,0.2,0.4-0.2,0.6C156,200.8,155.6,200.8,155.1,200.8z"/>
		<path class="st24" d="M162.9,201c0.9,0,1.8,0.2,2.7,0.4c0.4,0.3,1.8,2,1.4,2.2c-0.4,0.2-1.7-0.8-2.4-0.9c-0.6,0-1.2-0.1-1.8-0.2
			c-0.3-0.2-0.6-0.4-0.9-0.6L162.9,201z"/>
		<path class="st29" d="M215.9,233.5L215.9,233.5c0.2,0,0.5-0.2,0.5-0.4l0,0l-0.6-27.5l-1.8-0.2l1.5,27.8
			C215.5,233.3,215.6,233.5,215.9,233.5C215.8,233.5,215.9,233.5,215.9,233.5z"/>
		<path class="st30" d="M115.4,202.6h13l3.9-9.7h-13L115.4,202.6z"/>
		<path class="st31" d="M128.5,202.2h-17.1v0.4h17L128.5,202.2z"/>
		<path class="st5" d="M125.1,197.7c0.1-0.2,0-0.5-0.3-0.6c-0.1,0-0.1,0-0.2,0c-0.4,0-0.7,0.3-0.8,0.6c-0.1,0.2,0,0.5,0.3,0.6
			c0.1,0,0.1,0,0.2,0C124.7,198.3,125,198.1,125.1,197.7z"/>
		<path class="st32" d="M106.2,232.7h-8.5c-0.4-0.5-0.3-2.4-0.2-3.1c0-0.1,0-0.1,0-0.2c0,0,2.9-2.4,3.3-0.6c0,0.1,0,0.1,0,0.2
			c0.5,1.7,2.7,2.5,4,2.7C105.5,231.8,106,232.2,106.2,232.7z"/>
		<path class="st25" d="M83.2,203.9c0.3,0,14.5,2.8,16.9,5.8c1.2,1.5,1.3,19.1,1.3,19.1s-1.5,1.9-4.6,0.8c0,0-2.3-12-2.1-15.7
			c0-1-9.7-0.1-11.5-0.6s-6.1-4.6-5.2-6.5C78.9,204.8,83.2,203.9,83.2,203.9z"/>
		<path class="st24" d="M100.7,198.4c0.8,0.2,1.6,0,2.4,0c0.5-0.2,1-0.4,1.6-0.5c1-0.1,3.7,0.7,3.7,0.9c-0.1,0.9-2.8,0.6-3.1,0.9
			c-0.3,0.3,1.2,0.6,1,1.1c-0.1,0.2-0.9-0.2-1.3-0.1c-0.3,0.1-1.3-0.4-1.5-0.4c-0.7-0.1-1.5-0.2-2.1-0.3L100.7,198.4z"/>
		<path class="st33" d="M110,232.7h-8.5c-0.4-0.5-0.3-2.4-0.2-3.1c0-0.1,0-0.2,0-0.2s2.9-2.4,3.3-0.6c0,0.1,0,0.1,0,0.2
			c0.5,1.7,2.7,2.5,4,2.7C109.2,231.8,109.8,232.2,110,232.7z"/>
		<path class="st34" d="M87.3,203.9c0.3,0,14.5,2.8,16.9,5.8c1.2,1.5,1.3,19.1,1.3,19.1s-1.5,1.9-4.6,0.8c0,0-2.3-12-2.1-15.7
			c0-1-9.7-0.1-11.5-0.6s-6.1-4.6-5.2-6.5C83.1,204.8,87.3,203.9,87.3,203.9z"/>
		<path class="st24" d="M86.4,185.8c-1-0.1-2-0.3-3-0.7c-1.2-0.4-2.1-1-1.5-2.1c0.9-1.6,1.3-3.4,1.4-5.2l2.1,1.8l1.5,1.2
			c0,0,0,0.7-0.2,2c0,0.2-0.1,0.5-0.1,0.7s0.1,0.4,0.2,0.5l0,0c0.4,0.3,0.5,0.8,0.3,1.2C87,185.6,86.7,185.8,86.4,185.8z"/>
		<path class="st27" d="M86.9,180.5c0,0.4,0,0.8-0.1,1.2c-0.9-0.2-1.8-0.7-2.5-1.3c0.7-0.2,0.9-0.9,1.4-0.9L86.9,180.5z"/>
		<path class="st24" d="M88.2,180.8c0,0-5,0.9-5.5-2.4c-0.5-3.3-1.4-5.3,1.7-6.1c3.2-0.7,4,0.5,4.4,1.5S89.4,180.5,88.2,180.8z"/>
		<path class="st34" d="M89.5,172.3c0.1,0.9-0.4,1.8-1.3,2.1c-1.4,0.5-1.1,2.3-1.8,2.3s-0.9-1.1-1.5-0.2c-0.6,0.8,0.4,1.5,0.4,1.9
			c-0.1,0.7-1.1,2-2,2c-0.9-0.1-2.6-4.5-2.2-5.9c0.4-1.5,1.5-2.6,2.9-3c1.2,0,2.3,0.1,3.4,0.4C87.8,171.8,89.4,171.9,89.5,172.3z"/>
		<path class="st5" d="M90.8,202.9c0,0.5-0.1,1-0.5,1.4c-0.7,0.5-1.7,1.2-2.8,1.8c-3.9,2.3-9.3,4.5-10.3,0.6
			c-1.3-4.6-0.4-13.1,0.8-18.4c0.7-3.1,2.7-6.3,4.1-6.3c2.3,0,5.6,0.7,7,4.1c0.9,3.4,1.4,6.8,1.7,10.3
			C90.9,198.6,90.9,200.7,90.8,202.9z"/>
		<path class="st35" d="M81.7,182.2l0.5-1.2c0,0,4.6,0.5,5.4,3.3C87.7,184.2,84.1,182.2,81.7,182.2z"/>
		<path class="st35" d="M90.8,202.9c0,0.5-0.1,1-0.5,1.4c-0.7,0.5-1.7,1.2-2.8,1.8c-1.2-0.7-3.5-2.5-4.1-4.6c-0.4-2-0.5-4-0.2-6
			L90.8,202.9z"/>
		<path class="st5" d="M82,190.6c0,0,6.7,9.5,8.5,11c3.1,2.7,12-1.5,12-1.5c0.1-0.6-0.2-1.3-0.7-1.7c0,0-7.6-0.9-8.2-1.6
			c-0.7-0.6-2.9-6.7-5.5-7.7C85.4,188.2,81.8,188.2,82,190.6z"/>
		<path class="st2" d="M70.4,232.6L70.4,232.6c-0.3,0-0.5-0.2-0.5-0.5l0,0l1.8-18.5l1.5,0.1l-2.5,18.6
			C70.7,232.6,70.5,232.6,70.4,232.6z"/>
		<path class="st2" d="M79.5,232.6L79.5,232.6c-0.3,0-0.5-0.2-0.5-0.5l0,0l1.8-18.5l1.5,0.1l-2.6,18.6
			C79.7,232.5,79.6,232.6,79.5,232.6z"/>
		<path class="st2" d="M96.5,232.6L96.5,232.6c0.3,0,0.5-0.2,0.4-0.5l0,0l-1.8-18.5l-1.5,0.1l2.6,18.6
			C96.2,232.5,96.4,232.6,96.5,232.6z"/>
		<path class="st2" d="M70.9,211l-1.7-15.4c-0.2-2.2,0.5-4.4,3.5-4.6l5.3-0.3c3.2-0.1,4.6,2.6,5,4.8l3.2,17L70.9,211z"/>
		<path class="st2" d="M95.7,213.9H71.8c-0.5,0-0.9-0.4-0.9-0.9v-2l0,0h24.7c0.5,0,0.9,0.4,0.9,0.9v1.2
			C96.6,213.5,96.2,213.9,95.7,213.9z"/>
		<path class="st2" d="M85.7,213.9H71.6c-0.4,0-0.7-0.3-0.7-0.7V211l0,0h14.8c0.4,0,0.7,0.3,0.7,0.7v1.6
			C86.4,213.6,86,213.9,85.7,213.9L85.7,213.9z"/>
		<path class="st29" d="M219.2,206h-117c-1,0-1.8-0.5-1.8-1.2v-1.1c0-0.6,0.8-1.2,1.8-1.2h117c1,0,1.8,0.5,1.8,1.2v1.1
			C221,205.5,220.2,206,219.2,206z"/>
		<path class="st11" d="M164.5,202.9h13.6l4.1-9.7h-13.6L164.5,202.9z"/>
		<path class="st11" d="M160.5,202.5h17.1v0.4h-16.9L160.5,202.5z"/>
		<path class="st5" d="M174.8,198.7c0.1-0.2,0-0.5-0.3-0.6c-0.1,0-0.1,0-0.2,0c-0.3,0-0.6,0.3-0.7,0.6c-0.1,0.2,0,0.5,0.3,0.6
			c0.1,0,0.1,0,0.2,0C174.4,199.3,174.7,199.1,174.8,198.7z"/>
		<path class="st29" d="M102.1,233.9L102.1,233.9c-0.2,0-0.5-0.2-0.5-0.4l0,0l0.6-27.5l1.8-0.2l-1.5,27.8
			C102.5,233.7,102.3,233.8,102.1,233.9z"/>
		<polygon class="st36" points="197.3,202.2 210.8,202.2 214.3,193.5 200.9,193.5 		"/>
		<polygon class="st37" points="197.1,202.2 210.5,202.2 214.1,193.5 200.6,193.5 		"/>
		<polygon class="st5" points="198.3,201.6 209.6,201.6 212.6,194.1 201.3,194.1 		"/>
		<polygon class="st36" points="192.8,202.5 210.7,202.5 210.8,202.2 192.8,202.2 		"/>
		<path class="st7" d="M189.8,178.2c-0.1-0.2-0.1-0.4-0.1-0.6c-0.1-2.7-0.7-4.6,2-4.8s3.2,0.8,3.5,1.7c0.2,0.9-0.1,5.5-1.2,5.6
			c-0.3,0-0.6,0-0.9,0c0,0.3,0,0.8-0.1,1.4c-0.1,1.1-0.2,2.4-0.2,2.7l-3-0.1l-1.6-2C189.1,180.9,189.6,179.6,189.8,178.2z"/>
		<path class="st8" d="M185.7,209.4c0.5,0.9,1.1,1.7,1.7,2.5c1.8,2.4,3.8,4.4,4.2,6.4c0.1,0.4,0.2,0.8,0.3,1.2s0.3,0.9,0.5,1.4
			c0.9,1.9,1.9,3.8,3.1,5.6c2,3.1,3.9,5.7,3.9,5.7l3.5-0.1c-0.1-0.4-1.7-4.7-3.7-10c-0.8-2.1-1.7-4.4-2.5-6.6
			c-0.1-0.3-0.2-0.6-0.3-0.9l-0.8-2c-1.9-5-3.4-8.9-3.4-8.9s-7.6-3-8.4-1.1C183.1,204.2,183.6,205.8,185.7,209.4z"/>
		<path class="st8" d="M199.5,231.6c0,0,0.2,3,0.7,3.1h2.8h3.5c0-0.6-0.5-1-1.1-1.1c-1.4-0.2-2.7-1.1-3.4-2.4
			C201.5,229.8,199.5,231.6,199.5,231.6z"/>
		<path class="st8" d="M191.5,222.9c0,0-2.4,1.6-2.1,2.1c0,0.1,1.4,2.6,1.4,2.6l1.7,3.2c0.5-0.3,0.6-1,0.4-1.5
			c-0.5-1.4-0.4-2.9,0.3-4.2C194,223.9,191.5,222.9,191.5,222.9z"/>
		<path class="st38" d="M193.8,181.6c-1.2-0.3-2.5-0.6-3.8-0.7c-0.4,0.1-0.5,0.9-0.5,0.9l5.5,1C194.7,182.3,194.3,181.9,193.8,181.6
			z"/>
		<path class="st8" d="M194.8,174.2c0,0-1.1,3-1.6,2.7s-1.1-0.6-1.3,0.4s0.4,2.3-1.5,1.9c-1.9-0.4-3.4-6.2-2.6-7
			C190,169.9,197.8,171.5,194.8,174.2z"/>
		<path class="st39" d="M194.9,202.3c0,0,9.4,6.1,10.5,10.4s-12.7,13.1-12.7,13.1c-0.8-0.7-1.4-1.5-1.8-2.4c0,0,6.2-7.8,7.6-9.6
			c0.8-1.1-12.3-3.7-13.8-6.3c-1-1.4-1.3-3.1-1.1-4.8L194.9,202.3z"/>
		<path class="st7" d="M207.1,197.5c0,0,1.1-1.1,1.7-1c0.7,0.2,1.3,0.6,1.9,1.1c0.2,0.2,0.3,0.6-0.1,0.7l-0.5,0.1
			c-0.3-0.1-0.7-0.2-1.1-0.3c-0.2,0.1-0.8,0.7-1.3,0.4C207.4,198.2,207.2,197.9,207.1,197.5z"/>
		<path class="st38" d="M183.6,202.6c0.9,1.1,8.6,0.8,10.9-0.1c0.1-0.1,0.3-0.1,0.4-0.2c1.3-1.1-1.7-2.1,1.7-10.6l0,0
			c2.1-6.3-0.7-8.1-1.6-9.1c0,0-4.7-1.5-7.3-0.7C184.3,183,182.6,201.4,183.6,202.6z"/>
		<path class="st40" d="M191.7,198.5c0.1,1.2,1.1,4,2.8,4.1c0.1-0.1,0.3-0.1,0.4-0.2c1.3-1.1-1.7-2.1,1.7-10.6l0,0
			c-0.6-0.4-1.5-0.9-2.1-0.2C193.6,192.6,191.6,197.3,191.7,198.5z"/>
		<path class="st38" d="M194.9,182.8c1.1,0.8,2,2,2.4,3.3c1.1,2.7,2.4,8.6,2.8,8.9c0.4,0.3,6,1.2,7.7,1.9c0,0,0.7,1.3,0,1.8
			s-8.2,0.2-8.7,0.1c-3.8-1.1-5.8-9-6.3-10.2C192.4,187.3,194.9,182.8,194.9,182.8z"/>
		<path class="st8" d="M188.1,229.6v-4.3h-3.7c-0.2,0-0.3-0.2-0.3-0.3v-1.2c0-0.2,0.1-0.3,0.3-0.3h3.7v-13.9c0-0.4,0.3-0.8,0.7-0.8
			l0,0h0.7c0.4,0,0.7,0.4,0.7,0.8v13.9h3.7c0.2,0,0.3,0.2,0.3,0.3v1.2c0,0.2-0.1,0.3-0.3,0.3h-3.7v4.3c2.7,0.2,5,1.5,5.7,3h-13.3
			C183.2,231.2,185.3,229.9,188.1,229.6z"/>
		<path class="st41" d="M180.3,207.8H198c0.3,0,0.6,0.3,0.6,0.6l0,0v3.5c0,0.3-0.3,0.6-0.6,0.6l0,0h-17.6c-0.3,0-0.6-0.3-0.6-0.6
			l0,0v-3.5C179.7,208.1,180,207.8,180.3,207.8L180.3,207.8z"/>
	</g>
	<path class="st42" d="M204,242.5c0-0.1,0-0.3-0.2-0.3h-0.1c-0.2,0-0.4,0.1-0.4,0.3c0,0.1,0,0.3,0.2,0.3h0.1
		C203.8,242.8,203.9,242.7,204,242.5z"/>
	<path class="st42" d="M202.8,242.5c0-0.1,0-0.3-0.1-0.3h-0.1c-0.2,0-0.4,0.1-0.4,0.3c0,0.1,0,0.3,0.2,0.3h0.1
		C202.6,242.8,202.8,242.7,202.8,242.5z"/>
	<path class="st42" d="M201.7,242.5c0-0.1,0-0.3-0.1-0.3h-0.1c-0.2,0-0.4,0.1-0.4,0.3c0,0.1,0,0.3,0.1,0.3h0.1
		C201.4,242.8,201.6,242.7,201.7,242.5z"/>
</g>
<g>
	<g>
		<g>
			<path class="st43" d="M94.2,51.3h75.4c3.4,0,6.1,2.7,6.1,6.1v1.2c0,3.4-2.7,6.1-6.1,6.1H94.2c-3.4,0-6.1-2.7-6.1-6.1v-1.2
				C88.1,54,90.8,51.3,94.2,51.3z"/>
			<g class="st44">
				<rect x="112.4" y="56.2" class="st45" width="4.9" height="4.9"/>
				<rect x="120.7" y="56.2" class="st45" width="4.9" height="4.9"/>
				<rect x="129.1" y="56.2" class="st45" width="4.9" height="4.9"/>
				<rect x="137.6" y="56.2" class="st45" width="4.9" height="4.9"/>
				<rect x="146" y="56.2" class="st45" width="4.9" height="4.9"/>
			</g>
			<rect x="58.6" y="80.7" class="st46" width="264.6" height="159.3"/>
			<polygon class="st47" points="323.2,113.1 323.2,91.9 90.5,240 123.7,240 			"/>
			<polygon class="st47" points="323.2,162.5 323.2,140 166,240 201.3,240 			"/>
			<polygon class="st47" points="227.7,80.3 58.6,188.2 58.6,240 72.6,240 323,80.3 			"/>
			<polygon class="st47" points="206.3,240 323.2,240 323.2,165.6 			"/>
			<polygon class="st47" points="152.4,80.7 58.6,80.7 58.6,140.4 			"/>
			<rect x="131.8" y="80.3" class="st48" width="0.9" height="160.3"/>
			<rect x="172.9" y="80.3" class="st48" width="0.9" height="160.3"/>
			<rect x="90" y="80.3" class="st48" width="0.9" height="160.3"/>
			<path class="st49" d="M58.6,80.8V240H46.2V80.8C50.9,80.8,54,80.6,58.6,80.8z"/>
			<rect x="81.6" y="73" class="st49" width="101.3" height="7.7"/>
		</g>
		<rect x="224.8" y="80.2" class="st50" width="0.5" height="160.6"/>
		<rect x="250.9" y="80.2" class="st50" width="0.5" height="160.6"/>
		<rect x="274.3" y="80.2" class="st50" width="0.5" height="160.6"/>
		<g>
			<ellipse class="st14" cx="127.9" cy="180" rx="2" ry="1.3"/>
			<ellipse class="st14" cx="127.9" cy="196.3" rx="2" ry="1.3"/>
			<path class="st11" d="M127.9,196.4L127.9,196.4c-0.5,0-0.9-0.3-0.9-0.6v-15.4c0-0.3,0.4-0.6,0.9-0.6l0,0c0.5,0,0.9,0.3,0.9,0.6
				v15.4C128.8,196.1,128.4,196.4,127.9,196.4z"/>
			<ellipse class="st14" cx="136.8" cy="180" rx="2" ry="1.3"/>
			<ellipse class="st14" cx="136.8" cy="196.3" rx="2" ry="1.3"/>
			<path class="st11" d="M136.8,196.4L136.8,196.4c-0.5,0-0.9-0.3-0.9-0.6v-15.4c0-0.3,0.4-0.6,0.9-0.6l0,0c0.5,0,0.9,0.3,0.9,0.6
				v15.4C137.7,196.1,137.3,196.4,136.8,196.4z"/>
		</g>
	</g>
	<rect x="299.6" y="78.5" class="st50" width="0.5" height="160.6"/>
</g>
<g>
	<path class="st51" d="M288.6,275.7c0.1-4.5,0.7-9,1.3-13.3c1-5.2,1.7-8.2,1.9-8.2c0.1-0.4,2-2.3,6-2.3s3.6,2.5,3.6,2.5l0,0
		c0,0.1,0,0.1,0,0.2c-2.5,9.5-3.7,19.4-3.6,29.3c0,0.2,0,0.7,0,0.9c0,0-9.3,0.2-9.3,0C288.2,283.3,288.3,279.2,288.6,275.7z"/>
	<path class="st52" d="M287.5,283.7c0,0.2,0.1,0.4,0.3,0.4l0,0c0.1,0,0.2-0.2,0.2-0.4h8c0,0.2,0.1,0.4,0.3,0.4l0,0
		c0.1,0,0.3-0.2,0.3-0.4c0-4.4,0.2-8.6,0.7-13c0.5-5.5,1.5-10.9,3.1-16.2c0-0.1,0-0.1,0-0.2c0,0,0.4-2.4-3.6-2.5s-5.8,1.9-6,2.3
		c0,0-0.5,1.7-1.1,4.8c-0.2,1-0.4,2.2-0.7,3.5c-0.8,4.4-1.2,8.9-1.3,13.3C287.3,278.4,287.3,281,287.5,283.7z"/>
	<path class="st53" d="M287.5,283.7c0,0.2,0.1,0.4,0.3,0.4l0,0c0.1,0,0.2-0.2,0.2-0.4h8c0,0.2,0.1,0.4,0.3,0.4l0,0
		c0.1,0,0.3-0.2,0.3-0.4c0-4.4,0.2-8.6,0.7-13c-1.3-6.1-6.5-10.8-7.7-11.9c-0.2,1-0.4,2.2-0.7,3.5c-0.8,4.4-1.2,8.9-1.3,13.3
		C287.3,278.4,287.3,281,287.5,283.7z"/>
	<path class="st51" d="M295.6,283.6L295.6,283.6L295.6,283.6c0-0.1,0.2-9.8,0.8-14.4c0.3-2.7,2.4-14.2,2.4-14.2c0-0.1,0-0.1,0-0.2
		c0-0.4-0.1-0.8-0.3-1.1c-0.7-0.5-1.5-0.9-2.4-0.8H296c-3,0-4.3,1.3-4.4,1.7c-1.2,4.6-2.1,9.2-2.7,13.9c0,0.4-0.1,1.2-0.2,2.2
		c-0.5,5.9-1.2,12.1-0.3,12.2c1.2,0.2,2.4,0.2,3.7,0.2h1.7c1.1,0,1.7,0.1,1.7,0.3l0,0l0,0L295.6,283.6z M295.9,252.9h0.1
		c0.9-0.1,1.6,0.2,2.3,0.8c0.2,0.3,0.3,0.7,0.3,1.1v0.1c0,0-2.1,11.5-2.4,14.3c-0.5,4.3-0.8,12.8-0.8,14.2c-0.2-0.2-0.8-0.2-1.7-0.2
		H292c-1.2,0-2.4-0.1-3.7-0.2c-0.9-0.1,0-8.3,0.4-12.1c0.1-1,0.2-1.7,0.2-2.3c0.7-4.7,1.5-9.3,2.7-13.9
		C291.8,254.2,293.1,252.9,295.9,252.9z"/>
	<path class="st52" d="M297.2,284.1h-31.4c0,0,0.8-2.8,18.9-2.4C297.6,282,297.2,284.1,297.2,284.1z"/>
	<path class="st51" d="M299.8,313.4c-3.6-17.5-2.7-28.2-2.7-28.3c0-0.1-0.5-0.5-0.8-0.5s-1.5-0.1-1.6,0.1s-0.9,13.6,4.5,28.7
		L299.8,313.4z"/>
	<path class="st51" d="M270.4,313.4c3.6-17.5,2.7-28.2,2.7-28.3c0-0.1,0.5-0.5,0.8-0.5s1.5-0.1,1.6,0.1s1,13.6-4.5,28.7h-0.7v0
		H270.4z"/>
	<path class="st54" d="M264.7,313.4c3.6-17.5,2.7-28.2,2.7-28.3c0-0.1,0.5-0.5,0.8-0.5s1.5-0.1,1.6,0.1s0.9,13.6-4.5,28.7
		L264.7,313.4z"/>
	<path class="st54" d="M294,313.4c-3.6-17.5-2.7-28.2-2.7-28.3c0-0.1-0.5-0.5-0.8-0.5c-0.2,0-1.5-0.1-1.6,0.1s-0.9,13.6,4.5,28.7
		L294,313.4z"/>
	<path class="st51" d="M297.2,285h-31.4c-0.3,0-0.7-0.3-0.7-0.7V284c0-0.3,0.3-0.7,0.7-0.7h31.4c0.3,0,0.7,0.3,0.7,0.7v0.3
		C297.8,284.7,297.6,285,297.2,285z"/>
	<path class="st18" d="M272.3,265c0,0-5.7,6.3-6.9,6.2s-2-0.4-3,0c-0.8,0.3-3.2,2.2-2.5,2.1s1.7-0.2,2.1-0.3c0.3,0,1.1,0,1.5-0.1
		c0.3,0,1.3-0.1,1.6-0.1c1.5,0,8.6-4,8.6-4L272.3,265z"/>
	<path class="st39" d="M276.2,233.1c0,0,0.2-3.2,5-2.3c1.2,0.2,2.1-2,4.2-1.2c4.4,1.6,4.7-0.5,5.9,2.5c0.5,1.3,3.9,2.7,2.8,5
		s0.7,3.7-0.5,5.4c-0.7,0.9-0.4,2.5-3.4,2.5c-1.5,0-3.8,2.6-5.5,3.2s-6.7-0.2-6.5-2.4c0.1-1.7-2-1.5-3.2-3.5
		c-1.1-1.7,0.9-2.2-0.2-4.9C274.3,235.3,276.4,234.7,276.2,233.1z"/>
	<path class="st18" d="M250.3,310.9c0.1,1.1-1.4,1.3-3.2,1.4c-1.7,0.1-1.2,0.4-3.7,0.9c-2.5,0.4-3.4-0.2-3.6-0.5
		c-0.2-0.3,1-0.7,2.2-1.2l0.4-0.2c1.3-0.5,2.1-1.7,3.2-2.8c1.1-1.1,2-4.4,2-4.4l3.3-0.7c0,0-1,3-1.2,4.3c-0.1,0.8,0,1.5,0.3,2.2
		C250.1,310.1,250.2,310.5,250.3,310.9z"/>
	<path class="st38" d="M247,312.3c-1.7,0.1-1.2,0.4-3.7,0.9c-2.5,0.4-3.4-0.2-3.6-0.5c-0.2-0.3,1-0.7,2.2-1.2l0,0
		c1.2,0.3,2.5,0.3,3.7,0c1.6-0.4,3.2-1.3,4.3-1.6c0.1,0.3,0.2,0.8,0.3,1.1C250.3,311.9,248.9,312.2,247,312.3z"/>
	<path class="st8" d="M283.1,273.2c0,0-22-1.6-26,0.9s-10.7,31.7-10.7,31.7c0.4,0.2,0.9,0.3,1.3,0.4c0.9,0,1.9-0.1,2.7-0.4
		c0,0,9.5-13.1,10.2-16.4c0.7-3.3,0.5-6.2,2.1-6.3c1.5-0.1,20.6,2.2,23.4-2.6c1.6-3,1.9-6.6,0.5-9.7L283.1,273.2z"/>
	<path class="st18" d="M257.9,311c0.1,1.1-1.4,1.3-3.2,1.4c-1.7,0.1-1.2,0.4-3.7,0.9c-2.4,0.4-3.4-0.2-3.6-0.5s1-0.8,2.2-1.2
		l0.4-0.2c1.3-0.5,2.1-1.7,3.2-2.8c1.1-1.1,2-4.3,2-4.3l3.3-0.7c0,0-1,3-1.2,4.3c-0.1,0.8,0,1.5,0.3,2.2
		C257.7,310.3,257.8,310.6,257.9,311z"/>
	<path class="st38" d="M254.6,312.4c-1.7,0.1-1.2,0.4-3.7,0.9c-2.4,0.4-3.4-0.2-3.6-0.5c-0.2-0.3,1-0.8,2.2-1.2l0,0
		c1.2,0.3,2.5,0.3,3.7,0c1.6-0.4,3.2-1.3,4.3-1.6c0.1,0.3,0.2,0.8,0.3,1.1C258,312.1,256.5,312.3,254.6,312.4z"/>
	<path class="st39" d="M286.6,271.3c0,0-19.5,0.9-23.5,3.5s-9.5,32.2-9.5,32.2c0.4,0.2,0.9,0.3,1.3,0.3c0.9-0.1,1.9-0.2,2.7-0.5
		c0,0,9-13.5,9.5-16.7c0.5-3.3,0.2-6.2,1.7-6.3c1.5-0.1,20.7,1.4,23.3-3.5C294.8,275.2,286.6,271.3,286.6,271.3z"/>
	<path class="st18" d="M292.4,247.3L292.4,247.3c-0.2-0.2-0.3-0.3-0.5-0.4l0,0c-1.4-0.8-2.8-1.2-4.5-1.3l0,0c0,0-0.3,0-0.8-0.1
		c-0.5-1.4-0.9-2.8-1-4.3l-0.3,0.1l-4.6,1.2c0,0,0.2,1.4,0.3,2.8c0,0.3,0,0.5,0,0.9l-0.4,0.1l0,0c0,0-2.7,0.3-3.4,1
		c-0.7,0.7-2,5-2.3,5.9l18.3,0.3C293.3,253.4,293.7,248.7,292.4,247.3z"/>
	<path class="st55" d="M269.8,265c0.1,0.1,0.4,0.5,0.8,1.2l0.4,0.5c0.5,0.8,1.2,1.4,2.1,1.9c0.2,0.1,0.5,0.1,0.9,0.1
		c0.7-0.2,1.3-0.7,1.7-1.2c0.5-0.5,1.1-1.1,1.5-1.7c0.2-0.2,0.3-0.4,0.4-0.8c0,0.2,0,0.3,0.1,0.5l0,0c0.1,0.7,0.1,1.3,0,2
		c-0.4,0.5-1,1-1.5,1.2c-1.4,0.8-3.3,1.6-2.6,2.3c0.7,0.7,2.1,0.8,3.8,1.1c1.3,0.1,2.6,0.5,3.8,1.1l0.1,0.1
		c2.4,1.3,9.7,5.6,11.9,5.5c0.9-0.1,0.7-1.6,0.2-3.7c-0.8-3.3-2.5-7.9-2.5-9.8c0-1.1,2.5-11.8,2.5-11.8s0.4-4.6-0.9-6.1l-0.5-0.5
		l0,0c-0.1,0-5.6,3.1-8.9,3.2c-3.3,0.1-5.7-2.7-5.7-2.7c-0.7,0.7-2,5-2.3,5.9c0,0-2.6,10-3.3,10.5S269.5,264.7,269.8,265z"/>
	<path class="st56" d="M280.7,242.4c0,0,0.2,1.4,0.3,2.8c2.7-0.2,3.9-2.7,4.4-4L280.7,242.4z"/>
	<path class="st18" d="M279.9,243.8c0,0,6.3-0.3,6.1-4.2c-0.2-3.8,0.4-6.5-3.7-6.3c-4.2,0.1-4.8,1.5-5,2.8
		C277,237.5,278.2,243.7,279.9,243.8z"/>
	<path class="st39" d="M279.6,234.6c0,0,1.5-0.3,2.1,0.3s0.1,1.1,1.2,1.4s1.5,0.2,1.4,1s1.1,1.3,1.2,1.9s0.5,1,1.1,1
		s0.2-7.8-1.6-8.1c-1.4-0.3-3-0.1-4.3,0.4C280.2,233.3,279.9,234,279.6,234.6z"/>
	<path class="st39" d="M279.6,234.6c0,0-1.5-0.1-1.7,0.7s0.1,1-0.3,1.5c-0.2,0.4-0.3,0.9-0.1,1.3c0,0-3-5.2,0.1-5.6
		C280.6,232.2,280.6,232.9,279.6,234.6z"/>
	<path class="st57" d="M270.6,266.2l0.4,0.5c0.5,0.8,1.2,1.4,2.1,1.9c0.2,0.1,0.5,0.1,0.9,0.1c0.7-0.2,1.3-0.7,1.7-1.2
		c0.5-0.5,1.1-1.1,1.5-1.7c0.2-0.2,0.3-0.4,0.4-0.8c0,0.2,0,0.3,0.1,0.5v-0.9c0,0-0.3-15.2-0.9-8.5
		C276.5,261.1,272.6,264.7,270.6,266.2z"/>
	<path class="st57" d="M289.9,255.8c0,0,7.8,13-8.6,17.5l-0.1-0.1c-1.2-0.5-2.5-1-3.8-1.1c-1.7-0.2-3.3-0.4-3.8-1.1s1.2-1.5,2.6-2.3
		c0.8-0.4,2.3-0.8,2.4-1.2C278.6,267.1,289.9,255.8,289.9,255.8z"/>
	<path class="st58" d="M300.3,270.2l1.2,6.9l0,0L305,296l3.1,17c0.1,0.2,0.3,0.4,0.5,0.4s0.4-0.1,0.4-0.3c0,0,0,0,0-0.1l-2.6-19.1
		l-2.8-20.6l-0.4-3.1L300.3,270.2L300.3,270.2z"/>
	<path class="st54" d="M301.5,277.1c-0.2-1.5,0.5-3.1,2-3.8l-0.4-3.1l-2.8,0.1L301.5,277.1z"/>
	<path class="st58" d="M130.7,313.4c0.2,0,0.5-0.2,0.5-0.4l2.7-15.1l3.9-21.7l1.1-6l-2.8-0.1l-0.4,3.5l-3.4,24.7l-2.1,14.7
		C130.3,313.1,130.4,313.4,130.7,313.4C130.6,313.4,130.7,313.4,130.7,313.4z"/>
	<path class="st54" d="M135.7,273.7c1.1,0.4,1.9,1.4,2.2,2.6l1.1-6l-2.8-0.1L135.7,273.7z"/>
	<path class="st59" d="M128,272.6h185.6c1.3,0,2.4-1.1,2.5-2.4l0,0c0-1.3-1.1-2.4-2.5-2.4H128c-1.3,0-2.4,1.1-2.4,2.4l0,0
		C125.5,271.6,126.6,272.6,128,272.6z"/>
	<polygon class="st60" points="235.8,260.7 274.5,260.7 271,232.4 232.2,232.4 	"/>
	<polygon class="st41" points="231.4,232.4 235,260.7 273.7,260.7 273,254.2 270.1,232.4 	"/>
	<path class="st61" d="M231.4,232.4l3.6,28.2h38.7l-0.9-6.5c-32,1.9-33-17.6-32.9-21.8L231.4,232.4L231.4,232.4z"/>
	<path class="st60" d="M249.6,244.7c0-0.9,0.7-1.6,1.5-1.9h1.6c0.9-0.1,1.7,0.5,1.9,1.4v0.1l0.8,21.2c0,0.7,0.7,1.3,1.3,1.2h4
		c0.2,0,0.4,0.1,0.5,0.4s-0.1,0.5-0.3,0.7h-0.1h-12.9c-0.3,0-0.7-0.2-0.7-0.7c0,0,0,0,0-0.1L249.6,244.7z"/>
	<path class="st41" d="M248.7,244.7c0-0.9,0.7-1.7,1.5-1.9h1.6c0.9-0.1,1.7,0.5,1.9,1.4v0.1l0.7,21.2c0,0.8,0.7,1.3,1.3,1.2h4
		c0.2,0,0.4,0.1,0.5,0.4s-0.1,0.5-0.3,0.7h-0.1H247c-0.3,0-0.7-0.3-0.7-0.7c0,0,0,0,0-0.1L248.7,244.7z"/>
	<path class="st60" d="M204.9,241.7l2.2,24.6c0,0,0.2,1.5-1,1.5h-9.5c0,0,1.4-0.3,1.4-1s-2.5-25.3-2.5-25.3L204.9,241.7z"/>
	<path class="st62" d="M196.2,267.4c0.3,0,7.5,0,9.4,0c0.8,0,1-0.7,1-1.1c0-0.1,0-0.2,0-0.3v-0.7l-0.1-1.6l-0.1-1.4l-0.1-1.9
		l-0.1-1.5l-1.5-17.5l-9.3-0.2c0,0,1.1,10.3,1.7,17.7c0.1,0.9,0.1,1.6,0.2,2.4l0.1,0.7c0.1,0.7,0.1,1.3,0.2,2c0,0.3,0.1,0.5,0.1,0.9
		c0.1,1,0.1,1.6,0.1,1.7s0,0.1,0,0.2C197.4,267.3,196.3,267.4,196.2,267.4z"/>
	<polygon class="st41" points="227.6,228.4 222.3,248.6 221.7,251.4 219.3,260.8 173.9,260.8 182.9,228.4 	"/>
	<polygon class="st62" points="227.6,228.4 228.3,228.6 220.1,261.5 219.3,260.8 	"/>
	<polygon class="st60" points="220.1,261.5 175.1,261.5 173.9,260.8 219.3,260.8 	"/>
	<rect x="194.7" y="267.4" class="st41" width="9.7" height="0.4"/>
	<polygon class="st41" points="176.1,254.9 183.4,228.8 227.7,228.8 227.7,228.4 182.9,228.4 175.5,254.8 	"/>
	<polygon class="st60" points="197.1,261.5 197.2,261.9 206.4,263.6 206.1,262.2 206.1,261.5 	"/>
	<path class="st61" d="M196.2,267.4c0.3,0,7.5,0,9.4,0c0.8,0,1-0.7,1-1.1l-9.2-1.6c0.1,1,0.1,1.6,0.1,1.7s0,0.1,0,0.2
		C197.4,267.3,196.3,267.4,196.2,267.4z"/>
	<polygon class="st61" points="199.3,254.2 219.3,260.8 221.7,251.4 	"/>
	<polygon class="st63" points="227.6,228.4 182.9,228.4 175.6,254.4 221.1,254.4 	"/>
	<path class="st60" d="M195.3,257.7c0.1-0.7,0.8-1.1,1.4-1.2c0.5,0,1,0.3,1,0.9c0,0.1,0,0.2,0,0.3c-0.1,0.7-0.8,1.1-1.4,1.2
		c-0.5,0-1-0.3-1-0.9C195.3,257.9,195.3,257.8,195.3,257.7z"/>
	<polygon class="st42" points="177.7,253.3 219.6,253.3 224.3,235.2 224.7,233.8 225.1,232.6 225.7,229.8 184.5,229.8 183.7,232.6 
		183.4,233.8 183,235.2 	"/>
	<polygon class="st64" points="183.7,232.6 225.1,232.6 225.7,229.8 184.5,229.8 	"/>
	<path class="st64" d="M213.9,238.8h6.3c0.2,0,0.4-0.1,0.4-0.3l0,0c0-0.1,0-0.3-0.2-0.3h-0.1H214c-0.2,0-0.4,0.1-0.4,0.3l0,0
		C213.6,238.6,213.7,238.8,213.9,238.8C213.8,238.8,213.9,238.8,213.9,238.8z"/>
	<path class="st64" d="M213.6,240.1h6.3c0.2,0,0.4-0.1,0.4-0.3l0,0c0-0.1,0-0.3-0.2-0.3H220h-6.3c-0.2,0-0.3,0.1-0.4,0.3l0,0
		c0,0.1,0,0.3,0.1,0.3C213.5,240.1,213.6,240.1,213.6,240.1z"/>
	<path class="st64" d="M213.3,241.4h6.3c0.2,0,0.4-0.1,0.4-0.3l0,0c0-0.1,0-0.3-0.2-0.3h-0.1h-6.3c-0.2,0-0.3,0.1-0.4,0.3l0,0
		c0,0.1,0,0.3,0.1,0.3C213.1,241.4,213.1,241.4,213.3,241.4z"/>
	<path class="st64" d="M202.6,238.8h6.3c0.2,0,0.3-0.1,0.4-0.3l0,0c0-0.1,0-0.3-0.1-0.3h-0.1h-6.3c-0.2,0-0.4,0.1-0.4,0.3l0,0
		C202.3,238.6,202.4,238.8,202.6,238.8C202.5,238.8,202.5,238.8,202.6,238.8z"/>
	<path class="st64" d="M202.3,240.1h6.3c0.2,0,0.3-0.1,0.4-0.3l0,0c0-0.1,0-0.3-0.1-0.3h-0.1h-6.3c-0.2,0-0.4,0.1-0.4,0.3l0,0
		C202,239.9,202.1,240.1,202.3,240.1C202.2,240.1,202.2,240.1,202.3,240.1z"/>
	<path class="st64" d="M202,241.4h6.3c0.2,0,0.4-0.1,0.4-0.3l0,0c0-0.1,0-0.3-0.2-0.3h-0.1h-6.3c-0.2,0-0.3,0.1-0.4,0.3l0,0
		c0,0.1,0,0.3,0.1,0.3S201.9,241.4,202,241.4z"/>
	<path class="st64" d="M191.8,238.8h6.3c0.2,0,0.3-0.1,0.4-0.3l0,0c0-0.1,0-0.3-0.1-0.3h-0.1H192c-0.2,0-0.4,0.1-0.4,0.3l0,0
		C191.5,238.6,191.5,238.8,191.8,238.8C191.7,238.8,191.7,238.8,191.8,238.8z"/>
	<path class="st64" d="M191.4,240.1h6.3c0.2,0,0.4-0.1,0.4-0.3l0,0c0-0.1,0-0.3-0.2-0.3h-0.1h-6.3c-0.2,0-0.4,0.1-0.4,0.3l0,0
		C191.2,239.9,191.2,240.1,191.4,240.1L191.4,240.1z"/>
	<path class="st64" d="M191.1,241.4h6.3c0.2,0,0.4-0.1,0.4-0.3l0,0c0-0.1,0-0.3-0.2-0.3h-0.1h-6.3c-0.2,0-0.3,0.1-0.4,0.3l0,0
		C190.8,241.2,190.8,241.3,191.1,241.4L191.1,241.4z"/>
	<path class="st64" d="M185.9,234.4l-0.3,1.2c0,0.1,0,0.3,0.2,0.3h0.1h35.8c0.2,0,0.4-0.2,0.5-0.4l0.3-1.2c0-0.2,0-0.3-0.2-0.4h-0.1
		h-35.8C186.2,234.1,186,234.2,185.9,234.4z"/>
	<path class="st41" d="M196.9,234l-0.5,2h25.4c0.2,0,0.4-0.2,0.5-0.4l0.3-1.2c0-0.2,0-0.3-0.2-0.4h-0.1L196.9,234L196.9,234z"/>
	<path class="st63" d="M191.8,234.8h0.4v-0.1h-0.7v0.1l0.2,0.7h0.2L191.8,234.8z"/>
	<path class="st63" d="M191.5,235.1c0.1-0.2,0-0.4-0.2-0.4s-0.4,0.2-0.4,0.4s0,0.4,0.2,0.4S191.4,235.3,191.5,235.1z M190.9,235.1
		c0-0.1,0.1-0.2,0.2-0.2c0.1,0,0.1,0.1,0.1,0.2c0,0.1-0.1,0.2-0.2,0.2S190.8,235.2,190.9,235.1z"/>
	<path class="st63" d="M190.6,234.8c0-0.1,0-0.2-0.1-0.2c0,0,0,0-0.1,0s-0.2,0.1-0.2,0.2s0,0.1,0.1,0.2c0,0,0,0,0.1,0
		C190.5,235.1,190.6,235,190.6,234.8z M190.1,234.6H190l0.4,0.8h0.1L190.1,234.6z M190.4,234.8l0.1-0.1c0,0,0.1,0,0,0.1
		C190.5,234.8,190.4,235,190.4,234.8C190.4,235,190.4,234.8,190.4,234.8z M190.1,235.3c0-0.1,0-0.2-0.1-0.2c0,0,0,0-0.1,0
		s-0.2,0.1-0.2,0.2s0,0.1,0.1,0.2c0,0,0,0,0.1,0C189.9,235.5,190,235.4,190.1,235.3z M189.7,235.3l0.1-0.1c0,0,0.1,0,0,0.1
		C189.9,235.3,189.9,235.4,189.7,235.3C189.7,235.4,189.7,235.3,189.7,235.3L189.7,235.3z"/>
	<path class="st64" d="M199.8,250.9h3.2c0.4,0,0.9-0.3,1-0.8l1.5-5.9c0.1-0.3-0.1-0.7-0.3-0.8c-0.1,0-0.1,0-0.2,0h-3.2
		c-0.4,0-0.9,0.3-1,0.8l-1.5,5.9c-0.1,0.3,0.1,0.7,0.3,0.8C199.7,250.9,199.7,250.9,199.8,250.9z"/>
	<path class="st64" d="M194.3,250.9h3.2c0.4,0,0.9-0.3,1-0.8l1.5-5.9c0.1-0.3-0.1-0.7-0.4-0.8c-0.1,0-0.1,0-0.2,0h-3.2
		c-0.4,0-0.9,0.3-1,0.8l-1.5,5.9c-0.1,0.3,0.1,0.7,0.3,0.8C194.1,250.9,194.2,250.9,194.3,250.9z"/>
	<path class="st64" d="M189,250.9h3.2c0.4,0,0.9-0.3,1-0.8l1.5-5.9c0.1-0.3-0.1-0.7-0.3-0.8c-0.1,0-0.1,0-0.2,0H191
		c-0.4,0-0.9,0.3-1,0.8l-1.5,5.9c-0.1,0.3,0.1,0.7,0.3,0.8C188.8,250.9,188.9,250.9,189,250.9z"/>
	<path class="st64" d="M206,250.9h10.7c0.8,0,1.4-0.5,1.6-1.3l1.3-4.9c0.2-0.5-0.1-1.1-0.7-1.2c-0.1,0-0.2-0.1-0.3,0H208
		c-0.8,0-1.4,0.5-1.7,1.3l-1.2,4.8c-0.2,0.5,0.1,1.1,0.5,1.3C205.8,250.9,205.9,250.9,206,250.9z"/>
	<path class="st63" d="M208.1,245.3h10.1c0.2,0,0.3-0.1,0.4-0.3l0,0c0-0.1,0-0.2-0.1-0.3c0,0,0,0-0.1,0h-10.1
		c-0.2,0-0.3,0.1-0.4,0.3l0,0C207.9,245.1,207.9,245.2,208.1,245.3C208,245.3,208.1,245.3,208.1,245.3z"/>
	<path class="st63" d="M207.8,246.4h10.1c0.2,0,0.3-0.1,0.4-0.3l0,0c0-0.1,0-0.2-0.1-0.3c0,0,0,0-0.1,0H208c-0.2,0-0.3,0.1-0.4,0.3
		l0,0C207.6,246.2,207.7,246.4,207.8,246.4L207.8,246.4z"/>
	<path class="st63" d="M207.6,247.5h10c0.2,0,0.3-0.1,0.4-0.3l0,0c0-0.1,0-0.2-0.1-0.3c0,0,0,0-0.1,0h-10c-0.2,0-0.3,0.1-0.4,0.3
		l0,0C207.2,247.4,207.3,247.5,207.6,247.5C207.5,247.5,207.6,247.5,207.6,247.5z"/>
	<path class="st63" d="M214.9,248.8h2.4c0.2,0,0.3-0.1,0.4-0.3l0,0c0-0.1,0-0.2-0.1-0.3c0,0,0,0-0.1,0h-2.4c-0.2,0-0.3,0.1-0.4,0.3
		l0,0C214.6,248.6,214.7,248.7,214.9,248.8C214.8,248.8,214.8,248.8,214.9,248.8z"/>
	<path class="st8" d="M170.3,281.7c0,0,5.7,2.7,6,5.6c0.3,2.8-0.9,20.7-0.9,20.7s-5.9,1.1-7,0c0,0-1.5-19-1.2-19.8
		s-16.3-5.6-17.7-5.5C148.1,282.7,170.3,281.7,170.3,281.7z"/>
	<path class="st8" d="M168.9,307.9c0,0,0.3,5.4,1.4,5.5h5.5h6.8c-0.1-1.1-1-1.9-2.1-1.9c-2-0.3-5.4-1.6-6.6-4.3
		C172.7,304.6,168.9,307.9,168.9,307.9z"/>
	<path class="st8" d="M188,307.9c0,0,0.3,5.4,1.4,5.5h5.5h6.8c-0.1-1.1-1-1.9-2.1-1.9c-2-0.3-5.4-1.6-6.6-4.3
		C191.8,304.6,188,307.9,188,307.9z"/>
	<path class="st39" d="M146.4,272.1h0.1c0.1-0.5,0.5-1.1,1.1-1.3c4.2-2.3,12.1-0.8,12.1-0.8s25.7,4,28.2,7.3s6.1,31.1,6.1,31.1
		s-4.5,1.1-6.3,0.4c0,0-8.9-22-9.6-24.4c-0.7-2.1-12.9-0.5-19-1c-3.7-0.1-9.5-0.3-11-0.9C145.6,281.9,146.4,272.1,146.4,272.1z"/>
	<path class="st7" d="M155.6,242.8l2.6,3.3l4.9,0.2c0.1-0.4,0.2-2.6,0.3-4.4c0.1-1.4,0.2-2.7,0.2-2.7l-5.1-4.7c0,0-0.2,1.5-0.3,1.9
		C157.8,238.8,156.9,241,155.6,242.8z"/>
	<path class="st9" d="M162.7,241.4c-0.1,0-5.5-1.3-6-1.1s-0.9,1.3-0.9,1.3l8.7,1.4C164.2,242.4,163.5,241.7,162.7,241.4z"/>
	<path class="st7" d="M165,239.9c0,0-6.9,0.3-7.1-4.2c-0.1-4.5-1.1-7.4,3.3-7.9s5.4,1.3,5.7,2.7S166.8,239.7,165,239.9z"/>
	<path class="st8" d="M166.9,230.1c0,0-1.6,4.7-2.5,4.3s-1.7-0.9-2,0.7c-0.2,1.5,0.7,3.5-2.4,3c-3.1-0.5-5.4-9.6-4.2-10.9
		C159.3,223.5,171.6,225.8,166.9,230.1z"/>
	<path class="st62" d="M146.4,272.1c1.4,1.6,13.8,1.2,17.4-0.2c0.2-0.1,0.4-0.2,0.7-0.3c2.1-1.6-2.6-3.1,2.7-15.5l0,0
		c3.8-9-0.2-11.9-2.8-13.3c0,0-7.3-2.2-11.5-1C147.5,243.5,144.9,270.4,146.4,272.1z"/>
	<path class="st9" d="M159.5,266c0.2,1.6,1.6,5.9,4.4,5.9c0.2-0.1,0.4-0.2,0.7-0.3c2.1-1.6-2.6-3.1,2.7-15.5l0,0
		c-0.9-0.5-2.3-1.2-3.3-0.2C162.5,257.4,159.2,264.3,159.5,266z"/>
	<path class="st7" d="M185.6,266c1-0.5,2-1,3.1-1.4c0.8-0.1,4.3,2.7,3.7,3.1s-3.2-0.9-3.6-0.7s-0.7,0.9-1.1,0.9h-1.9L185.6,266z"/>
	<path class="st62" d="M164.4,242.8c0,0,5,2.5,5.7,4.9s3.1,14,4,14.9s11.7,2.7,11.7,2.7s1.2,1.3,0.9,2.6h-16.8c0,0-7.5-10.5-7-14.5
		C163.4,249.3,164.4,242.8,164.4,242.8z"/>
	<path class="st52" d="M142.1,283.1h35c0,0-0.8-2.8-21.1-2.4C141.6,280.9,142.1,283.1,142.1,283.1z"/>
	<path class="st51" d="M139.2,313.4c4-18,3.1-29.2,3.1-29.3c0-0.1,0.5-0.5,0.9-0.5c0.3,0,1.7-0.1,1.9,0.1c0.1,0.2,1,14-5,29.6
		L139.2,313.4z"/>
	<path class="st51" d="M171.9,313.4c-4-18-3.1-29.2-3.1-29.3c0-0.1-0.5-0.5-0.9-0.5s-1.7-0.1-1.9,0.1c-0.1,0.2-1,14,5,29.6
		L171.9,313.4z"/>
	<path class="st54" d="M178.4,313.4c-4-18-3.1-29.2-3.1-29.3c0-0.1-0.5-0.5-0.9-0.5c-0.3,0-1.7-0.1-1.9,0.1c-0.1,0.2-1,14,5,29.6
		L178.4,313.4z"/>
	<path class="st54" d="M145.8,313.4c4-18,3.1-29.2,3.1-29.3c0-0.1,0.5-0.5,0.9-0.5c0.3,0,1.7-0.1,1.9,0.1c0.1,0.2,1,14-5,29.6
		L145.8,313.4z"/>
	<path class="st51" d="M142.1,282.3h35.1c0.3,0,0.7,0.3,0.7,0.7v0.3c0,0.3-0.3,0.7-0.7,0.7h-35.1c-0.3,0-0.7-0.3-0.7-0.7V283
		C141.4,282.6,141.7,282.3,142.1,282.3z"/>
	<path class="st51" d="M151.7,274.4c-0.2-4.6-0.7-9.3-1.5-13.8c-1.1-5.4-2-8.5-2.1-8.5c-0.1-0.4-2.2-2.4-6.7-2.3
		c-4.5,0.1-4,2.6-4,2.6l0,0c0,0.1,0,0.1,0,0.2c2.7,9.8,4.2,20,3.9,30.3c0,0.2,0,0.7,0,1c0,0,10.4,0.2,10.4,0
		C152.2,282.2,152,278,151.7,274.4z"/>
	<path class="st39" d="M192.9,267.9c0,0-2.8-2.1-4.3-1.4c-0.8,0.2-1.3,0.8-1.7,1.4H192.9z"/>
	<path class="st18" d="M281.3,266.5c-1.1-0.3-2.3-0.4-3.5-0.3c-0.9,0.2-2.7,1.7-2.3,1.7c0.4,0,2.3-0.8,2.5-0.7
		c0.7,0.4,1.5,0.7,2.4,0.4C280.9,267.4,281.3,267,281.3,266.5z"/>
	<path class="st55" d="M293,248.2c0,0,2.6,6.7,3,10.3c0.5,5.7,0.4,9.3,0.4,9.3s-1.6,0.1-6,0s-9.3,0-9.3,0s-1.3-1.2,0.4-2.2
		c1.7-1,9.2-2.6,9-3.3l-2.7-10.6L293,248.2z"/>
	<path class="st39" d="M280.1,267.9c-0.8-0.5-1.7-0.9-2.7-0.8c-0.7,0.1-1.3,0.4-1.9,0.8H280.1z"/>
</g>
<g>
	<path class="st13" d="M39.6,219c0,0-4,3-4.8,2.8s2.9-3.2,2.9-3.2c-1.4-0.7-5.7-0.2-5.7-0.2s-1,3.7-1.7,3.3s1-3.1,1-3.1
		c-1.2,0.1-2.4,0.4-3.4,1.1c-2.6,2.1,0.2,5.3,0.2,5.3c-0.5,1.2-1.2,2.2-2.2,3.1c-1.5,1.2-2.4,3-2.5,4.9h0.4c0.4-1.5,1-3,1.9-4.3
		l0.2-0.2c0.2-0.2,0.3-0.3,0.4-0.4c0.5-0.6,1.2-1.1,1.9-1.4c0-0.1,0-0.1,0-0.2v0.2c0.1,1.6,3.3,3.1,5.2,3.4c1.9,0.3,1.3-0.5,0.7-1.7
		s-2.8-1.7-3.3-2.3s0.5-0.6,1.7,0s1.3,2,3.2,2.9s4.7-2.2,4.7-2.2c-1.5-0.1-3.6-1.7-3.6-2.2s3.6,0.9,4.2,0.9s2-0.7,2.2-3.2
		S39.6,219,39.6,219z"/>
	<path class="st12" d="M18.5,220.8c0,0,4.4-2.5,2.4-5.9c-0.9-1.1-2.1-2-3.4-2.6c0,0,0.9,5,0,5.1s-0.6-5.7-0.6-5.7s-4.6-2.2-6.5-2.1
		c0,0,2.9,4.9,1.9,4.8s-4.2-5.1-4.2-5.1s-4.7-0.9-5.5,2s0.5,4.3,1.2,4.4s5.2,0.1,5.1,0.7s-3.2,1.5-4.9,1c0,0,1.9,4.7,4.3,4.4
		s3.2-1.8,4.8-1.9s2.6,0.3,1.9,0.7s-3.4,0.1-4.6,1.2s-2.2,1.7,0.1,2.2s6.4,0.2,7.2-1.6L18.5,220.8z"/>
	<path class="st13" d="M19.6,225.2c-0.7-1.3-1.1-2.8-1.2-4.3c-1.4-4.5-13.7-8.5-13.7-8.5c15.7,6.4,12.9,10.3,12.9,10.3
		c0.6,0.7,1.2,1.5,1.5,2.3c0.1,0.1,0.2,0.4,0.3,0.7l0,0c0.1,0.1,0.1,0.2,0.1,0.3c0.8,2,0.4,5.6,0.4,5.6l0.5,0.1
		C21.1,229.4,20.8,227.1,19.6,225.2z"/>
	<path class="st12" d="M25.5,217.4c0,0-5.8-3.3-3.1-7.7c0,0,2.2-2.7,4.5-3.4c0,0-1.2,6.6,0,6.8s0.9-7.5,0.9-7.5s6.1-3,8.5-2.7
		c0,0-3.8,6.5-2.5,6.3s5.5-6.7,5.5-6.7s7.6-2.3,8.6,1.4s-2,6.8-2.9,7s-6.9,0.2-6.7,0.9s4.2,1.3,6.4,0.6c0,0-2.5,6.9-5.7,6.6
		s-4.2-2.3-6.3-2.5s-3.5,0.4-2.5,0.9s4.4,0.2,6,1.6s2.9,2.2-0.1,2.9s-8.4,0.2-9.5-2.1L25.5,217.4z"/>
	<path class="st13" d="M43.6,206.2c0,0-16.2,5.3-18.1,11.2c-0.1,2-0.6,3.9-1.5,5.7c-1.7,2.6-2.1,5.7-1.4,8.7l0.9-0.4
		c0,0-0.6-4.6,0.5-7.3l0.2-0.4l0,0c0.2-0.4,0.3-0.7,0.4-0.9c0.5-1.1,1.1-2.2,2-3.1C26.6,219.8,22.9,214.6,43.6,206.2z"/>
	<path class="st41" d="M25.3,241.8c6.3,0,11.4-5.1,11.3-11.4H13.9C13.9,236.6,19,241.7,25.3,241.8z"/>
	<path class="st65" d="M28.1,241.7c-0.5,0.1-0.9,0.1-1.4,0.1c-6.3,0-11.4-5.1-11.4-11.4h2.8C18.1,236.1,22.4,240.9,28.1,241.7z"/>
	<path class="st60" d="M36.7,230.3h-23c-0.1,0-0.2,0.1-0.2,0.1l0,0c0,0.1,0.1,0.2,0.2,0.2l0,0h23c0.1,0,0.2-0.1,0.2-0.2
		C36.9,230.4,36.8,230.3,36.7,230.3L36.7,230.3z"/>
</g>
<g>
	<g>
		<path class="st14" d="M33.7,305.9c0,0-1.7,1.9-1.4,3.2s1.9,2.3,2.1,3.9c0.2,1.6,1,2.5,1.8,2.5h3.6c0,0,0.6-1.1-0.8-1.5
			c-1.3-0.4-1.8-2.3-1.8-4c0-1.4,0-2.8-0.1-4.2l-2.9-0.8L33.7,305.9z"/>
		<path class="st14" d="M55.1,315.4c0.1,0,0.2,0.1,0.3,0.1h9.5c-0.2-0.8-0.8-1.4-1.5-1.4c-1.5-0.3-4.1-1.3-4.7-3.6
			c0-0.1,0-0.1,0-0.2c-0.5-2.4-3.8,0.7-3.8,0.7s0,0.1,0,0.3C54.7,312.1,54.5,315,55.1,315.4z"/>
		<path class="st11" d="M62.9,250.5c0,0-0.5,7.5-1.1,16.5c-0.8,12.3-1.8,27.3-1.9,30.2c-0.2,4.9-0.8,12.9-0.8,12.9s-1.6,1.9-4.8,1.1
			c-1.8-7.6-3-15.4-3.7-23.3c0-0.2,0-0.4,0-0.6c-0.8-12.2-1.9-37.8-1.9-37.8L62.9,250.5z"/>
		<path class="st14" d="M62.9,250.5c0,0-0.5,7.5-1.1,16.5l-11.2,20.9c0-0.2,0-0.4,0-0.6c-0.8-12.2-1.9-37.8-1.9-37.8L62.9,250.5z"/>
		<path class="st11" d="M60.6,251.4c0,0-9.2,27.2-15.3,40s-7.9,16.3-7.9,16.3s-3.5-1.6-3.8-2.7c0,0,2.3-24.7,6.4-30.7
			c2.3-3.4,5-13.6,5.1-17.2s0.8-10.6,0.8-10.6L60.6,251.4z"/>
	</g>
	<g>
		<path class="st18" d="M86.6,230.4c0,0,0.8-2.4,2.2-2.8c1.4-0.4,2.5-2.6,2.9-1.9c0.4,0.7-0.6,4.7-1.7,5.1c-0.6,0.2-1.1,0.5-1.6,0.9
			L86.6,230.4z"/>
		<path class="st14" d="M61.9,220.7c2.5,1.5,9.7,12.8,12.6,15.7l12.2-7c1,0.5,1.8,1.3,2.2,2.3c0,0-8.3,12.7-15.2,12.6
			c-6.9,0-14.8-17.4-14.8-17.4S60.9,220.1,61.9,220.7z"/>
		<path class="st11" d="M92.4,224l-1.5-0.9c-0.1-0.1-0.2,0-0.3,0.1l-3.3,5.1c-0.1,0.1,0,0.2,0.1,0.3l1.5,0.9c0.1,0.1,0.2,0,0.3-0.1
			l3.3-5.1C92.5,224.2,92.5,224.1,92.4,224z"/>
		<path class="st14" d="M93.1,224.4l-0.9-0.5c-0.1,0-0.2,0-0.2,0.1l-3.4,5.2c0,0.1,0,0.2,0.1,0.2l0.9,0.5c0.1,0,0.2,0,0.2-0.1
			l3.4-5.2C93.2,224.6,93.2,224.5,93.1,224.4z"/>
	</g>
	<g>
		<path class="st18" d="M59.6,218l-0.1,0.7c0,0,0,2.3-3,2.4s-5.3-0.2-5.1-2c0.5-1.5,0.9-3,1.2-4.6c0.1-0.5,0.1-0.9,0-1.4l5.7,0.4
			L60,214L59.6,218z"/>
		<path class="st66" d="M60,214l-0.4,4c-0.9-0.1-1.7-0.3-2.5-0.6c-2.8-1.4-4.4-3.6-4.4-4.1l5.7,0.4L60,214z"/>
		<path class="st18" d="M52.4,212.2c0.3,3.5,4.9,3.8,6.9,3.7c0.3,0,0.6,0,0.9,0c0.6-0.1,1.1-1,1.3-2.3c0.5-2.3,0.6-4.7,0.2-7.1
			c-0.5-1.5-1.6-3.1-6.3-2.4S52.1,207.8,52.4,212.2z"/>
		<path class="st14" d="M63.5,203.4c-1.5-0.3-2.9-0.8-4.3-1.6c-1.8-1-4.4-0.3-5.2,0c0-0.2,0.1-0.3,0.2-0.4c-0.2,0.1-0.4,0.3-0.5,0.6
			l0,0c-0.2-0.1-0.4-0.1-0.7-0.1c0,0,0.2,0,0.2,0.1l0,0c-3.2,1.1-3.9,5.8-3,6.9c0.9,1.4,1.6,2.9,2.1,4.4c0.4-0.5,0.6-1.2,0.5-1.8
			c-0.1-1.1,0.9-1.1,2.2-1.5s0.4-1.9,1.6-2.7c1.2-0.8,5.2,0.1,5.3-0.6C63.6,206.6,63.5,203.6,63.5,203.4z"/>
		<path class="st42" d="M50.7,220.1L48.5,259c0,0,14.4,1.5,14.3-1.9c-0.1-3.4-1.7-34.8-1.7-34.8L50.7,220.1z"/>
		<path class="st67" d="M43.4,241.7c0.6,2.8-2.5,11.5-3.4,14.5l-0.3,1c1.8,3.6,9.7,4.2,9.7,4.2c1.7-5.5,3-11,4-16.6L50,218.6
			c0,0-8.6,7.3-9.8,10s3.5,0.1,3.8,4.5C44,235.8,44,239.6,43.4,241.7z"/>
		<path class="st67" d="M64.2,223.1c0,0,0.7,24.2,0.8,24.7c0.1,4.3,0.2,8.3-0.3,10c-0.9,3-3.7,3.8-3.7,3.5c0-0.1,0.1-11.2,0.2-17
			c0-8.3-0.5-17.2-1.5-25.4C61.8,219.4,63.1,221.8,64.2,223.1z"/>
		<path class="st68" d="M50.4,218.5c0-0.4,1.9-0.7,1.9-0.7c1.1,1.8,3,3,5.2,3.3c-0.6,0.9-1.4,1.6-2.3,2.1
			C55.1,223.2,50.3,220.7,50.4,218.5z"/>
		<path class="st68" d="M57.5,221c0,0,1.9-0.9,2-2c0,0,1.2,0,1.6,0.6c0.1,1,0,2.1-0.4,3C60.7,222.6,58.1,222,57.5,221z"/>
		<path class="st69" d="M56.3,220.8l2.5-0.3c0,0,0.3,0,0.3,0.4c-0.2,0.6-0.6,1.1-1.1,1.5C57.6,222.5,55.6,221.5,56.3,220.8z"/>
		<path class="st42" d="M50.7,218.4c0-0.4,1.3-1,1.3-1c1.3,1.7,3.3,2.9,5.5,3.2c-0.6,0.9-1.4,1.6-2.3,2.1
			C55.2,222.7,50.6,220.6,50.7,218.4z"/>
		<path class="st42" d="M57.5,220.6c0,0,1.9-0.8,2-1.9c0.6,0.3,1.1,0.7,1.5,1.2c0.2,0.8,0.1,1.6-0.3,2.3
			C60.7,222.2,58.2,221.6,57.5,220.6z"/>
		<path class="st38" d="M59.6,247.7c-0.2,0.9-0.7,1.7-1.4,2.3l-1.2,0.9c-0.3,0.2-0.7,0.2-0.9-0.1l0,0l-1.2-1.8
			c-0.3-0.5-0.4-1.1-0.3-1.6c0.3-1.2,0.7-3.6,1.2-5.9c0.3-1.9,0.6-3.7,0.8-4.8c0.4-3.6,0.8-15,0.8-15l0.9,0.1
			c1.2,3.5,1.9,7,2.2,10.7c0.1,1.6,0.2,3.2,0.1,4.7C60.4,240.7,60.1,244.2,59.6,247.7z"/>
		<path class="st69" d="M59.6,247.7c-0.2,0.9-0.7,1.7-1.4,2.3l-1.2,0.9c-0.3,0.2-0.7,0.2-0.9-0.1l0,0l-1.2-1.8
			c-0.3-0.5-0.4-1.1-0.3-1.6c0.3-1.2,0.7-3.6,1.2-5.9c2.7-2.4,4-6,4.7-8.9c0.1,1.6,0.2,3.2,0.1,4.7
			C60.5,240.7,60.1,244.2,59.6,247.7z"/>
		<path class="st14" d="M39.9,256.5c2.4-2,6.7-6.1,7-9.8c0.3-5.1-3.1-13.4-3.1-13.4c0.1,2.8,0,5.6-0.7,8.5
			C42.4,245.4,40.9,253.5,39.9,256.5z"/>
		<path class="st14" d="M52,217.4c0,0,2.8,20.1,1.3,27.4c-0.7-5.2-2.3-10.3-4.6-15c0,0,1.7-1.2,1.7-1.7c-0.7-0.3-1.5-0.4-2.3-0.3
			c0,0,1-8.5,1.8-9.3C50.5,218,51.2,217.6,52,217.4z"/>
		<path class="st14" d="M59.6,218.5c-0.1-0.1,2.5,20,2.2,26.2c0,0,0.7-11.2,1-14.4c0,0-1.4-1.2-1.4-1.6c0-0.4,1.8-1.1,1.8-1.1
			s-0.5-6.1-1.1-6.9C61.5,220,60.5,218.7,59.6,218.5z"/>
	</g>
	<g>
		<path class="st14" d="M26.5,270.3l-0.2-8.5c-0.1-2.6,1.2-4.5,2.8-4.3l4.2,0.6v-1.8c0-0.8,0.4-1.5,0.9-1.4l3.6,0.5
			c0.5,0.1,1,0.8,1,1.7v1.8l2.4,0.3c0.1,0,0.2,0,0.3,0.1l1.3,0.2c1.6,0.2,2.9,2.4,3,5L46,273c0,2.5-1.2,4.4-2.8,4.2l-1-0.1
			c-0.2,0.1-0.4,0.1-0.6,0.1l-12.2-1.6C27.9,275.1,26.6,272.8,26.5,270.3z M37.9,256.2l-3.6-0.5h-0.1c-0.1,0.1-0.2,0.3-0.2,0.5v1.8
			l4.4,0.6l-0.1-1.8C38.2,256.5,38.1,256.2,37.9,256.2L37.9,256.2z"/>
		<path class="st18" d="M37.4,251.9l-0.4,0.9c0.6,0.9,0.4,2.2-0.6,2.8c-0.1,0.1-0.3,0.2-0.5,0.2c0,0-1.1,0.4-1.2-0.3s0-0.4-0.2-1.4
			c-0.3-0.8,0-1.7,0.8-2.2l0.6-0.6L37.4,251.9z"/>
		<path class="st67" d="M36,252.3c0.7,0,1.4,0,2.1-0.1c0,0,2.1-10.3,2.4-11.1c0.3-0.8,7.9-10,7.9-10l-3.6-7.9
			c0,0-10.1,11.3-10.8,13.5c-1.2,3.6,0.5,15.3,0.5,15.3C35,252.1,35.5,252.3,36,252.3z"/>
	</g>
</g>
</svg>
