<svg width="119" height="93" viewBox="0 0 119 93" fill="none" xmlns="http://www.w3.org/2000/svg">
<path d="M115.991 57.9229C117.693 56.4927 118.666 54.3474 118.666 51.7254C118.666 47.1964 115.019 43.6209 110.398 43.6209C108.939 43.6209 105.535 43.6209 101.644 43.8593C97.7536 43.8593 93.6197 44.0977 92.1607 44.0977C91.6744 44.0977 91.4312 44.0977 91.4312 43.8593C91.1881 43.6209 91.188 43.6209 91.188 43.3826C92.6471 37.6618 94.1061 30.5108 94.5924 27.8888C95.5651 23.5982 92.8902 19.7844 88.27 18.5925C83.6498 17.1623 79.2728 19.3076 77.5706 22.8831C75.3821 28.3655 67.8439 41.714 60.0625 46.4813C59.8194 46.4813 59.8194 46.7197 59.8194 46.7197C58.6035 45.7662 57.1445 45.2895 55.6855 45.2895H55.4423C56.6582 42.1907 57.6309 38.6153 57.6309 35.0398V16.924C57.6309 15.4938 56.415 14.3019 54.956 14.0636C36.9616 12.1567 31.855 2.14529 31.6119 1.66856C31.1255 0.715099 30.1528 0 28.937 0C27.7212 0 26.7485 0.715099 26.2622 1.66856C26.019 2.14529 20.6693 12.1567 2.91802 14.0636C1.21584 14.3019 0 15.4938 0 16.924V35.0398C0 56.4927 26.2622 69.8412 27.2348 70.5563C27.7212 70.7946 28.2075 71.033 28.6938 71.033C29.1802 71.033 29.6665 70.7946 30.1528 70.5563C30.6392 70.3179 33.8004 68.6493 37.9342 65.789V82.7129C37.9342 86.5268 41.0954 89.6255 44.9861 89.6255H55.9287C57.874 89.6255 59.5762 88.9104 60.792 87.4802C64.4395 89.8639 70.5188 92.0092 77.3275 92.0092H106.021C110.642 92.0092 114.289 88.4337 114.289 83.9048C114.289 82.2362 113.803 80.5676 112.83 79.3758C114.532 77.9456 115.505 75.8003 115.505 73.1783C115.505 71.5097 115.019 69.8412 114.046 68.6493C115.748 67.2192 116.721 65.0739 116.721 62.4518C117.45 60.5449 116.964 59.1147 115.991 57.9229ZM27.2348 44.336C26.5053 45.0511 25.7758 45.2895 25.0463 45.2895C24.3168 45.2895 23.5873 45.0511 22.8578 44.336L15.5628 37.1851L19.6966 33.1328L25.0463 38.3769L37.6911 25.9819L41.8249 30.0341L27.2348 44.336ZM57.1445 82.4746C57.1445 83.1896 56.6582 83.6664 55.9287 83.6664H44.9861C44.2566 83.6664 43.7703 83.1896 43.7703 82.4746V52.2021C43.7703 51.487 44.2566 51.0103 44.9861 51.0103H55.9287C56.6582 51.0103 57.1445 51.487 57.1445 52.2021V82.4746ZM110.398 54.109H106.994C105.292 54.109 104.076 55.3009 104.076 56.9694C104.076 58.638 105.292 59.8298 106.994 59.8298H109.182C110.642 59.8298 111.614 61.0216 111.614 62.2135C111.614 63.6437 110.398 64.5971 109.182 64.5971H105.778C104.076 64.5971 102.86 65.789 102.86 67.4575C102.86 69.1261 104.076 70.3179 105.778 70.3179H107.723C109.182 70.3179 110.155 71.5097 110.155 72.7016C110.155 74.1318 108.939 75.0852 107.723 75.0852H104.319C102.617 75.0852 101.401 76.2771 101.401 77.9456C101.401 79.6142 102.617 80.806 104.319 80.806H106.508C107.967 80.806 108.939 81.9978 108.939 83.1897C108.939 84.6198 107.723 85.5733 106.508 85.5733H77.5706C69.5461 85.5733 64.1964 82.2362 62.9805 81.0444V51.487C62.9805 51.2486 63.2237 51.0103 63.4669 50.7719C73.4368 44.8128 81.4613 29.319 83.4067 24.3133C83.893 23.1215 85.5952 22.8831 87.0542 23.3599C88.0269 23.5982 89.4859 24.3133 89.2427 26.2202C88.7564 28.1272 87.5405 33.3712 85.8384 41.4756C85.352 43.3826 85.8384 45.0511 87.0542 46.7197C88.27 48.1499 89.9722 49.1033 91.9176 49.1033C93.3766 49.1033 97.7536 49.1033 101.887 48.865C105.535 48.865 109.182 48.6266 110.398 48.6266C111.857 48.6266 112.83 49.8184 112.83 51.0103C112.83 53.1556 111.857 54.109 110.398 54.109Z" fill="#373334"/>
</svg>
